<?xml version="1.0" standalone="no"?>
<!DOCTYPE svg PUBLIC "-//W3C//DTD SVG 20010904//EN"
 "http://www.w3.org/TR/2001/REC-SVG-20010904/DTD/svg10.dtd">
<svg version="1.0" xmlns="http://www.w3.org/2000/svg"
 width="512.000000pt" height="512.000000pt" viewBox="0 0 512.000000 512.000000"
 preserveAspectRatio="xMidYMid meet">
<metadata>
Created by potrace 1.11, written by Peter Selinger 2001-2013
</metadata>
<g transform="translate(0.000000,512.000000) scale(0.100000,-0.100000)"
fill="#000000" stroke="none">
<path d="M2104 4555 c-269 -212 -496 -391 -504 -398 -8 -7 -69 -55 -135 -106
-66 -52 -124 -99 -130 -103 -5 -5 -48 -38 -95 -74 -47 -37 -101 -79 -120 -95
-19 -15 -114 -90 -210 -165 -96 -76 -236 -186 -310 -245 -74 -58 -184 -146
-245 -193 -60 -48 -121 -96 -135 -107 -14 -11 -62 -48 -107 -82 -45 -34 -82
-66 -82 -72 -1 -5 34 -50 75 -100 42 -49 119 -140 171 -202 l95 -112 138 104
c76 58 140 105 143 105 3 0 8 -19 12 -42 4 -24 9 -52 12 -63 5 -24 20 -109 33
-185 6 -30 12 -66 15 -80 3 -14 12 -65 20 -115 9 -49 22 -124 30 -165 20 -107
103 -601 111 -665 2 -16 6 -39 8 -50 3 -11 12 -67 21 -125 8 -58 17 -116 19
-130 5 -27 16 -108 22 -153 2 -15 5 -44 8 -65 14 -98 29 -264 27 -294 -1 -16
2 -29 6 -29 5 -1 722 -2 1596 -3 1405 -1 1587 1 1588 14 2 40 17 199 24 255 3
17 9 68 15 115 13 99 13 103 34 240 14 91 29 181 52 320 3 19 7 48 9 63 2 16
6 40 9 55 3 15 8 43 11 62 3 19 10 58 15 85 5 28 12 68 15 90 3 22 7 47 10 55
2 8 6 33 9 55 4 22 11 63 16 90 5 28 12 64 15 80 2 17 9 55 14 85 6 30 12 69
15 85 2 17 9 55 15 85 15 81 20 105 38 213 10 53 21 97 25 97 4 0 16 -7 25
-15 83 -68 160 -125 170 -125 6 0 13 4 15 9 2 5 35 44 74 87 209 232 274 308
272 314 -2 4 -253 207 -558 450 -708 565 -744 594 -750 601 -3 3 -23 18 -45
35 -43 32 -65 49 -98 78 -12 10 -38 30 -57 45 -19 14 -37 28 -40 31 -3 3 -25
21 -50 40 -25 19 -47 37 -50 40 -7 7 -145 117 -196 156 -22 17 -49 38 -60 47
-10 9 -73 59 -139 112 -66 53 -127 101 -135 108 -117 94 -293 233 -299 235 -5
1 -228 -171 -497 -383z m621 -1316 c221 -66 370 -218 435 -443 14 -49 18 -90
15 -168 -3 -115 -7 -136 -36 -211 -117 -300 -424 -458 -744 -383 -93 21 -215
93 -291 172 -59 61 -136 191 -149 251 -2 10 -8 40 -15 68 -14 62 -11 196 5
253 7 23 11 42 10 42 -8 0 48 115 79 163 145 224 436 332 691 256z"/>
</g>
</svg>
