<svg xmlns="http://www.w3.org/2000/svg" width="132" height="44" viewBox="0 0 132 44" fill="none"><style>.a{fill:white;}</style><g clip-path="url(#clip0)"><path d="M121.1 0H10.5C10.1 0 9.7 0 9.3 0 8.9 0 8.6 0 8.3 0 7.5 0 6.8 0.1 6.1 0.2 5.3 0.3 4.6 0.6 4 0.9 3.3 1.2 2.7 1.7 2.2 2.2 1.7 2.7 1.2 3.3 0.9 4 0.6 4.6 0.3 5.3 0.2 6.1 0.1 6.8 0 7.5 0 8.3 0 8.6 0 9 0 9.3V34.7C0 35.1 0 35.4 0 35.7 0 36.5 0.1 37.2 0.2 37.9 0.3 38.7 0.6 39.4 0.9 40 1.2 40.7 1.7 41.3 2.2 41.8 2.7 42.3 3.3 42.8 4 43.1 4.6 43.4 5.3 43.7 6.1 43.8 6.8 43.9 7.5 44 8.3 44 8.6 44 8.9 44 9.3 44 9.7 44 10.1 44 10.5 44H121.1C121.5 44 121.9 44 122.3 44 122.7 44 123 44 123.4 44 124.1 44 124.8 43.9 125.6 43.8 126.3 43.7 127 43.4 127.7 43.1 128.3 42.8 128.9 42.3 129.4 41.8 130 41.3 130.4 40.7 130.7 40 131.1 39.4 131.3 38.7 131.4 37.9 131.5 37.2 131.6 36.5 131.6 35.7 131.6 35.4 131.6 35.1 131.6 34.7 131.6 34.3 131.6 33.9 131.6 33.5V10.5C131.6 10.1 131.6 9.7 131.6 9.3 131.6 9 131.6 8.6 131.6 8.3 131.6 7.5 131.5 6.8 131.4 6.1 131.3 5.3 131.1 4.6 130.7 4 130.1 2.7 129 1.6 127.7 0.9 127 0.6 126.3 0.3 125.6 0.2 124.8 0.1 124.1 0 123.4 0 123 0 122.7 0 122.3 0 121.9 0 121.5 0 121.1 0V0Z" fill="#A6A6A6"/><path d="M9.3 43C9 43 8.6 43 8.3 43 7.6 43 6.9 43 6.2 42.8 5.6 42.7 5 42.5 4.4 42.2 3.8 42 3.3 41.6 2.9 41.1 2.4 40.7 2 40.2 1.8 39.6 1.5 39 1.3 38.4 1.2 37.8 1 37.1 1 36.4 1 35.7 1 35.5 1 34.7 1 34.7V9.3C1 9.3 1 8.5 1 8.3 1 7.6 1 6.9 1.2 6.2 1.3 5.6 1.5 5 1.8 4.4 2 3.8 2.4 3.3 2.9 2.9 3.3 2.4 3.8 2 4.4 1.8 5 1.5 5.6 1.3 6.2 1.2 6.9 1 7.6 1 8.3 1L9.3 1H122.3L123.3 1C124 1 124.7 1 125.4 1.2 126 1.3 126.6 1.5 127.2 1.8 128.4 2.3 129.3 3.3 129.9 4.4 130.2 5 130.4 5.6 130.5 6.2 130.6 6.9 130.6 7.6 130.7 8.3 130.7 8.6 130.7 9 130.7 9.3 130.7 9.7 130.7 10.1 130.7 10.5V33.5C130.7 33.9 130.7 34.3 130.7 34.7 130.7 35.1 130.7 35.4 130.7 35.7 130.6 36.4 130.6 37.1 130.5 37.8 130.4 38.4 130.2 39 129.9 39.6 129.6 40.2 129.2 40.7 128.8 41.1 128.3 41.6 127.8 42 127.2 42.2 126.6 42.5 126 42.7 125.4 42.8 124.7 43 124 43 123.3 43 123 43 122.7 43 122.3 43L121.1 43 9.3 43Z" fill="black"/><path d="M27.2 22.3C27.3 21.4 27.5 20.5 28 19.7 28.4 18.9 29.1 18.2 29.8 17.8 29.3 17.1 28.7 16.5 27.9 16.1 27.2 15.6 26.3 15.4 25.4 15.4 23.6 15.2 21.8 16.5 20.9 16.5 19.9 16.5 18.5 15.4 16.9 15.4 15.9 15.5 14.9 15.8 14 16.3 13.2 16.8 12.5 17.6 12 18.4 9.9 22.1 11.4 27.5 13.5 30.5 14.5 32 15.7 33.6 17.2 33.5 18.8 33.5 19.3 32.6 21.2 32.6 23 32.6 23.5 33.5 25.1 33.5 26.8 33.5 27.8 32 28.8 30.6 29.5 29.5 30.1 28.4 30.5 27.2 29.5 26.8 28.7 26.1 28.1 25.2 27.6 24.4 27.2 23.4 27.2 22.3Z" class="a"/><path d="M24.2 13.4C25.1 12.4 25.6 11 25.5 9.6 24.1 9.7 22.8 10.4 21.9 11.4 21.5 11.9 21.2 12.5 20.9 13.1 20.7 13.8 20.6 14.4 20.7 15.1 21.4 15.1 22 15 22.7 14.7 23.3 14.4 23.8 14 24.2 13.4Z" class="a"/><path d="M46.5 29.9H41.3L40.1 33.5H37.9L42.8 19.9H45.1L50 33.5H47.8L46.5 29.9ZM41.9 28.1H46L44 22.2H43.9L41.9 28.1Z" class="a"/><path d="M60.7 28.6C60.7 31.7 59 33.6 56.5 33.6 55.9 33.7 55.3 33.5 54.7 33.2 54.1 32.9 53.7 32.5 53.4 31.9H53.3V36.8H51.3V23.6H53.3V25.2H53.3C53.6 24.7 54.1 24.2 54.7 23.9 55.2 23.6 55.8 23.5 56.5 23.5 59 23.5 60.7 25.5 60.7 28.6ZM58.6 28.6C58.6 26.6 57.5 25.2 55.9 25.2 54.4 25.2 53.3 26.6 53.3 28.6 53.3 30.6 54.4 31.9 55.9 31.9 57.5 31.9 58.6 30.6 58.6 28.6Z" class="a"/><path d="M71.6 28.6C71.6 31.7 70 33.6 67.5 33.6 66.8 33.7 66.2 33.5 65.7 33.2 65.1 32.9 64.7 32.5 64.3 31.9H64.3V36.8H62.3V23.6H64.2V25.2H64.3C64.6 24.7 65.1 24.2 65.6 23.9 66.2 23.6 66.8 23.5 67.4 23.5 70 23.5 71.6 25.5 71.6 28.6ZM69.5 28.6C69.5 26.6 68.5 25.2 66.9 25.2 65.3 25.2 64.3 26.6 64.3 28.6 64.3 30.6 65.3 31.9 66.9 31.9 68.5 31.9 69.5 30.6 69.5 28.6H69.5Z" class="a"/><path d="M78.9 29.7C79 31.1 80.3 32 82.1 32 83.9 32 85.1 31.1 85.1 29.9 85.1 28.8 84.4 28.2 82.6 27.7L80.8 27.3C78.3 26.7 77.1 25.5 77.1 23.6 77.1 21.3 79.2 19.7 82.1 19.7 85 19.7 87 21.3 87.1 23.6H85C84.9 22.3 83.7 21.4 82.1 21.4 80.4 21.4 79.3 22.3 79.3 23.5 79.3 24.5 80 25 81.8 25.5L83.3 25.8C86.1 26.5 87.3 27.6 87.3 29.6 87.3 32.2 85.2 33.8 82 33.8 79 33.8 76.9 32.2 76.8 29.7L78.9 29.7Z" class="a"/><path d="M91.7 21.2V23.6H93.6V25.2H91.7V30.7C91.7 31.5 92.1 31.9 92.9 31.9 93.1 31.9 93.3 31.9 93.6 31.9V33.5C93.2 33.6 92.8 33.6 92.4 33.6 90.4 33.6 89.6 32.8 89.6 30.9V25.2H88.2V23.6H89.6V21.2H91.7Z" class="a"/><path d="M94.7 28.6C94.7 25.4 96.5 23.5 99.4 23.5 102.3 23.5 104.1 25.4 104.1 28.6 104.1 31.7 102.3 33.7 99.4 33.7 96.5 33.7 94.7 31.7 94.7 28.6ZM102 28.6C102 26.4 101.1 25.1 99.4 25.1 97.7 25.1 96.8 26.4 96.8 28.6 96.8 30.7 97.7 32 99.4 32 101.1 32 102 30.7 102 28.6H102Z" class="a"/><path d="M105.8 23.6H107.8V25.3H107.8C107.9 24.8 108.2 24.3 108.7 24 109.1 23.6 109.7 23.5 110.2 23.5 110.4 23.5 110.7 23.5 110.9 23.6V25.5C110.6 25.4 110.3 25.3 110 25.3 109.7 25.3 109.4 25.4 109.1 25.5 108.8 25.6 108.6 25.8 108.4 26 108.2 26.2 108 26.5 107.9 26.8 107.8 27 107.8 27.3 107.8 27.6V33.5H105.8L105.8 23.6Z" class="a"/><path d="M120.3 30.6C120 32.4 118.3 33.7 116 33.7 113.1 33.7 111.3 31.7 111.3 28.6 111.3 25.5 113.1 23.5 115.9 23.5 118.7 23.5 120.4 25.4 120.4 28.4V29.1H113.4V29.2C113.4 29.6 113.4 29.9 113.5 30.3 113.7 30.6 113.9 30.9 114.1 31.2 114.4 31.5 114.7 31.7 115 31.8 115.3 32 115.7 32 116.1 32 116.6 32.1 117.1 32 117.5 31.7 117.9 31.4 118.2 31.1 118.4 30.6L120.3 30.6ZM113.4 27.6H118.4C118.4 27.3 118.4 27 118.2 26.7 118.1 26.4 118 26.1 117.7 25.9 117.5 25.6 117.2 25.4 116.9 25.3 116.6 25.2 116.3 25.1 115.9 25.1 115.6 25.1 115.3 25.2 115 25.3 114.7 25.4 114.4 25.6 114.2 25.9 113.9 26.1 113.7 26.4 113.6 26.7 113.5 27 113.4 27.3 113.4 27.6V27.6Z" class="a"/><path d="M41.6 9.6C42 9.6 42.5 9.6 42.9 9.8 43.3 10 43.6 10.2 43.9 10.5 44.2 10.8 44.4 11.2 44.6 11.6 44.7 12 44.8 12.4 44.7 12.9 44.7 15 43.6 16.2 41.6 16.2H39.2V9.6H41.6ZM40.3 15.2H41.5C41.8 15.3 42.1 15.2 42.4 15.1 42.7 15 42.9 14.8 43.1 14.6 43.3 14.3 43.5 14.1 43.6 13.8 43.7 13.5 43.7 13.2 43.7 12.9 43.7 12.6 43.7 12.3 43.6 12 43.5 11.7 43.3 11.4 43.1 11.2 42.9 11 42.7 10.8 42.4 10.7 42.1 10.6 41.8 10.5 41.5 10.5H40.3V15.2Z" class="a"/><path d="M45.8 13.7C45.8 13.4 45.9 13 46 12.7 46.1 12.4 46.2 12.1 46.4 11.9 46.7 11.6 46.9 11.5 47.2 11.3 47.5 11.2 47.9 11.1 48.2 11.1 48.5 11.1 48.8 11.2 49.1 11.3 49.4 11.5 49.7 11.6 49.9 11.9 50.1 12.1 50.3 12.4 50.4 12.7 50.5 13 50.6 13.4 50.5 13.7 50.6 14 50.5 14.3 50.4 14.7 50.3 15 50.1 15.3 49.9 15.5 49.7 15.7 49.4 15.9 49.1 16.1 48.8 16.2 48.5 16.3 48.2 16.3 47.9 16.3 47.5 16.2 47.2 16.1 46.9 15.9 46.7 15.7 46.4 15.5 46.2 15.3 46.1 15 46 14.7 45.9 14.3 45.8 14 45.8 13.7ZM49.5 13.7C49.5 12.6 49 12 48.2 12 47.3 12 46.9 12.6 46.9 13.7 46.9 14.8 47.3 15.4 48.2 15.4 49 15.4 49.5 14.8 49.5 13.7H49.5Z" class="a"/><path d="M56.7 16.2H55.7L54.7 12.5H54.6L53.6 16.2H52.6L51.2 11.2H52.2L53.1 15H53.2L54.2 11.2H55.1L56.2 15H56.2L57.1 11.2H58.1L56.7 16.2Z" class="a"/><path d="M59.2 11.2H60.2V12H60.3C60.4 11.7 60.6 11.5 60.9 11.3 61.1 11.2 61.4 11.1 61.7 11.1 62 11.1 62.2 11.1 62.4 11.2 62.7 11.3 62.9 11.5 63 11.6 63.2 11.8 63.3 12 63.4 12.2 63.5 12.5 63.5 12.7 63.4 13V16.2H62.5V13.2C62.5 12.4 62.1 12 61.4 12 61.2 12 61.1 12 60.9 12.1 60.8 12.2 60.6 12.3 60.5 12.4 60.4 12.5 60.3 12.6 60.3 12.8 60.2 12.9 60.2 13.1 60.2 13.3V16.2H59.2L59.2 11.2Z" class="a"/><path d="M65 9.3H66V16.2H65V9.3Z" class="a"/><path d="M67.3 13.7C67.3 13.4 67.3 13 67.4 12.7 67.6 12.4 67.7 12.1 67.9 11.9 68.2 11.6 68.4 11.5 68.7 11.3 69 11.2 69.3 11.1 69.7 11.1 70 11.1 70.3 11.2 70.6 11.3 70.9 11.5 71.2 11.6 71.4 11.9 71.6 12.1 71.8 12.4 71.9 12.7 72 13 72 13.4 72 13.7 72 14 72 14.3 71.9 14.7 71.8 15 71.6 15.3 71.4 15.5 71.2 15.7 70.9 15.9 70.6 16.1 70.3 16.2 70 16.3 69.7 16.3 69.3 16.3 69 16.2 68.7 16.1 68.4 15.9 68.2 15.7 67.9 15.5 67.7 15.3 67.6 15 67.4 14.7 67.3 14.3 67.3 14 67.3 13.7ZM71 13.7C71 12.6 70.5 12 69.7 12 68.8 12 68.3 12.6 68.3 13.7 68.3 14.8 68.8 15.4 69.7 15.4 70.5 15.4 71 14.8 71 13.7H71Z" class="a"/><path d="M73 14.8C73 13.9 73.7 13.4 74.9 13.3L76.2 13.2V12.8C76.2 12.3 75.9 12 75.2 12 74.7 12 74.3 12.2 74.2 12.5H73.2C73.3 11.7 74.1 11.1 75.3 11.1 76.5 11.1 77.2 11.7 77.2 12.8V16.2H76.3V15.5H76.2C76 15.7 75.8 15.9 75.5 16.1 75.3 16.2 75 16.3 74.7 16.2 74.5 16.3 74.3 16.2 74.1 16.2 73.9 16.1 73.7 16 73.5 15.9 73.4 15.7 73.3 15.6 73.2 15.4 73.1 15.2 73 15 73 14.8ZM76.2 14.3V13.9L75 14C74.3 14.1 74 14.3 74 14.7 74 15.2 74.4 15.4 74.9 15.4 75.1 15.4 75.3 15.4 75.4 15.4 75.6 15.3 75.7 15.3 75.8 15.2 75.9 15.1 76 14.9 76.1 14.8 76.2 14.7 76.2 14.5 76.2 14.3Z" class="a"/><path d="M78.5 13.7C78.5 12.1 79.3 11.1 80.5 11.1 80.8 11.1 81.2 11.2 81.4 11.3 81.7 11.5 81.9 11.7 82.1 12H82.1V9.3H83.1V16.2H82.2V15.4H82.1C81.9 15.7 81.7 15.9 81.4 16 81.2 16.2 80.9 16.3 80.5 16.2 79.3 16.2 78.5 15.3 78.5 13.7ZM79.5 13.7C79.5 14.7 80 15.4 80.8 15.4 81.6 15.4 82.1 14.7 82.1 13.7 82.1 12.7 81.6 12 80.8 12 80 12 79.5 12.6 79.5 13.7H79.5Z" class="a"/><path d="M87.2 13.7C87.1 13.4 87.2 13 87.3 12.7 87.4 12.4 87.5 12.1 87.8 11.9 88 11.6 88.2 11.5 88.5 11.3 88.8 11.2 89.2 11.1 89.5 11.1 89.8 11.1 90.1 11.2 90.4 11.3 90.7 11.5 91 11.6 91.2 11.9 91.4 12.1 91.6 12.4 91.7 12.7 91.8 13 91.9 13.4 91.8 13.7 91.9 14 91.8 14.3 91.7 14.7 91.6 15 91.4 15.3 91.2 15.5 91 15.7 90.7 15.9 90.4 16.1 90.1 16.2 89.8 16.3 89.5 16.3 89.2 16.3 88.8 16.2 88.5 16.1 88.2 15.9 88 15.7 87.8 15.5 87.5 15.3 87.4 15 87.3 14.7 87.2 14.3 87.1 14 87.2 13.7ZM90.8 13.7C90.8 12.6 90.3 12 89.5 12 88.6 12 88.2 12.6 88.2 13.7 88.2 14.8 88.6 15.4 89.5 15.4 90.3 15.4 90.8 14.8 90.8 13.7Z" class="a"/><path d="M93.1 11.2H94.1V12H94.2C94.3 11.7 94.5 11.5 94.7 11.3 95 11.2 95.3 11.1 95.6 11.1 95.9 11.1 96.1 11.1 96.3 11.2 96.6 11.3 96.8 11.5 96.9 11.6 97.1 11.8 97.2 12 97.3 12.2 97.4 12.5 97.4 12.7 97.3 13V16.2H96.4V13.2C96.4 12.4 96 12 95.3 12 95.1 12 95 12 94.8 12.1 94.7 12.2 94.5 12.3 94.4 12.4 94.3 12.5 94.2 12.6 94.2 12.8 94.1 12.9 94.1 13.1 94.1 13.3V16.2H93.1V11.2Z" class="a"/><path d="M102.9 10V11.2H103.9V12.1H102.9V14.6C102.9 15.1 103.1 15.4 103.6 15.4 103.7 15.4 103.8 15.3 103.9 15.3V16.1C103.8 16.2 103.6 16.2 103.4 16.2 102.3 16.2 101.9 15.8 101.9 14.9V12.1H101.1V11.2H101.9V10H102.9Z" class="a"/><path d="M105.3 9.3H106.2V12H106.3C106.5 11.7 106.7 11.5 106.9 11.3 107.2 11.2 107.5 11.1 107.8 11.1 108.1 11.1 108.3 11.2 108.5 11.2 108.8 11.3 109 11.5 109.1 11.6 109.3 11.8 109.4 12 109.5 12.3 109.5 12.5 109.6 12.7 109.5 13V16.2H108.6V13.2C108.6 12.4 108.2 12 107.5 12 107.3 12 107.2 12 107 12.1 106.8 12.1 106.7 12.2 106.6 12.4 106.5 12.5 106.4 12.6 106.3 12.8 106.3 12.9 106.2 13.1 106.3 13.3V16.2H105.3L105.3 9.3Z" class="a"/><path d="M115.2 14.8C115.1 15.3 114.8 15.7 114.4 15.9 114 16.2 113.6 16.3 113.1 16.3 112.8 16.3 112.4 16.2 112.1 16.1 111.8 16 111.6 15.8 111.4 15.5 111.1 15.3 111 15 110.9 14.7 110.8 14.4 110.8 14 110.8 13.7 110.8 13.4 110.8 13.1 110.9 12.7 111 12.4 111.1 12.1 111.4 11.9 111.6 11.6 111.8 11.5 112.1 11.3 112.4 11.2 112.8 11.1 113.1 11.1 114.5 11.1 115.3 12.1 115.3 13.6V14H111.8V14C111.8 14.2 111.8 14.4 111.9 14.5 111.9 14.7 112 14.9 112.1 15 112.3 15.1 112.4 15.3 112.6 15.3 112.8 15.4 112.9 15.4 113.1 15.4 113.4 15.5 113.6 15.4 113.8 15.3 114 15.2 114.2 15 114.3 14.8L115.2 14.8ZM111.8 13.2H114.3C114.3 13.1 114.3 12.9 114.2 12.7 114.2 12.6 114.1 12.4 114 12.3 113.9 12.2 113.7 12.1 113.6 12 113.4 12 113.2 11.9 113.1 12 112.9 11.9 112.7 12 112.6 12 112.4 12.1 112.3 12.2 112.2 12.3 112.1 12.4 112 12.6 111.9 12.7 111.8 12.9 111.8 13.1 111.8 13.2H111.8Z" class="a"/></g><defs><clipPath><rect width="131.6" height="44" class="a"/></clipPath></defs></svg>
