<svg xmlns="http://www.w3.org/2000/svg" width="150" height="44" viewBox="0 0 150 44" fill="none"><style>.a{fill:white;}</style><g clip-path="url(#clip0)"><path d="M143.6 44H5.5C2.5 44 0 41.5 0 38.5V5.5C0 2.5 2.5 0 5.5 0H143.6C146.6 0 149.1 2.5 149.1 5.5V38.5C149.1 41.5 146.6 44 143.6 44Z" fill="black"/><path d="M143.6 0.9C146.1 0.9 148.2 3 148.2 5.5V38.5C148.2 41 146.2 43.1 143.6 43.1H5.5C3 43.1 0.9 41 0.9 38.5V5.5C0.9 3 3 0.9 5.5 0.9H143.6ZM143.6 0H5.5C2.5 0 0 2.5 0 5.5V38.5C0 41.5 2.5 44 5.5 44H143.6C146.6 44 149.1 41.5 149.1 38.5V5.5C149.1 2.5 146.6 0 143.6 0Z" fill="#A6A6A6"/><path d="M78.6 14.6C77.6 14.6 76.7 14.2 76.1 13.5 75.4 12.9 75 11.9 75 11 75 10 75.4 9.1 76.1 8.5 76.7 7.8 77.6 7.4 78.5 7.4 79.5 7.4 80.4 7.8 81 8.5 81.7 9.2 82.1 10 82.1 11 82 12 81.7 12.8 81 13.5 80.4 14.2 79.5 14.6 78.6 14.6ZM48.9 14.6C48 14.6 47.1 14.2 46.4 13.5 45.7 12.9 45.4 12 45.4 11 45.4 10 45.7 9.1 46.4 8.5 47.1 7.8 47.9 7.4 48.9 7.4 49.4 7.4 49.9 7.5 50.3 7.7 50.8 7.9 51.1 8.2 51.4 8.5L51.5 8.6 50.7 9.3 50.6 9.2C50.2 8.7 49.7 8.5 48.9 8.5 48.2 8.5 47.7 8.7 47.2 9.2 46.7 9.6 46.5 10.3 46.5 11 46.5 11.7 46.7 12.4 47.2 12.8 47.7 13.3 48.2 13.5 48.9 13.5 49.6 13.5 50.2 13.3 50.7 12.8 51 12.6 51.1 12.2 51.2 11.7H48.8V10.7H52.2L52.2 10.8C52.2 10.9 52.3 11.1 52.3 11.3 52.3 12.2 52 13 51.4 13.5 50.8 14.2 49.9 14.6 48.9 14.6ZM88.3 14.4H87.3L84 9.3 84.1 10.2V14.4H83V7.6H84.2L84.3 7.6 87.3 12.5 87.3 11.6V7.6H88.3V14.4ZM70.7 14.4H69.6V8.6H67.7V7.6H72.5V8.6H70.7V14.4H70.7ZM66.9 14.4H65.8V7.6H66.9V14.4ZM60.9 14.4H59.9V8.6H58V7.6H62.8V8.6H60.9V14.4ZM57.3 14.4H53.3V7.6H57.3V8.6H54.3V10.5H57V11.5H54.3V13.4H57.3V14.4ZM76.8 12.8C77.3 13.3 77.9 13.5 78.6 13.5 79.2 13.5 79.8 13.3 80.3 12.8 80.7 12.3 81 11.7 81 11 81 10.3 80.7 9.6 80.3 9.2 79.8 8.7 79.2 8.5 78.6 8.5 77.9 8.5 77.3 8.7 76.8 9.2 76.4 9.7 76.1 10.3 76.1 11 76.1 11.7 76.4 12.4 76.8 12.8Z" class="a"/><path d="M74.9 23.9C72.4 23.9 70.3 25.9 70.3 28.6 70.3 31.3 72.4 33.3 74.9 33.3 77.5 33.3 79.6 31.3 79.6 28.6 79.6 25.9 77.5 23.9 74.9 23.9ZM74.9 31.4C73.5 31.4 72.3 30.3 72.3 28.6 72.3 26.9 73.5 25.8 74.9 25.8 76.4 25.8 77.6 26.9 77.6 28.6 77.6 30.3 76.4 31.4 74.9 31.4ZM64.7 23.9C62.1 23.9 60 25.9 60 28.6 60 31.3 62.1 33.3 64.7 33.3 67.3 33.3 69.4 31.3 69.4 28.6 69.4 25.9 67.3 23.9 64.7 23.9ZM64.7 31.4C63.3 31.4 62.1 30.3 62.1 28.6 62.1 26.9 63.3 25.8 64.7 25.8 66.1 25.8 67.3 26.9 67.3 28.6 67.3 30.3 66.1 31.4 64.7 31.4ZM52.5 25.4V27.3H57.3C57.1 28.5 56.8 29.3 56.2 29.8 55.5 30.5 54.4 31.3 52.5 31.3 49.6 31.3 47.3 28.9 47.3 26 47.3 23.1 49.6 20.7 52.5 20.7 54.1 20.7 55.3 21.3 56.1 22.1L57.5 20.7C56.3 19.6 54.8 18.7 52.5 18.7 48.5 18.7 45.2 22 45.2 26 45.2 30 48.5 33.3 52.5 33.3 54.7 33.3 56.3 32.5 57.6 31.2 58.9 29.9 59.3 28.1 59.3 26.6 59.3 26.1 59.3 25.7 59.2 25.3H52.5C52.5 25.3 52.5 25.4 52.5 25.4ZM102.4 26.9C102 25.9 100.8 23.9 98.4 23.9 95.9 23.9 93.9 25.8 93.9 28.6 93.9 31.2 95.9 33.3 98.6 33.3 100.7 33.3 102 32 102.5 31.2L100.9 30.1C100.4 30.9 99.6 31.4 98.6 31.4 97.5 31.4 96.8 31 96.3 30L102.6 27.4C102.6 27.4 102.4 26.9 102.4 26.9ZM96 28.5C95.9 26.7 97.4 25.7 98.4 25.7 99.2 25.7 99.9 26.1 100.2 26.7L96 28.5ZM90.9 33H93V19.3H90.9V33ZM87.5 25H87.4C87 24.4 86.1 23.9 85 23.9 82.6 23.9 80.5 26 80.5 28.6 80.5 31.2 82.6 33.3 85 33.3 86.1 33.3 87 32.8 87.4 32.2H87.5V32.9C87.5 34.7 86.6 35.6 85 35.6 83.8 35.6 83 34.7 82.7 34L80.9 34.7C81.4 35.9 82.8 37.5 85 37.5 87.4 37.5 89.5 36.1 89.5 32.6V24.2H87.5V25C87.5 25 87.5 25 87.5 25ZM85.2 31.4C83.7 31.4 82.6 30.3 82.6 28.6 82.6 27 83.7 25.8 85.2 25.8 86.6 25.8 87.7 27 87.7 28.6 87.7 30.3 86.6 31.4 85.2 31.4ZM112 19.3H107.1V33H109.1V27.8H112C114.3 27.8 116.5 26.1 116.5 23.5 116.5 20.9 114.3 19.3 112 19.3ZM112 25.9H109.1V21.2H112C113.6 21.2 114.5 22.4 114.5 23.5 114.5 24.6 113.6 25.9 112 25.9ZM124.7 23.9C123.2 23.9 121.7 24.6 121.1 26L122.9 26.8C123.3 26 124 25.7 124.8 25.7 125.8 25.7 126.9 26.4 126.9 27.5V27.7C126.6 27.5 125.7 27.1 124.8 27.1 122.8 27.1 120.8 28.2 120.8 30.2 120.8 32.1 122.4 33.3 124.2 33.3 125.6 33.3 126.4 32.6 126.8 31.9H126.9V33H128.9V27.7C128.9 25.3 127.1 23.9 124.7 23.9ZM124.5 31.4C123.8 31.4 122.9 31.1 122.9 30.3 122.9 29.2 124 28.8 125 28.8 125.9 28.8 126.4 29 126.9 29.3 126.8 30.5 125.7 31.4 124.5 31.4ZM136.1 24.2L133.8 30.2H133.7L131.2 24.2H129L132.7 32.5 130.6 37.2H132.7L138.4 24.2H136.1ZM117.6 33H119.7V19.3H117.6V33Z" class="a"/><path d="M11.5 8.3C11.2 8.6 11 9.2 11 9.8V34.2C11 34.8 11.2 35.4 11.5 35.7L11.6 35.8 25.2 22.1V21.8L11.6 8.2 11.5 8.3Z" fill="url(#paint0_linear)"/><path d="M29.7 26.7L25.2 22.2V21.8L29.7 17.3 29.8 17.4 35.2 20.4C36.8 21.3 36.8 22.7 35.2 23.6L29.8 26.6 29.7 26.7Z" fill="url(#paint1_linear)"/><path d="M29.8 26.6L25.2 22 11.5 35.7C12 36.3 12.8 36.3 13.8 35.8L29.8 26.6Z" fill="url(#paint2_linear)"/><path d="M29.8 17.4L13.8 8.2C12.8 7.7 12 7.8 11.5 8.3L25.2 22 29.8 17.4Z" fill="url(#paint3_linear)"/><path d="M29.7 26.5L13.8 35.6C12.9 36.1 12.1 36.1 11.6 35.6L11.5 35.7 11.6 35.8C12.1 36.2 12.9 36.3 13.8 35.8L29.8 26.6 29.7 26.5Z" style="fill:black;opacity:0.2"/><path d="M35.2 23.4L29.7 26.5 29.8 26.6 35.2 23.6C36 23.1 36.3 22.6 36.3 22 36.3 22.5 35.9 23 35.2 23.4Z" style="fill:black;opacity:0.1"/><path d="M13.8 8.4L35.2 20.6C35.9 21 36.3 21.5 36.4 22 36.4 21.4 36 20.9 35.2 20.4L13.8 8.2C12.2 7.3 11 8.1 11 9.8V10C11 8.2 12.2 7.5 13.8 8.4Z" style="fill:white;opacity:0.3"/></g><defs><linearGradient id="paint0_linear" x1="24" y1="9.6" x2="2.1" y2="15.4" gradientUnits="userSpaceOnUse"><stop stop-color="#00A0FF"/><stop offset="0.00657" stop-color="#00A1FF"/><stop offset="0.2601" stop-color="#00BEFF"/><stop offset="0.5122" stop-color="#00D2FF"/><stop offset="0.7604" stop-color="#00DFFF"/><stop offset="1" stop-color="#00E3FF"/></linearGradient><linearGradient id="paint1_linear" x1="37.2" y1="22" x2="10.6" y2="22" gradientUnits="userSpaceOnUse"><stop stop-color="#FFE000"/><stop offset="0.4087" stop-color="#FFBD00"/><stop offset="0.7754" stop-color="#FFA500"/><stop offset="1" stop-color="#FF9C00"/></linearGradient><linearGradient id="paint2_linear" x1="27.3" y1="24.5" x2="9.8" y2="54" gradientUnits="userSpaceOnUse"><stop stop-color="#FF3A44"/><stop offset="1" stop-color="#C31162"/></linearGradient><linearGradient id="paint3_linear" x1="8" y1="0.2" x2="15.8" y2="13.4" gradientUnits="userSpaceOnUse"><stop stop-color="#32A071"/><stop offset="0.0685" stop-color="#2DA771"/><stop offset="0.4762" stop-color="#15CF74"/><stop offset="0.8009" stop-color="#06E775"/><stop offset="1" stop-color="#00F076"/></linearGradient><clipPath id="clip0"><rect width="149.1" height="44" class="a"/></clipPath></defs></svg>
