<svg width="654" height="654" viewBox="0 0 654 654" fill="none" xmlns="http://www.w3.org/2000/svg">
    <circle cx="327" cy="327" r="314.5" stroke="#E6E6E6"/>
    <circle cx="327" cy="327" r="229.5" stroke="url(#paint0_radial)"/>
    <circle cx="327" cy="327" r="229.5" stroke="url(#paint1_radial)"/>
    <circle cx="327" cy="327" r="130" fill="#F9F9F9"/>
    <circle cx="12" cy="327" r="11.5" fill="white" stroke="#E6E6E6"/>
    <circle cx="12" cy="327" r="4" fill="#48AE4D"/>
    <circle cx="642" cy="327" r="11.5" fill="white" stroke="#E6E6E6"/>
    <circle cx="642" cy="327" r="4" fill="#48AE4D"/>
    <circle cx="327" cy="12" r="11.5" fill="white" stroke="#E6E6E6"/>
    <circle cx="327" cy="12" r="4" fill="#48AE4D"/>
    <circle cx="327" cy="642" r="11.5" fill="white" stroke="#E6E6E6"/>
    <circle cx="327" cy="642" r="4" fill="#48AE4D"/>
    <path d="M292.892 315.525V318.733H299.684V322.373H292.892V328.5H288.445V311.885H300.246V315.525H292.892Z" fill="#1D1D1B"/>
    <path d="M310.184 320.241H313.636C314.067 320.274 314.5 320.191 314.888 320C315.017 319.924 315.127 319.82 315.209 319.695C315.295 319.571 315.35 319.428 315.37 319.278C315.449 318.748 315.481 318.211 315.466 317.675C315.531 317.144 315.399 316.608 315.097 316.167C314.669 315.877 314.148 315.756 313.636 315.83H310.184V320.241ZM313.636 324.09H310.184V328.5H305.753V311.869H314.326C315.412 311.864 316.494 312.016 317.537 312.318C317.947 312.422 318.333 312.606 318.672 312.859C319.011 313.112 319.296 313.43 319.512 313.794C319.961 314.767 320.171 315.834 320.122 316.905C320.133 317.768 320.079 318.631 319.961 319.487C319.884 320.101 319.595 320.668 319.143 321.091C318.515 321.609 317.762 321.952 316.959 322.085V322.245C317.767 322.227 318.553 322.513 319.159 323.047C319.441 323.329 319.66 323.668 319.801 324.042C319.934 324.411 319.988 324.805 319.961 325.196V328.5H315.45V326.175C315.45 324.795 314.84 324.106 313.636 324.106" fill="#1D1D1B"/>
    <path d="M330.396 315.525V318.556H337.492V321.636H330.396V324.843H338.118V328.5H325.933V311.885H337.942V315.525H330.396Z" fill="#1D1D1B"/>
    <path d="M349.021 315.525V318.556H356.117V321.636H349.021V324.843H356.743V328.5H344.59V311.885H356.599V315.525H349.021Z" fill="#1D1D1B"/>
    <path d="M367.387 315.83V324.651H371.272C372.782 324.651 373.52 323.737 373.52 321.893V318.348C373.55 317.804 373.473 317.26 373.295 316.745C373.163 316.404 372.904 316.128 372.573 315.975C372.154 315.838 371.711 315.789 371.272 315.83H367.387ZM362.956 328.661V311.885H371.385C372.694 311.839 373.999 312.057 375.222 312.527C376.174 312.919 376.946 313.651 377.389 314.58C377.906 315.766 378.142 317.056 378.08 318.348V321.813C378.127 323.103 377.937 324.392 377.518 325.613C377.189 326.531 376.547 327.304 375.704 327.795C374.568 328.315 373.324 328.557 372.075 328.5L362.956 328.661Z" fill="#1D1D1B"/>
    <path d="M391.018 324.779C391.66 324.801 392.301 324.741 392.928 324.603C393.129 324.555 393.315 324.461 393.474 324.33C393.641 324.204 393.773 324.039 393.859 323.849C394.091 323.28 394.19 322.666 394.148 322.053V318.316C394.167 317.819 394.113 317.322 393.988 316.84C393.897 316.525 393.713 316.245 393.458 316.038C393.182 315.847 392.861 315.731 392.527 315.702C392.025 315.661 391.52 315.661 391.018 315.702C390.386 315.672 389.754 315.731 389.139 315.878C388.94 315.92 388.753 316.008 388.594 316.135C388.432 316.261 388.305 316.427 388.224 316.616C387.99 317.179 387.881 317.786 387.903 318.396V322.133C387.892 322.721 388.001 323.305 388.224 323.849C388.305 324.038 388.432 324.203 388.594 324.33C388.752 324.461 388.939 324.555 389.139 324.603C389.755 324.741 390.387 324.801 391.018 324.779ZM391.018 328.628C389.942 328.644 388.868 328.564 387.807 328.388C386.963 328.24 386.156 327.929 385.431 327.473C384.728 327.013 384.171 326.362 383.825 325.597C383.427 324.626 383.241 323.582 383.279 322.534V317.851C383.242 316.797 383.428 315.748 383.825 314.771C384.169 314.005 384.726 313.354 385.431 312.895C386.157 312.444 386.964 312.139 387.807 311.997C389.934 311.66 392.101 311.66 394.229 311.997C395.072 312.139 395.879 312.444 396.605 312.895C397.307 313.356 397.864 314.007 398.21 314.771C398.607 315.748 398.793 316.797 398.756 317.851V322.534C398.795 323.582 398.609 324.626 398.21 325.597C397.869 326.365 397.311 327.017 396.605 327.473C395.88 327.929 395.073 328.24 394.229 328.388C393.168 328.564 392.093 328.644 391.018 328.628Z" fill="#1D1D1B"/>
    <path d="M408.391 315.83L408.841 328.564H404.394V311.885H411.426L414.636 322.325H414.797L417.815 311.885H425.024V328.5H420.593L420.994 315.83H420.834L416.611 328.564H412.79L408.536 315.83H408.391Z" fill="#1D1D1B"/>
    <path d="M292.299 335.284V336.358H290.035V344.008H288.639V336.358H287.258V335.284H288.639V333.985C288.63 333.428 288.757 332.878 289.008 332.381C289.198 332.012 289.518 331.727 289.907 331.579C290.423 331.402 290.967 331.321 291.512 331.339H292.315V332.413H291.384C291.199 332.373 291.007 332.373 290.822 332.413C290.645 332.472 290.482 332.565 290.34 332.686C290.119 332.998 290.016 333.379 290.051 333.76V335.156L292.299 335.284Z" fill="#1D1D1B"/>
    <path d="M296.008 344.009H297.389V335.3H296.008V344.009ZM296.008 332.943H297.389V331.547H296.008V332.943Z" fill="#1D1D1B"/>
    <path d="M303.458 338.684V344.009H302.077V335.3H303.458V336.407C303.74 335.953 304.163 335.604 304.662 335.413C305.238 335.232 305.84 335.146 306.444 335.156C306.951 335.139 307.458 335.188 307.953 335.3C308.315 335.384 308.652 335.554 308.933 335.797C309.19 336.06 309.373 336.387 309.462 336.744C309.584 337.231 309.644 337.733 309.639 338.235V344.009H308.242V338.38C308.269 337.914 308.215 337.447 308.082 337C308.033 336.855 307.95 336.723 307.841 336.615C307.742 336.503 307.614 336.42 307.472 336.375C307.025 336.236 306.558 336.177 306.091 336.198C305.385 336.151 304.685 336.356 304.116 336.776C303.874 337.022 303.688 337.317 303.57 337.642C303.464 337.962 303.42 338.3 303.442 338.636" fill="#1D1D1B"/>
    <path d="M320.41 341.491C320.444 341.101 320.36 340.71 320.169 340.368C320.072 340.241 319.952 340.132 319.816 340.047C319.673 339.963 319.515 339.909 319.351 339.887C318.738 339.809 318.121 339.772 317.504 339.775C316.951 339.727 316.396 339.832 315.899 340.079C315.735 340.23 315.608 340.417 315.53 340.625C315.452 340.835 315.419 341.059 315.433 341.282C315.413 341.673 315.485 342.063 315.642 342.421C315.771 342.694 316.001 342.907 316.284 343.014C316.663 343.133 317.059 343.187 317.456 343.175C317.993 343.188 318.529 343.162 319.062 343.094C319.413 343.051 319.74 342.894 319.993 342.645C320.253 342.325 320.379 341.917 320.346 341.507L320.41 341.491ZM320.41 339.791V338.556C320.429 338.014 320.364 337.473 320.218 336.952C320.165 336.782 320.071 336.628 319.945 336.503C319.828 336.374 319.678 336.28 319.511 336.23C318.985 336.11 318.445 336.056 317.906 336.07C317.491 336.059 317.076 336.096 316.669 336.182C316.424 336.227 316.205 336.365 316.059 336.567C315.919 336.823 315.848 337.11 315.851 337.401V337.642H314.47C314.418 337.047 314.571 336.453 314.903 335.958C315.179 335.592 315.579 335.341 316.027 335.252C316.647 335.139 317.276 335.08 317.906 335.076C318.629 335.057 319.351 335.127 320.057 335.284C320.565 335.414 321.002 335.736 321.277 336.182C321.613 336.783 321.764 337.469 321.711 338.155V343.928H320.458V342.838C320.301 343.15 320.082 343.428 319.816 343.656C319.562 343.845 319.263 343.966 318.949 344.009C318.494 344.089 318.031 344.121 317.568 344.105C316.925 344.124 316.282 344.053 315.658 343.896C315.185 343.784 314.775 343.49 314.518 343.078C314.221 342.546 314.081 341.939 314.117 341.33C314.097 340.769 314.236 340.213 314.518 339.726C314.778 339.338 315.173 339.058 315.626 338.941C316.217 338.784 316.828 338.713 317.44 338.732C317.977 338.715 318.514 338.747 319.046 338.828C319.343 338.867 319.628 338.971 319.88 339.133C320.084 339.296 320.253 339.498 320.378 339.726" fill="#1D1D1B"/>
    <path d="M327.828 338.684V344.009H326.432V335.3H327.828V336.407C328.106 335.949 328.53 335.599 329.033 335.412C329.588 335.238 330.168 335.151 330.75 335.156C331.257 335.14 331.765 335.189 332.26 335.3C332.617 335.383 332.948 335.554 333.223 335.797C333.479 336.063 333.667 336.388 333.769 336.743C333.9 337.246 333.965 337.764 333.961 338.283V344.057H332.581V338.379C332.602 337.913 332.543 337.446 332.404 337C332.355 336.858 332.278 336.728 332.179 336.615C332.071 336.506 331.939 336.423 331.794 336.375C331.347 336.236 330.88 336.176 330.413 336.198C329.708 336.154 329.009 336.358 328.438 336.775C328.199 337.027 328.018 337.328 327.909 337.658C327.802 337.989 327.775 338.34 327.828 338.684Z" fill="#1D1D1B"/>
    <path d="M344.797 340.865H346.065C346.048 341.41 345.956 341.95 345.792 342.469C345.676 342.863 345.447 343.214 345.134 343.48C344.815 343.74 344.433 343.912 344.026 343.977C343.461 344.089 342.884 344.138 342.308 344.121C341.69 344.135 341.074 344.059 340.478 343.897C340.035 343.764 339.64 343.508 339.338 343.159C339.032 342.751 338.824 342.28 338.728 341.78C338.597 341.055 338.538 340.319 338.551 339.582C338.519 338.651 338.632 337.72 338.889 336.824C339.066 336.23 339.47 335.729 340.012 335.429C340.72 335.121 341.49 334.983 342.26 335.028C342.92 335.006 343.58 335.082 344.219 335.252C344.705 335.39 345.134 335.683 345.439 336.086C345.733 336.57 345.894 337.124 345.904 337.69V337.979H344.636C344.658 337.586 344.597 337.193 344.46 336.824C344.392 336.69 344.3 336.57 344.187 336.471C344.072 336.366 343.935 336.289 343.785 336.247C343.265 336.091 342.721 336.031 342.18 336.07C341.669 336.041 341.158 336.129 340.687 336.327C340.501 336.421 340.345 336.566 340.237 336.744C340.109 336.906 340.025 337.1 339.996 337.305C339.849 338.022 339.789 338.755 339.82 339.486C339.804 340.221 339.885 340.954 340.061 341.667C340.102 341.874 340.184 342.07 340.301 342.245C340.424 342.42 340.583 342.568 340.767 342.678C341.23 342.888 341.737 342.981 342.244 342.95C342.663 342.958 343.083 342.926 343.496 342.854C343.766 342.81 344.018 342.687 344.219 342.501C344.397 342.327 344.52 342.104 344.572 341.86C344.665 341.481 344.718 341.094 344.732 340.705" fill="#1D1D1B"/>
    <path d="M356.63 338.893C356.662 338.348 356.586 337.803 356.405 337.289C356.267 336.921 355.99 336.622 355.634 336.455C355.173 336.262 354.673 336.18 354.173 336.214C353.662 336.191 353.151 336.284 352.68 336.487C352.507 336.569 352.352 336.685 352.225 336.828C352.098 336.971 352.002 337.139 351.942 337.321C351.764 337.836 351.682 338.38 351.701 338.925L356.63 338.893ZM357.946 339.903H351.621C351.625 340.44 351.668 340.976 351.749 341.507C351.797 341.846 351.924 342.17 352.118 342.453C352.3 342.702 352.56 342.882 352.857 342.966C353.271 343.076 353.697 343.13 354.125 343.126C354.664 343.143 355.202 343.1 355.731 342.998C355.87 342.984 356.002 342.935 356.116 342.854C356.24 342.784 356.344 342.685 356.421 342.565C356.567 342.278 356.628 341.955 356.598 341.635V341.346H357.93C357.963 341.983 357.818 342.615 357.513 343.175C357.223 343.587 356.786 343.873 356.293 343.976C355.592 344.134 354.875 344.204 354.157 344.185C353.367 344.213 352.58 344.076 351.846 343.784C351.571 343.638 351.326 343.443 351.123 343.207C350.923 342.967 350.775 342.689 350.69 342.389C350.42 341.49 350.3 340.552 350.336 339.614C350.323 338.891 350.398 338.17 350.561 337.465C350.671 336.956 350.896 336.478 351.219 336.07C351.539 335.729 351.943 335.48 352.391 335.348C352.965 335.183 353.561 335.113 354.157 335.14C354.68 335.087 355.207 335.142 355.707 335.302C356.207 335.462 356.669 335.724 357.063 336.07C357.756 336.987 358.072 338.135 357.946 339.277V339.903Z" fill="#1D1D1B"/>
    <path d="M243.782 316.632V322.245H266.339V334.915H243.862V348.355C238.071 345.718 233.486 341 231.018 335.14C229.348 330.979 228.445 326.551 228.353 322.069L228.161 313.842L228 303.658C228 303.658 239.945 303 248.871 303C257.798 303 269.935 303.658 269.935 303.658L269.742 316.632H243.782Z" fill="#76B82A"/>
    <path d="M243.781 316.632V322.245H266.338V334.915H243.862V348.355C245.52 349.153 247.266 349.756 249.063 350.151C259.435 347.906 269.276 338.588 269.581 322.037L269.742 316.616L243.781 316.632Z" fill="#397C23"/>
    <path d="M165 327L56 327" stroke="#E5E5E5"/>
    <path d="M598 327L489 327" stroke="#E5E5E5"/>
    <defs>
        <radialGradient id="paint0_radial" cx="0" cy="0" r="1" gradientUnits="userSpaceOnUse" gradientTransform="translate(97 327) scale(313)">
            <stop stop-color="white"/>
            <stop offset="0.0001" stop-color="#E5E5E5"/>
            <stop offset="1" stop-color="#E5E5E5" stop-opacity="0"/>
        </radialGradient>
        <radialGradient id="paint1_radial" cx="0" cy="0" r="1" gradientUnits="userSpaceOnUse" gradientTransform="translate(557 327) rotate(180) scale(387)">
            <stop stop-color="white"/>
            <stop offset="0.0001" stop-color="#E5E5E5"/>
            <stop offset="1" stop-color="#E5E5E5" stop-opacity="0"/>
        </radialGradient>
    </defs>
</svg>
