<svg width="12" height="12" viewBox="0 0 12 12" fill="none" xmlns="http://www.w3.org/2000/svg">
    <path d="M8.30769 8.19645V9.74999C8.30769 10.2272 7.91954 10.6154 7.44231 10.6154H2.25C1.77277 10.6154 1.38462 10.2272 1.38462 9.74999V4.55768C1.38462 4.08045 1.77277 3.69229 2.25 3.69229H3.83262L5.21769 2.30768H2.25C1.00708 2.30768 0 3.31476 0 4.55768V9.74999C0 10.9929 1.00708 12 2.25 12H7.44231C8.68523 12 9.69231 10.9929 9.69231 9.74999V6.81137L8.30769 8.19645Z" fill="#48AE4D"/>
    <path d="M10.4223 -3.69008e-05H5.68739C4.81693 0.000886176 4.87739 0.235348 5.33662 0.694117L6.82277 2.18027L4.27508 4.7275C3.74662 5.2555 3.74708 6.11119 4.27508 6.63873L5.38739 7.7515C5.91539 8.27812 6.77016 8.27858 7.29816 7.75104L9.84585 5.20335L11.3043 6.66181C11.8125 7.1695 11.9998 7.18289 11.9998 6.31242L12.0003 1.57796C11.9998 -0.00834469 12.0114 -0.000498439 10.4223 -3.69008e-05Z" fill="#48AE4D"/>
</svg>
