<svg width="70" height="70" viewBox="0 0 70 70" fill="none" xmlns="http://www.w3.org/2000/svg">
    <path fill-rule="evenodd" clip-rule="evenodd" d="M0 35C0 15.7763 14.9883 0 34.2881 0C53.5501 0 69.2881 15.738 69.2881 35C69.2881 35.7524 68.6781 36.3624 67.9257 36.3624C67.1733 36.3624 66.5633 35.7524 66.5633 35C66.5633 17.2429 52.0452 2.72482 34.2881 2.72482C16.5687 2.72482 2.72482 17.2045 2.72482 35C2.72482 52.3005 16.5168 66.5552 34.3495 67.2487V62.1389C19.1655 61.465 8.00895 49.5644 8.00895 35C8.00895 20.0342 19.8069 7.83097 34.822 7.83097C49.8249 7.83097 61.8131 20.0217 61.8131 35C61.8131 46.0645 55.2437 55.433 45.7048 59.7349C45.0189 60.0442 44.2121 59.739 43.9027 59.0531C43.5934 58.3671 43.8987 57.5603 44.5846 57.251C53.1993 53.3659 59.0882 44.9367 59.0882 35C59.0882 21.502 48.2955 10.5558 34.822 10.5558C21.3609 10.5558 10.7338 21.4895 10.7338 35C10.7338 48.4796 21.3302 59.4442 35.7119 59.4442C36.4643 59.4442 37.0743 60.0542 37.0743 60.8066V68.6376C37.0743 69.39 36.4643 70 35.7119 70C15.7567 70 0 54.2806 0 35Z" fill="#72BF44"/>
    <path d="M47.8541 27.2394C47.8377 26.3754 47.822 25.5593 47.822 24.7697C47.822 24.1511 47.3207 23.6496 46.702 23.6496C41.9117 23.6496 38.2646 22.273 35.2246 19.3172C34.7897 18.8942 34.0976 18.8944 33.6629 19.3172C30.6231 22.273 26.9766 23.6496 22.1867 23.6496C21.5681 23.6496 21.0666 24.1511 21.0666 24.7697C21.0666 25.5594 21.0511 26.3759 21.0345 27.24C20.881 35.2801 20.6707 46.2913 34.0769 50.9382C34.1958 50.9794 34.3197 51 34.4437 51C34.5676 51 34.6917 50.9794 34.8104 50.9382C48.2176 46.2912 48.0077 35.2796 47.8541 27.2394ZM34.4438 48.6913C22.9463 44.5146 23.1201 35.365 23.2744 27.2827C23.2836 26.7976 23.2926 26.3275 23.2989 25.8666C27.7852 25.6773 31.3727 24.3178 34.4438 21.6424C37.5152 24.3178 41.1033 25.6774 45.5899 25.8666C45.5962 26.3274 45.6052 26.7972 45.6144 27.282C45.7686 35.3646 45.9422 44.5144 34.4438 48.6913Z" fill="#72BF44"/>
    <path d="M38.3008 31.1092L32.8947 36.515L30.5878 34.2081C30.1504 33.7709 29.4411 33.7709 29.0039 34.2081C28.5664 34.6457 28.5664 35.3548 29.0039 35.7922L32.1027 38.8911C32.3214 39.1097 32.6081 39.2191 32.8947 39.2191C33.1813 39.2191 33.468 39.1097 33.6867 38.8911L39.8846 32.6933C40.3222 32.2559 40.3222 31.5467 39.8847 31.1094C39.4475 30.672 38.7382 30.6718 38.3008 31.1092Z" fill="#72BF44"/>
</svg>
