<svg xmlns="http://www.w3.org/2000/svg" width="1024" height="1024" viewBox="0 0 1024 1024" fill="none"><style>.a{fill:white;}</style><rect width="1024" height="1024" fill="#1E1E21"/><path d="M430.2 350.6V443.3H768.5V630.5H430.2V848.5C456 860.5 483.5 870.8 510.9 876 675.8 841.7 830.3 695.7 833.7 434.7L835.4 348.9H430.2V350.6Z" fill="#3D803D"/><path d="M837.2 348.6L840.6 147.7C732.4 139.2 622.5 134 512.7 134 402.8 134 292.9 139.2 183 147.7L184.7 305.7 188.2 434.5C188.2 434.5 189.9 554.7 229.4 640.5 296.3 796.7 430.2 848.3 430.2 848.3V630.2H768.5V443.1H430.2V350.3H837.2V348.6Z" fill="#72BF44"/><path d="M675.3 741.3V776H544V741.3C544 731.2 544.7 723.3 546.2 717.4 547.6 711.5 550.4 706.6 554.4 702.8 558.4 699 564.1 695.8 571.4 693.1 578.8 690.4 589.2 687.5 602.5 684.4 614.1 681.7 621.4 679.8 624.7 678.7 627.9 677.6 630 675.9 631.1 673.6 632.3 671.3 632.9 667.1 632.9 661.1 632.9 655.5 632.2 651.5 630.8 648.9 629.4 646.3 627.1 644.7 623.9 643.9 620.8 643.1 616 642.7 609.6 642.7 602.4 642.7 597.2 643.1 594.2 643.9 591.1 644.6 589 646.3 587.9 649 586.8 651.7 586.2 656 586.1 662V670.2H544V662C544 650.9 545.4 641.7 548.2 634.6 551 627.5 555.1 622.1 560.6 618.3 566.1 614.4 572.8 611.7 580.7 610.2 588.6 608.7 598.2 608 609.6 608 624.4 608 636.4 609.2 645.6 611.6 654.8 614 662 619 667.2 626.7 672.4 634.3 675 645.6 675 660.5 675 670 674.3 677.6 672.8 683.5 671.3 689.3 668.8 694 665.4 697.7 662 701.4 657.6 704.4 652 706.8 646.5 709.3 639 711.8 629.4 714.4 624.4 715.8 618 717.3 610.3 718.9 602.5 720.6 597.2 722 594.4 723.2 591.6 724.3 589.5 726.3 588.1 729 586.8 731.6 586.1 735.8 586.1 741.3H675.3Z" class="a"/><path d="M826.8 609.4V710.9H841V743.1H826.8V776H784.7V743.1H697.8V695.6L761.4 609.4H826.8ZM784.7 710.9V643.6H783.1L732.6 710.9H784.7Z" class="a"/></svg>
