<svg width="26" height="26" viewBox="0 0 26 26" fill="none" xmlns="http://www.w3.org/2000/svg">
    <path fill-rule="evenodd" clip-rule="evenodd" d="M11.25 12.25C11.8023 12.25 12.25 11.8023 12.25 11.25V2.5C12.25 1.94772 11.8023 1.5 11.25 1.5H2.5C1.94772 1.5 1.5 1.94772 1.5 2.5V11.25C1.5 11.8023 1.94772 12.25 2.5 12.25H11.25ZM12.25 14.75C12.25 14.1977 11.8023 13.75 11.25 13.75H2.5C1.94772 13.75 1.5 14.1977 1.5 14.75V23.5C1.5 24.0523 1.94772 24.5 2.5 24.5H11.25C11.8023 24.5 12.25 24.0523 12.25 23.5V14.75ZM14.75 24.5C14.1977 24.5 13.75 24.0523 13.75 23.5V14.75C13.75 14.1977 14.1977 13.75 14.75 13.75H23.5C24.0523 13.75 24.5 14.1977 24.5 14.75V23.5C24.5 24.0523 24.0523 24.5 23.5 24.5H14.75ZM24.5 11.25C24.5 11.8023 24.0523 12.25 23.5 12.25H14.75C14.1977 12.25 13.75 11.8023 13.75 11.25V2.5C13.75 1.94772 14.1977 1.5 14.75 1.5H23.5C24.0523 1.5 24.5 1.94772 24.5 2.5V11.25ZM0 1C0 0.447716 0.447715 0 1 0H25C25.5523 0 26 0.447715 26 1V25C26 25.5523 25.5523 26 25 26H1C0.447716 26 0 25.5523 0 25V1Z"></path>
</svg>