<svg width="40" height="44" viewBox="0 0 40 44" fill="none" xmlns="http://www.w3.org/2000/svg">
    <path fill-rule="evenodd" clip-rule="evenodd" d="M14.6953 12.7524V18.3263H34.7107V29.3896H14.6953C14.6953 29.3896 14.6953 42.3109 14.6953 42.3954C16.2999 43.1554 17.9045 43.6622 19.5091 44C29.2212 41.9731 38.4266 33.2745 38.68 17.8196L38.7644 12.7524H14.6953Z" fill="#2E7E33"/>
    <path d="M38.8484 12.7524L39.0173 0.760075C32.5988 0.253357 26.096 0 19.5086 0C12.9213 0 6.41843 0.253357 0 0.760075L0.0844452 10.1344L0.253361 17.8196C0.253361 17.8196 0.337809 24.9136 2.70249 29.9808C6.67178 39.2706 14.6104 42.3109 14.6104 42.3109V29.3052H34.6257V18.3263H14.6104V12.7524H38.8484Z" fill="#76B949"/>
</svg>
