<?xml version="1.0" encoding="UTF-8"?> <!-- Generator: Adobe Illustrator 23.0.2, SVG Export Plug-In . SVG Version: 6.00 Build 0) --> <svg xmlns="http://www.w3.org/2000/svg" xmlns:xlink="http://www.w3.org/1999/xlink" id="Capa_1" x="0px" y="0px" viewBox="0 0 40 40" style="enable-background:new 0 0 40 40;" xml:space="preserve"> <style type="text/css"> .st0{fill:#EEC847;} </style> <g> <g> <path class="st0" d="M34.6,6.5H13.8c0-1.3-1-2.3-2.3-2.3H8.5c-1.3,0-2.3,1-2.3,2.3H5.4C2.4,6.5,0,9,0,11.9v18.5 c0,3,2.4,5.4,5.4,5.4h29.2c3,0,5.4-2.4,5.4-5.4V11.9C40,9,37.6,6.5,34.6,6.5z M8.5,5.8h3.1c0.4,0,0.8,0.3,0.8,0.8H7.7 C7.7,6.1,8,5.8,8.5,5.8z M34.6,34.2H5.4c-2.1,0-3.8-1.7-3.8-3.8V15.8h6.2c0.4,0,0.8-0.3,0.8-0.8s-0.3-0.8-0.8-0.8H1.5v-2.3 c0-2.1,1.7-3.8,3.8-3.8h29.2c2.1,0,3.8,1.7,3.8,3.8v2.3h-6.2c-0.4,0-0.8,0.3-0.8,0.8s0.3,0.8,0.8,0.8h6.2v14.6 C38.5,32.5,36.7,34.2,34.6,34.2z"></path> <path class="st0" d="M20,9.6c-6.4,0-11.5,5.2-11.5,11.5S13.6,32.7,20,32.7s11.5-5.2,11.5-11.5S26.4,9.6,20,9.6z M20,31.2 c-5.5,0-10-4.5-10-10s4.5-10,10-10s10,4.5,10,10S25.5,31.2,20,31.2z"></path> <path class="st0" d="M20,12.7c-4.7,0-8.5,3.8-8.5,8.5s3.8,8.5,8.5,8.5s8.5-3.8,8.5-8.5S24.7,12.7,20,12.7z M20,28.1 c-3.8,0-6.9-3.1-6.9-6.9s3.1-6.9,6.9-6.9s6.9,3.1,6.9,6.9S23.8,28.1,20,28.1z"></path> <path class="st0" d="M20,15.8c-0.4,0-0.8,0.3-0.8,0.8c0,0.4,0.3,0.8,0.8,0.8c2.1,0,3.8,1.7,3.8,3.8c0,0.4,0.3,0.8,0.8,0.8 c0.4,0,0.8-0.3,0.8-0.8C25.4,18.2,23,15.8,20,15.8z"></path> <path class="st0" d="M33.8,13.5c1.3,0,2.3-1,2.3-2.3s-1-2.3-2.3-2.3s-2.3,1-2.3,2.3S32.6,13.5,33.8,13.5z M33.8,10.4 c0.4,0,0.8,0.3,0.8,0.8c0,0.4-0.3,0.8-0.8,0.8c-0.4,0-0.8-0.3-0.8-0.8C33.1,10.7,33.4,10.4,33.8,10.4z"></path> </g> </g> </svg> 