<svg width="181" height="14" viewBox="0 0 181 14" fill="none" xmlns="http://www.w3.org/2000/svg">
<path d="M1.666 5.932L0.714 5.4C1.28333 4.29867 2.13267 3.748 3.262 3.748C4.06467 3.748 4.65733 3.972 5.04 4.42C5.432 4.85867 5.628 5.44667 5.628 6.184V9.544C5.628 9.89867 5.796 10.076 6.132 10.076H6.314V10.972C6.034 11.0467 5.79133 11.084 5.586 11.084C4.98867 11.084 4.564 10.8693 4.312 10.44C3.82667 10.8973 3.21533 11.126 2.478 11.126C1.85267 11.126 1.36267 10.9487 1.008 10.594C0.653333 10.23 0.476 9.754 0.476 9.166C0.476 8.47533 0.718667 7.92 1.204 7.5C1.68933 7.08 2.48267 6.87 3.584 6.87H4.074V6.184C4.074 5.36267 3.72867 4.952 3.038 4.952C2.46867 4.952 2.01133 5.27867 1.666 5.932ZM2.87 10.048C3.35533 10.048 3.75667 9.866 4.074 9.502V7.906H3.584C2.996 7.906 2.58067 8.004 2.338 8.2C2.09533 8.396 1.974 8.68067 1.974 9.054C1.974 9.71667 2.27267 10.048 2.87 10.048ZM7.16581 11V9.208H8.85981V11H7.16581ZM13.716 3.902V5.036H12.134V11H10.566V5.036H9.73995V3.902H10.566V3.398C10.566 2.63267 10.804 2.012 11.28 1.536C11.7653 1.06 12.5306 0.807999 13.576 0.78L13.646 1.872C13.0766 1.9 12.6706 2.04467 12.428 2.306C12.1853 2.56733 12.064 2.94067 12.064 3.426V3.902H13.716ZM19.8816 7.64H16.0596V8.466C16.0596 9.446 16.5076 9.936 17.4036 9.936C17.7396 9.936 18.015 9.85667 18.2296 9.698C18.4443 9.53 18.6263 9.25933 18.7756 8.886L19.8956 9.306C19.4943 10.5193 18.6123 11.126 17.2496 11.126C16.3816 11.126 15.705 10.888 15.2196 10.412C14.7343 9.92667 14.4916 9.29667 14.4916 8.522V6.338C14.4916 5.59133 14.7296 4.97533 15.2056 4.49C15.6816 4.00467 16.3536 3.762 17.2216 3.762C18.0523 3.762 18.701 4.014 19.1676 4.518C19.6436 5.01267 19.8816 5.64267 19.8816 6.408V7.64ZM16.0596 6.254V6.716H18.4956V6.226C18.4956 5.806 18.3883 5.484 18.1736 5.26C17.959 5.036 17.6603 4.924 17.2776 4.924C16.4656 4.924 16.0596 5.36733 16.0596 6.254ZM26.6291 6.352V8.564C26.6291 9.31067 26.3771 9.92667 25.8731 10.412C25.3784 10.888 24.6784 11.126 23.7731 11.126C22.8678 11.126 22.1678 10.888 21.6731 10.412C21.1784 9.936 20.9311 9.32 20.9311 8.564V6.352C20.9311 5.596 21.1784 4.97533 21.6731 4.49C22.1678 4.00467 22.8678 3.762 23.7731 3.762C24.6878 3.762 25.3924 4.00467 25.8871 4.49C26.3818 4.966 26.6291 5.58667 26.6291 6.352ZM22.4991 6.408V8.494C22.4991 9.46467 22.9238 9.95 23.7731 9.95C24.6318 9.95 25.0611 9.46467 25.0611 8.494V6.408C25.0611 5.43733 24.6318 4.952 23.7731 4.952C22.9238 4.952 22.4991 5.43733 22.4991 6.408ZM28.0614 0.541999H29.6294V7.388L32.2474 3.888H33.9414L31.5754 6.968L34.1654 11H32.4014L30.5394 7.962L29.6294 8.942V11H28.0614V0.541999ZM38.5727 3.888V5.064H36.9627V8.97C36.9627 9.614 37.2521 9.936 37.8307 9.936C38.0267 9.936 38.2274 9.89867 38.4327 9.824L38.5727 10.79C38.1714 11.0047 37.7374 11.112 37.2707 11.112C36.0107 11.112 35.3807 10.3747 35.3807 8.9V5.134L34.5267 4.91V3.916L35.4647 3.846L35.8707 1.886H36.9627V3.888H38.5727ZM39.9025 3.888H41.4705V11H39.9025V3.888ZM39.9585 0.85H41.4145V2.502H39.9585V0.85ZM45.4062 11.126C44.1742 11.126 43.3295 10.5893 42.8722 9.516L43.9922 8.984C44.3095 9.67467 44.7668 10.02 45.3642 10.02C46.0268 10.02 46.3582 9.71667 46.3582 9.11C46.3582 8.858 46.2415 8.648 46.0082 8.48C45.7748 8.30267 45.4902 8.15333 45.1542 8.032C44.8275 7.91067 44.4962 7.77533 44.1602 7.626C43.8335 7.46733 43.5535 7.234 43.3202 6.926C43.0868 6.618 42.9702 6.24467 42.9702 5.806C42.9702 5.218 43.1848 4.73267 43.6142 4.35C44.0435 3.958 44.6408 3.762 45.4062 3.762C45.9848 3.762 46.4795 3.90667 46.8902 4.196C47.3008 4.476 47.5995 4.87267 47.7862 5.386L46.7082 5.792C46.4468 5.18533 46.0315 4.882 45.4622 4.882C44.7902 4.882 44.4542 5.148 44.4542 5.68C44.4542 5.92267 44.5708 6.128 44.8042 6.296C45.0375 6.464 45.3175 6.60867 45.6442 6.73C45.9802 6.85133 46.3115 6.99133 46.6382 7.15C46.9742 7.30867 47.2588 7.542 47.4922 7.85C47.7255 8.158 47.8422 8.53133 47.8422 8.97C47.8422 9.59533 47.6135 10.1133 47.1562 10.524C46.6988 10.9253 46.1155 11.126 45.4062 11.126ZM52.5044 3.888V5.064H50.8944V8.97C50.8944 9.614 51.1837 9.936 51.7624 9.936C51.9584 9.936 52.159 9.89867 52.3644 9.824L52.5044 10.79C52.103 11.0047 51.669 11.112 51.2024 11.112C49.9424 11.112 49.3124 10.3747 49.3124 8.9V5.134L48.4584 4.91V3.916L49.3964 3.846L49.8024 1.886H50.8944V3.888H52.5044ZM59.1682 6.352V8.564C59.1682 9.31067 58.9162 9.92667 58.4122 10.412C57.9175 10.888 57.2175 11.126 56.3122 11.126C55.4068 11.126 54.7068 10.888 54.2122 10.412C53.7175 9.936 53.4702 9.32 53.4702 8.564V6.352C53.4702 5.596 53.7175 4.97533 54.2122 4.49C54.7068 4.00467 55.4068 3.762 56.3122 3.762C57.2268 3.762 57.9315 4.00467 58.4262 4.49C58.9208 4.966 59.1682 5.58667 59.1682 6.352ZM55.0382 6.408V8.494C55.0382 9.46467 55.4628 9.95 56.3122 9.95C57.1708 9.95 57.6002 9.46467 57.6002 8.494V6.408C57.6002 5.43733 57.1708 4.952 56.3122 4.952C55.4628 4.952 55.0382 5.43733 55.0382 6.408ZM66.4557 3.888L63.9637 11H62.2137L59.7357 3.888H61.5137L63.0677 9.614H63.0957L64.6777 3.888H66.4557ZM74.4917 4.924H74.1417L73.8897 7.934C73.8804 7.99 73.8757 8.06467 73.8757 8.158C73.8757 8.68067 74.109 8.942 74.5757 8.942C74.949 8.942 75.229 8.79733 75.4157 8.508C75.6024 8.21867 75.6957 7.71467 75.6957 6.996V5.218C75.6957 4.126 75.397 3.286 74.7997 2.698C74.2117 2.11 73.3344 1.816 72.1677 1.816C70.9824 1.816 70.0537 2.16133 69.3817 2.852C68.719 3.54267 68.3877 4.42933 68.3877 5.512V8.312C68.3877 9.544 68.733 10.4913 69.4237 11.154C70.1144 11.826 71.0477 12.162 72.2237 12.162C72.989 12.162 73.6284 12.0593 74.1417 11.854C74.655 11.658 75.131 11.35 75.5697 10.93L76.4097 11.56C75.327 12.6893 73.927 13.254 72.2097 13.254C70.6324 13.254 69.405 12.82 68.5277 11.952C67.6504 11.084 67.2117 9.87067 67.2117 8.312V5.484C67.2117 4.112 67.655 2.96867 68.5417 2.054C69.4284 1.13933 70.637 0.681999 72.1677 0.681999C73.6704 0.681999 74.823 1.10667 75.6257 1.956C76.4377 2.796 76.8437 3.88333 76.8437 5.218V6.982C76.8437 8.018 76.6337 8.79267 76.2137 9.306C75.7937 9.81933 75.229 10.076 74.5197 10.076C73.7637 10.076 73.2504 9.838 72.9797 9.362C72.4944 9.866 71.883 10.118 71.1457 10.118C70.5764 10.118 70.1377 9.93133 69.8297 9.558C69.531 9.18467 69.3817 8.662 69.3817 7.99C69.3817 6.74867 69.6944 5.75933 70.3197 5.022C70.945 4.28467 71.827 3.916 72.9657 3.916H74.5477L74.4917 4.924ZM72.5737 8.214L72.8397 5.078H72.6577C72.051 5.078 71.5844 5.32533 71.2577 5.82C70.9404 6.30533 70.7817 7.01 70.7817 7.934C70.7817 8.31667 70.8377 8.58733 70.9497 8.746C71.071 8.89533 71.253 8.97 71.4957 8.97C71.981 8.97 72.3404 8.718 72.5737 8.214ZM81.6925 3.902V5.036H80.1105V11H78.5425V5.036H77.7165V3.902H78.5425V3.398C78.5425 2.63267 78.7805 2.012 79.2565 1.536C79.7418 1.06 80.5072 0.807999 81.5525 0.78L81.6225 1.872C81.0532 1.9 80.6472 2.04467 80.4045 2.306C80.1618 2.56733 80.0405 2.94067 80.0405 3.426V3.902H81.6925ZM86.7102 3.958L86.5422 5.386C86.3555 5.26467 86.1269 5.204 85.8562 5.204C84.9415 5.204 84.4189 5.81533 84.2882 7.038V11H82.7202V3.888H84.0782L84.1482 5.064H84.1762C84.5495 4.20533 85.1282 3.776 85.9122 3.776C86.2202 3.776 86.4862 3.83667 86.7102 3.958ZM92.7391 7.64H88.9171V8.466C88.9171 9.446 89.3651 9.936 90.2611 9.936C90.5971 9.936 90.8724 9.85667 91.0871 9.698C91.3017 9.53 91.4837 9.25933 91.6331 8.886L92.7531 9.306C92.3517 10.5193 91.4697 11.126 90.1071 11.126C89.2391 11.126 88.5624 10.888 88.0771 10.412C87.5917 9.92667 87.3491 9.29667 87.3491 8.522V6.338C87.3491 5.59133 87.5871 4.97533 88.0631 4.49C88.5391 4.00467 89.2111 3.762 90.0791 3.762C90.9097 3.762 91.5584 4.014 92.0251 4.518C92.5011 5.01267 92.7391 5.64267 92.7391 6.408V7.64ZM88.9171 6.254V6.716H91.3531V6.226C91.3531 5.806 91.2457 5.484 91.0311 5.26C90.8164 5.036 90.5177 4.924 90.1351 4.924C89.3231 4.924 88.9171 5.36733 88.9171 6.254ZM99.1785 7.64H95.3565V8.466C95.3565 9.446 95.8045 9.936 96.7005 9.936C97.0365 9.936 97.3118 9.85667 97.5265 9.698C97.7412 9.53 97.9232 9.25933 98.0725 8.886L99.1925 9.306C98.7912 10.5193 97.9092 11.126 96.5465 11.126C95.6785 11.126 95.0018 10.888 94.5165 10.412C94.0312 9.92667 93.7885 9.29667 93.7885 8.522V6.338C93.7885 5.59133 94.0265 4.97533 94.5025 4.49C94.9785 4.00467 95.6505 3.762 96.5185 3.762C97.3492 3.762 97.9978 4.014 98.4645 4.518C98.9405 5.01267 99.1785 5.64267 99.1785 6.408V7.64ZM95.3565 6.254V6.716H97.7925V6.226C97.7925 5.806 97.6852 5.484 97.4705 5.26C97.2558 5.036 96.9572 4.924 96.5745 4.924C95.7625 4.924 95.3565 5.36733 95.3565 6.254ZM102.58 3.748C103.28 3.748 103.854 3.958 104.302 4.378H104.33V0.541999H105.898V11H104.512L104.442 10.342H104.414C103.938 10.8647 103.294 11.126 102.482 11.126C101.763 11.126 101.208 10.888 100.816 10.412C100.424 9.936 100.228 9.278 100.228 8.438V6.436C100.228 5.596 100.429 4.938 100.83 4.462C101.231 3.986 101.815 3.748 102.58 3.748ZM104.33 9.208V5.652C104.013 5.22267 103.574 5.008 103.014 5.008C102.202 5.008 101.796 5.498 101.796 6.478V8.452C101.796 9.404 102.193 9.88 102.986 9.88C103.565 9.88 104.013 9.656 104.33 9.208ZM113.035 6.352V8.564C113.035 9.31067 112.783 9.92667 112.279 10.412C111.785 10.888 111.085 11.126 110.179 11.126C109.274 11.126 108.574 10.888 108.079 10.412C107.585 9.936 107.337 9.32 107.337 8.564V6.352C107.337 5.596 107.585 4.97533 108.079 4.49C108.574 4.00467 109.274 3.762 110.179 3.762C111.094 3.762 111.799 4.00467 112.293 4.49C112.788 4.966 113.035 5.58667 113.035 6.352ZM108.905 6.408V8.494C108.905 9.46467 109.33 9.95 110.179 9.95C111.038 9.95 111.467 9.46467 111.467 8.494V6.408C111.467 5.43733 111.038 4.952 110.179 4.952C109.33 4.952 108.905 5.43733 108.905 6.408ZM119.704 6.464V11H118.15V6.464C118.15 5.52133 117.814 5.05 117.142 5.05C116.619 5.05 116.232 5.32533 115.98 5.876V11H114.412V3.888H115.812V4.644H115.84C116.269 4.056 116.862 3.762 117.618 3.762C118.411 3.762 118.976 4.10733 119.312 4.798C119.778 4.10733 120.432 3.762 121.272 3.762C122.709 3.762 123.428 4.66267 123.428 6.464V11H121.874V6.464C121.874 5.52133 121.519 5.05 120.81 5.05C120.474 5.05 120.203 5.16667 119.998 5.4C119.802 5.63333 119.704 5.988 119.704 6.464ZM128.187 0.78L128.257 1.872C127.688 1.9 127.282 2.04467 127.039 2.306C126.797 2.56733 126.675 2.94067 126.675 3.426V3.902H130.637V11H129.083V5.036H126.745V11H125.177V5.036H124.351V3.902H125.177V3.398C125.177 2.63267 125.415 2.012 125.891 1.536C126.377 1.06 127.142 0.807999 128.187 0.78ZM129.167 0.85H130.567V2.502H129.167V0.85ZM133.944 5.736V11H132.376V3.888H133.776L133.818 4.574H133.846C134.322 4.03267 134.966 3.762 135.778 3.762C136.506 3.762 137.066 4 137.458 4.476C137.85 4.952 138.046 5.61 138.046 6.45V11H136.492V6.492C136.492 5.53067 136.096 5.05 135.302 5.05C134.705 5.05 134.252 5.27867 133.944 5.736ZM140.395 5.932L139.443 5.4C140.012 4.29867 140.861 3.748 141.991 3.748C142.793 3.748 143.386 3.972 143.769 4.42C144.161 4.85867 144.357 5.44667 144.357 6.184V9.544C144.357 9.89867 144.525 10.076 144.861 10.076H145.043V10.972C144.763 11.0467 144.52 11.084 144.315 11.084C143.717 11.084 143.293 10.8693 143.041 10.44C142.555 10.8973 141.944 11.126 141.207 11.126C140.581 11.126 140.091 10.9487 139.737 10.594C139.382 10.23 139.205 9.754 139.205 9.166C139.205 8.47533 139.447 7.92 139.933 7.5C140.418 7.08 141.211 6.87 142.313 6.87H142.803V6.184C142.803 5.36267 142.457 4.952 141.767 4.952C141.197 4.952 140.74 5.27867 140.395 5.932ZM141.599 10.048C142.084 10.048 142.485 9.866 142.803 9.502V7.906H142.313C141.725 7.906 141.309 8.004 141.067 8.2C140.824 8.396 140.703 8.68067 140.703 9.054C140.703 9.71667 141.001 10.048 141.599 10.048ZM147.616 5.736V11H146.048V3.888H147.448L147.49 4.574H147.518C147.994 4.03267 148.638 3.762 149.45 3.762C150.178 3.762 150.738 4 151.13 4.476C151.522 4.952 151.718 5.61 151.718 6.45V11H150.164V6.492C150.164 5.53067 149.768 5.05 148.974 5.05C148.377 5.05 147.924 5.27867 147.616 5.736ZM158.14 5.47L157.048 5.904C156.824 5.29733 156.409 4.994 155.802 4.994C154.953 4.994 154.528 5.46533 154.528 6.408V8.48C154.528 9.44133 154.953 9.922 155.802 9.922C156.409 9.922 156.829 9.6 157.062 8.956L158.182 9.376C157.753 10.5427 156.908 11.126 155.648 11.126C154.799 11.126 154.136 10.8833 153.66 10.398C153.194 9.90333 152.96 9.28733 152.96 8.55V6.352C152.96 5.596 153.194 4.97533 153.66 4.49C154.136 4.00467 154.799 3.762 155.648 3.762C156.236 3.762 156.745 3.91133 157.174 4.21C157.613 4.50867 157.935 4.92867 158.14 5.47ZM164.38 7.64H160.558V8.466C160.558 9.446 161.006 9.936 161.902 9.936C162.238 9.936 162.513 9.85667 162.728 9.698C162.942 9.53 163.124 9.25933 163.274 8.886L164.394 9.306C163.992 10.5193 163.11 11.126 161.748 11.126C160.88 11.126 160.203 10.888 159.718 10.412C159.232 9.92667 158.99 9.29667 158.99 8.522V6.338C158.99 5.59133 159.228 4.97533 159.704 4.49C160.18 4.00467 160.852 3.762 161.72 3.762C162.55 3.762 163.199 4.014 163.666 4.518C164.142 5.01267 164.38 5.64267 164.38 6.408V7.64ZM160.558 6.254V6.716H162.994V6.226C162.994 5.806 162.886 5.484 162.672 5.26C162.457 5.036 162.158 4.924 161.776 4.924C160.964 4.924 160.558 5.36733 160.558 6.254ZM165.527 11V9.208H167.221V11H165.527ZM173.813 7.64H169.991V8.466C169.991 9.446 170.439 9.936 171.335 9.936C171.671 9.936 171.947 9.85667 172.161 9.698C172.376 9.53 172.558 9.25933 172.707 8.886L173.827 9.306C173.426 10.5193 172.544 11.126 171.181 11.126C170.313 11.126 169.637 10.888 169.151 10.412C168.666 9.92667 168.423 9.29667 168.423 8.522V6.338C168.423 5.59133 168.661 4.97533 169.137 4.49C169.613 4.00467 170.285 3.762 171.153 3.762C171.984 3.762 172.633 4.014 173.099 4.518C173.575 5.01267 173.813 5.64267 173.813 6.408V7.64ZM169.991 6.254V6.716H172.427V6.226C172.427 5.806 172.32 5.484 172.105 5.26C171.891 5.036 171.592 4.924 171.209 4.924C170.397 4.924 169.991 5.36733 169.991 6.254ZM179.091 9.208V3.888H180.645V11H179.259L179.203 10.328H179.175C178.689 10.86 178.041 11.126 177.229 11.126C176.51 11.126 175.955 10.888 175.563 10.412C175.171 9.92667 174.975 9.26867 174.975 8.438V3.888H176.543V8.452C176.543 9.404 176.939 9.88 177.733 9.88C178.311 9.88 178.764 9.656 179.091 9.208Z" fill="#72BF44"/>
</svg>
