<svg width="107" height="14" viewBox="0 0 107 14" fill="none" xmlns="http://www.w3.org/2000/svg">
    <path d="M2.912 3.748C3.612 3.748 4.186 3.958 4.634 4.378H4.662V0.541999H6.23V11H4.844L4.774 10.342H4.746C4.27 10.8647 3.626 11.126 2.814 11.126C2.09533 11.126 1.54 10.888 1.148 10.412C0.756 9.936 0.56 9.278 0.56 8.438V6.436C0.56 5.596 0.760667 4.938 1.162 4.462C1.56333 3.986 2.14667 3.748 2.912 3.748ZM4.662 9.208V5.652C4.34467 5.22267 3.906 5.008 3.346 5.008C2.534 5.008 2.128 5.498 2.128 6.478V8.452C2.128 9.404 2.52467 9.88 3.318 9.88C3.89667 9.88 4.34467 9.656 4.662 9.208ZM7.76738 11V9.208H9.46138V11H7.76738ZM11.0275 3.888H12.5955V11H11.0275V3.888ZM11.0835 0.85H12.5395V2.502H11.0835V0.85ZM20.3952 3.888L17.9032 11H16.1532L13.6752 3.888H15.4532L17.0072 9.614H17.0352L18.6172 3.888H20.3952ZM21.9414 5.932L20.9894 5.4C21.5587 4.29867 22.4081 3.748 23.5374 3.748C24.3401 3.748 24.9327 3.972 25.3154 4.42C25.7074 4.85867 25.9034 5.44667 25.9034 6.184V9.544C25.9034 9.89867 26.0714 10.076 26.4074 10.076H26.5894V10.972C26.3094 11.0467 26.0667 11.084 25.8614 11.084C25.2641 11.084 24.8394 10.8693 24.5874 10.44C24.1021 10.8973 23.4907 11.126 22.7534 11.126C22.1281 11.126 21.6381 10.9487 21.2834 10.594C20.9287 10.23 20.7514 9.754 20.7514 9.166C20.7514 8.47533 20.9941 7.92 21.4794 7.5C21.9647 7.08 22.7581 6.87 23.8594 6.87H24.3494V6.184C24.3494 5.36267 24.0041 4.952 23.3134 4.952C22.7441 4.952 22.2867 5.27867 21.9414 5.932ZM23.1454 10.048C23.6307 10.048 24.0321 9.866 24.3494 9.502V7.906H23.8594C23.2714 7.906 22.8561 8.004 22.6134 8.2C22.3707 8.396 22.2494 8.68067 22.2494 9.054C22.2494 9.71667 22.5481 10.048 23.1454 10.048ZM29.1632 5.736V11H27.5952V3.888H28.9952L29.0372 4.574H29.0652C29.5412 4.03267 30.1852 3.762 30.9972 3.762C31.7252 3.762 32.2852 4 32.6772 4.476C33.0692 4.952 33.2652 5.61 33.2652 6.45V11H31.7112V6.492C31.7112 5.53067 31.3145 5.05 30.5212 5.05C29.9239 5.05 29.4712 5.27867 29.1632 5.736ZM40.2053 6.352V8.564C40.2053 9.31067 39.9533 9.92667 39.4493 10.412C38.9546 10.888 38.2546 11.126 37.3493 11.126C36.4439 11.126 35.7439 10.888 35.2493 10.412C34.7546 9.936 34.5073 9.32 34.5073 8.564V6.352C34.5073 5.596 34.7546 4.97533 35.2493 4.49C35.7439 4.00467 36.4439 3.762 37.3493 3.762C38.2639 3.762 38.9686 4.00467 39.4633 4.49C39.9579 4.966 40.2053 5.58667 40.2053 6.352ZM36.0753 6.408V8.494C36.0753 9.46467 36.4999 9.95 37.3493 9.95C38.2079 9.95 38.6373 9.46467 38.6373 8.494V6.408C38.6373 5.43733 38.2079 4.952 37.3493 4.952C36.4999 4.952 36.0753 5.43733 36.0753 6.408ZM47.4928 3.888L45.0008 11H43.2508L40.7728 3.888H42.5508L44.1048 9.614H44.1328L45.7148 3.888H47.4928ZM55.5288 4.924H55.1788L54.9268 7.934C54.9175 7.99 54.9128 8.06467 54.9128 8.158C54.9128 8.68067 55.1461 8.942 55.6128 8.942C55.9861 8.942 56.2661 8.79733 56.4528 8.508C56.6395 8.21867 56.7328 7.71467 56.7328 6.996V5.218C56.7328 4.126 56.4341 3.286 55.8368 2.698C55.2488 2.11 54.3715 1.816 53.2048 1.816C52.0195 1.816 51.0908 2.16133 50.4188 2.852C49.7561 3.54267 49.4248 4.42933 49.4248 5.512V8.312C49.4248 9.544 49.7701 10.4913 50.4608 11.154C51.1515 11.826 52.0848 12.162 53.2608 12.162C54.0261 12.162 54.6655 12.0593 55.1788 11.854C55.6921 11.658 56.1681 11.35 56.6068 10.93L57.4468 11.56C56.3641 12.6893 54.9641 13.254 53.2468 13.254C51.6695 13.254 50.4421 12.82 49.5648 11.952C48.6875 11.084 48.2488 9.87067 48.2488 8.312V5.484C48.2488 4.112 48.6921 2.96867 49.5788 2.054C50.4655 1.13933 51.6741 0.681999 53.2048 0.681999C54.7075 0.681999 55.8601 1.10667 56.6628 1.956C57.4748 2.796 57.8808 3.88333 57.8808 5.218V6.982C57.8808 8.018 57.6708 8.79267 57.2508 9.306C56.8308 9.81933 56.2661 10.076 55.5568 10.076C54.8008 10.076 54.2875 9.838 54.0168 9.362C53.5315 9.866 52.9201 10.118 52.1828 10.118C51.6135 10.118 51.1748 9.93133 50.8668 9.558C50.5681 9.18467 50.4188 8.662 50.4188 7.99C50.4188 6.74867 50.7315 5.75933 51.3568 5.022C51.9821 4.28467 52.8641 3.916 54.0028 3.916H55.5848L55.5288 4.924ZM53.6108 8.214L53.8768 5.078H53.6948C53.0881 5.078 52.6215 5.32533 52.2948 5.82C51.9775 6.30533 51.8188 7.01 51.8188 7.934C51.8188 8.31667 51.8748 8.58733 51.9868 8.746C52.1081 8.89533 52.2901 8.97 52.5328 8.97C53.0181 8.97 53.3775 8.718 53.6108 8.214ZM66.4816 0.78L66.5516 1.872C65.9823 1.9 65.5763 2.04467 65.3336 2.306C65.091 2.56733 64.9696 2.94067 64.9696 3.426V3.902H68.9316V11H67.3776V5.036H65.0396V11H63.4716V5.036H61.1476V11H59.5796V5.036H58.7536V3.902H59.5796V3.398C59.5796 2.63267 59.8176 2.012 60.2936 1.536C60.779 1.06 61.5443 0.807999 62.5896 0.78L62.6596 1.872C62.0903 1.9 61.6843 2.04467 61.4416 2.306C61.199 2.56733 61.0776 2.94067 61.0776 3.426V3.902H63.4716V3.398C63.4716 2.63267 63.7096 2.012 64.1856 1.536C64.671 1.06 65.4363 0.807999 66.4816 0.78ZM67.4616 0.85H68.8616V2.502H67.4616V0.85ZM72.2296 5.736V11H70.6616V3.888H72.0616L72.1036 4.574H72.1316C72.6076 4.03267 73.2516 3.762 74.0636 3.762C74.7916 3.762 75.3516 4 75.7436 4.476C76.1356 4.952 76.3316 5.61 76.3316 6.45V11H74.7776V6.492C74.7776 5.53067 74.3809 5.05 73.5876 5.05C72.9903 5.05 72.5376 5.27867 72.2296 5.736ZM82.9637 7.64H79.1417V8.466C79.1417 9.446 79.5897 9.936 80.4857 9.936C80.8217 9.936 81.097 9.85667 81.3117 9.698C81.5263 9.53 81.7083 9.25933 81.8577 8.886L82.9777 9.306C82.5763 10.5193 81.6943 11.126 80.3317 11.126C79.4637 11.126 78.787 10.888 78.3017 10.412C77.8163 9.92667 77.5737 9.29667 77.5737 8.522V6.338C77.5737 5.59133 77.8117 4.97533 78.2877 4.49C78.7637 4.00467 79.4357 3.762 80.3037 3.762C81.1343 3.762 81.783 4.014 82.2497 4.518C82.7257 5.01267 82.9637 5.64267 82.9637 6.408V7.64ZM79.1417 6.254V6.716H81.5777V6.226C81.5777 5.806 81.4703 5.484 81.2557 5.26C81.041 5.036 80.7423 4.924 80.3597 4.924C79.5477 4.924 79.1417 5.36733 79.1417 6.254ZM88.2411 9.208V3.888H89.7951V11H88.4091L88.3531 10.328H88.3251C87.8398 10.86 87.1911 11.126 86.3791 11.126C85.6605 11.126 85.1051 10.888 84.7131 10.412C84.3211 9.92667 84.1251 9.26867 84.1251 8.438V3.888H85.6931V8.452C85.6931 9.404 86.0898 9.88 86.8831 9.88C87.4618 9.88 87.9145 9.656 88.2411 9.208ZM91.2752 11V9.208H92.9692V11H91.2752ZM99.5613 7.64H95.7393V8.466C95.7393 9.446 96.1873 9.936 97.0833 9.936C97.4193 9.936 97.6947 9.85667 97.9093 9.698C98.124 9.53 98.306 9.25933 98.4553 8.886L99.5753 9.306C99.174 10.5193 98.292 11.126 96.9293 11.126C96.0613 11.126 95.3847 10.888 94.8993 10.412C94.414 9.92667 94.1713 9.29667 94.1713 8.522V6.338C94.1713 5.59133 94.4093 4.97533 94.8853 4.49C95.3613 4.00467 96.0333 3.762 96.9013 3.762C97.732 3.762 98.3807 4.014 98.8473 4.518C99.3233 5.01267 99.5613 5.64267 99.5613 6.408V7.64ZM95.7393 6.254V6.716H98.1753V6.226C98.1753 5.806 98.068 5.484 97.8533 5.26C97.6387 5.036 97.34 4.924 96.9573 4.924C96.1453 4.924 95.7393 5.36733 95.7393 6.254ZM104.839 9.208V3.888H106.393V11H105.007L104.951 10.328H104.923C104.437 10.86 103.789 11.126 102.977 11.126C102.258 11.126 101.703 10.888 101.311 10.412C100.919 9.92667 100.723 9.26867 100.723 8.438V3.888H102.291V8.452C102.291 9.404 102.687 9.88 103.481 9.88C104.059 9.88 104.512 9.656 104.839 9.208Z" fill="#72BF44"/>
</svg>
