<svg width="172" height="14" viewBox="0 0 172 14" fill="none" xmlns="http://www.w3.org/2000/svg">
<path d="M0.868 0.541999H2.436V7.388L5.054 3.888H6.748L4.382 6.968L6.972 11H5.208L3.346 7.962L2.436 8.942V11H0.868V0.541999ZM8.77538 5.932L7.82338 5.4C8.39271 4.29867 9.24204 3.748 10.3714 3.748C11.174 3.748 11.7667 3.972 12.1494 4.42C12.5414 4.85867 12.7374 5.44667 12.7374 6.184V9.544C12.7374 9.89867 12.9054 10.076 13.2414 10.076H13.4234V10.972C13.1434 11.0467 12.9007 11.084 12.6954 11.084C12.098 11.084 11.6734 10.8693 11.4214 10.44C10.936 10.8973 10.3247 11.126 9.58738 11.126C8.96204 11.126 8.47204 10.9487 8.11738 10.594C7.76271 10.23 7.58538 9.754 7.58538 9.166C7.58538 8.47533 7.82804 7.92 8.31338 7.5C8.79871 7.08 9.59204 6.87 10.6934 6.87H11.1834V6.184C11.1834 5.36267 10.838 4.952 10.1474 4.952C9.57804 4.952 9.12071 5.27867 8.77538 5.932ZM9.97938 10.048C10.4647 10.048 10.866 9.866 11.1834 9.502V7.906H10.6934C10.1054 7.906 9.69004 8.004 9.44738 8.2C9.20471 8.396 9.08338 8.68067 9.08338 9.054C9.08338 9.71667 9.38204 10.048 9.97938 10.048ZM18.4192 3.958L18.2512 5.386C18.0645 5.26467 17.8359 5.204 17.5652 5.204C16.6505 5.204 16.1279 5.81533 15.9972 7.038V11H14.4292V3.888H15.7872L15.8572 5.064H15.8852C16.2585 4.20533 16.8372 3.776 17.6212 3.776C17.9292 3.776 18.1952 3.83667 18.4192 3.958ZM22.7784 11.112C22.0784 11.112 21.5044 10.902 21.0564 10.482H21.0284V13.366H19.4604V3.888H20.8604L20.9024 4.574H20.9304C21.4064 4.03267 22.0598 3.762 22.8904 3.762C23.6091 3.762 24.1598 4.00467 24.5424 4.49C24.9344 4.966 25.1304 5.624 25.1304 6.464V8.424C25.1304 9.264 24.9298 9.922 24.5284 10.398C24.1271 10.874 23.5438 11.112 22.7784 11.112ZM21.0284 5.722V9.222C21.3364 9.66067 21.7751 9.88 22.3444 9.88C23.1658 9.88 23.5764 9.39467 23.5764 8.424V6.492C23.5764 5.53067 23.1798 5.05 22.3864 5.05C21.8078 5.05 21.3551 5.274 21.0284 5.722ZM30.4775 9.208V3.888H32.0315V11H30.6455L30.5895 10.328H30.5615C30.0761 10.86 29.4275 11.126 28.6155 11.126C27.8968 11.126 27.3415 10.888 26.9495 10.412C26.5575 9.92667 26.3615 9.26867 26.3615 8.438V3.888H27.9295V8.452C27.9295 9.404 28.3261 9.88 29.1195 9.88C29.6981 9.88 30.1508 9.656 30.4775 9.208ZM35.2335 5.736V11H33.6655V3.888H35.0655L35.1075 4.574H35.1355C35.6115 4.03267 36.2555 3.762 37.0675 3.762C37.7955 3.762 38.3555 4 38.7475 4.476C39.1395 4.952 39.3355 5.61 39.3355 6.45V11H37.7815V6.492C37.7815 5.53067 37.3848 5.05 36.5915 5.05C35.9942 5.05 35.5415 5.27867 35.2335 5.736ZM40.9416 3.888H42.5096V11H40.9416V3.888ZM40.9976 0.85H42.4536V2.502H40.9976V0.85ZM45.8292 5.736V11H44.2612V3.888H45.6612L45.7032 4.574H45.7312C46.2072 4.03267 46.8512 3.762 47.6632 3.762C48.3912 3.762 48.9512 4 49.3432 4.476C49.7352 4.952 49.9312 5.61 49.9312 6.45V11H48.3772V6.492C48.3772 5.53067 47.9806 5.05 47.1872 5.05C46.5899 5.05 46.1372 5.27867 45.8292 5.736ZM52.2793 5.932L51.3273 5.4C51.8966 4.29867 52.7459 3.748 53.8753 3.748C54.6779 3.748 55.2706 3.972 55.6533 4.42C56.0453 4.85867 56.2413 5.44667 56.2413 6.184V9.544C56.2413 9.89867 56.4093 10.076 56.7453 10.076H56.9273V10.972C56.6473 11.0467 56.4046 11.084 56.1993 11.084C55.6019 11.084 55.1773 10.8693 54.9253 10.44C54.4399 10.8973 53.8286 11.126 53.0913 11.126C52.4659 11.126 51.9759 10.9487 51.6213 10.594C51.2666 10.23 51.0893 9.754 51.0893 9.166C51.0893 8.47533 51.3319 7.92 51.8173 7.5C52.3026 7.08 53.0959 6.87 54.1973 6.87H54.6873V6.184C54.6873 5.36267 54.3419 4.952 53.6513 4.952C53.0819 4.952 52.6246 5.27867 52.2793 5.932ZM53.4833 10.048C53.9686 10.048 54.3699 9.866 54.6873 9.502V7.906H54.1973C53.6093 7.906 53.1939 8.004 52.9513 8.2C52.7086 8.396 52.5873 8.68067 52.5873 9.054C52.5873 9.71667 52.8859 10.048 53.4833 10.048ZM65.0171 4.924H64.6671L64.4151 7.934C64.4058 7.99 64.4011 8.06467 64.4011 8.158C64.4011 8.68067 64.6344 8.942 65.1011 8.942C65.4744 8.942 65.7544 8.79733 65.9411 8.508C66.1278 8.21867 66.2211 7.71467 66.2211 6.996V5.218C66.2211 4.126 65.9224 3.286 65.3251 2.698C64.7371 2.11 63.8598 1.816 62.6931 1.816C61.5078 1.816 60.5791 2.16133 59.9071 2.852C59.2444 3.54267 58.9131 4.42933 58.9131 5.512V8.312C58.9131 9.544 59.2584 10.4913 59.9491 11.154C60.6398 11.826 61.5731 12.162 62.7491 12.162C63.5144 12.162 64.1538 12.0593 64.6671 11.854C65.1804 11.658 65.6564 11.35 66.0951 10.93L66.9351 11.56C65.8524 12.6893 64.4524 13.254 62.7351 13.254C61.1578 13.254 59.9304 12.82 59.0531 11.952C58.1758 11.084 57.7371 9.87067 57.7371 8.312V5.484C57.7371 4.112 58.1804 2.96867 59.0671 2.054C59.9538 1.13933 61.1624 0.681999 62.6931 0.681999C64.1958 0.681999 65.3484 1.10667 66.1511 1.956C66.9631 2.796 67.3691 3.88333 67.3691 5.218V6.982C67.3691 8.018 67.1591 8.79267 66.7391 9.306C66.3191 9.81933 65.7544 10.076 65.0451 10.076C64.2891 10.076 63.7758 9.838 63.5051 9.362C63.0198 9.866 62.4084 10.118 61.6711 10.118C61.1018 10.118 60.6631 9.93133 60.3551 9.558C60.0564 9.18467 59.9071 8.662 59.9071 7.99C59.9071 6.74867 60.2198 5.75933 60.8451 5.022C61.4704 4.28467 62.3524 3.916 63.4911 3.916H65.0731L65.0171 4.924ZM63.0991 8.214L63.3651 5.078H63.1831C62.5764 5.078 62.1098 5.32533 61.7831 5.82C61.4658 6.30533 61.3071 7.01 61.3071 7.934C61.3071 8.31667 61.3631 8.58733 61.4751 8.746C61.5964 8.89533 61.7784 8.97 62.0211 8.97C62.5064 8.97 62.8658 8.718 63.0991 8.214ZM72.2179 3.902V5.036H70.6359V11H69.0679V5.036H68.2419V3.902H69.0679V3.398C69.0679 2.63267 69.3059 2.012 69.7819 1.536C70.2672 1.06 71.0326 0.807999 72.0779 0.78L72.1479 1.872C71.5786 1.9 71.1726 2.04467 70.9299 2.306C70.6872 2.56733 70.5659 2.94067 70.5659 3.426V3.902H72.2179ZM77.2356 3.958L77.0676 5.386C76.8809 5.26467 76.6523 5.204 76.3816 5.204C75.4669 5.204 74.9443 5.81533 74.8136 7.038V11H73.2456V3.888H74.6036L74.6736 5.064H74.7016C75.0749 4.20533 75.6536 3.776 76.4376 3.776C76.7456 3.776 77.0116 3.83667 77.2356 3.958ZM83.2645 7.64H79.4425V8.466C79.4425 9.446 79.8905 9.936 80.7865 9.936C81.1225 9.936 81.3978 9.85667 81.6125 9.698C81.8271 9.53 82.0091 9.25933 82.1585 8.886L83.2785 9.306C82.8771 10.5193 81.9951 11.126 80.6325 11.126C79.7645 11.126 79.0878 10.888 78.6025 10.412C78.1171 9.92667 77.8745 9.29667 77.8745 8.522V6.338C77.8745 5.59133 78.1125 4.97533 78.5885 4.49C79.0645 4.00467 79.7365 3.762 80.6045 3.762C81.4351 3.762 82.0838 4.014 82.5505 4.518C83.0265 5.01267 83.2645 5.64267 83.2645 6.408V7.64ZM79.4425 6.254V6.716H81.8785V6.226C81.8785 5.806 81.7711 5.484 81.5565 5.26C81.3418 5.036 81.0431 4.924 80.6605 4.924C79.8485 4.924 79.4425 5.36733 79.4425 6.254ZM89.7039 7.64H85.8819V8.466C85.8819 9.446 86.3299 9.936 87.2259 9.936C87.5619 9.936 87.8372 9.85667 88.0519 9.698C88.2666 9.53 88.4486 9.25933 88.5979 8.886L89.7179 9.306C89.3166 10.5193 88.4346 11.126 87.0719 11.126C86.2039 11.126 85.5272 10.888 85.0419 10.412C84.5566 9.92667 84.3139 9.29667 84.3139 8.522V6.338C84.3139 5.59133 84.5519 4.97533 85.0279 4.49C85.5039 4.00467 86.1759 3.762 87.0439 3.762C87.8746 3.762 88.5232 4.014 88.9899 4.518C89.4659 5.01267 89.7039 5.64267 89.7039 6.408V7.64ZM85.8819 6.254V6.716H88.3179V6.226C88.3179 5.806 88.2106 5.484 87.9959 5.26C87.7812 5.036 87.4826 4.924 87.0999 4.924C86.2879 4.924 85.8819 5.36733 85.8819 6.254ZM93.1054 3.748C93.8054 3.748 94.3794 3.958 94.8274 4.378H94.8554V0.541999H96.4234V11H95.0374L94.9674 10.342H94.9394C94.4634 10.8647 93.8194 11.126 93.0074 11.126C92.2887 11.126 91.7334 10.888 91.3414 10.412C90.9494 9.936 90.7534 9.278 90.7534 8.438V6.436C90.7534 5.596 90.954 4.938 91.3554 4.462C91.7567 3.986 92.34 3.748 93.1054 3.748ZM94.8554 9.208V5.652C94.538 5.22267 94.0994 5.008 93.5394 5.008C92.7274 5.008 92.3214 5.498 92.3214 6.478V8.452C92.3214 9.404 92.718 9.88 93.5114 9.88C94.09 9.88 94.538 9.656 94.8554 9.208ZM103.561 6.352V8.564C103.561 9.31067 103.309 9.92667 102.805 10.412C102.31 10.888 101.61 11.126 100.705 11.126C99.7994 11.126 99.0994 10.888 98.6047 10.412C98.1101 9.936 97.8627 9.32 97.8627 8.564V6.352C97.8627 5.596 98.1101 4.97533 98.6047 4.49C99.0994 4.00467 99.7994 3.762 100.705 3.762C101.619 3.762 102.324 4.00467 102.819 4.49C103.313 4.966 103.561 5.58667 103.561 6.352ZM99.4307 6.408V8.494C99.4307 9.46467 99.8554 9.95 100.705 9.95C101.563 9.95 101.993 9.46467 101.993 8.494V6.408C101.993 5.43733 101.563 4.952 100.705 4.952C99.8554 4.952 99.4307 5.43733 99.4307 6.408ZM110.229 6.464V11H108.675V6.464C108.675 5.52133 108.339 5.05 107.667 5.05C107.144 5.05 106.757 5.32533 106.505 5.876V11H104.937V3.888H106.337V4.644H106.365C106.794 4.056 107.387 3.762 108.143 3.762C108.936 3.762 109.501 4.10733 109.837 4.798C110.304 4.10733 110.957 3.762 111.797 3.762C113.234 3.762 113.953 4.66267 113.953 6.464V11H112.399V6.464C112.399 5.52133 112.044 5.05 111.335 5.05C110.999 5.05 110.728 5.16667 110.523 5.4C110.327 5.63333 110.229 5.988 110.229 6.464ZM118.713 0.78L118.783 1.872C118.213 1.9 117.807 2.04467 117.565 2.306C117.322 2.56733 117.201 2.94067 117.201 3.426V3.902H121.163V11H119.609V5.036H117.271V11H115.703V5.036H114.877V3.902H115.703V3.398C115.703 2.63267 115.941 2.012 116.417 1.536C116.902 1.06 117.667 0.807999 118.713 0.78ZM119.693 0.85H121.093V2.502H119.693V0.85ZM124.47 5.736V11H122.902V3.888H124.302L124.344 4.574H124.372C124.848 4.03267 125.492 3.762 126.304 3.762C127.032 3.762 127.592 4 127.984 4.476C128.376 4.952 128.572 5.61 128.572 6.45V11H127.018V6.492C127.018 5.53067 126.621 5.05 125.828 5.05C125.231 5.05 124.778 5.27867 124.47 5.736ZM130.92 5.932L129.968 5.4C130.537 4.29867 131.387 3.748 132.516 3.748C133.319 3.748 133.911 3.972 134.294 4.42C134.686 4.85867 134.882 5.44667 134.882 6.184V9.544C134.882 9.89867 135.05 10.076 135.386 10.076H135.568V10.972C135.288 11.0467 135.045 11.084 134.84 11.084C134.243 11.084 133.818 10.8693 133.566 10.44C133.081 10.8973 132.469 11.126 131.732 11.126C131.107 11.126 130.617 10.9487 130.262 10.594C129.907 10.23 129.73 9.754 129.73 9.166C129.73 8.47533 129.973 7.92 130.458 7.5C130.943 7.08 131.737 6.87 132.838 6.87H133.328V6.184C133.328 5.36267 132.983 4.952 132.292 4.952C131.723 4.952 131.265 5.27867 130.92 5.932ZM132.124 10.048C132.609 10.048 133.011 9.866 133.328 9.502V7.906H132.838C132.25 7.906 131.835 8.004 131.592 8.2C131.349 8.396 131.228 8.68067 131.228 9.054C131.228 9.71667 131.527 10.048 132.124 10.048ZM138.142 5.736V11H136.574V3.888H137.974L138.016 4.574H138.044C138.52 4.03267 139.164 3.762 139.976 3.762C140.704 3.762 141.264 4 141.656 4.476C142.048 4.952 142.244 5.61 142.244 6.45V11H140.69V6.492C140.69 5.53067 140.293 5.05 139.5 5.05C138.902 5.05 138.45 5.27867 138.142 5.736ZM148.666 5.47L147.574 5.904C147.35 5.29733 146.934 4.994 146.328 4.994C145.478 4.994 145.054 5.46533 145.054 6.408V8.48C145.054 9.44133 145.478 9.922 146.328 9.922C146.934 9.922 147.354 9.6 147.588 8.956L148.708 9.376C148.278 10.5427 147.434 11.126 146.174 11.126C145.324 11.126 144.662 10.8833 144.186 10.398C143.719 9.90333 143.486 9.28733 143.486 8.55V6.352C143.486 5.596 143.719 4.97533 144.186 4.49C144.662 4.00467 145.324 3.762 146.174 3.762C146.762 3.762 147.27 3.91133 147.7 4.21C148.138 4.50867 148.46 4.92867 148.666 5.47ZM154.905 7.64H151.083V8.466C151.083 9.446 151.531 9.936 152.427 9.936C152.763 9.936 153.038 9.85667 153.253 9.698C153.468 9.53 153.65 9.25933 153.799 8.886L154.919 9.306C154.518 10.5193 153.636 11.126 152.273 11.126C151.405 11.126 150.728 10.888 150.243 10.412C149.758 9.92667 149.515 9.29667 149.515 8.522V6.338C149.515 5.59133 149.753 4.97533 150.229 4.49C150.705 4.00467 151.377 3.762 152.245 3.762C153.076 3.762 153.724 4.014 154.191 4.518C154.667 5.01267 154.905 5.64267 154.905 6.408V7.64ZM151.083 6.254V6.716H153.519V6.226C153.519 5.806 153.412 5.484 153.197 5.26C152.982 5.036 152.684 4.924 152.301 4.924C151.489 4.924 151.083 5.36733 151.083 6.254ZM156.053 11V9.208H157.747V11H156.053ZM164.339 7.64H160.517V8.466C160.517 9.446 160.965 9.936 161.861 9.936C162.197 9.936 162.472 9.85667 162.687 9.698C162.901 9.53 163.083 9.25933 163.233 8.886L164.353 9.306C163.951 10.5193 163.069 11.126 161.707 11.126C160.839 11.126 160.162 10.888 159.677 10.412C159.191 9.92667 158.949 9.29667 158.949 8.522V6.338C158.949 5.59133 159.187 4.97533 159.663 4.49C160.139 4.00467 160.811 3.762 161.679 3.762C162.509 3.762 163.158 4.014 163.625 4.518C164.101 5.01267 164.339 5.64267 164.339 6.408V7.64ZM160.517 6.254V6.716H162.953V6.226C162.953 5.806 162.845 5.484 162.631 5.26C162.416 5.036 162.117 4.924 161.735 4.924C160.923 4.924 160.517 5.36733 160.517 6.254ZM169.616 9.208V3.888H171.17V11H169.784L169.728 10.328H169.7C169.215 10.86 168.566 11.126 167.754 11.126C167.035 11.126 166.48 10.888 166.088 10.412C165.696 9.92667 165.5 9.26867 165.5 8.438V3.888H167.068V8.452C167.068 9.404 167.465 9.88 168.258 9.88C168.837 9.88 169.289 9.656 169.616 9.208Z" fill="#72BF44"/>
</svg>
