<svg xmlns="http://www.w3.org/2000/svg" width="74" height="14" viewBox="0 0 74 14" fill="none"><path d="M2.4 5.7C2.6 5.3 3.1 5.1 3.7 5.1 4.5 5.1 4.9 5.5 4.9 6.5V11H6.5V6.5C6.5 4.8 5.7 3.8 4.2 3.8 3.4 3.8 2.8 4 2.3 4.6H2.3L2.2 3.9H0.8V11H2.4V5.7ZM8 0.5V11H9.6V8.9L10.5 8 12.4 11H14.1L11.5 7 13.9 3.9H12.2L9.6 7.4V0.5H8ZM22.2 4.9L22.2 3.9H20.6C18.3 3.9 17.1 5.6 17.1 8 17.1 9.3 17.7 10.1 18.8 10.1 19.6 10.1 20.2 9.9 20.7 9.4 20.9 9.9 21.5 10.1 22.2 10.1 23.6 10.1 24.5 9.1 24.5 7V5.2C24.5 2.7 23 0.7 19.8 0.7 16.7 0.7 14.9 2.9 14.9 5.5V8.3C14.9 11.4 16.7 13.3 19.9 13.3 21.7 13.3 23 12.7 24.1 11.6L23.2 10.9C22.4 11.7 21.5 12.2 19.9 12.2 17.6 12.2 16.1 10.8 16.1 8.3V5.5C16.1 3.4 17.4 1.8 19.8 1.8 22.2 1.8 23.4 3.1 23.4 5.2V7C23.4 8.5 22.9 8.9 22.3 8.9 21.8 8.9 21.6 8.7 21.6 8.2 21.6 8.1 21.6 8 21.6 7.9L21.8 4.9H22.2ZM20.3 8.2C20 8.7 19.6 9 19.2 9 18.7 9 18.5 8.7 18.5 7.9 18.5 6.1 19.1 5.1 20.3 5.1H20.5L20.3 8.2ZM33.1 0.8C30.9 0.8 30.1 2 30.1 3.4V3.9H27.7V3.4C27.7 2.5 28.1 1.9 29.3 1.9L29.2 0.8C27 0.8 26.2 2 26.2 3.4V3.9H25.4V5H26.2V11H27.8V5H30.1V11H31.7V5H34V11H35.6V3.9H31.6V3.4C31.6 2.5 32 1.9 33.2 1.9L33.1 0.8ZM34.1 0.9V2.5H35.5V0.9H34.1ZM38.9 5.7C39.1 5.3 39.6 5.1 40.2 5.1 41 5.1 41.4 5.5 41.4 6.5V11H43V6.5C43 4.8 42.2 3.8 40.7 3.8 39.9 3.8 39.2 4 38.8 4.6H38.7L38.7 3.9H37.3V11H38.9V5.7ZM49.6 7.6V6.4C49.6 4.9 48.7 3.8 46.9 3.8 45.2 3.8 44.2 4.9 44.2 6.3V8.5C44.2 10 45.2 11.1 47 11.1 48.4 11.1 49.2 10.5 49.6 9.3L48.5 8.9C48.2 9.6 47.8 9.9 47.1 9.9 46.2 9.9 45.8 9.4 45.8 8.5V7.6H49.6ZM45.8 6.3C45.8 5.4 46.2 4.9 47 4.9 47.8 4.9 48.2 5.4 48.2 6.2V6.7H45.8V6.3ZM54.9 9.2C54.6 9.6 54.1 9.9 53.5 9.9 52.7 9.9 52.3 9.4 52.3 8.5V3.9H50.8V8.4C50.8 10.1 51.6 11.1 53 11.1 53.8 11.1 54.5 10.9 55 10.3H55L55 11H56.4V3.9H54.9V9.2ZM57.9 11H59.6V9.2H57.9V11ZM66.2 7.6V6.4C66.2 4.9 65.3 3.8 63.5 3.8 61.8 3.8 60.8 4.9 60.8 6.3V8.5C60.8 10 61.8 11.1 63.6 11.1 65 11.1 65.8 10.5 66.2 9.3L65.1 8.9C64.8 9.6 64.4 9.9 63.7 9.9 62.8 9.9 62.4 9.4 62.4 8.5V7.6H66.2ZM62.4 6.3C62.4 5.4 62.8 4.9 63.6 4.9 64.4 4.9 64.8 5.4 64.8 6.2V6.7H62.4V6.3ZM71.5 9.2C71.2 9.6 70.7 9.9 70.1 9.9 69.3 9.9 68.9 9.4 68.9 8.5V3.9H67.4V8.4C67.4 10.1 68.2 11.1 69.6 11.1 70.4 11.1 71.1 10.9 71.6 10.3H71.6L71.6 11H73V3.9H71.5V9.2Z" fill="#72BF44"/></svg>
