<svg width="120" height="14" viewBox="0 0 120 14" fill="none" xmlns="http://www.w3.org/2000/svg">
<path d="M6.902 3.888L4.298 11.14C4.02733 11.8867 3.668 12.4327 3.22 12.778C2.78133 13.1233 2.19333 13.31 1.456 13.338L1.344 12.232C1.764 12.1853 2.09067 12.0687 2.324 11.882C2.55733 11.7047 2.73933 11.42 2.87 11.028L2.968 10.734L0.182 3.888H1.932L3.724 9.096H3.752L5.278 3.888H6.902ZM6.89238 11V9.208H8.58638V11H6.89238ZM12.2245 11.126C10.9925 11.126 10.1478 10.5893 9.69052 9.516L10.8105 8.984C11.1278 9.67467 11.5852 10.02 12.1825 10.02C12.8452 10.02 13.1765 9.71667 13.1765 9.11C13.1765 8.858 13.0598 8.648 12.8265 8.48C12.5932 8.30267 12.3085 8.15333 11.9725 8.032C11.6458 7.91067 11.3145 7.77533 10.9785 7.626C10.6518 7.46733 10.3718 7.234 10.1385 6.926C9.90518 6.618 9.78852 6.24467 9.78852 5.806C9.78852 5.218 10.0032 4.73267 10.4325 4.35C10.8618 3.958 11.4592 3.762 12.2245 3.762C12.8032 3.762 13.2978 3.90667 13.7085 4.196C14.1192 4.476 14.4178 4.87267 14.6045 5.386L13.5265 5.792C13.2652 5.18533 12.8498 4.882 12.2805 4.882C11.6085 4.882 11.2725 5.148 11.2725 5.68C11.2725 5.92267 11.3892 6.128 11.6225 6.296C11.8558 6.464 12.1358 6.60867 12.4625 6.73C12.7985 6.85133 13.1298 6.99133 13.4565 7.15C13.7925 7.30867 14.0772 7.542 14.3105 7.85C14.5438 8.158 14.6605 8.53133 14.6605 8.97C14.6605 9.59533 14.4318 10.1133 13.9745 10.524C13.5172 10.9253 12.9338 11.126 12.2245 11.126ZM16.7187 5.932L15.7667 5.4C16.3361 4.29867 17.1854 3.748 18.3147 3.748C19.1174 3.748 19.7101 3.972 20.0927 4.42C20.4847 4.85867 20.6807 5.44667 20.6807 6.184V9.544C20.6807 9.89867 20.8487 10.076 21.1847 10.076H21.3667V10.972C21.0867 11.0467 20.8441 11.084 20.6387 11.084C20.0414 11.084 19.6167 10.8693 19.3647 10.44C18.8794 10.8973 18.2681 11.126 17.5307 11.126C16.9054 11.126 16.4154 10.9487 16.0607 10.594C15.7061 10.23 15.5287 9.754 15.5287 9.166C15.5287 8.47533 15.7714 7.92 16.2567 7.5C16.7421 7.08 17.5354 6.87 18.6367 6.87H19.1267V6.184C19.1267 5.36267 18.7814 4.952 18.0907 4.952C17.5214 4.952 17.0641 5.27867 16.7187 5.932ZM17.9227 10.048C18.4081 10.048 18.8094 9.866 19.1267 9.502V7.906H18.6367C18.0487 7.906 17.6334 8.004 17.3907 8.2C17.1481 8.396 17.0267 8.68067 17.0267 9.054C17.0267 9.71667 17.3254 10.048 17.9227 10.048ZM22.4285 0.541999H23.9965V7.388L26.6145 3.888H28.3085L25.9425 6.968L28.5325 11H26.7685L24.9065 7.962L23.9965 8.942V11H22.4285V0.541999ZM31.1059 5.722V11H29.5379V0.541999H31.1059V4.476H31.1339C31.5819 4 32.1933 3.762 32.9679 3.762C33.6866 3.762 34.2373 4 34.6199 4.476C35.0119 4.952 35.2079 5.61 35.2079 6.45V11H33.6399V6.492C33.6399 5.53067 33.2433 5.05 32.4499 5.05C31.8619 5.05 31.4139 5.274 31.1059 5.722ZM37.5547 5.932L36.6027 5.4C37.172 4.29867 38.0213 3.748 39.1507 3.748C39.9533 3.748 40.546 3.972 40.9287 4.42C41.3207 4.85867 41.5167 5.44667 41.5167 6.184V9.544C41.5167 9.89867 41.6847 10.076 42.0207 10.076H42.2027V10.972C41.9227 11.0467 41.68 11.084 41.4747 11.084C40.8773 11.084 40.4527 10.8693 40.2007 10.44C39.7153 10.8973 39.104 11.126 38.3667 11.126C37.7413 11.126 37.2513 10.9487 36.8967 10.594C36.542 10.23 36.3647 9.754 36.3647 9.166C36.3647 8.47533 36.6073 7.92 37.0927 7.5C37.578 7.08 38.3713 6.87 39.4727 6.87H39.9627V6.184C39.9627 5.36267 39.6173 4.952 38.9267 4.952C38.3573 4.952 37.9 5.27867 37.5547 5.932ZM38.7587 10.048C39.244 10.048 39.6453 9.866 39.9627 9.502V7.906H39.4727C38.8847 7.906 38.4693 8.004 38.2267 8.2C37.984 8.396 37.8627 8.68067 37.8627 9.054C37.8627 9.71667 38.1613 10.048 38.7587 10.048ZM47.1985 3.958L47.0305 5.386C46.8438 5.26467 46.6152 5.204 46.3445 5.204C45.4298 5.204 44.9072 5.81533 44.7765 7.038V11H43.2085V3.888H44.5665L44.6365 5.064H44.6645C45.0378 4.20533 45.6165 3.776 46.4005 3.776C46.7085 3.776 46.9745 3.83667 47.1985 3.958ZM53.5353 6.352V8.564C53.5353 9.31067 53.2833 9.92667 52.7793 10.412C52.2847 10.888 51.5847 11.126 50.6793 11.126C49.774 11.126 49.074 10.888 48.5793 10.412C48.0847 9.936 47.8373 9.32 47.8373 8.564V6.352C47.8373 5.596 48.0847 4.97533 48.5793 4.49C49.074 4.00467 49.774 3.762 50.6793 3.762C51.594 3.762 52.2987 4.00467 52.7933 4.49C53.288 4.966 53.5353 5.58667 53.5353 6.352ZM49.4053 6.408V8.494C49.4053 9.46467 49.83 9.95 50.6793 9.95C51.538 9.95 51.9673 9.46467 51.9673 8.494V6.408C51.9673 5.43733 51.538 4.952 50.6793 4.952C49.83 4.952 49.4053 5.43733 49.4053 6.408ZM60.8229 3.888L58.3309 11H56.5809L54.1029 3.888H55.8809L57.4349 9.614H57.4629L59.0449 3.888H60.8229ZM68.8589 4.924H68.5089L68.2569 7.934C68.2476 7.99 68.2429 8.06467 68.2429 8.158C68.2429 8.68067 68.4762 8.942 68.9429 8.942C69.3162 8.942 69.5962 8.79733 69.7829 8.508C69.9696 8.21867 70.0629 7.71467 70.0629 6.996V5.218C70.0629 4.126 69.7642 3.286 69.1669 2.698C68.5789 2.11 67.7016 1.816 66.5349 1.816C65.3496 1.816 64.4209 2.16133 63.7489 2.852C63.0862 3.54267 62.7549 4.42933 62.7549 5.512V8.312C62.7549 9.544 63.1002 10.4913 63.7909 11.154C64.4816 11.826 65.4149 12.162 66.5909 12.162C67.3562 12.162 67.9956 12.0593 68.5089 11.854C69.0222 11.658 69.4982 11.35 69.9369 10.93L70.7769 11.56C69.6942 12.6893 68.2942 13.254 66.5769 13.254C64.9996 13.254 63.7722 12.82 62.8949 11.952C62.0176 11.084 61.5789 9.87067 61.5789 8.312V5.484C61.5789 4.112 62.0222 2.96867 62.9089 2.054C63.7956 1.13933 65.0042 0.681999 66.5349 0.681999C68.0376 0.681999 69.1902 1.10667 69.9929 1.956C70.8049 2.796 71.2109 3.88333 71.2109 5.218V6.982C71.2109 8.018 71.0009 8.79267 70.5809 9.306C70.1609 9.81933 69.5962 10.076 68.8869 10.076C68.1309 10.076 67.6176 9.838 67.3469 9.362C66.8616 9.866 66.2502 10.118 65.5129 10.118C64.9436 10.118 64.5049 9.93133 64.1969 9.558C63.8982 9.18467 63.7489 8.662 63.7489 7.99C63.7489 6.74867 64.0616 5.75933 64.6869 5.022C65.3122 4.28467 66.1942 3.916 67.3329 3.916H68.9149L68.8589 4.924ZM66.9409 8.214L67.2069 5.078H67.0249C66.4182 5.078 65.9516 5.32533 65.6249 5.82C65.3076 6.30533 65.1489 7.01 65.1489 7.934C65.1489 8.31667 65.2049 8.58733 65.3169 8.746C65.4382 8.89533 65.6202 8.97 65.8629 8.97C66.3482 8.97 66.7076 8.718 66.9409 8.214ZM79.8117 0.78L79.8817 1.872C79.3124 1.9 78.9064 2.04467 78.6637 2.306C78.421 2.56733 78.2997 2.94067 78.2997 3.426V3.902H82.2617V11H80.7077V5.036H78.3697V11H76.8017V5.036H74.4777V11H72.9097V5.036H72.0837V3.902H72.9097V3.398C72.9097 2.63267 73.1477 2.012 73.6237 1.536C74.109 1.06 74.8744 0.807999 75.9197 0.78L75.9897 1.872C75.4204 1.9 75.0144 2.04467 74.7717 2.306C74.529 2.56733 74.4077 2.94067 74.4077 3.426V3.902H76.8017V3.398C76.8017 2.63267 77.0397 2.012 77.5157 1.536C78.001 1.06 78.7664 0.807999 79.8117 0.78ZM80.7917 0.85H82.1917V2.502H80.7917V0.85ZM85.5597 5.736V11H83.9917V3.888H85.3917L85.4337 4.574H85.4617C85.9377 4.03267 86.5817 3.762 87.3937 3.762C88.1217 3.762 88.6817 4 89.0737 4.476C89.4657 4.952 89.6617 5.61 89.6617 6.45V11H88.1077V6.492C88.1077 5.53067 87.711 5.05 86.9177 5.05C86.3204 5.05 85.8677 5.27867 85.5597 5.736ZM96.2938 7.64H92.4718V8.466C92.4718 9.446 92.9198 9.936 93.8158 9.936C94.1518 9.936 94.4271 9.85667 94.6418 9.698C94.8564 9.53 95.0384 9.25933 95.1878 8.886L96.3078 9.306C95.9064 10.5193 95.0244 11.126 93.6618 11.126C92.7938 11.126 92.1171 10.888 91.6318 10.412C91.1464 9.92667 90.9038 9.29667 90.9038 8.522V6.338C90.9038 5.59133 91.1418 4.97533 91.6178 4.49C92.0938 4.00467 92.7658 3.762 93.6338 3.762C94.4644 3.762 95.1131 4.014 95.5798 4.518C96.0558 5.01267 96.2938 5.64267 96.2938 6.408V7.64ZM92.4718 6.254V6.716H94.9078V6.226C94.9078 5.806 94.8004 5.484 94.5858 5.26C94.3711 5.036 94.0724 4.924 93.6898 4.924C92.8778 4.924 92.4718 5.36733 92.4718 6.254ZM101.571 9.208V3.888H103.125V11H101.739L101.683 10.328H101.655C101.17 10.86 100.521 11.126 99.7092 11.126C98.9905 11.126 98.4352 10.888 98.0432 10.412C97.6512 9.92667 97.4552 9.26867 97.4552 8.438V3.888H99.0232V8.452C99.0232 9.404 99.4199 9.88 100.213 9.88C100.792 9.88 101.245 9.656 101.571 9.208ZM104.605 11V9.208H106.299V11H104.605ZM112.891 7.64H109.069V8.466C109.069 9.446 109.517 9.936 110.413 9.936C110.749 9.936 111.025 9.85667 111.239 9.698C111.454 9.53 111.636 9.25933 111.785 8.886L112.905 9.306C112.504 10.5193 111.622 11.126 110.259 11.126C109.391 11.126 108.715 10.888 108.229 10.412C107.744 9.92667 107.501 9.29667 107.501 8.522V6.338C107.501 5.59133 107.739 4.97533 108.215 4.49C108.691 4.00467 109.363 3.762 110.231 3.762C111.062 3.762 111.711 4.014 112.177 4.518C112.653 5.01267 112.891 5.64267 112.891 6.408V7.64ZM109.069 6.254V6.716H111.505V6.226C111.505 5.806 111.398 5.484 111.183 5.26C110.969 5.036 110.67 4.924 110.287 4.924C109.475 4.924 109.069 5.36733 109.069 6.254ZM118.169 9.208V3.888H119.723V11H118.337L118.281 10.328H118.253C117.768 10.86 117.119 11.126 116.307 11.126C115.588 11.126 115.033 10.888 114.641 10.412C114.249 9.92667 114.053 9.26867 114.053 8.438V3.888H115.621V8.452C115.621 9.404 116.018 9.88 116.811 9.88C117.39 9.88 117.842 9.656 118.169 9.208Z" fill="#72BF44"/>
</svg>
