<svg xmlns="http://www.w3.org/2000/svg" width="107" height="14" viewBox="0 0 107 14" fill="none"><path d="M3 11.1C4.4 11.1 5.4 10.2 5.4 9 5.4 6.6 2 7 2 5.7 2 5.2 2.4 4.9 3.1 4.9 3.6 4.9 4 5.1 4.3 5.8L5.4 5.4C5 4.4 4.2 3.8 3 3.8 1.4 3.8 0.6 4.7 0.6 5.8 0.6 8.2 3.9 7.7 3.9 9.1 3.9 9.7 3.6 10 3 10 2.5 10 1.9 9.7 1.6 9L0.5 9.5C0.9 10.6 1.8 11.1 3 11.1ZM6.7 3.9V11H8.3V3.9H6.7ZM6.8 0.9V2.5H8.3V0.9H6.8ZM15.4 6.5C15.4 5.5 15.8 5.1 16.5 5.1 17.2 5.1 17.5 5.6 17.5 6.5V11H19.1V6.5C19.1 4.6 18.3 3.8 16.9 3.8 16.1 3.8 15.4 4.2 15 4.8 14.6 4.1 14 3.8 13.3 3.8 12.6 3.8 11.9 4.1 11.5 4.6H11.5V3.9H10.1V11H11.6V5.9C11.9 5.4 12.3 5.1 12.8 5.1 13.4 5.1 13.8 5.4 13.8 6.5V11H15.4V6.5ZM26 6.4C26 4.9 25.1 3.8 23.2 3.8 21.3 3.8 20.3 4.9 20.3 6.4V8.6C20.3 10 21.3 11.1 23.2 11.1 25 11.1 26 10 26 8.6V6.4ZM21.9 6.4C21.9 5.5 22.3 5 23.2 5 24.1 5 24.5 5.5 24.5 6.4V8.5C24.5 9.4 24.1 10 23.2 10 22.3 10 21.9 9.4 21.9 8.5V6.4ZM29 5.7C29.2 5.3 29.7 5.1 30.3 5.1 31.1 5.1 31.5 5.5 31.5 6.5V11H33.1V6.5C33.1 4.8 32.3 3.8 30.8 3.8 30 3.8 29.3 4 28.9 4.6H28.8L28.8 3.9H27.4V11H29V5.7ZM40 6.4C40 4.9 39.1 3.8 37.2 3.8 35.3 3.8 34.3 4.9 34.3 6.4V8.6C34.3 10 35.3 11.1 37.2 11.1 39 11.1 40 10 40 8.6V6.4ZM35.9 6.4C35.9 5.5 36.3 5 37.2 5 38.1 5 38.4 5.5 38.4 6.4V8.5C38.4 9.4 38.1 10 37.2 10 36.3 10 35.9 9.4 35.9 8.5V6.4ZM47.3 3.9H45.5L43.9 9.6H43.9L42.4 3.9H40.6L43.1 11H44.8L47.3 3.9ZM55.3 4.9L55.4 3.9H53.8C51.5 3.9 50.2 5.6 50.2 8 50.2 9.3 50.8 10.1 52 10.1 52.7 10.1 53.3 9.9 53.8 9.4 54.1 9.9 54.6 10.1 55.4 10.1 56.7 10.1 57.7 9.1 57.7 7V5.2C57.7 2.7 56.1 0.7 53 0.7 49.8 0.7 48.1 2.9 48.1 5.5V8.3C48.1 11.4 49.9 13.3 53.1 13.3 54.8 13.3 56.2 12.7 57.3 11.6L56.4 10.9C55.6 11.7 54.7 12.2 53.1 12.2 50.8 12.2 49.2 10.8 49.2 8.3V5.5C49.2 3.4 50.6 1.8 53 1.8 55.4 1.8 56.5 3.1 56.5 5.2V7C56.5 8.5 56.1 8.9 55.4 8.9 55 8.9 54.7 8.7 54.7 8.2 54.7 8.1 54.7 8 54.7 7.9L55 4.9H55.3ZM53.4 8.2C53.2 8.7 52.8 9 52.3 9 51.9 9 51.6 8.7 51.6 7.9 51.6 6.1 52.3 5.1 53.5 5.1H53.7L53.4 8.2ZM66.3 0.8C64.1 0.8 63.3 2 63.3 3.4V3.9H60.9V3.4C60.9 2.5 61.3 1.9 62.5 1.9L62.4 0.8C60.2 0.8 59.4 2 59.4 3.4V3.9H58.6V5H59.4V11H61V5H63.3V11H64.8V5H67.2V11H68.7V3.9H64.8V3.4C64.8 2.5 65.2 1.9 66.4 1.9L66.3 0.8ZM67.3 0.9V2.5H68.7V0.9H67.3ZM72 5.7C72.3 5.3 72.8 5.1 73.4 5.1 74.2 5.1 74.6 5.5 74.6 6.5V11H76.1V6.5C76.1 4.8 75.3 3.8 73.9 3.8 73.1 3.8 72.4 4 71.9 4.6H71.9L71.9 3.9H70.5V11H72V5.7ZM82.8 7.6V6.4C82.8 4.9 81.8 3.8 80.1 3.8 78.3 3.8 77.4 4.9 77.4 6.3V8.5C77.4 10 78.4 11.1 80.1 11.1 81.6 11.1 82.4 10.5 82.8 9.3L81.7 8.9C81.4 9.6 81 9.9 80.3 9.9 79.4 9.9 79 9.4 79 8.5V7.6H82.8ZM79 6.3C79 5.4 79.3 4.9 80.2 4.9 80.9 4.9 81.4 5.4 81.4 6.2V6.7H79V6.3ZM88 9.2C87.8 9.6 87.3 9.9 86.7 9.9 85.9 9.9 85.5 9.4 85.5 8.5V3.9H83.9V8.4C83.9 10.1 84.7 11.1 86.2 11.1 87 11.1 87.6 10.9 88.1 10.3H88.2L88.2 11H89.6V3.9H88V9.2ZM91.1 11H92.8V9.2H91.1V11ZM99.4 7.6V6.4C99.4 4.9 98.4 3.8 96.7 3.8 94.9 3.8 94 4.9 94 6.3V8.5C94 10 95 11.1 96.7 11.1 98.2 11.1 99 10.5 99.4 9.3L98.3 8.9C98 9.6 97.6 9.9 96.9 9.9 96 9.9 95.5 9.4 95.5 8.5V7.6H99.4ZM95.5 6.3C95.5 5.4 95.9 4.9 96.8 4.9 97.5 4.9 98 5.4 98 6.2V6.7H95.5V6.3ZM104.6 9.2C104.4 9.6 103.9 9.9 103.3 9.9 102.5 9.9 102.1 9.4 102.1 8.5V3.9H100.5V8.4C100.5 10.1 101.3 11.1 102.8 11.1 103.6 11.1 104.2 10.9 104.7 10.3H104.8L104.8 11H106.2V3.9H104.6V9.2Z" fill="#72BF44"/></svg>
