<svg xmlns="http://www.w3.org/2000/svg" width="118" height="14" viewBox="0 0 118 14" fill="none"><path d="M5.5 9.8H2.3L5.6 4.8V3.9H0.6V5.1H3.7L0.5 10.1V11H5.5V9.8ZM7 3.9V11H8.5V3.9H7ZM7 0.9V2.5H8.5V0.9H7ZM12.8 8.6C14.6 8.6 15.5 7.8 15.5 6.2 15.5 5.7 15.4 5.2 15.2 4.9 15.6 4.5 15.9 4 16 3.5L15.2 3.1C15.1 3.5 14.8 3.8 14.4 4.1 14 3.9 13.5 3.8 12.8 3.8 11.1 3.8 10.3 4.5 10.3 6.2 10.3 7 10.5 7.6 10.9 8 10.3 8.3 10 8.8 10 9.3 10 9.8 10.3 10.2 10.7 10.4 10.4 10.8 10.2 11.2 10.2 11.7 10.2 12.8 10.9 13.5 12.8 13.5 14.8 13.5 15.9 12.7 15.9 11.2 15.9 10.1 15.3 9.4 13.6 9.4H12C11.4 9.4 11.3 9.2 11.3 8.9 11.3 8.7 11.4 8.6 11.7 8.4 12 8.5 12.4 8.6 12.8 8.6ZM11.7 6.2C11.7 5.2 12 4.9 12.8 4.9 13.7 4.9 14 5.2 14 6.2 14 7.2 13.7 7.5 12.8 7.5 12 7.5 11.7 7.2 11.7 6.2ZM13.5 10.7C14.3 10.7 14.6 10.9 14.6 11.4 14.6 12 14.3 12.4 12.9 12.4 11.9 12.4 11.5 12.1 11.5 11.5 11.5 11.1 11.6 10.9 11.9 10.7H13.5ZM17.9 5.9C18.2 5.3 18.7 5 19.3 5 20 5 20.3 5.3 20.3 6.2V6.9H19.8C17.5 6.9 16.7 7.9 16.7 9.2 16.7 10.3 17.5 11.1 18.7 11.1 19.4 11.1 20.1 10.9 20.6 10.4 20.8 10.8 21.2 11.1 21.8 11.1 22.1 11.1 22.3 11 22.6 11V10.1H22.4C22 10.1 21.9 9.9 21.9 9.5V6.2C21.9 4.8 21.2 3.7 19.5 3.7 18.3 3.7 17.5 4.4 17 5.4L17.9 5.9ZM19.1 10C18.6 10 18.2 9.8 18.2 9.1 18.2 8.4 18.6 7.9 19.8 7.9H20.3V9.5C20 9.9 19.6 10 19.1 10ZM25.1 5.7C25.4 5.3 25.9 5.1 26.5 5.1 27.3 5.1 27.7 5.5 27.7 6.5V11H29.2V6.5C29.2 4.8 28.4 3.8 27 3.8 26.2 3.8 25.5 4 25 4.6H25L25 3.9H23.6V11H25.1V5.7ZM33.3 8.6C35.1 8.6 35.9 7.8 35.9 6.2 35.9 5.7 35.8 5.2 35.7 4.9 36 4.5 36.3 4 36.4 3.5L35.7 3.1C35.5 3.5 35.2 3.8 34.8 4.1 34.4 3.9 33.9 3.8 33.3 3.8 31.5 3.8 30.7 4.5 30.7 6.2 30.7 7 30.9 7.6 31.4 8 30.7 8.3 30.4 8.8 30.4 9.3 30.4 9.8 30.7 10.2 31.2 10.4 30.8 10.8 30.6 11.2 30.6 11.7 30.6 12.8 31.4 13.5 33.3 13.5 35.3 13.5 36.4 12.7 36.4 11.2 36.4 10.1 35.8 9.4 34 9.4H32.5C31.9 9.4 31.7 9.2 31.7 8.9 31.7 8.7 31.8 8.6 32.1 8.4 32.4 8.5 32.8 8.6 33.3 8.6ZM32.2 6.2C32.2 5.2 32.5 4.9 33.3 4.9 34.1 4.9 34.4 5.2 34.4 6.2 34.4 7.2 34.2 7.5 33.3 7.5 32.4 7.5 32.2 7.2 32.2 6.2ZM33.9 10.7C34.8 10.7 35 10.9 35 11.4 35 12 34.8 12.4 33.4 12.4 32.4 12.4 31.9 12.1 31.9 11.5 31.9 11.1 32 10.9 32.3 10.7H33.9ZM37.6 3.9V11H39.2V3.9H37.6ZM37.7 0.9V2.5H39.1V0.9H37.7ZM44.9 4C44.7 3.8 44.4 3.8 44.1 3.8 43.4 3.8 42.8 4.1 42.4 5.1H42.4L42.3 3.9H40.9V11H42.5V7C42.6 5.9 43.1 5.2 44.1 5.2 44.3 5.2 44.6 5.3 44.8 5.4L44.9 4ZM51.3 6.4C51.3 4.9 50.3 3.8 48.4 3.8 46.5 3.8 45.6 4.9 45.6 6.4V8.6C45.6 10 46.5 11.1 48.4 11.1 50.3 11.1 51.3 10 51.3 8.6V6.4ZM47.1 6.4C47.1 5.5 47.5 5 48.4 5 49.3 5 49.7 5.5 49.7 6.4V8.5C49.7 9.4 49.3 10 48.4 10 47.6 10 47.1 9.4 47.1 8.5V6.4ZM58.6 3.9H56.8L55.2 9.6H55.2L53.6 3.9H51.8L54.3 11H56.1L58.6 3.9ZM66.6 4.9L66.6 3.9H65.1C62.8 3.9 61.5 5.6 61.5 8 61.5 9.3 62.1 10.1 63.2 10.1 64 10.1 64.6 9.9 65.1 9.4 65.4 9.9 65.9 10.1 66.6 10.1 68 10.1 68.9 9.1 68.9 7V5.2C68.9 2.7 67.4 0.7 64.3 0.7 61.1 0.7 59.3 2.9 59.3 5.5V8.3C59.3 11.4 61.1 13.3 64.3 13.3 66.1 13.3 67.4 12.7 68.5 11.6L67.7 10.9C66.8 11.7 65.9 12.2 64.3 12.2 62 12.2 60.5 10.8 60.5 8.3V5.5C60.5 3.4 61.8 1.8 64.3 1.8 66.6 1.8 67.8 3.1 67.8 5.2V7C67.8 8.5 67.4 8.9 66.7 8.9 66.2 8.9 66 8.7 66 8.2 66 8.1 66 8 66 7.9L66.2 4.9H66.6ZM64.7 8.2C64.4 8.7 64.1 9 63.6 9 63.1 9 62.9 8.7 62.9 7.9 62.9 6.1 63.5 5.1 64.8 5.1H64.9L64.7 8.2ZM77.5 0.8C75.3 0.8 74.5 2 74.5 3.4V3.9H72.1V3.4C72.1 2.5 72.5 1.9 73.7 1.9L73.7 0.8C71.4 0.8 70.6 2 70.6 3.4V3.9H69.8V5H70.6V11H72.2V5H74.5V11H76.1V5H78.4V11H80V3.9H76V3.4C76 2.5 76.4 1.9 77.6 1.9L77.5 0.8ZM78.5 0.9V2.5H79.9V0.9H78.5ZM83.3 5.7C83.6 5.3 84 5.1 84.6 5.1 85.4 5.1 85.8 5.5 85.8 6.5V11H87.4V6.5C87.4 4.8 86.6 3.8 85.1 3.8 84.3 3.8 83.7 4 83.2 4.6H83.2L83.1 3.9H81.7V11H83.3V5.7ZM94 7.6V6.4C94 4.9 93.1 3.8 91.4 3.8 89.6 3.8 88.6 4.9 88.6 6.3V8.5C88.6 10 89.6 11.1 91.4 11.1 92.8 11.1 93.6 10.5 94 9.3L92.9 8.9C92.6 9.6 92.2 9.9 91.5 9.9 90.7 9.9 90.2 9.4 90.2 8.5V7.6H94ZM90.2 6.3C90.2 5.4 90.6 4.9 91.4 4.9 92.2 4.9 92.6 5.4 92.6 6.2V6.7H90.2V6.3ZM99.3 9.2C99 9.6 98.6 9.9 97.9 9.9 97.1 9.9 96.8 9.4 96.8 8.5V3.9H95.2V8.4C95.2 10.1 96 11.1 97.4 11.1 98.2 11.1 98.9 10.9 99.4 10.3H99.4L99.5 11H100.9V3.9H99.3V9.2ZM102.3 11H104V9.2H102.3V11ZM110.6 7.6V6.4C110.6 4.9 109.7 3.8 108 3.8 106.2 3.8 105.2 4.9 105.2 6.3V8.5C105.2 10 106.2 11.1 108 11.1 109.4 11.1 110.2 10.5 110.6 9.3L109.5 8.9C109.2 9.6 108.8 9.9 108.1 9.9 107.3 9.9 106.8 9.4 106.8 8.5V7.6H110.6ZM106.8 6.3C106.8 5.4 107.2 4.9 108 4.9 108.8 4.9 109.2 5.4 109.2 6.2V6.7H106.8V6.3ZM115.9 9.2C115.6 9.6 115.2 9.9 114.5 9.9 113.7 9.9 113.4 9.4 113.4 8.5V3.9H111.8V8.4C111.8 10.1 112.6 11.1 114 11.1 114.8 11.1 115.5 10.9 116 10.3H116L116.1 11H117.5V3.9H115.9V9.2Z" fill="#72BF44"/></svg>
