<svg width="98" height="14" viewBox="0 0 98 14" fill="none" xmlns="http://www.w3.org/2000/svg">
    <path d="M5.502 9.782V11H0.49V10.09L3.682 5.12H0.63V3.888H5.558V4.77L2.31 9.782H5.502ZM12.8893 3.888L10.3973 11H8.6473L6.1693 3.888H7.9473L9.5013 9.614H9.5293L11.1113 3.888H12.8893ZM19.1506 6.352V8.564C19.1506 9.31067 18.8986 9.92667 18.3946 10.412C17.8999 10.888 17.1999 11.126 16.2946 11.126C15.3892 11.126 14.6892 10.888 14.1946 10.412C13.6999 9.936 13.4526 9.32 13.4526 8.564V6.352C13.4526 5.596 13.6999 4.97533 14.1946 4.49C14.6892 4.00467 15.3892 3.762 16.2946 3.762C17.2092 3.762 17.9139 4.00467 18.4086 4.49C18.9032 4.966 19.1506 5.58667 19.1506 6.352ZM15.0206 6.408V8.494C15.0206 9.46467 15.4452 9.95 16.2946 9.95C17.1532 9.95 17.5826 9.46467 17.5826 8.494V6.408C17.5826 5.43733 17.1532 4.952 16.2946 4.952C15.4452 4.952 15.0206 5.43733 15.0206 6.408ZM22.0948 5.736V11H20.5268V3.888H21.9268L21.9688 4.574H21.9968C22.4728 4.03267 23.1168 3.762 23.9288 3.762C24.6568 3.762 25.2168 4 25.6088 4.476C26.0008 4.952 26.1968 5.61 26.1968 6.45V11H24.6428V6.492C24.6428 5.53067 24.2462 5.05 23.4528 5.05C22.8555 5.05 22.4028 5.27867 22.0948 5.736ZM28.5449 5.932L27.5929 5.4C28.1622 4.29867 29.0116 3.748 30.1409 3.748C30.9436 3.748 31.5362 3.972 31.9189 4.42C32.3109 4.85867 32.5069 5.44667 32.5069 6.184V9.544C32.5069 9.89867 32.6749 10.076 33.0109 10.076H33.1929V10.972C32.9129 11.0467 32.6702 11.084 32.4649 11.084C31.8676 11.084 31.4429 10.8693 31.1909 10.44C30.7056 10.8973 30.0942 11.126 29.3569 11.126C28.7316 11.126 28.2416 10.9487 27.8869 10.594C27.5322 10.23 27.3549 9.754 27.3549 9.166C27.3549 8.47533 27.5976 7.92 28.0829 7.5C28.5682 7.08 29.3616 6.87 30.4629 6.87H30.9529V6.184C30.9529 5.36267 30.6076 4.952 29.9169 4.952C29.3476 4.952 28.8902 5.27867 28.5449 5.932ZM29.7489 10.048C30.2342 10.048 30.6356 9.866 30.9529 9.502V7.906H30.4629C29.8749 7.906 29.4596 8.004 29.2169 8.2C28.9742 8.396 28.8529 8.68067 28.8529 9.054C28.8529 9.71667 29.1516 10.048 29.7489 10.048ZM38.1887 3.958L38.0207 5.386C37.8341 5.26467 37.6054 5.204 37.3347 5.204C36.4201 5.204 35.8974 5.81533 35.7667 7.038V11H34.1987V3.888H35.5567L35.6267 5.064H35.6547C36.0281 4.20533 36.6067 3.776 37.3907 3.776C37.6987 3.776 37.9647 3.83667 38.1887 3.958ZM46.314 4.924H45.964L45.712 7.934C45.7026 7.99 45.698 8.06467 45.698 8.158C45.698 8.68067 45.9313 8.942 46.398 8.942C46.7713 8.942 47.0513 8.79733 47.238 8.508C47.4246 8.21867 47.518 7.71467 47.518 6.996V5.218C47.518 4.126 47.2193 3.286 46.622 2.698C46.034 2.11 45.1566 1.816 43.99 1.816C42.8046 1.816 41.876 2.16133 41.204 2.852C40.5413 3.54267 40.21 4.42933 40.21 5.512V8.312C40.21 9.544 40.5553 10.4913 41.246 11.154C41.9366 11.826 42.87 12.162 44.046 12.162C44.8113 12.162 45.4506 12.0593 45.964 11.854C46.4773 11.658 46.9533 11.35 47.392 10.93L48.232 11.56C47.1493 12.6893 45.7493 13.254 44.032 13.254C42.4546 13.254 41.2273 12.82 40.35 11.952C39.4726 11.084 39.034 9.87067 39.034 8.312V5.484C39.034 4.112 39.4773 2.96867 40.364 2.054C41.2506 1.13933 42.4593 0.681999 43.99 0.681999C45.4926 0.681999 46.6453 1.10667 47.448 1.956C48.26 2.796 48.666 3.88333 48.666 5.218V6.982C48.666 8.018 48.456 8.79267 48.036 9.306C47.616 9.81933 47.0513 10.076 46.342 10.076C45.586 10.076 45.0726 9.838 44.802 9.362C44.3166 9.866 43.7053 10.118 42.968 10.118C42.3986 10.118 41.96 9.93133 41.652 9.558C41.3533 9.18467 41.204 8.662 41.204 7.99C41.204 6.74867 41.5166 5.75933 42.142 5.022C42.7673 4.28467 43.6493 3.916 44.788 3.916H46.37L46.314 4.924ZM44.396 8.214L44.662 5.078H44.48C43.8733 5.078 43.4066 5.32533 43.08 5.82C42.7626 6.30533 42.604 7.01 42.604 7.934C42.604 8.31667 42.66 8.58733 42.772 8.746C42.8933 8.89533 43.0753 8.97 43.318 8.97C43.8033 8.97 44.1626 8.718 44.396 8.214ZM57.2668 0.78L57.3368 1.872C56.7674 1.9 56.3614 2.04467 56.1188 2.306C55.8761 2.56733 55.7548 2.94067 55.7548 3.426V3.902H59.7168V11H58.1628V5.036H55.8248V11H54.2568V5.036H51.9328V11H50.3648V5.036H49.5388V3.902H50.3648V3.398C50.3648 2.63267 50.6028 2.012 51.0788 1.536C51.5641 1.06 52.3294 0.807999 53.3748 0.78L53.4448 1.872C52.8754 1.9 52.4694 2.04467 52.2268 2.306C51.9841 2.56733 51.8628 2.94067 51.8628 3.426V3.902H54.2568V3.398C54.2568 2.63267 54.4948 2.012 54.9708 1.536C55.4561 1.06 56.2214 0.807999 57.2668 0.78ZM58.2468 0.85H59.6468V2.502H58.2468V0.85ZM63.0148 5.736V11H61.4468V3.888H62.8468L62.8888 4.574H62.9168C63.3928 4.03267 64.0368 3.762 64.8488 3.762C65.5768 3.762 66.1368 4 66.5288 4.476C66.9208 4.952 67.1168 5.61 67.1168 6.45V11H65.5628V6.492C65.5628 5.53067 65.1661 5.05 64.3728 5.05C63.7754 5.05 63.3228 5.27867 63.0148 5.736ZM73.7488 7.64H69.9268V8.466C69.9268 9.446 70.3748 9.936 71.2708 9.936C71.6068 9.936 71.8822 9.85667 72.0968 9.698C72.3115 9.53 72.4935 9.25933 72.6428 8.886L73.7628 9.306C73.3615 10.5193 72.4795 11.126 71.1168 11.126C70.2488 11.126 69.5722 10.888 69.0868 10.412C68.6015 9.92667 68.3588 9.29667 68.3588 8.522V6.338C68.3588 5.59133 68.5968 4.97533 69.0728 4.49C69.5488 4.00467 70.2208 3.762 71.0888 3.762C71.9195 3.762 72.5682 4.014 73.0348 4.518C73.5108 5.01267 73.7488 5.64267 73.7488 6.408V7.64ZM69.9268 6.254V6.716H72.3628V6.226C72.3628 5.806 72.2555 5.484 72.0408 5.26C71.8262 5.036 71.5275 4.924 71.1448 4.924C70.3328 4.924 69.9268 5.36733 69.9268 6.254ZM79.0263 9.208V3.888H80.5803V11H79.1943L79.1383 10.328H79.1103C78.6249 10.86 77.9763 11.126 77.1643 11.126C76.4456 11.126 75.8903 10.888 75.4983 10.412C75.1063 9.92667 74.9103 9.26867 74.9103 8.438V3.888H76.4783V8.452C76.4783 9.404 76.8749 9.88 77.6683 9.88C78.2469 9.88 78.6996 9.656 79.0263 9.208ZM82.0603 11V9.208H83.7543V11H82.0603ZM90.3465 7.64H86.5245V8.466C86.5245 9.446 86.9725 9.936 87.8685 9.936C88.2045 9.936 88.4798 9.85667 88.6945 9.698C88.9092 9.53 89.0912 9.25933 89.2405 8.886L90.3605 9.306C89.9592 10.5193 89.0772 11.126 87.7145 11.126C86.8465 11.126 86.1698 10.888 85.6845 10.412C85.1992 9.92667 84.9565 9.29667 84.9565 8.522V6.338C84.9565 5.59133 85.1945 4.97533 85.6705 4.49C86.1465 4.00467 86.8185 3.762 87.6865 3.762C88.5172 3.762 89.1658 4.014 89.6325 4.518C90.1085 5.01267 90.3465 5.64267 90.3465 6.408V7.64ZM86.5245 6.254V6.716H88.9605V6.226C88.9605 5.806 88.8532 5.484 88.6385 5.26C88.4238 5.036 88.1252 4.924 87.7425 4.924C86.9305 4.924 86.5245 5.36733 86.5245 6.254ZM95.6239 9.208V3.888H97.1779V11H95.7919L95.7359 10.328H95.7079C95.2226 10.86 94.5739 11.126 93.7619 11.126C93.0433 11.126 92.4879 10.888 92.0959 10.412C91.7039 9.92667 91.5079 9.26867 91.5079 8.438V3.888H93.0759V8.452C93.0759 9.404 93.4726 9.88 94.2659 9.88C94.8446 9.88 95.2973 9.656 95.6239 9.208Z" fill="#72BF44"/>
</svg>
