<svg width="240" height="72" viewBox="0 0 240 72" fill="none" xmlns="http://www.w3.org/2000/svg">
    <g clip-path="url(#clip0)">
        <path d="M30.91 71.4C30.91 71.4 0 62.27 0 17.24V0H61.83V17.24C61.83 60.66 30.91 71.4 30.91 71.4Z" fill="#4FB84F"/>
        <path d="M79 34.58V10.21H93.93V12C93.9274 12.8787 93.5764 13.7206 92.9541 14.3411C92.3317 14.9616 91.4888 15.31 90.61 15.31H85V20.43H92.4V22.16C92.4013 22.6064 92.3142 23.0486 92.1437 23.4611C91.9732 23.8737 91.7226 24.2484 91.4065 24.5636C91.0904 24.8787 90.715 25.1282 90.3019 25.2975C89.8889 25.4668 89.4464 25.5526 89 25.55H85V34.55L79 34.58Z" fill="black"/>
        <path d="M97.3008 34.5801V10.2101H105.791C107.392 10.1319 108.995 10.3281 110.531 10.7901C111.885 11.2942 113.042 12.2196 113.831 13.4301C114.652 14.7652 115.059 16.3137 115.001 17.8801C114.989 19.242 114.646 20.5807 114.001 21.7801C113.423 22.9621 112.48 23.9264 111.311 24.5301V24.5901C111.646 25.0616 111.953 25.5525 112.231 26.0601L117.001 34.5801H110.351L106.021 26.3701H103.231V34.5801H97.3008ZM103.301 21.2501H105.891C106.724 21.2982 107.542 21.0182 108.171 20.4701C108.455 20.1797 108.674 19.8329 108.815 19.4522C108.957 19.0715 109.016 18.6653 108.991 18.2601C109.063 17.7306 108.963 17.192 108.705 16.7238C108.448 16.2556 108.047 15.8827 107.561 15.6601C106.839 15.4043 106.076 15.2889 105.311 15.3201H103.311L103.301 21.2501Z" fill="black"/>
        <path d="M119.73 34.58V10.21H135V15.32H125.69V19.75H133.12V24.87H125.69V29.47H135.47V34.58H119.73Z" fill="black"/>
        <path d="M139.289 34.58V10.21H154.559V15.32H145.259V19.75H152.679V24.87H145.259V29.47H154.999V34.58H139.289Z" fill="black"/>
        <path d="M158.85 34.58V10.21H167.51C171.37 10.21 174.43 11.2833 176.69 13.43C178.95 15.5766 180.083 18.5466 180.09 22.34C180.09 26.16 178.956 29.16 176.69 31.34C174.423 33.52 171.363 34.6066 167.51 34.6L158.85 34.58ZM164.85 29.47H167.3C168.198 29.5207 169.097 29.3832 169.939 29.0664C170.781 28.7495 171.548 28.2603 172.19 27.63C173.445 26.1646 174.077 24.2656 173.95 22.34C174.013 21.3977 173.89 20.4521 173.586 19.5579C173.282 18.6636 172.804 17.8384 172.18 17.13C171.533 16.5113 170.766 16.0315 169.927 15.7203C169.088 15.409 168.193 15.2728 167.3 15.32H164.85V29.47Z" fill="black"/>
        <path d="M182.64 22.2399C182.595 20.5933 182.89 18.9551 183.506 17.4274C184.122 15.8996 185.046 14.5151 186.22 13.3599C188.725 11.0698 191.996 9.7998 195.39 9.7998C198.784 9.7998 202.055 11.0698 204.56 13.3599C205.73 14.5177 206.65 15.903 207.264 17.4303C207.878 18.9575 208.173 20.5944 208.13 22.2399C208.178 23.9189 207.886 25.5903 207.273 27.154C206.66 28.7176 205.737 30.1414 204.56 31.3399C202.083 33.6847 198.801 34.9914 195.39 34.9914C191.979 34.9914 188.697 33.6847 186.22 31.3399C185.04 30.1432 184.114 28.72 183.499 27.1561C182.884 25.5921 182.592 23.9198 182.64 22.2399V22.2399ZM188.81 22.2399C188.746 24.1527 189.411 26.0185 190.67 27.4599C191.27 28.1147 191.999 28.6375 192.811 28.9952C193.624 29.3529 194.502 29.5377 195.39 29.5377C196.278 29.5377 197.156 29.3529 197.968 28.9952C198.781 28.6375 199.51 28.1147 200.11 27.4599C201.381 26.0236 202.057 24.1569 202 22.2399C202.067 20.3944 201.402 18.5973 200.15 17.2399C199.536 16.6097 198.802 16.1089 197.991 15.7669C197.181 15.425 196.31 15.2488 195.43 15.2488C194.55 15.2488 193.679 15.425 192.869 15.7669C192.058 16.1089 191.324 16.6097 190.71 17.2399C189.44 18.5893 188.756 20.3874 188.81 22.2399V22.2399Z" fill="black"/>
        <path d="M211 34.58L213 10.21H219.48L223 20.5L224.23 24.5H224.3C224.75 22.86 225.16 21.5 225.52 20.5L229.07 10.21H235.55L237.55 34.58H231.55L230.8 23.58C230.75 23.04 230.73 22.43 230.73 21.75C230.73 21.07 230.73 20.52 230.73 20.11V19.5H230.66C230.11 21.2 229.66 22.56 229.3 23.58L226.74 30.64H221.7L219.14 23.58L217.78 19.5H217.71C217.8 20.8585 217.8 22.2215 217.71 23.58L216.96 34.58H211Z" fill="black"/>
        <path d="M79.2793 60.6501V46.0801H82.8393V51.9101H88.1393V46.0801H91.7093V60.6501H88.1393V55.0001H82.8393V60.7001L79.2793 60.6501Z" fill="black"/>
        <path d="M94.0006 53.2797C93.9778 52.3028 94.153 51.3313 94.5156 50.4239C94.8782 49.5165 95.4208 48.6918 96.1106 47.9997C97.6108 46.6216 99.5736 45.8569 101.611 45.8569C103.648 45.8569 105.61 46.6216 107.111 47.9997C107.813 48.6926 108.365 49.5223 108.733 50.4375C109.101 51.3526 109.277 52.3337 109.251 53.3197C109.279 54.3238 109.103 55.3233 108.736 56.2581C108.368 57.1928 107.815 58.0437 107.111 58.7597C105.625 60.1663 103.657 60.9502 101.611 60.9502C99.5646 60.9502 97.5964 60.1663 96.1106 58.7597C95.4084 58.0352 94.8595 57.1764 94.497 56.2348C94.1344 55.2932 93.9656 54.2881 94.0006 53.2797V53.2797ZM97.6906 53.2797C97.6521 54.4197 98.049 55.5317 98.8006 56.3897C99.1586 56.783 99.5948 57.0973 100.081 57.3123C100.568 57.5273 101.094 57.6384 101.626 57.6384C102.157 57.6384 102.683 57.5273 103.17 57.3123C103.656 57.0973 104.093 56.783 104.451 56.3897C105.202 55.5317 105.599 54.4197 105.561 53.2797C105.6 52.1726 105.201 51.0947 104.451 50.2797C104.083 49.9033 103.643 49.6041 103.158 49.3999C102.673 49.1957 102.152 49.0905 101.626 49.0905C101.099 49.0905 100.578 49.1957 100.093 49.3999C99.6079 49.6041 99.1685 49.9033 98.8006 50.2797C98.0394 51.09 97.6296 52.1684 97.6606 53.2797H97.6906Z" fill="black"/>
        <path d="M111.48 60.6501V46.0801H115.05V57.6001H121.05V60.6001L111.48 60.6501Z" fill="black"/>
        <path d="M122.73 60.6497V46.0797H127.91C129.922 45.9675 131.897 46.658 133.4 47.9997C134.089 48.6984 134.622 49.534 134.967 50.4522C135.311 51.3704 135.459 52.3507 135.4 53.3297C135.46 54.3148 135.313 55.3015 134.969 56.2264C134.624 57.1512 134.09 57.9938 133.4 58.6997C132.658 59.369 131.791 59.8849 130.849 60.2178C129.907 60.5508 128.908 60.6941 127.91 60.6397L122.73 60.6497ZM126.3 57.6497H127.77C128.307 57.6803 128.844 57.5982 129.347 57.4088C129.85 57.2193 130.307 56.9267 130.69 56.5497C131.439 55.6735 131.816 54.5396 131.74 53.3897C131.78 52.8253 131.706 52.2587 131.524 51.723C131.342 51.1873 131.055 50.6933 130.68 50.2697C130.296 49.8986 129.839 49.611 129.338 49.4251C128.838 49.2393 128.304 49.1591 127.77 49.1897H126.3V57.6497Z" fill="black"/>
        <path d="M137.76 60.6501V46.0801H141.32V60.6501H137.76Z" fill="black"/>
        <path d="M144.381 60.6501V46.0801H148.001L152.001 52.8901C152.161 53.1701 152.341 53.5201 152.551 53.8901C152.761 54.2601 152.911 54.6501 153.041 54.8901L153.221 55.3001C153.111 54.2501 153.061 53.4201 153.061 52.8101V46.0801H156.621V60.6501H153.041L148.981 53.8701C148.821 53.5801 148.631 53.2301 148.431 52.8701C148.231 52.5101 148.061 52.1101 147.941 51.8701L147.761 51.4601C147.856 52.2869 147.909 53.1179 147.921 53.9501V60.7301L144.381 60.6501Z" fill="black"/>
        <path d="M159.001 53.3397C158.972 52.3496 159.149 51.3643 159.519 50.4455C159.889 49.5267 160.444 48.6941 161.151 47.9997C161.868 47.2869 162.723 46.7277 163.663 46.3563C164.604 45.9849 165.61 45.8092 166.621 45.8397C168.667 45.7631 170.668 46.4552 172.231 47.7797L170.511 50.4497C170.034 50.0185 169.481 49.6794 168.881 49.4497C168.28 49.2224 167.643 49.1038 167.001 49.0997C166.437 49.0371 165.866 49.0988 165.329 49.2805C164.792 49.4622 164.301 49.7594 163.891 50.1512C163.481 50.543 163.162 51.0199 162.957 51.5483C162.751 52.0768 162.663 52.6439 162.701 53.2097C162.67 53.8008 162.762 54.3917 162.97 54.9457C163.179 55.4997 163.499 56.0048 163.911 56.4297C164.299 56.8292 164.766 57.1432 165.283 57.3515C165.799 57.5599 166.354 57.658 166.911 57.6397C168.003 57.6418 169.062 57.2674 169.911 56.5797V55.4597H167.851V52.4597H173.001V60.6897H170.001V59.6897C169.496 60.1029 168.915 60.4122 168.291 60.5997C167.604 60.8292 166.885 60.9474 166.161 60.9497C165.232 60.9551 164.312 60.7757 163.454 60.4221C162.595 60.0684 161.816 59.5475 161.161 58.8897C160.432 58.1677 159.863 57.3004 159.491 56.3443C159.119 55.3882 158.952 54.3645 159.001 53.3397V53.3397Z" fill="black"/>
        <path d="M180.25 53.3398C180.225 52.3501 180.403 51.3657 180.772 50.4473C181.142 49.5289 181.696 48.6959 182.4 47.9998C183.123 47.2869 183.983 46.7287 184.929 46.3591C185.874 45.9894 186.885 45.8162 187.9 45.8498C188.923 45.8483 189.938 46.0243 190.9 46.3698C191.833 46.6951 192.682 47.2207 193.39 47.9098L191.74 50.5998C191.223 50.1443 190.635 49.7762 190 49.5098C189.39 49.2483 188.734 49.109 188.07 49.0998C187.501 49.0606 186.93 49.1489 186.398 49.3582C185.867 49.5675 185.39 49.8926 185 50.3098C184.32 51.1352 183.964 52.1807 184 53.2498C183.959 54.3624 184.313 55.4536 185 56.3298C185.373 56.7688 185.842 57.1155 186.371 57.3428C186.9 57.5701 187.475 57.6717 188.05 57.6398C188.784 57.6196 189.506 57.4496 190.171 57.14C190.837 56.8304 191.432 56.388 191.92 55.8398L193.76 58.4498C193.006 59.2447 192.095 59.8732 191.084 60.2951C190.073 60.717 188.985 60.923 187.89 60.8998C186.878 60.9583 185.865 60.8035 184.916 60.4455C183.967 60.0875 183.105 59.5342 182.383 58.8215C181.662 58.1088 181.099 57.2526 180.73 56.3083C180.36 55.364 180.194 54.3527 180.24 53.3398H180.25Z" fill="black"/>
        <path d="M194.44 53.2797C194.418 52.3003 194.597 51.3269 194.965 50.419C195.333 49.5112 195.882 48.6879 196.58 47.9997C198.08 46.6216 200.043 45.8569 202.08 45.8569C204.117 45.8569 206.079 46.6216 207.58 47.9997C208.28 48.694 208.831 49.524 209.199 50.4388C209.567 51.3536 209.744 52.334 209.72 53.3197C209.745 54.3235 209.569 55.3223 209.201 56.2568C208.834 57.1913 208.282 58.0424 207.58 58.7597C206.094 60.1663 204.126 60.9502 202.08 60.9502C200.034 60.9502 198.065 60.1663 196.58 58.7597C195.87 58.039 195.314 57.1816 194.947 56.2396C194.579 55.2975 194.406 54.2905 194.44 53.2797V53.2797ZM198.13 53.2797C198.091 54.4197 198.488 55.5317 199.24 56.3897C199.598 56.783 200.034 57.0973 200.52 57.3123C201.007 57.5273 201.533 57.6384 202.065 57.6384C202.596 57.6384 203.122 57.5273 203.609 57.3123C204.095 57.0973 204.532 56.783 204.89 56.3897C205.641 55.5317 206.038 54.4197 206 53.2797C206.039 52.1726 205.64 51.0947 204.89 50.2797C204.522 49.9033 204.082 49.6041 203.597 49.3999C203.112 49.1957 202.591 49.0905 202.065 49.0905C201.538 49.0905 201.017 49.1957 200.532 49.3999C200.047 49.6041 199.608 49.9033 199.24 50.2797C198.489 51.0947 198.091 52.1726 198.13 53.2797V53.2797Z" fill="black"/>
        <path d="M212 60.6499V46.0799H217C217.956 46.0356 218.913 46.1539 219.83 46.4299C220.651 46.7244 221.353 47.2792 221.83 48.0099C222.323 48.8075 222.57 49.7327 222.54 50.6699C222.551 51.4788 222.366 52.2783 222 52.9999C221.654 53.7056 221.089 54.2808 220.39 54.6399C220.593 54.9204 220.777 55.2144 220.94 55.5199L223.77 60.6099H219.77L217.18 55.6999H215.51V60.6099L212 60.6499ZM215.57 52.6499H217.12C217.616 52.6825 218.105 52.5171 218.48 52.1899C218.649 52.0142 218.78 51.8053 218.865 51.5764C218.949 51.3474 218.985 51.1034 218.97 50.8599C219.014 50.5444 218.955 50.2233 218.802 49.944C218.649 49.6648 218.41 49.4424 218.12 49.3099C217.687 49.1591 217.229 49.0913 216.77 49.1099H215.57V52.6499Z" fill="black"/>
        <path d="M225.359 60.6497V46.0797H231.419C232.059 46.0562 232.695 46.1699 233.287 46.4131C233.879 46.6563 234.411 47.0234 234.849 47.4897C235.295 47.9734 235.642 48.5404 235.868 49.1581C236.095 49.7759 236.197 50.4323 236.169 51.0897C236.223 52.429 235.749 53.7359 234.849 54.7297C234.414 55.1993 233.881 55.5694 233.29 55.8144C232.698 56.0595 232.06 56.1739 231.419 56.1497H228.929V60.6497H225.359ZM228.929 53.0897H230.679C230.936 53.107 231.193 53.0665 231.432 52.9713C231.671 52.8762 231.885 52.7287 232.059 52.5397C232.393 52.1323 232.564 51.6157 232.539 51.0897C232.564 50.5744 232.397 50.0684 232.069 49.6697C231.902 49.4871 231.695 49.3447 231.465 49.2529C231.235 49.1612 230.987 49.1225 230.739 49.1397H228.929V53.0897Z" fill="black"/>
        <path d="M236.66 59.0001C236.66 58.5572 236.836 58.1324 237.149 57.8192C237.462 57.506 237.887 57.3301 238.33 57.3301C238.773 57.3301 239.198 57.506 239.511 57.8192C239.824 58.1324 240 58.5572 240 59.0001C240 59.443 239.824 59.8678 239.511 60.1809C239.198 60.4941 238.773 60.6701 238.33 60.6701V60.6701C238.111 60.6714 237.893 60.6291 237.69 60.5457C237.486 60.4622 237.302 60.3392 237.146 60.1839C236.991 60.0286 236.868 59.8439 236.785 59.6407C236.701 59.4375 236.659 59.2198 236.66 59.0001Z" fill="black"/>
        <path d="M48.7594 17.3702H23.8594V31.6802H48.7594V36.0002C48.7594 43.2502 46.7594 49.1002 35.6994 49.1202H23.8594V68.0002C26.0627 69.4207 28.4299 70.569 30.9094 71.4202C30.9094 71.4202 61.8294 60.6602 61.8294 17.2402V4.24023C61.8294 11.5002 58.6194 17.2402 48.7594 17.3702Z" fill="#045433"/>
    </g>
    <defs>
        <clipPath id="clip0">
            <rect width="240" height="71.4" fill="white"/>
        </clipPath>
    </defs>
</svg>
