<svg xmlns="http://www.w3.org/2000/svg" viewBox="0 0 1285.15 271.32"><defs><style>.cls-1{fill:#fff;}</style></defs><title>Asset 2</title><g id="Layer_2" data-name="Layer 2"><g id="Layer_1-2" data-name="Layer 1"><path class="cls-1" d="M375.05,105.64a91.73,91.73,0,0,0-31.53-26q-19-9.69-43.32-9.69-23.94,0-42.18,8.74a96.52,96.52,0,0,0-30.78,22.8,94.06,94.06,0,0,0-18.81,32.11,110.87,110.87,0,0,0-6.27,36.67,113.82,113.82,0,0,0,6.08,36.67A93.07,93.07,0,0,0,226.67,239a91.41,91.41,0,0,0,30.78,22.61q18.42,8.55,43.13,8.55a102.81,102.81,0,0,0,45.22-10.26q21.27-10.26,38.37-33.06l-29.26-18.62A58.62,58.62,0,0,1,342,221.54a59.79,59.79,0,0,1-13.87,7.6,57.32,57.32,0,0,1-14.06,3.42,124.19,124.19,0,0,1-13.49.76,59.26,59.26,0,0,1-21.85-3.8,57.42,57.42,0,0,1-16.91-10.07A53.47,53.47,0,0,1,250,205a60.17,60.17,0,0,1-6.46-17.29H392.91a110.38,110.38,0,0,0-.57-44.27A94.87,94.87,0,0,0,375.05,105.64ZM244.33,155.8h0a51.17,51.17,0,0,1,4.94-21.3A46,46,0,0,1,261.44,119a53.22,53.22,0,0,1,17.48-9.43,66.12,66.12,0,0,1,20.52-3.21,66.84,66.84,0,0,1,19.95,3,53,53,0,0,1,17.29,9,47.84,47.84,0,0,1,12.54,15.47,49.83,49.83,0,0,1,5.31,21.86Z"/><path class="cls-1" d="M123.31,7.6Q106,0,82.84,0H0V39.52H82.84q12.15,0,21.09,4.37a49,49,0,0,1,15.2,11.4,46.55,46.55,0,0,1,9.31,15.77,51.93,51.93,0,0,1,3,17.1,48.68,48.68,0,0,1-3,16.72,46.94,46.94,0,0,1-9.12,15.2,45.19,45.19,0,0,1-15.2,11,50.55,50.55,0,0,1-21.28,4.18H0V267.52H43.32V174.8h39.9q22.8,0,40.09-7.41A85.46,85.46,0,0,0,152,148a78.39,78.39,0,0,0,17.1-27.74,93.29,93.29,0,0,0,0-64.22A82.6,82.6,0,0,0,123.31,7.6Z"/><polygon class="cls-1" points="545.29 183.16 488.67 74.48 443.07 74.48 443.07 267.14 482.59 267.14 482.59 141.74 530.09 233.7 559.73 233.7 609.51 137.56 609.51 267.14 649.03 267.14 649.03 74.48 601.91 74.48 545.29 183.16"/><polygon class="cls-1" points="1053.73 153.52 976.59 153.52 976.59 74.48 935.93 74.48 935.93 267.14 976.59 267.14 976.59 188.1 1053.73 188.1 1053.73 267.14 1095.15 267.14 1095.15 74.48 1053.73 74.48 1053.73 153.52"/><path class="cls-1" d="M865.06,99.94a103.46,103.46,0,0,0-144,0A95.09,95.09,0,0,0,700,131.48a105.6,105.6,0,0,0,0,78.66A99.37,99.37,0,0,0,721,242.06,97.67,97.67,0,0,0,753,263.53a107,107,0,0,0,80.18,0A96.64,96.64,0,0,0,886,210.14a108.08,108.08,0,0,0,0-78.66A92.83,92.83,0,0,0,865.06,99.94Zm-18.24,98.8a61.46,61.46,0,0,1-13.3,19.76,51.28,51.28,0,0,1-18.81,11.78,63.94,63.94,0,0,1-21.66,3.8,62.8,62.8,0,0,1-21.28-3.8,53.07,53.07,0,0,1-19-11.78,62.45,62.45,0,0,1-13.68-19.76Q733.76,187,733.77,171t5.32-27.74a58.05,58.05,0,0,1,13.68-19.38,55.84,55.84,0,0,1,19-11.4,63,63,0,0,1,21.28-3.8,64.18,64.18,0,0,1,21.66,3.8,54,54,0,0,1,18.81,11.4,57.26,57.26,0,0,1,13.3,19.38Q852,155.05,852,171T846.82,198.74Z"/><polygon class="cls-1" points="1127.83 74.48 1127.83 109.06 1185.59 109.06 1185.59 267.14 1227.01 267.14 1227.01 109.06 1285.15 109.06 1285.15 74.48 1127.83 74.48"/></g></g></svg>