<svg width="31" height="42" viewBox="0 0 31 42" fill="none" xmlns="http://www.w3.org/2000/svg">
    <path d="M29.6927 0H5.95109C5.61829 0 5.29928 0.129691 5.06399 0.360445L0.367521 4.9665C0.132237 5.19725 0 5.5102 0 5.83652V40.7695C0 41.4491 0.561737 42 1.25462 42H29.6927C30.3856 42 30.9474 41.4491 30.9474 40.7695V1.23047C30.9474 0.550922 30.3856 0 29.6927 0ZM12.9644 28.7109H6.27312C5.58023 28.7109 5.01849 28.16 5.01849 27.4805C5.01849 26.8009 5.58023 26.25 6.27312 26.25H12.9644C13.6573 26.25 14.2191 26.8009 14.2191 27.4805C14.2191 28.16 13.6573 28.7109 12.9644 28.7109ZM25.3369 34.1823C24.5361 34.671 23.5893 34.8237 22.6707 34.6126C22.017 34.4622 21.4337 34.1403 20.973 33.6833L19.6333 36.3857C19.3317 36.9939 18.5823 37.2528 17.9563 36.9543C17.3331 36.6571 17.0736 35.9207 17.3765 35.3096L19.6666 30.6904C20.0982 29.8198 21.343 29.7577 21.8621 30.5815L22.6117 31.7708C22.9072 32.2398 23.534 32.384 24.0115 32.0928C24.6 31.7338 25.3736 31.9107 25.7395 32.4877C26.1055 33.0647 25.9253 33.8235 25.3369 34.1823ZM24.6743 23.7891H6.27312C5.58023 23.7891 5.01849 23.2381 5.01849 22.5586C5.01849 21.879 5.58023 21.3281 6.27312 21.3281H24.6743C25.3671 21.3281 25.9289 21.879 25.9289 22.5586C25.9289 23.2381 25.3671 23.7891 24.6743 23.7891ZM24.6743 18.8672H6.27312C5.58023 18.8672 5.01849 18.3163 5.01849 17.6367C5.01849 16.9572 5.58023 16.4062 6.27312 16.4062H24.6743C25.3671 16.4062 25.9289 16.9572 25.9289 17.6367C25.9289 18.3163 25.3671 18.8672 24.6743 18.8672ZM25.9289 12.7148C25.9289 13.3944 25.3671 13.9453 24.6743 13.9453H17.9829C17.29 13.9453 16.7283 13.3944 16.7283 12.7148V6.15234C16.7283 5.4728 17.29 4.92188 17.9829 4.92188H24.6743C25.3671 4.92188 25.9289 5.4728 25.9289 6.15234V12.7148Z" fill="#48AE4D"/>
</svg>
