<svg width="19" height="25" viewBox="0 0 19 25" fill="none" xmlns="http://www.w3.org/2000/svg">
<g opacity="0.5">
<path d="M14.1154 0H1.53283C0.687973 0 0 0.688452 0 1.53314V23.4666C0 24.3126 0.687973 25 1.53283 25H16.9453C17.7909 25 18.4783 24.3126 18.4783 23.4666V4.74059L14.1154 0ZM14.4772 2.29417L16.3895 4.37248H14.4772V2.29417ZM17.1909 23.4667C17.1909 23.6017 17.0803 23.7126 16.9447 23.7126H1.53283C1.39736 23.7126 1.28744 23.6017 1.28744 23.4667V1.53314C1.28744 1.39778 1.39736 1.28808 1.53283 1.28808H13.1891V5.01647C13.1891 5.37145 13.4783 5.65923 13.8335 5.65923H17.1909V23.4667ZM3.5585 6.84733H14.491C14.7573 6.84733 14.9733 7.06334 14.9733 7.32965C14.9733 7.59597 14.7573 7.81198 14.491 7.81198H3.5585C3.29223 7.81198 3.07617 7.59597 3.07617 7.32965C3.07617 7.06339 3.29223 6.84733 3.5585 6.84733ZM14.9733 10.5709C14.9733 10.8371 14.7573 11.0532 14.491 11.0532H3.5585C3.29223 11.0532 3.07617 10.8372 3.07617 10.5709C3.07617 10.3046 3.29223 10.0886 3.5585 10.0886H14.491C14.7573 10.0886 14.9733 10.3046 14.9733 10.5709ZM14.9733 13.706C14.9733 13.9723 14.7573 14.1883 14.491 14.1883H3.5585C3.29223 14.1883 3.07617 13.9723 3.07617 13.706C3.07617 13.4397 3.29223 13.2236 3.5585 13.2236H14.491C14.7573 13.2236 14.9733 13.4397 14.9733 13.706ZM14.9733 16.8945C14.9733 17.1608 14.7573 17.3768 14.491 17.3768H3.5585C3.29223 17.3768 3.07617 17.1608 3.07617 16.8945C3.07617 16.6281 3.29223 16.4121 3.5585 16.4121H14.491C14.7573 16.4121 14.9733 16.6281 14.9733 16.8945Z" fill="black"/>
</g>
</svg>
