<svg width="80" height="89" viewBox="0 0 80 89" fill="none" xmlns="http://www.w3.org/2000/svg">
<path fill-rule="evenodd" clip-rule="evenodd" d="M29.6963 25.7671V36.9768H70.2841V59.4336H29.6963C29.6963 59.4336 29.6963 85.6521 29.6963 85.7649C32.822 87.2136 36.1035 88.2991 39.4765 89C59.2124 84.8874 77.7822 67.2829 78.3465 36.0113L78.5471 25.7671H29.6963Z" fill="#3F873F"/>
<path d="M78.6179 25.7674L79.0066 1.54266C65.9663 0.531202 52.7923 0.0171132 39.4844 0.000394919C26.1768 -0.0163234 13.0152 0.497767 0 1.54266L0.238236 20.4887L0.614396 36.0116C0.614396 36.0116 0.739784 50.4185 5.62989 60.713C10.2375 71.7792 18.8472 80.7025 29.7418 85.7027V59.3712H70.292V36.9772H29.7042V25.7674H78.6179Z" fill="#76BC21"/>
</svg>
