<svg width="54" height="34" viewBox="0 0 54 34" fill="none" xmlns="http://www.w3.org/2000/svg">
    <g clip-path="url(#clip0)">
        <path d="M51.9912 33.5H1.82213C1.09614 33.5 0.5 32.9039 0.5 32.1779V1.82213C0.5 1.09614 1.09614 0.5 1.82213 0.5H51.9912C52.7172 0.5 53.3133 1.09614 53.3133 1.82213V32.1779C53.3133 32.9039 52.7172 33.5 51.9912 33.5Z" stroke="#E5E5E5"/>
        <path d="M22.0982 10.434L16.5841 23.5859H12.999L10.2907 13.1033C10.1348 12.4604 9.97897 12.2266 9.49187 11.9538C8.65404 11.5056 7.30963 11.077 6.12109 10.8237L6.19903 10.434H11.9858C12.7262 10.434 13.3887 10.9211 13.5446 11.7784L14.9864 19.3773L18.5326 10.434H22.0982ZM36.1853 19.2993C36.2048 15.8311 31.3921 15.6363 31.4116 14.097C31.4311 13.6294 31.8793 13.1228 32.8535 12.9864C33.3406 12.928 34.685 12.8695 36.2048 13.571L36.8088 10.7847C35.9904 10.4925 34.9383 10.2002 33.6328 10.2002C30.2815 10.2002 27.9045 11.9927 27.885 14.5452C27.8655 16.4352 29.5801 17.4873 30.8661 18.1303C32.191 18.7733 32.6391 19.1824 32.6391 19.767C32.6197 20.6437 31.587 21.0334 30.6128 21.0529C28.8982 21.0724 27.9045 20.5853 27.1251 20.2151L26.5016 23.0988C27.3005 23.469 28.7618 23.7807 30.2815 23.8002C33.8472 23.8002 36.1658 22.0271 36.1853 19.2993ZM45.0701 23.5859H48.207L45.4598 10.434H42.5566C41.8941 10.434 41.3486 10.8042 41.1148 11.3887L36.0099 23.5664H39.5755L40.277 21.5985H44.6414L45.0701 23.5859ZM41.2707 18.9291L43.0632 13.9996L44.0959 18.9291H41.2707ZM26.9497 10.434L24.144 23.5859H20.7538L23.5595 10.434H26.9497Z" fill="url(#paint0_linear)"/>
    </g>
    <defs>
        <linearGradient id="paint0_linear" x1="6.12109" y1="16.9961" x2="48.207" y2="16.9961" gradientUnits="userSpaceOnUse">
            <stop stop-color="#272158"/>
            <stop offset="1" stop-color="#164194"/>
        </linearGradient>
        <clipPath id="clip0">
            <rect width="53.8133" height="34" fill="white"/>
        </clipPath>
    </defs>
</svg>