<svg width="55" height="55" viewBox="0 0 55 55" fill="none" xmlns="http://www.w3.org/2000/svg">
<rect width="54.7559" height="54.7559" rx="6" fill="url(#paint0_radial)"/>
<path d="M37.0333 22.5144V15.6222C37.0333 15.0434 36.5665 14.5722 35.9878 14.565C35.9194 14.5641 29.1098 14.4262 25.5333 9.82781C25.1106 9.28431 24.2875 9.28361 23.8642 9.82781C20.2878 14.4262 13.4782 14.5641 13.4114 14.5649C12.8314 14.5705 12.3643 15.0421 12.3643 15.6222V26.1009C12.3643 34.246 16.9438 41.709 24.2213 45.393C24.5215 45.545 24.8761 45.545 25.1763 45.393C27.3015 44.3172 29.2113 42.9159 30.8658 41.2223C32.3652 42.108 34.1122 42.6172 35.9761 42.6172C41.5337 42.6172 46.0552 38.0958 46.0552 32.5382C46.0552 27.3375 42.0959 23.0445 37.0333 22.5144ZM24.6989 43.2565C18.4693 39.8842 14.4788 33.3362 14.4788 26.1009V16.6138C16.5766 16.409 21.3513 15.5647 24.6988 12.0891C28.0462 15.5648 32.821 16.4091 34.9188 16.6138V22.5144C34.0859 22.6016 33.2829 22.7905 32.5224 23.0687V20.1331C32.5224 19.5824 32.0974 19.1237 31.5486 19.0791C31.509 19.0759 27.5765 18.7278 25.5334 16.1008C25.1107 15.5573 24.2875 15.5566 23.8643 16.1008C21.8211 18.7278 17.8886 19.0759 17.8514 19.0789C17.3005 19.1214 16.8752 19.5806 16.8752 20.1331V26.6457C16.8752 31.6678 19.8942 37.2128 24.1743 39.6586C24.4993 39.8444 24.8983 39.8443 25.2234 39.6586C26.0182 39.2043 26.7775 38.6402 27.4925 37.9749C27.9599 38.7018 28.5186 39.3647 29.1514 39.948C27.833 41.2585 26.3411 42.3681 24.6989 43.2565ZM26.5034 35.9825C25.9329 36.5728 25.3295 37.0813 24.6991 37.499C21.3587 35.2806 18.9896 30.716 18.9896 26.6457V21.0475C20.3369 20.7941 22.8061 20.1073 24.6987 18.3167C26.5913 20.1073 29.0606 20.7941 30.4079 21.0475V24.141C26.4461 26.7769 24.9427 31.7036 26.5034 35.9825ZM35.9761 40.5027C31.5844 40.5027 28.0115 36.9298 28.0115 32.5381C28.0115 28.1464 31.5844 24.5735 35.9761 24.5735C40.3678 24.5735 43.9407 28.1464 43.9407 32.5381C43.9407 36.9298 40.3678 40.5027 35.9761 40.5027Z" fill="white"/>
<path d="M37.3451 31.3585C36.8683 31.1898 36.0907 30.9065 35.7011 30.601C35.6775 30.5824 35.6334 30.4714 35.6644 30.3063C35.6793 30.2271 35.7478 29.9626 36.0045 29.8852C36.401 29.7651 36.7772 29.844 37.0241 30.0268C37.4139 30.3817 38.0174 30.3547 38.3738 29.9658C38.7297 29.5774 38.7044 28.9748 38.3182 28.6172C38.3182 28.6172 37.8748 28.2225 37.2408 28.0357V27.9569C37.2408 27.4285 36.8123 27 36.2838 27C35.7553 27 35.3269 27.4285 35.3269 27.9569V28.0954C33.6068 28.721 33.2023 31.0739 34.5201 32.1072C35.1204 32.5779 35.9783 32.9051 36.7065 33.1628C37.1809 33.3306 37.2291 33.6708 37.1861 33.9266C37.1382 34.2114 36.8929 34.6944 36.2774 34.6984C35.6393 34.7025 35.4879 34.6791 35.0222 34.3742C34.5799 34.0849 33.9869 34.2086 33.6974 34.6509C33.408 35.0931 33.5318 35.6862 33.974 35.9757C34.4827 36.3086 34.8857 36.4736 35.3268 36.5508V36.6429C35.3268 37.1714 35.7553 37.5999 36.2838 37.5999C36.8123 37.5999 37.2407 37.1714 37.2407 36.6429V36.4426C39.5592 35.6046 39.8668 32.2506 37.3451 31.3585Z" fill="white"/>
<path d="M37.0333 22.5144V15.6222C37.0333 15.0434 36.5665 14.5722 35.9878 14.565C35.9194 14.5641 29.1098 14.4262 25.5333 9.82781C25.1106 9.28431 24.2875 9.28361 23.8642 9.82781C20.2878 14.4262 13.4782 14.5641 13.4114 14.5649C12.8314 14.5705 12.3643 15.0421 12.3643 15.6222V26.1009C12.3643 34.246 16.9438 41.709 24.2213 45.393C24.5215 45.545 24.8761 45.545 25.1763 45.393C27.3015 44.3172 29.2113 42.9159 30.8658 41.2223C32.3652 42.108 34.1122 42.6172 35.9761 42.6172C41.5337 42.6172 46.0552 38.0958 46.0552 32.5382C46.0552 27.3375 42.0959 23.0445 37.0333 22.5144ZM24.6989 43.2565C18.4693 39.8842 14.4788 33.3362 14.4788 26.1009V16.6138C16.5766 16.409 21.3513 15.5647 24.6988 12.0891C28.0462 15.5648 32.821 16.4091 34.9188 16.6138V22.5144C34.0859 22.6016 33.2829 22.7905 32.5224 23.0687V20.1331C32.5224 19.5824 32.0974 19.1237 31.5486 19.0791C31.509 19.0759 27.5765 18.7278 25.5334 16.1008C25.1107 15.5573 24.2875 15.5566 23.8643 16.1008C21.8211 18.7278 17.8886 19.0759 17.8514 19.0789C17.3005 19.1214 16.8752 19.5806 16.8752 20.1331V26.6457C16.8752 31.6678 19.8942 37.2128 24.1743 39.6586C24.4993 39.8444 24.8983 39.8443 25.2234 39.6586C26.0182 39.2043 26.7775 38.6402 27.4925 37.9749C27.9599 38.7018 28.5186 39.3647 29.1514 39.948C27.833 41.2585 26.3411 42.3681 24.6989 43.2565ZM26.5034 35.9825C25.9329 36.5728 25.3295 37.0813 24.6991 37.499C21.3587 35.2806 18.9896 30.716 18.9896 26.6457V21.0475C20.3369 20.7941 22.8061 20.1073 24.6987 18.3167C26.5913 20.1073 29.0606 20.7941 30.4079 21.0475V24.141C26.4461 26.7769 24.9427 31.7036 26.5034 35.9825ZM35.9761 40.5027C31.5844 40.5027 28.0115 36.9298 28.0115 32.5381C28.0115 28.1464 31.5844 24.5735 35.9761 24.5735C40.3678 24.5735 43.9407 28.1464 43.9407 32.5381C43.9407 36.9298 40.3678 40.5027 35.9761 40.5027Z" stroke="#72BF44" stroke-width="0.5"/>
<path d="M37.3451 31.3585C36.8683 31.1898 36.0907 30.9065 35.7011 30.601C35.6775 30.5824 35.6334 30.4714 35.6644 30.3063C35.6793 30.2271 35.7478 29.9626 36.0045 29.8852C36.401 29.7651 36.7772 29.844 37.0241 30.0268C37.4139 30.3817 38.0174 30.3547 38.3738 29.9658C38.7297 29.5774 38.7044 28.9748 38.3182 28.6172C38.3182 28.6172 37.8748 28.2225 37.2408 28.0357V27.9569C37.2408 27.4285 36.8123 27 36.2838 27C35.7553 27 35.3269 27.4285 35.3269 27.9569V28.0954C33.6068 28.721 33.2023 31.0739 34.5201 32.1072C35.1204 32.5779 35.9783 32.9051 36.7065 33.1628C37.1809 33.3306 37.2291 33.6708 37.1861 33.9266C37.1382 34.2114 36.8929 34.6944 36.2774 34.6984C35.6393 34.7025 35.4879 34.6791 35.0222 34.3742C34.5799 34.0849 33.9869 34.2086 33.6974 34.6509C33.408 35.0931 33.5318 35.6862 33.974 35.9757C34.4827 36.3086 34.8857 36.4736 35.3268 36.5508V36.6429C35.3268 37.1714 35.7553 37.5999 36.2838 37.5999C36.8123 37.5999 37.2407 37.1714 37.2407 36.6429V36.4426C39.5592 35.6046 39.8668 32.2506 37.3451 31.3585Z" stroke="#72BF44" stroke-width="0.5"/>
<defs>
<radialGradient id="paint0_radial" cx="0" cy="0" r="1" gradientUnits="userSpaceOnUse" gradientTransform="translate(6.05905 10.0984) rotate(36.3916) scale(75.2696)">
<stop stop-color="#72BF44"/>
<stop offset="1" stop-color="#4F9D3A"/>
</radialGradient>
</defs>
</svg>
