<svg width="75" height="60" viewBox="0 0 75 60" fill="none" xmlns="http://www.w3.org/2000/svg">
<path fill-rule="evenodd" clip-rule="evenodd" d="M24.0031 41.887C24.6991 41.8096 25.395 41.5389 25.975 40.9587L28.3334 38.5994C28.8747 38.058 28.8747 37.1297 28.3334 36.5882C27.7535 36.0468 26.8642 36.0468 26.2843 36.5882L23.8098 39.1022C22.9979 38.4834 22.3793 37.9806 21.1807 38.058L19.2089 38.9475L16.6572 41.5002L14.1441 38.9475C13.5641 38.406 12.6749 38.406 12.0949 38.9475C11.5536 39.5277 11.5536 40.4172 12.0949 40.9587L14.492 43.3567C15.6906 44.5557 17.6624 44.5557 18.861 43.3567L21.3354 40.8427C22.1473 41.4615 22.7659 41.9643 24.0031 41.887Z" fill="#72BF44"/>
<path fill-rule="evenodd" clip-rule="evenodd" d="M44.804 49.6611H10.4326C10.0073 47.9593 9.50467 46.7217 8.1128 45.4067C6.75959 44.053 5.48371 43.5502 3.74388 43.1247V9.39848C5.48371 8.97304 6.75959 8.47024 8.1128 7.11655C9.50467 5.80153 10.0073 4.56387 10.4326 2.82341H65.4501C65.914 4.56387 66.4166 5.80153 67.7698 7.11655C69.1617 8.47024 70.3989 8.97304 72.1774 9.39848V43.1247C70.3989 43.5502 69.1617 44.053 67.7698 45.4067C66.4166 46.7217 65.914 47.9593 65.4501 49.6611H59.4959V42.5833C67.0739 35.2346 61.5838 23.6316 52.15 23.6316C42.7549 23.6316 37.2261 35.196 44.804 42.5833V49.6611ZM52.15 42.5833C45.036 42.5833 41.4017 33.9196 46.4665 28.853C51.5314 23.7863 60.1919 27.4219 60.1919 34.5385C60.1919 38.9863 56.5962 42.5833 52.15 42.5833ZM0.882812 8.08347V44.4397C0.882812 45.252 1.54008 45.8708 2.31334 45.8708C5.21307 45.8708 7.6875 48.2301 7.6875 51.0922C7.6875 51.9044 8.34478 52.5232 9.11804 52.5232H44.804V58.2087C44.804 59.3304 46.0412 59.9879 46.9691 59.4464L52.15 56.3136L57.3308 59.4464C58.2587 59.9879 59.4959 59.3304 59.4959 58.2087V52.5232H66.8033C67.5765 52.5232 68.2338 51.9044 68.2338 51.0922C68.2338 48.2301 70.7082 45.8708 73.6079 45.8708C74.3812 45.8708 74.9998 45.252 74.9998 44.4397V8.08347C74.9998 7.65802 74.8452 7.30993 74.6132 7.03919C73.6853 6.11095 72.0228 7.27126 69.819 5.10535C67.5765 2.93944 68.7364 1.31501 67.8085 0.386769C67.5379 0.154708 67.1899 0 66.8033 0H9.11804C8.34478 0 7.6875 0.61883 7.6875 1.43104C7.6875 4.29314 5.21307 6.65243 2.31334 6.65243C1.92671 6.65243 1.57875 6.80713 1.30811 7.03919C1.07613 7.30993 0.882812 7.65802 0.882812 8.08347ZM47.6651 55.6947V44.5171L48.709 44.8652C51.7247 45.8708 53.8898 45.4453 56.6349 44.5171V55.6947L52.8846 53.4128H51.4154L47.6651 55.6947Z" fill="#72BF44"/>
<path fill-rule="evenodd" clip-rule="evenodd" d="M19.7488 29.7812C24.3884 28.1181 25.2003 21.3496 19.9421 19.4545C18.9755 19.1064 16.6171 18.2555 15.9212 17.5593C15.3412 17.0178 15.4959 16.0122 15.8825 15.3934C15.9598 15.2387 16.1145 15.0453 16.3078 14.8906C16.5011 14.7359 16.6944 14.6585 16.9264 14.5812C19.3622 13.8463 19.9808 15.4708 21.102 15.4321C21.45 15.4321 21.7979 15.2774 22.0686 14.968L22.1459 14.8906C23.1125 13.6529 21.7593 12.6473 20.7927 12.1832L19.2462 11.6417C19.2462 11.2163 19.2848 10.056 18.8209 9.86261C18.2409 9.28245 17.3517 9.28245 16.7717 9.86261C16.2691 10.3654 16.3851 10.9842 16.3851 11.7191C14.452 12.4153 13.1761 13.4982 12.7895 15.6255C12.4802 17.1725 12.9054 18.8356 14.1813 19.8412C17.3517 22.3166 21.1793 21.6977 20.6767 24.8306C20.2901 27.1125 17.9703 27.6153 16.0758 27.1512C14.9159 26.8804 13.4854 25.2947 12.4802 26.8031C11.2429 28.6982 14.6453 29.8199 15.9598 30.0519L16.3851 30.1293C16.3851 30.9028 16.2691 32.4112 17.8156 32.4112C19.4008 32.4112 19.2462 30.7868 19.2462 29.9746L19.7488 29.7812Z" fill="#72BF44"/>
<path fill-rule="evenodd" clip-rule="evenodd" d="M33.0131 12.0667H42.4855C42.8721 12.0667 43.2201 11.8733 43.4907 11.6412C44.032 11.0611 44.032 10.1715 43.4907 9.63004C43.2201 9.3593 42.8721 9.20459 42.4855 9.20459H33.0131C32.6264 9.20459 32.2785 9.3593 32.0078 9.63004C31.7372 9.8621 31.5825 10.2102 31.5825 10.6356C31.5825 11.4092 32.2398 12.0667 33.0131 12.0667Z" fill="#72BF44"/>
</svg>
