<svg width="75" height="61" viewBox="0 0 75 61" fill="none" xmlns="http://www.w3.org/2000/svg">
<path fill-rule="evenodd" clip-rule="evenodd" d="M15.2894 27.6338C12.2393 30.757 10.245 35.0661 10.245 40.1659C10.245 45.1076 12.2393 49.5749 15.4458 52.8166C18.6522 56.0583 23.0709 58.035 27.9197 58.035C30.305 58.035 32.6121 57.5606 34.6846 56.6909C36.8352 55.7816 38.7904 54.477 40.4327 52.8166C43.8738 49.3377 45.5944 44.7518 45.5944 40.1659C45.5944 35.6196 43.8738 31.0337 40.4327 27.5548C36.8352 23.9177 32.4166 22.2968 28.0761 22.2968C25.7299 22.2968 23.3446 22.7712 21.194 23.6805C19.0042 24.6293 17.0099 25.9339 15.2894 27.6338ZM41.7623 55.6235C38.0865 58.9838 33.2377 61 27.9197 61C24.3222 61 20.9984 60.1303 18.1048 58.4699C15.0938 56.8095 12.5521 54.3584 10.5188 51.3143H1.44682C1.2513 51.3143 1.05579 51.2748 0.899374 51.2353C0.703858 51.1562 0.547445 51.0376 0.430136 50.8795C0.11731 50.6027 0 50.2469 0 49.8516C0 49.6539 0.0391032 49.4563 0.11731 49.2981C0.195516 49.1005 0.312826 48.9423 0.430136 48.7842C0.703858 48.547 1.05579 48.3889 1.44682 48.3889H8.95464C8.4463 47.0052 8.13347 46.0959 7.89885 45.1471C7.66423 44.1983 7.50782 43.21 7.35141 41.6682H1.44682C1.2513 41.6682 1.05579 41.6286 0.899374 41.5496C0.703858 41.4705 0.547445 41.3519 0.430136 41.2333C0.11731 40.917 0 40.5612 0 40.2054C0 40.0078 0.0391032 39.8101 0.11731 39.6124C0.195516 39.4148 0.312826 39.2566 0.430136 39.138C0.703858 38.8613 1.05579 38.7032 1.44682 38.7032H7.35141C7.50782 37.1614 7.66423 36.173 7.89885 35.1847C8.13347 34.2754 8.4463 33.3266 8.95464 31.9825H1.44682C1.2513 31.9825 1.05579 31.943 0.899374 31.8639C0.703858 31.7848 0.547445 31.6662 0.430136 31.5476C0.11731 31.2314 0 30.8756 0 30.5198C0 30.3221 0.0391032 30.1244 0.11731 29.9268C0.195516 29.7686 0.312826 29.571 0.430136 29.4524C0.703858 29.1756 1.05579 29.0175 1.44682 29.0175H10.5188C11.4572 27.6338 12.3957 26.4083 13.4906 25.3409C14.5855 24.1944 15.8368 23.2456 17.3227 22.3364C18.8478 21.3876 20.2946 20.755 21.7805 20.2806C23.2664 19.8458 24.7914 19.569 26.512 19.3714L26.5511 18.7388C27.0985 13.4413 29.562 8.73688 33.2377 5.37654C36.9135 2.0162 41.7623 0 47.0803 0C50.6778 0 54.0016 0.909268 56.8952 2.53014C59.9062 4.19054 62.4479 6.64161 64.4812 9.68568H73.5532C73.7487 9.68568 73.9051 9.72521 74.1006 9.80428C74.257 9.84381 74.4526 9.96241 74.5699 10.1205C74.8827 10.3973 75 10.7926 75 11.1484C75 11.3461 74.9609 11.5437 74.8827 11.7019C74.8045 11.8995 74.6872 12.0577 74.5699 12.2158C74.2961 12.453 73.9442 12.6111 73.5532 12.6111H66.0454C66.5537 13.9948 66.8665 14.9041 67.1011 15.8529C67.3358 16.8017 67.4531 17.8296 67.6486 19.3318H73.5532C73.7487 19.3318 73.9051 19.3714 74.1006 19.4504C74.257 19.5295 74.4526 19.6481 74.5699 19.7667C74.8827 20.083 75 20.4388 75 20.8341C75 21.0318 74.9609 21.2294 74.8827 21.3876C74.8045 21.5852 74.6872 21.7434 74.5699 21.9015C74.2961 22.1387 73.9442 22.2968 73.5532 22.2968H67.6486C67.4531 23.8386 67.3358 24.827 67.1011 25.8153C66.8665 26.7641 66.5537 27.6734 66.0454 29.0175H73.5532C73.7487 29.0175 73.9051 29.057 74.1006 29.1361C74.257 29.2152 74.4526 29.3338 74.5699 29.4524C74.8827 29.7686 75 30.1244 75 30.4802C75 30.6779 74.9609 30.8756 74.8827 31.0732C74.8045 31.2314 74.6872 31.429 74.5699 31.5476C74.2961 31.8244 73.9442 31.9825 73.5532 31.9825H64.4812C63.5428 33.3662 62.6043 34.5917 61.5094 35.6591C60.4145 36.8056 59.1632 37.7939 57.6773 38.6636C56.1522 39.6124 54.7054 40.245 53.2195 40.7194C51.7336 41.1542 50.2085 41.431 48.488 41.6286L48.4098 42.2612C47.9015 47.5587 45.438 52.2631 41.7623 55.6235ZM39.1032 22.3759L39.4552 22.9294C40.0026 23.2852 40.5109 23.6805 41.0193 24.1154C41.5276 24.5502 42.036 24.9851 42.5052 25.4595C42.9353 25.9339 43.4046 26.4083 43.8347 26.9222C44.2258 27.4362 44.6168 27.9501 44.9687 28.5036L45.5162 28.8594C46.7284 29.0966 47.9015 29.057 48.9963 28.7803C50.1694 28.5036 51.2252 27.9501 52.1637 27.199C53.6496 25.9734 54.549 24.4316 54.94 22.8108C55.3311 21.269 55.2138 19.6086 54.7054 18.1063C54.158 16.604 53.2195 15.2599 51.9682 14.2715C50.6387 13.2437 48.9963 12.6111 47.0803 12.6111C46.5328 12.6111 45.9854 12.6902 45.4771 12.8088C43.561 13.1646 41.9578 14.232 40.7847 15.6552C39.6507 17.0784 38.9468 18.897 38.9468 20.8341C38.9468 21.348 38.9859 21.862 39.1032 22.3759ZM47.8233 34.7498C48.0579 35.6986 48.2534 36.6474 48.4098 37.873L48.488 38.6636L49.2701 38.545C51.4207 38.3078 53.4932 37.6358 55.3311 36.6474C57.208 35.6196 58.9286 34.2359 60.3363 32.6546C61.744 31.0337 62.8389 29.1756 63.621 27.1199C64.3639 25.1828 64.755 23.048 64.755 20.8341C64.755 16.1692 63.0735 12.1367 60.4145 9.09268C58.7331 7.15554 56.6215 5.61374 54.3144 4.54634C52.0073 3.51847 49.5047 2.92547 46.9239 2.92547C42.9353 2.92547 38.8686 4.30914 35.3884 7.43227C33.7852 8.85548 32.4557 10.5554 31.439 12.4925C30.4614 14.3506 29.7967 16.4064 29.5229 18.5807L29.4447 19.3714C30.9307 19.569 31.8691 19.6876 32.8076 19.9248C33.7461 20.162 34.6064 20.4783 35.975 20.9922L36.0532 19.9248C36.2878 17.118 37.4609 14.7459 39.1814 13.0065C40.3545 11.8205 41.7231 10.9507 43.2482 10.3973C44.7341 9.80428 46.3764 9.56708 48.0188 9.68568C50.4432 9.88334 52.8676 10.9112 54.8618 12.9274C56.8561 14.9831 57.8728 17.4342 58.0683 19.8853C58.1856 21.5062 57.951 23.1666 57.4035 24.7084C56.8561 26.2106 55.9567 27.6338 54.8227 28.7803C53.1022 30.5198 50.756 31.7453 47.9406 31.943L46.9239 32.022C47.2758 33.0499 47.5886 33.8801 47.8233 34.7498ZM31.7518 34.4731C31.2826 34.7103 30.696 34.6708 30.1877 34.2359C29.8749 33.9592 29.3665 33.722 28.8191 33.6034C28.3498 33.5243 27.8415 33.5243 27.3723 33.6034C26.9421 33.722 26.512 33.9196 26.1992 34.2359C25.9645 34.5126 25.8081 34.8289 25.7299 35.2638L26.121 36.8056L30.1877 38.7032C30.6178 38.8613 31.048 39.0985 31.439 39.3357C32.5339 40.0473 33.2377 41.0356 33.5506 42.1821C33.9025 43.289 33.8634 44.5146 33.4724 45.661C33.316 46.0959 33.0813 46.5308 32.8467 46.9261C32.3384 47.6773 31.8691 48.1517 31.2826 48.547C30.7351 48.9423 30.1095 49.1795 29.4056 49.4563V50.4841V50.5237L29.3665 50.5632L29.0146 51.4725L28.9755 51.512C28.8191 51.6701 28.6627 51.7887 28.5063 51.8283C28.3107 51.9073 28.1152 51.9469 27.9197 51.9469C26.5902 51.9469 26.4729 50.8399 26.4729 49.9702V49.6539V49.6144L25.8081 49.4958C25.2607 49.3772 24.1267 49.0609 23.3055 48.5075C22.9927 48.2703 22.6799 48.0331 22.5235 47.7563C22.3279 47.4796 22.2106 47.1238 22.2888 46.768C22.3279 46.6099 22.4062 46.4122 22.5235 46.175C23.2664 45.0681 24.1658 45.5424 25.0652 46.0564C25.4171 46.2541 25.769 46.4517 26.121 46.5308C26.2383 46.5703 26.3947 46.6099 26.5511 46.6099C27.4505 46.768 28.428 46.6889 29.171 46.3727C29.9531 46.0168 30.5396 45.3843 30.7742 44.4355C30.7742 44.3564 30.8133 44.2774 30.8133 44.1588C31.1262 42.2216 29.7576 41.7077 27.9588 40.9961C26.7857 40.5612 25.4562 40.0473 24.2831 39.0985C23.3055 38.3474 22.8363 37.2404 22.7581 36.0544C22.6799 34.8289 23.0709 33.5243 23.853 32.536C24.244 31.9825 24.6741 31.6267 25.1043 31.3895C25.4953 31.1523 25.9645 30.9546 26.4729 30.7965V30.243C26.4729 29.7291 26.5511 29.3733 26.7075 29.0966C26.903 28.7803 27.1376 28.5826 27.4114 28.5036C27.6851 28.4245 27.9588 28.385 28.2325 28.464C28.5063 28.5431 28.7409 28.6617 28.9364 28.8198C29.4056 29.0966 29.4056 30.164 29.4056 30.6779L32.1429 32.022H32.182V32.0616C32.6903 32.536 32.7294 33.129 32.573 33.6034C32.4948 33.801 32.3775 33.9987 32.2211 34.1173C32.1038 34.2754 31.9082 34.394 31.7518 34.4731Z" fill="#72BF44"/>
</svg>
