<svg width="47" height="64" viewBox="0 0 47 64" fill="none" xmlns="http://www.w3.org/2000/svg">
<path fill-rule="evenodd" clip-rule="evenodd" d="M10.0455 19.6498H13.9685C14.3608 19.6498 14.7138 19.4928 14.9492 19.2573C15.0669 19.2573 15.773 18.1977 14.9492 17.3344L13.9685 16.9419H10.0455C8.39784 16.9419 8.4763 19.0219 9.06475 19.2573C9.30013 19.4928 9.65319 19.6498 10.0455 19.6498ZM10.0455 27.577H13.9685C14.7531 27.577 15.3415 26.9883 15.3415 26.2035C15.3415 25.4578 14.7531 24.8692 13.9685 24.8692H10.0455C9.65319 24.8692 9.30013 24.9869 9.06475 25.2616C8.94706 25.2616 8.20169 26.3212 9.06475 27.1846C9.30013 27.42 9.65319 27.577 10.0455 27.577ZM21.2652 38.2513C21.2652 37.4272 21.1475 36.3676 19.9314 36.3676C19.5391 36.3676 19.186 36.5246 18.9506 36.7601L18.5583 37.9766V38.3298L16.4007 39.7818C15.1061 41.4301 15.1061 44.0594 16.793 45.3937C19.4606 47.4736 22.5598 46.9242 22.1675 49.3965C21.7752 51.5942 19.0683 51.7904 17.1853 50.5739C15.6946 49.5928 14.2038 51.8689 15.6946 52.85L18.5583 53.9881C18.5583 54.5767 18.4799 55.0476 18.9506 55.5186C18.9506 55.6363 20.0491 56.3819 20.8729 55.5186C21.3829 55.0476 21.2652 54.4982 21.2652 53.8311C23.5013 53.0462 24.8743 51.398 24.9136 49.1218C24.9528 47.1204 23.8151 45.4722 21.8144 44.7658C21.3437 44.6088 20.716 44.3733 20.1275 44.1379C19.2645 43.7454 18.323 43.3923 18.2053 42.6859C17.9699 40.6844 20.6767 40.449 21.6967 41.3908C23.1482 42.7251 26.2474 39.7033 21.2652 38.2513ZM38.6832 23.2602L24.4036 9.13243L16.5576 9.0147H11.3793V3.71679H44.293V52.5753H43.7831H39.0755V24.2413L38.6832 23.2602ZM46.9999 53.9096V2.34326C46.9999 1.59763 46.4114 0.969727 45.6269 0.969727H10.0455C9.65319 0.969727 9.30013 1.1267 9.06475 1.36216L8.67245 2.34326V9.0147H2.12109L1.14034 9.40714C0.904966 9.68184 0.748047 9.9958 0.748047 10.3882V61.9546C0.748047 62.7394 1.33649 63.3281 2.12109 63.3281H37.7417C38.0947 63.3281 38.4478 63.1711 38.6832 62.9356L39.0755 61.9546V55.2831H45.6269C46.0191 55.2831 46.3722 55.1261 46.6076 54.8907L46.9999 53.9096ZM25.2274 13.6847L34.4464 22.8678H33.2303H25.2274V13.6847ZM23.8936 25.6148H36.3686V60.6203H35.8587H3.49413V11.7618H22.5205V24.2413C22.5205 24.9869 23.109 25.6148 23.8936 25.6148Z" fill="#72BF44"/>
</svg>
