<svg width="10" height="10" viewBox="0 0 10 10" fill="none" xmlns="http://www.w3.org/2000/svg">
<path opacity="0.5" fill-rule="evenodd" clip-rule="evenodd" d="M0.165448 3.02263C0.165448 3.02263 -0.0597452 2.34788 0.0153193 1.97302C0.0528515 1.56067 0.240513 1.33575 0.240513 1.33575L1.36648 0.0612249C1.36648 0.0612249 1.66674 -0.163692 2.07959 0.248655C2.45491 0.698489 3.73101 2.08547 3.73101 2.08547C3.73101 2.08547 4.1814 2.53531 3.76854 2.98514C3.35569 3.43497 2.98036 3.84732 2.98036 3.84732C2.98036 3.84732 2.86777 3.92229 3.13049 4.37213C3.31815 4.74699 5.2323 6.65878 5.60762 6.8837C6.05801 7.10861 6.13307 7.03364 6.13307 7.03364C6.13307 7.03364 6.54593 6.65878 7.03384 6.24643C7.48423 5.7966 7.89709 6.24643 7.89709 6.24643C7.89709 6.24643 9.32331 7.55845 9.73617 7.93331C10.1866 8.30817 9.92383 8.64554 9.92383 8.64554L8.68526 9.73264C8.68526 9.73264 8.42254 9.92007 8.04721 9.99504C7.63436 10.0325 6.95878 9.8451 6.95878 9.8451C4.48165 9.0204 0.953625 5.49671 0.165448 3.02263Z" fill="black"/>
</svg>
