<svg width="80" height="80" viewBox="0 0 80 80" fill="none" xmlns="http://www.w3.org/2000/svg">
<rect width="79.4848" height="79.4848" rx="17" fill="url(#paint0_radial)"/>
<path fill-rule="evenodd" clip-rule="evenodd" d="M31.244 49.1551C31.7011 49.107 32.1341 48.9385 32.4709 48.5776L33.9384 47.1096C34.2992 46.7726 34.2992 46.1951 33.9384 45.8582C33.6016 45.5212 33.0242 45.5212 32.6874 45.8582L31.1237 47.4224C30.6185 47.0374 30.2577 46.7245 29.5119 46.7726L28.2609 47.3262L26.6972 48.9145L25.1095 47.3262C24.7727 46.9892 24.1953 46.9892 23.8585 47.3262C23.4977 47.6871 23.4977 48.2406 23.8585 48.5776L25.326 50.0696C26.0718 50.8156 27.2987 50.8156 28.0444 50.0696L29.6081 48.5054C30.1133 48.8904 30.4982 49.2033 31.244 49.1551Z" fill="white"/>
<path fill-rule="evenodd" clip-rule="evenodd" d="M44.2114 53.9924H22.8249C22.5362 52.9335 22.2234 52.1634 21.3814 51.3452C20.5154 50.5029 19.7456 50.19 18.663 49.9253V28.9402C19.7456 28.6755 20.5154 28.3626 21.3814 27.5203C22.2234 26.7021 22.5362 25.932 22.8249 24.8491H57.0578C57.3465 25.932 57.6592 26.7021 58.5012 27.5203C59.3432 28.3626 60.1371 28.6755 61.2196 28.9402V49.9253C60.1371 50.19 59.3432 50.5029 58.5012 51.3452C57.6592 52.1634 57.3465 52.9335 57.0578 53.9924H53.329V49.5884C58.0682 45.016 54.628 37.7963 48.7582 37.7963C42.9364 37.7963 39.4722 44.9919 44.2114 49.5884V53.9924ZM48.7582 49.5884C44.3557 49.5884 42.0944 44.1977 45.2459 41.0451C48.3973 37.8926 53.762 40.1547 53.762 44.5828C53.762 47.3503 51.5247 49.5884 48.7582 49.5884ZM16.8828 28.122V50.7435C16.8828 51.2489 17.2677 51.634 17.7729 51.634C19.5531 51.634 21.1168 53.102 21.1168 54.8828C21.1168 55.3882 21.5017 55.7732 22.0069 55.7732H44.2114V59.3109C44.2114 60.0088 44.9572 60.4179 45.5586 60.081L48.7582 58.1316L51.9818 60.081C52.5832 60.4179 53.329 60.0088 53.329 59.3109V55.7732H57.8757C58.3809 55.7732 58.7658 55.3882 58.7658 54.8828C58.7658 53.102 60.3295 51.634 62.1097 51.634C62.5908 51.634 62.9998 51.2489 62.9998 50.7435V28.122C62.9998 27.8573 62.9036 27.6407 62.7352 27.4722C62.1578 26.8946 61.1474 27.6166 59.7521 26.2689C58.3809 24.9213 59.0785 23.9105 58.5012 23.3329C58.3568 23.1885 58.1163 23.0923 57.8757 23.0923H22.0069C21.5017 23.0923 21.1168 23.4773 21.1168 23.9827C21.1168 25.7636 19.5531 27.2316 17.7729 27.2316C17.5323 27.2316 17.2918 27.3278 17.1474 27.4722C16.979 27.6407 16.8828 27.8573 16.8828 28.122ZM45.9676 57.7466V50.7917L46.6171 51.0083C48.4935 51.634 49.8407 51.3692 51.5728 50.7917V57.7466L49.2393 56.3267H48.3011L45.9676 57.7466Z" fill="white"/>
<path fill-rule="evenodd" clip-rule="evenodd" d="M28.599 41.6227C31.5099 40.5879 32.0151 36.3764 28.7193 35.1972C28.1179 34.9806 26.6504 34.4512 26.2174 34.018C25.8806 33.6811 25.9768 33.0554 26.1934 32.6704C26.2655 32.5741 26.3617 32.4538 26.482 32.3575C26.5783 32.2612 26.6985 32.2131 26.8429 32.165C28.3585 31.7077 28.7434 32.7185 29.441 32.6944C29.6575 32.6944 29.874 32.5982 30.0424 32.4056L30.1146 32.3575C30.692 31.5874 29.85 30.9617 29.2486 30.6729L28.2863 30.336C28.2863 30.0713 28.3103 29.3493 28.0217 29.229C27.6849 28.868 27.1075 28.868 26.7707 29.229C26.458 29.5418 26.5061 29.9269 26.5061 30.3841C25.3273 30.8173 24.5334 31.4911 24.2688 32.8147C24.1004 33.7774 24.365 34.8122 25.1589 35.4379C27.1316 36.9781 29.5132 36.593 29.1764 38.5423C28.9358 39.9622 27.4924 40.275 26.3136 39.9863C25.5919 39.8178 24.7018 38.8311 24.0764 39.7697C23.3065 40.9489 25.4476 41.6468 26.2655 41.7912L26.5061 41.8393C26.5061 42.3206 26.4339 43.2592 27.3962 43.2592C28.3825 43.2592 28.2863 42.2484 28.2863 41.743L28.599 41.6227Z" fill="white"/>
<path fill-rule="evenodd" clip-rule="evenodd" d="M36.875 30.6004H42.7448C42.9854 30.6004 43.226 30.4801 43.3703 30.3357C43.7312 29.9747 43.7312 29.4212 43.3703 29.0843C43.226 28.9158 42.9854 28.8196 42.7448 28.8196H36.875C36.6103 28.8196 36.3938 28.9158 36.2254 29.0843C36.0811 29.2287 35.9849 29.4453 35.9849 29.71C35.9849 30.1913 36.3698 30.6004 36.875 30.6004Z" fill="white"/>
<defs>
<radialGradient id="paint0_radial" cx="0" cy="0" r="1" gradientUnits="userSpaceOnUse" gradientTransform="translate(4.41045e-06 13.0303) rotate(42.8068) scale(108.342)">
<stop offset="0.207492" stop-color="#70BD43"/>
<stop offset="1" stop-color="#4F9D3A"/>
</radialGradient>
</defs>
</svg>
