<svg width="80" height="80" viewBox="0 0 80 80" fill="none" xmlns="http://www.w3.org/2000/svg">
<rect width="79.4848" height="79.4848" rx="17" fill="url(#paint0_radial)"/>
<path fill-rule="evenodd" clip-rule="evenodd" d="M28.9392 47.2221C28.6359 44.9552 27.8893 43.2024 26.2794 41.6131C24.6696 40.0239 22.9197 39.276 20.6565 38.9956V30.8859C22.9197 30.6054 24.6696 29.8809 26.2794 28.2683C27.8893 26.6791 28.6359 24.9263 28.9392 22.6593H52.0608C52.3874 24.9263 53.134 26.6791 54.7206 28.2683C56.3304 29.8809 58.0803 30.6054 60.3668 30.8859V41.2158C59.5735 40.6549 59.0369 40.2342 58.0803 39.9304C55.1639 38.9956 51.9674 40.5848 51.0109 43.5763L50.8942 43.9736L50.4976 43.8801C47.9778 43.4127 45.4813 44.6981 44.3614 46.9651L44.2447 47.2221H28.9392ZM58.6169 21H22.4064C21.4731 21 20.6099 21.3973 20.0033 22.0049C19.3733 22.6126 19 23.4773 19 24.4122V45.4693C19 46.4042 19.3966 47.2689 20.0033 47.8765C20.0033 48.0635 21.2165 48.8815 22.4064 48.8815H43.8014C43.7781 50.7512 44.1514 52.2703 45.6913 53.6491C47.2545 55.028 48.771 55.1916 50.6375 54.9579C50.8009 56.6406 51.2208 57.9026 52.5041 59.0946C56.0971 62.3899 61.93 59.7957 61.93 54.9345C61.93 53.1817 61.1367 51.5691 59.7835 50.5174L59.3169 50.1435C60.9734 48.8581 61.51 48.1336 61.9533 46.0302L62 24.4122C62 23.4773 61.6267 22.6126 61.0201 22.0049C61.0201 21.818 59.8068 21 58.6169 21ZM45.4346 49.419C45.4346 45.7731 49.9609 44.0437 52.4107 46.7781C53.274 47.7597 53.5073 48.8347 53.3673 50.1201L51.8974 51.4055L50.9642 53.1116C49.611 53.6024 48.3511 53.5323 47.1378 52.6909C46.0879 51.9431 45.4346 50.7512 45.4346 49.419ZM55.0472 49.0684C54.8139 47.0585 54.0906 45.8433 52.4341 44.6513L52.5041 44.3475C52.994 42.3844 54.8606 41.099 56.8671 41.3327C58.8502 41.5898 60.3668 43.2958 60.3668 45.3057C60.3668 46.6379 59.6668 47.9233 58.5703 48.6478C57.3804 49.419 56.3071 49.3956 55.0472 49.0684ZM55.8871 27.1232C54.5339 25.7677 54.0439 24.4823 53.7173 22.6593H58.6169C59.5735 22.6593 60.3668 23.4306 60.3668 24.4122V29.2499C58.5469 28.9227 57.2404 28.4553 55.8871 27.1232ZM27.306 47.2221H22.4064C21.4265 47.2221 20.6565 46.4275 20.6565 45.4693V40.6316C22.4531 40.9587 23.7596 41.4262 25.1129 42.7583C26.4661 44.1138 26.956 45.3992 27.306 47.2221ZM25.1129 27.1232C23.7596 28.4553 22.4531 28.9227 20.6565 29.2499V24.4122C20.6565 23.4306 21.4265 22.6593 22.4064 22.6593H27.306C26.956 24.4823 26.4661 25.791 25.1129 27.1232ZM53.484 52.1067C56.0038 49.5826 60.2735 51.4055 60.2735 54.9345C60.2735 57.1314 58.5003 58.9076 56.2838 58.9076C52.784 58.9076 50.9642 54.6307 53.484 52.1067Z" fill="white"/>
<path fill-rule="evenodd" clip-rule="evenodd" d="M33.7701 58.3702C33.7701 55.2619 31.2503 52.7378 28.1472 52.7378C23.1776 52.7378 20.6344 58.7909 24.1808 62.3433C27.7272 65.8956 33.7701 63.3482 33.7701 58.3702ZM25.3241 55.5423C27.8439 53.0183 32.1368 54.8412 32.1368 58.3702C32.1368 59.4686 31.6936 60.4736 30.9703 61.1981C30.247 61.8992 29.2437 62.3666 28.1472 62.3666C27.0506 62.3666 26.0473 61.8992 25.3241 61.1981C24.6008 60.4736 24.1575 59.4686 24.1575 58.3702C24.1575 56.5706 25.3241 55.5657 25.3241 55.5423Z" fill="white"/>
<path fill-rule="evenodd" clip-rule="evenodd" d="M41.3297 40.7013C42.2163 40.3741 42.7996 40.0703 43.3129 39.2757C44.3628 37.6397 43.8962 35.3727 41.773 34.6248L39.4398 33.5264C39.3465 33.4563 39.2299 33.2693 39.2065 33.059C39.0199 31.5866 40.9797 31.2828 41.8197 32.0307C42.1463 32.3345 42.6596 32.3345 42.9862 31.9839C43.6629 31.2361 42.7529 30.4648 41.6563 30.1376L41.3297 30.0442C41.3297 29.6468 41.3764 29.2963 41.0964 29.0158C40.6997 28.6185 39.6965 28.6185 39.6965 29.7871V30.1143C38.5532 30.5116 37.8066 31.166 37.5966 32.428C37.2 34.7651 39.3698 35.5129 41.2364 36.1673C41.6797 36.3309 41.9363 36.588 42.0763 36.8685C42.4963 37.7332 41.8663 39.1354 40.5131 39.1354C38.4366 39.1588 38.7632 38.3408 37.9466 38.5044C37.2467 38.668 37.0367 39.6029 37.6666 40.0235C38.4599 40.5377 38.8332 40.6312 39.6965 40.7714C39.6965 41.2154 39.6265 42.1269 40.5131 42.1269C41.423 42.1269 41.3297 41.1687 41.3297 40.7013Z" fill="white"/>
<path fill-rule="evenodd" clip-rule="evenodd" d="M32.5091 35.7704C32.9058 35.6536 33.1624 35.2329 33.0691 34.8122C32.9758 34.3682 32.5325 34.0877 32.0892 34.1812C30.9926 34.4149 31.4125 36.0976 32.5091 35.7704Z" fill="white"/>
<path fill-rule="evenodd" clip-rule="evenodd" d="M49.192 34.2981C48.5854 33.9008 47.7922 34.4149 47.9322 35.1394C48.0955 35.8639 49.0054 36.0509 49.4253 35.4432C49.682 35.0693 49.5887 34.5551 49.192 34.2981Z" fill="white"/>
<defs>
<radialGradient id="paint0_radial" cx="0" cy="0" r="1" gradientUnits="userSpaceOnUse" gradientTransform="translate(4.41045e-06 13.0303) rotate(42.8068) scale(108.342)">
<stop offset="0.207492" stop-color="#70BD43"/>
<stop offset="1" stop-color="#4F9D3A"/>
</radialGradient>
</defs>
</svg>
