<svg width="80" height="80" viewBox="0 0 80 80" fill="none" xmlns="http://www.w3.org/2000/svg">
<rect width="79.4848" height="79.4848" rx="17" fill="url(#paint0_radial)"/>
<path fill-rule="evenodd" clip-rule="evenodd" d="M61.1534 23.5255H50.486L48.4541 17.3842C47.9703 15.9633 46.6399 15 45.1402 15H34.8598C33.3359 15 32.0055 15.9633 31.5459 17.3842L29.514 23.5255H18.8224L18.2419 23.7663C18.0968 23.9108 18 24.1275 18 24.3443V55.5079C18 56.4713 18.387 57.3383 19.0159 57.9644C19.0159 58.1571 20.2496 59 21.4832 59H58.5168C60.4277 59 62 57.4346 62 55.5079V24.3443C62 23.8867 61.613 23.5255 61.1534 23.5255ZM46.8576 17.9141L48.7202 23.5255H31.2798L33.1424 17.9141C33.3843 17.1675 34.0858 16.6617 34.8598 16.6617H45.1402C45.9142 16.6617 46.6157 17.1675 46.8576 17.9141ZM19.6932 25.1872H60.3068L60.2584 25.717C59.6053 34.2425 52.7598 41.0821 44.1726 41.7323L43.6646 41.7564C43.6646 40.5041 43.5195 39.5889 42.6003 38.6497C40.3266 36.3618 36.3353 37.9272 36.3353 41.2507V41.7564L35.8032 41.7323C27.2402 41.058 20.3947 34.2425 19.7174 25.717L19.6932 25.1872ZM41.3909 39.8057C41.7537 40.1669 41.9714 40.6727 41.9714 41.2025V44.0203C41.9714 45.7783 39.8428 46.6694 38.5849 45.4171C38.2221 45.0558 38.0044 44.5501 38.0044 44.0203V41.2025C38.0044 39.4685 40.133 38.5774 41.3909 39.8057ZM36.3353 43.8758C36.3353 47.416 40.3507 48.8128 42.5761 46.5972C43.5679 45.6097 43.6646 44.6705 43.6646 43.4423C47.1963 43.2014 50.0748 42.3585 52.9291 40.6004C55.6141 38.9146 57.8395 36.6267 59.4118 33.9294L60.3068 32.3881V51.6065H19.669V32.3881L20.564 33.9294C23.757 39.3722 29.4415 42.9847 35.8758 43.4182L36.3353 43.4423V43.8758ZM19.669 53.2923H60.3068V55.5079C60.3068 56.5194 59.5085 57.3142 58.5168 57.3142H21.4832C20.4915 57.3142 19.669 56.5194 19.669 55.5079V53.2923Z" fill="white"/>
<defs>
<radialGradient id="paint0_radial" cx="0" cy="0" r="1" gradientUnits="userSpaceOnUse" gradientTransform="translate(4.41045e-06 13.0303) rotate(42.8068) scale(108.342)">
<stop offset="0.207492" stop-color="#70BD43"/>
<stop offset="1" stop-color="#4F9D3A"/>
</radialGradient>
</defs>
</svg>
