<svg width="80" height="80" viewBox="0 0 80 80" fill="none" xmlns="http://www.w3.org/2000/svg">
<rect width="79.4848" height="79.4848" rx="17" fill="url(#paint0_radial)"/>
<path fill-rule="evenodd" clip-rule="evenodd" d="M43.9256 34.8258C44.8598 34.4789 45.4471 34.1586 46.0076 33.3314C47.102 31.6235 46.5949 29.3019 44.4327 28.528L41.9503 27.3539C41.8702 27.3005 41.7367 27.087 41.6833 26.8469C41.4965 25.2724 43.6052 24.9255 44.5128 25.7528C45.3136 26.4466 46.3813 25.2991 45.6339 24.5519L43.9256 23.7247C43.9256 23.2977 44.0056 22.3904 43.0981 22.3904C42.2172 22.3904 42.2973 23.3244 42.2973 23.7781L41.9503 23.9115C39.9216 24.6587 39.4144 27.4606 40.9359 28.6615C42.8578 30.1558 45.2335 29.7556 44.9132 31.7303C44.673 33.1446 43.2315 33.4915 42.0036 33.1713C41.3096 33.0112 40.4821 32.0772 39.8949 32.9578C39.2009 33.9985 41.1495 34.6923 41.8435 34.7991L42.2973 34.8791C42.2973 35.146 42.2439 35.9199 42.5375 36.0533C43.0447 36.5603 43.9256 36.1867 43.9256 35.4662V34.8258ZM43.0981 41.6572C49.9048 41.6572 55.4303 36.1334 55.4303 29.3286C55.4303 22.5505 49.9048 17 43.0981 17C36.318 17 30.7658 22.5505 30.7658 29.3286C30.7658 36.1334 36.318 41.6572 43.0981 41.6572ZM50.6789 36.9072C43.9256 43.6319 32.3941 38.8019 32.3941 29.3286C32.3941 23.4312 37.1989 18.6278 43.0981 18.6278C52.5742 18.6278 57.4056 30.1558 50.6789 36.9072ZM55.6439 43.2583L39.8949 46.8342L39.2009 46.2471C39.014 46.1403 38.8272 46.0336 38.6136 45.9535L30.6857 42.3777C29.5913 41.8974 28.4168 41.6572 27.269 41.6572C26.3614 41.6572 24.573 41.9774 23.879 42.4311L17.4726 45.3398C16.4582 45.7667 17.259 47.3145 18.1666 46.8075L24.5463 43.8988C26.2813 43.0982 28.2833 43.0982 30.0184 43.8721L37.9463 47.4479C38.4001 47.6347 38.7738 47.9549 39.014 48.3552C40.3487 50.41 38.1598 52.9451 35.9443 51.931L29.0574 48.8355C28.0698 48.4086 27.4025 49.903 28.3901 50.3299L35.2503 53.4254C36.7184 54.0925 38.3467 53.8257 39.5212 52.865C40.7224 51.9044 41.2829 50.3833 40.9626 48.8089L40.8291 48.3018L56.0977 44.8328C59.0072 43.9788 61.4096 47.0743 59.9415 49.6628L58.7403 50.8903L44.1925 59.4563C42.5375 60.4436 40.5355 60.6304 38.6937 59.99L27.269 56.0406C27.1622 56.0406 27.0821 56.0673 26.9754 56.0939L17.526 59.6965C17.0989 59.8566 16.912 60.3369 17.0455 60.7639C17.3391 61.4844 18.0331 61.2175 18.1933 61.1908L27.269 57.7217L38.1598 61.5377C39.2809 61.938 40.4821 62.0714 41.6833 61.9647C43.712 61.7512 44.8064 60.924 45.0467 60.8439L59.5678 52.3046C63.8921 49.7428 62.0769 43.0448 57.0586 43.0448L55.6439 43.2583Z" fill="white"/>
<defs>
<radialGradient id="paint0_radial" cx="0" cy="0" r="1" gradientUnits="userSpaceOnUse" gradientTransform="translate(4.41045e-06 13.0303) rotate(42.8068) scale(108.342)">
<stop offset="0.207492" stop-color="#70BD43"/>
<stop offset="1" stop-color="#4F9D3A"/>
</radialGradient>
</defs>
</svg>
