<svg width="56" height="52" viewBox="0 0 56 52" fill="none" xmlns="http://www.w3.org/2000/svg">
    <path d="M3 0C1.34766 0 0 1.34766 0 3V49C0 50.6523 1.34766 52 3 52H53C54.6523 52 56 50.6523 56 49V3C56 1.34766 54.6523 0 53 0H3ZM3 2H53C53.5508 2 54 2.44922 54 3V49C54 49.5508 53.5508 50 53 50H3C2.44922 50 2 49.5508 2 49V3C2 2.44922 2.44922 2 3 2ZM41 6C38.2422 6 36 8.24219 36 11C36 11.9609 36.2852 12.8516 36.7578 13.6133L32.4258 17.582C31.2227 16.5938 29.6797 16 28 16C26.4297 16 24.9844 16.5273 23.8164 17.4023L20.8711 14.4531C20.4766 14.0625 19.8477 14.0625 19.4531 14.4531C19.0625 14.8477 19.0625 15.4766 19.4531 15.8711L22.4023 18.8164C21.5273 19.9844 21 21.4297 21 23C21 23.1289 21.0117 23.25 21.0195 23.375L15.5625 24.4688C15.0391 23.5938 14.0938 23 13 23C11.3477 23 10 24.3477 10 26C10 27.6523 11.3477 29 13 29C14.5078 29 15.7461 27.8789 15.957 26.4258L21.4102 25.3398C22.2656 27.7461 24.4023 29.5469 27 29.9219V33C27 33.5547 27.4453 34 28 34C28.5547 34 29 33.5547 29 33V29.9219C30.5273 29.6992 31.8945 28.9922 32.9375 27.9531L36.3047 30.4805C36.1094 30.9492 36 31.4609 36 32C36 34.207 37.793 36 40 36C42.207 36 44 34.207 44 32C44 29.793 42.207 28 40 28C39.0586 28 38.2031 28.3398 37.5156 28.8906L34.1406 26.3555C34.6875 25.3594 35 24.2148 35 23C35 21.5391 34.5469 20.1797 33.7812 19.0586L38.125 15.0781C38.9375 15.6523 39.9297 16 41 16C43.7578 16 46 13.7578 46 11C46 8.24219 43.7578 6 41 6ZM16 7C13.793 7 12 8.79297 12 11C12 13.207 13.793 15 16 15C18.207 15 20 13.207 20 11C20 8.79297 18.207 7 16 7ZM41 8C42.6523 8 44 9.34766 44 11C44 12.6523 42.6523 14 41 14C39.3477 14 38 12.6523 38 11C38 9.34766 39.3477 8 41 8ZM16 9C17.1016 9 18 9.89844 18 11C18 12.1016 17.1016 13 16 13C14.8984 13 14 12.1016 14 11C14 9.89844 14.8984 9 16 9ZM28 18C30.7578 18 33 20.2422 33 23C33 25.7578 30.7578 28 28 28C25.2422 28 23 25.7578 23 23C23 20.2422 25.2422 18 28 18ZM13 25C13.5508 25 14 25.4492 14 26C14 26.5508 13.5508 27 13 27C12.4492 27 12 26.5508 12 26C12 25.4492 12.4492 25 13 25ZM40 30C41.1016 30 42 30.8984 42 32C42 33.1016 41.1016 34 40 34C38.8984 34 38 33.1016 38 32C38 30.8984 38.8984 30 40 30ZM28 35C26.3477 35 25 36.3477 25 38C25 39.6523 26.3477 41 28 41C29.6523 41 31 39.6523 31 38C31 36.3477 29.6523 35 28 35ZM28 37C28.5508 37 29 37.4492 29 38C29 38.5508 28.5508 39 28 39C27.4492 39 27 38.5508 27 38C27 37.4492 27.4492 37 28 37ZM5 44C4.44531 44 4 44.4453 4 45V47C4 47.5547 4.44531 48 5 48C5.55469 48 6 47.5547 6 47V45C6 44.4453 5.55469 44 5 44ZM10 44C9.44531 44 9 44.4453 9 45V47C9 47.5547 9.44531 48 10 48C10.5547 48 11 47.5547 11 47V45C11 44.4453 10.5547 44 10 44ZM15 44C14.4453 44 14 44.4453 14 45V47C14 47.5547 14.4453 48 15 48C15.5547 48 16 47.5547 16 47V45C16 44.4453 15.5547 44 15 44ZM20 44C19.4453 44 19 44.4453 19 45V47C19 47.5547 19.4453 48 20 48C20.5547 48 21 47.5547 21 47V45C21 44.4453 20.5547 44 20 44ZM25 44C24.4453 44 24 44.4453 24 45V47C24 47.5547 24.4453 48 25 48C25.5547 48 26 47.5547 26 47V45C26 44.4453 25.5547 44 25 44ZM30 44C29.4453 44 29 44.4453 29 45V47C29 47.5547 29.4453 48 30 48C30.5547 48 31 47.5547 31 47V45C31 44.4453 30.5547 44 30 44ZM35 44C34.4453 44 34 44.4453 34 45V47C34 47.5547 34.4453 48 35 48C35.5547 48 36 47.5547 36 47V45C36 44.4453 35.5547 44 35 44ZM40 44C39.4453 44 39 44.4453 39 45V47C39 47.5547 39.4453 48 40 48C40.5547 48 41 47.5547 41 47V45C41 44.4453 40.5547 44 40 44ZM45 44C44.4453 44 44 44.4453 44 45V47C44 47.5547 44.4453 48 45 48C45.5547 48 46 47.5547 46 47V45C46 44.4453 45.5547 44 45 44ZM50 44C49.4453 44 49 44.4453 49 45V47C49 47.5547 49.4453 48 50 48C50.5547 48 51 47.5547 51 47V45C51 44.4453 50.5547 44 50 44Z" fill="#72BF44"/>
</svg>
