<svg width="57" height="58" viewBox="0 0 57 58" fill="none" xmlns="http://www.w3.org/2000/svg">
    <path d="M40 0C38.346 0 37 1.346 37 3V4C32.037 4 28 8.037 28 13V15C28 19.963 32.037 24 37 24H37.1719C37.0609 24.313 37 24.65 37 25V28V33C35.346 33 34 31.654 34 30C34 28.346 32.654 27 31 27C29.346 27 28 28.346 28 30C28 34.963 32.037 39 37 39V40C37 41.654 38.346 43 40 43C41.654 43 43 41.654 43 40V39C47.963 39 52 34.963 52 30V27C52 22.037 47.963 18 43 18V14V11C43 10.65 42.9391 10.313 42.8281 10H43C44.654 10 46 11.346 46 13C46 14.654 47.346 16 49 16C50.654 16 52 14.654 52 13C52 8.037 47.963 4 43 4V3C43 1.346 41.654 0 40 0ZM40 2C40.552 2 41 2.448 41 3V6H43C46.859 6 50 9.141 50 13C50 13.553 49.553 14 49 14C48.447 14 48 13.553 48 13C48 10.243 45.757 8 43 8H41H40H37C34.239 8 32 10.239 32 13V15C32 17.761 34.239 20 37 20H39V11C39 10.448 39.448 10 40 10C40.552 10 41 10.448 41 11V14V20H43C46.866 20 50 23.134 50 27V30C50 33.866 46.866 37 43 37H41V40C41 40.552 40.552 41 40 41C39.448 41 39 40.552 39 40V37H37C33.141 37 30 33.859 30 30C30 29.447 30.447 29 31 29C31.553 29 32 29.447 32 30C32 32.757 34.243 35 37 35H39V28V25C39 24.448 39.448 24 40 24C40.552 24 41 24.448 41 25V35H43C45.761 35 48 32.761 48 30V27C48 24.239 45.761 22 43 22H37C33.134 22 30 18.866 30 15V13C30 9.134 33.134 6 37 6H39V3C39 2.448 39.448 2 40 2ZM12 5C10.346 5 9 6.346 9 8V9C4.589 9 1 12.589 1 17V19C1 23.411 4.589 27 9 27H9.17188C9.06087 27.313 9 27.65 9 28V29V33C7.897 33 7 32.103 7 31C7 29.346 5.654 28 4 28C2.346 28 1 29.346 1 31C1 35.411 4.589 39 9 39V40C9 41.654 10.346 43 12 43C13.654 43 15 41.654 15 40V39C19.411 39 23 35.411 23 31V29C23 24.589 19.411 21 15 21V16C15 15.65 14.9391 15.313 14.8281 15H15C16.103 15 17 15.897 17 17C17 18.654 18.346 20 20 20C21.654 20 23 18.654 23 17C23 12.589 19.411 9 15 9V8C15 6.346 13.654 5 12 5ZM12 7C12.552 7 13 7.448 13 8V11H15C18.309 11 21 13.691 21 17C21 17.553 20.553 18 20 18C19.447 18 19 17.553 19 17C19 14.794 17.206 13 15 13H13H12H9C6.791 13 5 14.791 5 17V19C5 21.209 6.791 23 9 23H11V16C11 15.448 11.448 15 12 15C12.552 15 13 15.448 13 16V21V23H15C18.314 23 21 25.686 21 29V31C21 34.314 18.314 37 15 37H13V40C13 40.552 12.552 41 12 41C11.448 41 11 40.552 11 40V37H9C5.691 37 3 34.309 3 31C3 30.447 3.447 30 4 30C4.553 30 5 30.447 5 31C5 33.206 6.794 35 9 35H11V29V28C11 27.448 11.448 27 12 27C12.552 27 13 27.448 13 28V35H15C17.209 35 19 33.209 19 31V29C19 26.791 17.209 25 15 25H9C5.686 25 3 22.314 3 19V17C3 13.686 5.686 11 9 11H11V8C11 7.448 11.448 7 12 7ZM37 10H37.1719C37.0609 10.313 37 10.65 37 11V18C35.346 18 34 16.654 34 15V13C34 11.346 35.346 10 37 10ZM9 15H9.17188C9.06087 15.313 9 15.65 9 16V21C7.897 21 7 20.103 7 19V17C7 15.897 7.897 15 9 15ZM42.8281 24H43C44.654 24 46 25.346 46 27V30C46 31.654 44.654 33 43 33V25C43 24.65 42.9391 24.313 42.8281 24ZM14.8281 27H15C16.103 27 17 27.897 17 29V31C17 32.103 16.103 33 15 33V28C15 27.65 14.9391 27.313 14.8281 27ZM48.9062 41.0039C48.8088 41.0132 48.7109 41.0372 48.6172 41.0762C48.2432 41.2302 48 41.596 48 42V46H1C0.447 46 0 46.447 0 47V51C0 51.553 0.447 52 1 52H48V56C48 56.404 48.2432 56.7698 48.6172 56.9238C48.7412 56.9758 48.871 57 49 57C49.26 57 49.516 56.898 49.707 56.707L56.707 49.707C57.098 49.316 57.098 48.684 56.707 48.293L49.707 41.293C49.4925 41.0785 49.1985 40.976 48.9062 41.0039ZM50 44.4141L54.5859 49L50 53.5859V51C50 50.447 49.553 50 49 50H2V48H49C49.553 48 50 47.553 50 47V44.4141ZM4 54C3.448 54 3 54.448 3 55V57C3 57.552 3.448 58 4 58C4.552 58 5 57.552 5 57V55C5 54.448 4.552 54 4 54ZM9 54C8.448 54 8 54.448 8 55V57C8 57.552 8.448 58 9 58C9.552 58 10 57.552 10 57V55C10 54.448 9.552 54 9 54ZM14 54C13.448 54 13 54.448 13 55V57C13 57.552 13.448 58 14 58C14.552 58 15 57.552 15 57V55C15 54.448 14.552 54 14 54ZM19 54C18.448 54 18 54.448 18 55V57C18 57.552 18.448 58 19 58C19.552 58 20 57.552 20 57V55C20 54.448 19.552 54 19 54ZM24 54C23.448 54 23 54.448 23 55V57C23 57.552 23.448 58 24 58C24.552 58 25 57.552 25 57V55C25 54.448 24.552 54 24 54ZM29 54C28.448 54 28 54.448 28 55V57C28 57.552 28.448 58 29 58C29.552 58 30 57.552 30 57V55C30 54.448 29.552 54 29 54ZM34 54C33.448 54 33 54.448 33 55V57C33 57.552 33.448 58 34 58C34.552 58 35 57.552 35 57V55C35 54.448 34.552 54 34 54ZM39 54C38.448 54 38 54.448 38 55V57C38 57.552 38.448 58 39 58C39.552 58 40 57.552 40 57V55C40 54.448 39.552 54 39 54ZM44 54C43.448 54 43 54.448 43 55V57C43 57.552 43.448 58 44 58C44.552 58 45 57.552 45 57V55C45 54.448 44.552 54 44 54Z" fill="#72BF44"/>
</svg>
