<svg width="64" height="52" viewBox="0 0 64 52" fill="none" xmlns="http://www.w3.org/2000/svg">
    <path d="M32 0C30.1055 0 27.4023 0.589844 25.6992 1.71875C23.8594 1.80078 22.3438 2.625 21.3086 3.97656C21.2578 3.97266 21.2109 3.96875 21.1562 3.96875H20.4883C19.0391 3.96875 16.9219 4.38672 15.5 5.3125C12.9219 5.45312 11.0938 7.34766 10.8086 10.2148C10.6328 11.9609 10.8008 13.2578 10.8984 14.0312C10.9297 14.2656 10.9648 14.5586 10.9648 14.625C10.9531 14.6719 10.9453 14.7148 10.9375 14.7617C10.9102 14.7695 10.8828 14.7773 10.8555 14.7812C9.54688 15.1328 8.99609 16.8789 9.54688 18.9375C9.91797 20.3164 10.6641 21.3438 11.5273 21.7422C12.0117 23.1797 12.7148 24.5547 13.5625 25.75L4.57812 31.5625C1.71094 33.418 0 36.5664 0 39.9805V43.1914C0 44.7422 1.25781 46 2.80469 46H8V49C8 50.6523 9.34766 52 11 52H53C54.6523 52 56 50.6523 56 49V46H61.1094C62.6602 46 63.918 44.7422 63.918 43.1914V39.9805C63.918 36.5664 62.2031 33.418 59.3359 31.5625L51.0742 26.2188C52.0703 24.9219 52.9023 23.375 53.4531 21.7422C54.3164 21.3438 55.0625 20.3164 55.4336 18.9375C55.9844 16.8789 55.4336 15.1328 54.125 14.7812C54.1016 14.7773 54.0703 14.7695 54.043 14.7656C53.957 14.2461 53.8242 13.7383 53.625 13.1406C53.7227 13.168 53.8203 13.2031 53.9062 13.2383C54.25 13.3828 54.6484 13.3242 54.9336 13.0859C55.2188 12.8477 55.3477 12.4688 55.2695 12.1055C54.1562 7.00781 50.375 3.96875 45.1562 3.96875H44.4883C43.9414 3.96875 43.293 4.03516 42.6289 4.16406C40.3242 1.48828 36.9414 0 32.8555 0H32ZM32 2H32.8555C37.9062 2 41.5703 4.54297 43.1289 9.03906C42.5742 9.01172 42.0195 9.11719 41.6133 9.50391C41.2578 9.84766 40.918 10.4922 41.332 11.625C41.8555 13.043 42.043 13.8789 42.0977 15.0664C42.1133 15.4258 42.3203 15.7461 42.6406 15.9102C42.957 16.0742 43.3398 16.0547 43.6406 15.8594C43.6914 15.8281 43.7305 15.8086 43.7539 15.7969C43.9375 16.0234 44.1719 16.9453 43.8125 18.2969C43.4219 19.7422 42.6914 20.4102 42.4688 20.4336C42.0234 20.4336 41.6367 20.7227 41.5117 21.1484C40.1172 25.8281 36.3125 30.8047 32 30.8047C27.6836 30.8047 23.8789 25.8281 22.4883 21.1484C22.3633 20.7227 21.9766 20.4336 21.5312 20.4336C21.3086 20.4102 20.5742 19.7422 20.1875 18.2969C19.8008 16.8516 20.0977 15.8945 20.1914 15.7812C20.1914 15.7812 20.2461 15.7891 20.3555 15.8594C20.6562 16.0547 21.0391 16.0742 21.3594 15.9102C21.6758 15.75 21.8828 15.4258 21.9023 15.0664C21.9219 14.6289 21.9688 14.1875 22.0469 13.7656C22.1133 13.3789 22.0586 12.9336 21.9805 12.3164C21.8594 11.3633 21.6719 9.92578 21.8711 7.94531C22.1367 5.29297 23.6836 3.71094 26.0273 3.71094C26.2422 3.71094 26.4531 3.64062 26.625 3.51172C27.7578 2.66406 30.1172 2 32 2ZM44.4883 5.96875H45.1562C48.8828 5.96875 51.625 7.78906 52.8633 11.0234C52.4883 11.0508 52.1328 11.1719 51.8438 11.4492C51.5781 11.7031 51.1836 12.2891 51.5703 13.3398C51.9688 14.4219 52.1133 15.0586 52.1562 15.9609C52.1719 16.3203 52.4102 16.625 52.7305 16.7852C52.9844 16.918 53.293 16.9219 53.5625 16.8164C53.6445 17.0898 53.7031 17.6484 53.5 18.418C53.2305 19.418 52.7461 19.8828 52.6602 19.9219C52.2188 19.9219 51.8281 20.2109 51.7031 20.6367C50.9688 23.1055 49.5156 25.3789 47.8125 26.7227C47.3789 27.0664 47.3047 27.6953 47.6445 28.1289C47.8438 28.3789 48.1367 28.5117 48.4336 28.5117C48.6523 28.5117 48.8711 28.4414 49.0508 28.2969C49.2773 28.1172 49.5 27.9219 49.7188 27.7188L58.25 33.2383C60.543 34.7266 61.9141 37.2461 61.9141 39.9805V43.1914H61.918C61.918 43.6367 61.5547 44 61.1094 44H56V43.918C56 39.2969 53.5156 34.9844 49.5156 32.668L40.5938 27.5039C41.7344 25.9102 42.6484 24.1055 43.25 22.2812C44.3242 21.8516 45.2734 20.5664 45.7422 18.8164C46.4062 16.3398 45.7852 14.25 44.2695 13.8438C44.1875 13.8203 44.0898 13.8008 43.9844 13.7891C43.8633 12.9375 43.6406 12.1211 43.2617 11.0664C43.5312 11.1172 43.8789 11.2148 44.1719 11.3359C44.5156 11.4805 44.9102 11.418 45.1914 11.1758C45.4805 10.9375 45.6094 10.5625 45.5312 10.1992C45.1875 8.64062 44.6445 7.23438 43.9258 6C44.1172 5.98438 44.3086 5.96875 44.4883 5.96875ZM20.2695 5.97656C20.0898 6.53125 19.9453 7.10938 19.8828 7.74609C19.6641 9.95312 19.8594 11.5273 19.9961 12.5742C20.0352 12.8984 20.0898 13.3086 20.0781 13.4219C20.0547 13.543 20.0352 13.6641 20.0156 13.7891C19.9141 13.8008 19.8164 13.8203 19.7344 13.8438C18.2148 14.25 17.5938 16.3398 18.2578 18.8164C18.7266 20.5664 19.6758 21.8516 20.75 22.2812C21.3555 24.1055 22.2656 25.9102 23.4062 27.5039L14.4883 32.668C10.4844 34.9844 8 39.2969 8 43.918V44H2.80469C2.36328 44 2 43.6367 2 43.1914V39.9805C2 37.2461 3.37109 34.7266 5.66797 33.2383L14.8438 27.3008C14.9375 27.3984 15.0273 27.5 15.1211 27.5898C15.3164 27.7773 15.5664 27.8711 15.8164 27.8711C16.0781 27.8711 16.3398 27.7695 16.5352 27.5664C16.918 27.168 16.9102 26.5352 16.5117 26.1523C15.0859 24.7734 13.9062 22.7656 13.2773 20.6367C13.1484 20.2109 12.8125 19.9297 12.3711 19.9297C12.2344 19.8828 11.75 19.418 11.4805 18.418C11.2773 17.6562 11.3359 17.1016 11.4141 16.8281C11.6875 16.9492 12.0078 16.9453 12.2812 16.8047C12.6016 16.6406 12.8086 16.3203 12.8242 15.9648C12.8398 15.6289 12.875 15.2969 12.9336 14.9727C12.9922 14.6367 12.9453 14.2773 12.8828 13.7812C12.7891 13.043 12.6484 11.9336 12.8008 10.4102C12.9961 8.4375 14.0977 7.30469 15.8281 7.30469C16.043 7.30469 16.2539 7.23437 16.4258 7.10547C17.2344 6.5 18.8828 6.02344 20.2695 5.97656ZM27 6.95312C26.4531 7.00391 25.9375 7.29688 25.6172 7.78125L24.2461 9.86328C23.9414 10.3242 24.0703 10.9453 24.5312 11.25C24.6992 11.3594 24.8906 11.4102 25.0781 11.4102C25.4062 11.4102 25.7227 11.2539 25.918 10.9648L27.2188 8.98438L28.4414 9.58203C30.8984 10.7773 33.6406 11.4102 36.375 11.4102H38.5625C39.1133 11.4102 39.5625 10.9648 39.5625 10.4102C39.5625 9.85938 39.1133 9.41016 38.5625 9.41016H36.375C33.9414 9.41016 31.5 8.84766 29.3164 7.78516L27.9805 7.13672C27.668 6.98047 27.3281 6.92578 27 6.95312ZM24.6758 29.0781C26.6992 31.293 29.2266 32.8047 32 32.8047C34.7734 32.8047 37.2969 31.293 39.3242 29.0781L48.5117 34.3984C51.8984 36.3594 54 40.0078 54 43.918V49C54 49.5508 53.5508 50 53 50H11C10.4492 50 10 49.5508 10 49V43.918C10 40.0078 12.1016 36.3594 15.4883 34.3984L24.6758 29.0781ZM39.9375 33C39.8086 33.0078 39.6758 33.043 39.5508 33.1055L32 36.8828L24.4492 33.1055C23.9531 32.8555 23.3516 33.0586 23.1055 33.5508C22.8594 34.0469 23.0586 34.6484 23.5508 34.8945L31.5508 38.8945C31.6953 38.9648 31.8477 39 32 39C32.1523 39 32.3086 38.9648 32.4492 38.8945L40.4492 34.8945C40.9414 34.6484 41.1406 34.0469 40.8945 33.5508C40.7109 33.1836 40.3281 32.9766 39.9375 33ZM12 44C11.4492 44 11 44.4492 11 45V47C11 47.5508 11.4492 48 12 48C12.5508 48 13 47.5508 13 47V45C13 44.4492 12.5508 44 12 44ZM17 44C16.4492 44 16 44.4492 16 45V47C16 47.5508 16.4492 48 17 48C17.5508 48 18 47.5508 18 47V45C18 44.4492 17.5508 44 17 44ZM22 44C21.4492 44 21 44.4492 21 45V47C21 47.5508 21.4492 48 22 48C22.5508 48 23 47.5508 23 47V45C23 44.4492 22.5508 44 22 44ZM27 44C26.4492 44 26 44.4492 26 45V47C26 47.5508 26.4492 48 27 48C27.5508 48 28 47.5508 28 47V45C28 44.4492 27.5508 44 27 44ZM32 44C31.4492 44 31 44.4492 31 45V47C31 47.5508 31.4492 48 32 48C32.5508 48 33 47.5508 33 47V45C33 44.4492 32.5508 44 32 44ZM37 44C36.4492 44 36 44.4492 36 45V47C36 47.5508 36.4492 48 37 48C37.5508 48 38 47.5508 38 47V45C38 44.4492 37.5508 44 37 44ZM42 44C41.4492 44 41 44.4492 41 45V47C41 47.5508 41.4492 48 42 48C42.5508 48 43 47.5508 43 47V45C43 44.4492 42.5508 44 42 44ZM47 44C46.4492 44 46 44.4492 46 45V47C46 47.5508 46.4492 48 47 48C47.5508 48 48 47.5508 48 47V45C48 44.4492 47.5508 44 47 44ZM52 44C51.4492 44 51 44.4492 51 45V47C51 47.5508 51.4492 48 52 48C52.5508 48 53 47.5508 53 47V45C53 44.4492 52.5508 44 52 44Z" fill="#72BF44"/>
</svg>
