<svg width="48" height="62" viewBox="0 0 48 62" fill="none" xmlns="http://www.w3.org/2000/svg">
    <path d="M21 0.0585938C20.4453 0.0585938 20 0.503906 20 1.05469V8H5C3.34766 8 2 9.34766 2 11C2 12.3008 2.83984 13.4023 4 13.8164V60H1C0.445313 60 0 60.4492 0 61C0 61.5508 0.445313 62 1 62H47C47.5547 62 48 61.5508 48 61C48 60.4492 47.5547 60 47 60H44V13.8164C45.1602 13.4023 46 12.3008 46 11C46 9.34766 44.6523 8 43 8H26V4.05469C26 3.50391 25.5547 3.05469 25 3.05469C24.4453 3.05469 24 3.50391 24 4.05469V8H22V1.05469C22 0.503906 21.5547 0.0585938 21 0.0585938ZM5 10H43C43.5508 10 44 10.4492 44 11C44 11.5508 43.5508 12 43 12H5C4.44922 12 4 11.5508 4 11C4 10.4492 4.44922 10 5 10ZM6 14H42V54H28V53.9492C28 52.8477 27.1016 51.9492 26 51.9492H22C20.8984 51.9492 20 52.8477 20 53.9492V54H6V18H32C32.5547 18 33 17.5508 33 17C33 16.4492 32.5547 16 32 16H6V14ZM35 16C34.4453 16 34 16.4492 34 17C34 17.5508 34.4453 18 35 18H39C39.5547 18 40 17.5508 40 17C40 16.4492 39.5547 16 39 16H35ZM11 20C10.4453 20 10 20.4492 10 21C10 21.5508 10.4453 22 11 22H13C13.5547 22 14 21.5508 14 21C14 20.4492 13.5547 20 13 20H11ZM19 20C18.4453 20 18 20.4492 18 21C18 21.5508 18.4453 22 19 22H21C21.5547 22 22 21.5508 22 21C22 20.4492 21.5547 20 21 20H19ZM27 20C26.4453 20 26 20.4492 26 21C26 21.5508 26.4453 22 27 22H29C29.5547 22 30 21.5508 30 21C30 20.4492 29.5547 20 29 20H27ZM35 20C34.4453 20 34 20.4492 34 21C34 21.5508 34.4453 22 35 22H37C37.5547 22 38 21.5508 38 21C38 20.4492 37.5547 20 37 20H35ZM11 24C10.4453 24 10 24.4492 10 25C10 25.5508 10.4453 26 11 26H13C13.5547 26 14 25.5508 14 25C14 24.4492 13.5547 24 13 24H11ZM19 24C18.4453 24 18 24.4492 18 25C18 25.5508 18.4453 26 19 26H21C21.5547 26 22 25.5508 22 25C22 24.4492 21.5547 24 21 24H19ZM27 24C26.4453 24 26 24.4492 26 25C26 25.5508 26.4453 26 27 26H29C29.5547 26 30 25.5508 30 25C30 24.4492 29.5547 24 29 24H27ZM35 24C34.4453 24 34 24.4492 34 25C34 25.5508 34.4453 26 35 26H37C37.5547 26 38 25.5508 38 25C38 24.4492 37.5547 24 37 24H35ZM11 28C10.4453 28 10 28.4492 10 29C10 29.5508 10.4453 30 11 30H13C13.5547 30 14 29.5508 14 29C14 28.4492 13.5547 28 13 28H11ZM19 28C18.4453 28 18 28.4492 18 29C18 29.5508 18.4453 30 19 30H21C21.5547 30 22 29.5508 22 29C22 28.4492 21.5547 28 21 28H19ZM27 28C26.4453 28 26 28.4492 26 29C26 29.5508 26.4453 30 27 30H29C29.5547 30 30 29.5508 30 29C30 28.4492 29.5547 28 29 28H27ZM35 28C34.4453 28 34 28.4492 34 29C34 29.5508 34.4453 30 35 30H37C37.5547 30 38 29.5508 38 29C38 28.4492 37.5547 28 37 28H35ZM11 32C10.4453 32 10 32.4492 10 33C10 33.5508 10.4453 34 11 34H13C13.5547 34 14 33.5508 14 33C14 32.4492 13.5547 32 13 32H11ZM19 32C18.4453 32 18 32.4492 18 33C18 33.5508 18.4453 34 19 34H21C21.5547 34 22 33.5508 22 33C22 32.4492 21.5547 32 21 32H19ZM27 32C26.4453 32 26 32.4492 26 33C26 33.5508 26.4453 34 27 34H29C29.5547 34 30 33.5508 30 33C30 32.4492 29.5547 32 29 32H27ZM35 32C34.4453 32 34 32.4492 34 33C34 33.5508 34.4453 34 35 34H37C37.5547 34 38 33.5508 38 33C38 32.4492 37.5547 32 37 32H35ZM11 36C10.4453 36 10 36.4492 10 37C10 37.5508 10.4453 38 11 38H13C13.5547 38 14 37.5508 14 37C14 36.4492 13.5547 36 13 36H11ZM19 36C18.4453 36 18 36.4492 18 37C18 37.5508 18.4453 38 19 38H21C21.5547 38 22 37.5508 22 37C22 36.4492 21.5547 36 21 36H19ZM27 36C26.4453 36 26 36.4492 26 37C26 37.5508 26.4453 38 27 38H29C29.5547 38 30 37.5508 30 37C30 36.4492 29.5547 36 29 36H27ZM35 36C34.4453 36 34 36.4492 34 37C34 37.5508 34.4453 38 35 38H37C37.5547 38 38 37.5508 38 37C38 36.4492 37.5547 36 37 36H35ZM11 40C10.4453 40 10 40.4492 10 41C10 41.5508 10.4453 42 11 42H13C13.5547 42 14 41.5508 14 41C14 40.4492 13.5547 40 13 40H11ZM19 40C18.4453 40 18 40.4492 18 41C18 41.5508 18.4453 42 19 42H21C21.5547 42 22 41.5508 22 41C22 40.4492 21.5547 40 21 40H19ZM27 40C26.4453 40 26 40.4492 26 41C26 41.5508 26.4453 42 27 42H29C29.5547 42 30 41.5508 30 41C30 40.4492 29.5547 40 29 40H27ZM35 40C34.4453 40 34 40.4492 34 41C34 41.5508 34.4453 42 35 42H37C37.5547 42 38 41.5508 38 41C38 40.4492 37.5547 40 37 40H35ZM11 44C10.4453 44 10 44.4492 10 45C10 45.5508 10.4453 46 11 46H13C13.5547 46 14 45.5508 14 45C14 44.4492 13.5547 44 13 44H11ZM19 44C18.4453 44 18 44.4492 18 45C18 45.5508 18.4453 46 19 46H21C21.5547 46 22 45.5508 22 45C22 44.4492 21.5547 44 21 44H19ZM27 44C26.4453 44 26 44.4492 26 45C26 45.5508 26.4453 46 27 46H29C29.5547 46 30 45.5508 30 45C30 44.4492 29.5547 44 29 44H27ZM35 44C34.4453 44 34 44.4492 34 45C34 45.5508 34.4453 46 35 46H37C37.5547 46 38 45.5508 38 45C38 44.4492 37.5547 44 37 44H35ZM11 48C10.4453 48 10 48.4492 10 49C10 49.5508 10.4453 50 11 50H13C13.5547 50 14 49.5508 14 49C14 48.4492 13.5547 48 13 48H11ZM19 48C18.4453 48 18 48.4492 18 49C18 49.5508 18.4453 50 19 50H21C21.5547 50 22 49.5508 22 49C22 48.4492 21.5547 48 21 48H19ZM27 48C26.4453 48 26 48.4492 26 49C26 49.5508 26.4453 50 27 50H29C29.5547 50 30 49.5508 30 49C30 48.4492 29.5547 48 29 48H27ZM35 48C34.4453 48 34 48.4492 34 49C34 49.5508 34.4453 50 35 50H37C37.5547 50 38 49.5508 38 49C38 48.4492 37.5547 48 37 48H35ZM22 53.9492H26V59.9492H22V53.9492ZM6 56H20V60H6V56ZM28 56H42V60H28V56Z" fill="#72BF44"/>
</svg>
