<svg xmlns="http://www.w3.org/2000/svg" width="54" height="34" viewBox="0 0 54 34" fill="none"><style>.a{fill:#CCC;}</style><path d="M52 33.5H1.8C1.1 33.5 0.5 32.9 0.5 32.2V1.8C0.5 1.1 1.1 0.5 1.8 0.5H52C52.7 0.5 53.3 1.1 53.3 1.8V32.2C53.3 32.9 52.7 33.5 52 33.5Z" stroke="#E5E5E5"/><path d="M41.7 28H41.1 12.7 12C11.4 28 11 28.4 11 29 11 29.6 11.4 30 12 30H13.7 40.1 41.7C42.3 30 42.7 29.6 42.7 29 42.7 28.4 42.3 28 41.7 28Z" class="a"/><path d="M14.5 14.8V24.7H13.9C13.3 24.7 12.9 25.2 12.9 25.7V26.3H40.8V25.7C40.8 25.2 40.4 24.7 39.9 24.7H39.2V14.8H34V24.7H29.5V14.8H24.3V24.7H19.7V14.8H14.5Z" class="a"/><path d="M13 13.1H40.7C40.7 13.1 40.7 13.1 40.7 13.1 41.3 13.1 41.7 12.7 41.7 12.2 41.7 11.8 41.5 11.4 41.1 11.3L27.3 4.1C27 4 26.7 4 26.4 4.1L12.5 11.3C12.1 11.5 11.9 11.9 12 12.4 12.1 12.8 12.5 13.1 13 13.1Z" class="a"/></svg>
