<svg xmlns="http://www.w3.org/2000/svg" width="55" height="34" viewBox="0 0 55 34" fill="none"><style>.a{fill:white;}.b{fill:#004A97;}.c{fill:#231F20;}</style><g clip-path="url(#clip0)"><path d="M2.6 33.6C1.9 33.6 1.2 32.9 1.2 32.2V1.8C1.2 1.1 1.9 0.4 2.6 0.4H52.8C53.6 0.4 54.2 1.1 54.2 1.8V32.2C54.2 32.9 53.6 33.6 52.8 33.6H2.6Z" class="a"/><path d="M52.8 0.9C53.3 0.9 53.8 1.3 53.8 1.8V32.2C53.8 32.7 53.3 33.1 52.8 33.1H2.6C2.1 33.1 1.7 32.7 1.7 32.2V1.8C1.7 1.3 2.1 0.9 2.6 0.9H52.8ZM52.8 0H2.6C1.6 0 0.8 0.8 0.8 1.8V32.2C0.8 33.2 1.6 34 2.6 34H52.8C53.8 34 54.6 33.2 54.6 32.2V1.8C54.6 0.8 53.8 0 52.8 0Z" class="b"/><path d="M9.8 24.4C9.8 25.1 10.3 25.2 10.7 25.2 12.5 25.2 13.1 23.8 13.1 22.5 13.1 21 12.1 19.9 10.5 19.9 10.1 19.9 10 19.9 9.8 19.9V24.4ZM9 20.5C9 19.8 8.6 19.8 8.2 19.8V19.6C8.6 19.6 8.9 19.6 9.2 19.6 9.6 19.6 10 19.6 10.7 19.6 12.8 19.6 14 21 14 22.5 14 23.3 13.5 25.4 10.6 25.4 10.1 25.4 9.7 25.4 9.4 25.4 9 25.4 8.6 25.4 8.2 25.4V25.2C8.7 25.2 9 25.1 9 24.6V20.5H9Z" class="c"/><path d="M15.2 20.3C15 20.3 14.8 20.1 14.8 19.9 14.8 19.7 15 19.5 15.2 19.5 15.4 19.5 15.6 19.7 15.6 19.9 15.6 20.1 15.4 20.3 15.2 20.3ZM14.3 25.2H14.5C14.7 25.2 14.9 25.2 14.9 24.9V22.7C14.9 22.3 14.7 22.2 14.4 22.1V21.9C14.8 21.8 15.3 21.7 15.3 21.6 15.4 21.6 15.4 21.6 15.5 21.6 15.5 21.6 15.5 21.7 15.5 21.7V24.9C15.5 25.2 15.7 25.2 15.9 25.2H16.1V25.4C15.8 25.4 15.5 25.4 15.2 25.4 14.9 25.4 14.6 25.4 14.3 25.4V25.2Z" class="c"/><path d="M16.9 22.7C16.9 22.4 16.8 22.3 16.4 22.2V22C16.7 21.9 17.1 21.8 17.5 21.6 17.5 21.6 17.5 21.6 17.5 21.7V22.2C18 21.9 18.4 21.6 19 21.6 19.7 21.6 19.9 22.1 19.9 22.8V24.9C19.9 25.2 20.1 25.2 20.4 25.2H20.5V25.4C20.2 25.4 19.9 25.4 19.6 25.4 19.3 25.4 19 25.4 18.7 25.4V25.2H18.9C19.1 25.2 19.3 25.2 19.3 24.9V22.8C19.3 22.3 19 22.1 18.5 22.1 18.2 22.1 17.8 22.3 17.5 22.5V24.9C17.5 25.2 17.7 25.2 18 25.2H18.1V25.4C17.8 25.4 17.5 25.4 17.2 25.4 16.9 25.4 16.6 25.4 16.3 25.4V25.2H16.5C16.7 25.2 16.9 25.2 16.9 24.9V22.7H16.9Z" class="c"/><path d="M22.6 22.8C22.8 22.8 22.9 22.7 22.9 22.6 22.9 22.2 22.6 21.9 22.1 21.9 21.6 21.9 21.3 22.2 21.2 22.8H22.6V22.8ZM21.2 23.1C21.1 23.2 21.1 23.3 21.2 23.6 21.2 24.4 21.7 25 22.4 25 22.8 25 23.2 24.8 23.5 24.5L23.6 24.6C23.2 25.1 22.8 25.5 22.1 25.5 20.8 25.5 20.5 24.3 20.5 23.7 20.5 22.1 21.6 21.6 22.2 21.6 22.8 21.6 23.6 22 23.6 22.9 23.6 23 23.6 23 23.6 23.1L23.5 23.1H21.2V23.1Z" class="c"/><path d="M23.8 25.2H24C24.2 25.2 24.4 25.2 24.4 24.9V22.6C24.4 22.3 24.1 22.3 24 22.2V22.1C24.6 21.8 24.9 21.6 25 21.6 25 21.6 25.1 21.6 25.1 21.7V22.5H25.1C25.3 22.1 25.6 21.6 26.1 21.6 26.4 21.6 26.6 21.7 26.6 22 26.6 22.3 26.5 22.5 26.2 22.5 26 22.5 26 22.3 25.7 22.3 25.5 22.3 25.1 22.5 25.1 23V24.9C25.1 25.2 25.2 25.2 25.5 25.2H25.9V25.4C25.5 25.4 25.1 25.4 24.8 25.4 24.4 25.4 24.1 25.4 23.8 25.4V25.2H23.8Z" class="c"/><path d="M27 24.3C27.1 24.8 27.4 25.3 28 25.3 28.5 25.3 28.7 25 28.7 24.7 28.7 23.7 26.9 24 26.9 22.7 26.9 22.2 27.3 21.6 28.2 21.6 28.5 21.6 28.8 21.7 29.1 21.8L29.2 22.7H29C28.9 22.2 28.6 21.9 28.1 21.9 27.8 21.9 27.4 22.1 27.4 22.4 27.4 23.4 29.4 23.1 29.4 24.4 29.4 25 28.9 25.5 27.9 25.5 27.6 25.5 27.2 25.4 26.9 25.3L26.8 24.3 27 24.3Z" class="c"/><path d="M36.9 21.1H36.7C36.6 20.1 35.9 19.7 34.9 19.7 34 19.7 32.6 20.4 32.6 22.4 32.6 24.1 33.8 25.3 35.1 25.3 35.9 25.3 36.6 24.7 36.7 23.8L36.9 23.9 36.7 25.1C36.4 25.3 35.4 25.5 34.9 25.5 32.9 25.5 31.7 24.3 31.7 22.4 31.7 20.7 33.2 19.5 34.9 19.5 35.5 19.5 36.2 19.7 36.8 19.9L36.9 21.1Z" class="c"/><path d="M37.2 25.2H37.4C37.6 25.2 37.8 25.2 37.8 24.9V20.3C37.8 19.7 37.7 19.7 37.3 19.6V19.5C37.7 19.4 38 19.2 38.2 19.1 38.3 19.1 38.4 19 38.4 19 38.4 19 38.4 19.1 38.4 19.2V24.9C38.4 25.2 38.6 25.2 38.9 25.2H39V25.4C38.7 25.4 38.4 25.4 38.1 25.4 37.8 25.4 37.5 25.4 37.2 25.4V25.2H37.2Z" class="c"/><path d="M42.6 25C42.6 25.1 42.7 25.1 42.8 25.1 42.9 25.1 43 25.1 43.1 25.1V25.3C42.8 25.3 42.1 25.5 41.9 25.5L41.9 25.5V24.8C41.4 25.3 41 25.5 40.4 25.5 40 25.5 39.5 25.3 39.5 24.6V22.4C39.5 22.2 39.5 22 39 21.9V21.8C39.3 21.8 40 21.7 40.1 21.7 40.2 21.7 40.2 21.8 40.2 22V24.1C40.2 24.4 40.2 25.1 40.9 25.1 41.2 25.1 41.6 24.9 41.9 24.6V22.3C41.9 22.2 41.5 22.1 41.2 22V21.8C42 21.8 42.4 21.7 42.5 21.7 42.6 21.7 42.6 21.8 42.6 21.9V25H42.6Z" class="c"/><path d="M44.2 24.5C44.2 24.8 44.5 25.3 45.1 25.3 46 25.3 46.4 24.5 46.4 23.7 46.4 22.8 45.7 22.1 45 22.1 44.7 22.1 44.5 22.3 44.2 22.4V24.5ZM44.2 22.2C44.6 21.9 45 21.6 45.5 21.6 46.5 21.6 47 22.4 47 23.4 47 24.5 46.2 25.5 45 25.5 44.4 25.5 44.1 25.3 43.9 25.3L43.6 25.4 43.5 25.4C43.5 24.9 43.6 24.4 43.6 23.9V20.3C43.6 19.7 43.4 19.7 43.1 19.6V19.5C43.5 19.4 43.8 19.2 44 19.1 44.1 19.1 44.2 19 44.2 19 44.2 19 44.2 19.1 44.2 19.2V22.2Z" class="c"/><path d="M8.2 30.3H8.3C8.5 30.3 8.6 30.3 8.6 30V27.6C8.6 27.4 8.5 27.4 8.3 27.4H8.2V27.2C8.4 27.2 8.7 27.3 8.9 27.3 9.1 27.3 9.4 27.2 9.6 27.2V27.4H9.5C9.4 27.4 9.2 27.4 9.2 27.6V30C9.2 30.3 9.4 30.3 9.5 30.3H9.6V30.4C9.4 30.4 9.1 30.4 8.9 30.4 8.7 30.4 8.4 30.4 8.2 30.4V30.3Z" class="c"/><path d="M9.6 30.4L9.6 30.3H9.5C9.4 30.3 9.2 30.3 9.2 30V27.6C9.2 27.4 9.4 27.4 9.5 27.4H9.6V27.3C9.4 27.3 9.1 27.3 8.9 27.3 8.7 27.3 8.4 27.3 8.2 27.3V27.4H8.3C8.5 27.4 8.6 27.4 8.6 27.6V30C8.6 30.3 8.5 30.3 8.3 30.3H8.2V30.4C8.4 30.4 8.7 30.4 8.9 30.4 9.1 30.4 9.4 30.4 9.6 30.4ZM9.6 30.4C9.4 30.4 9.1 30.4 8.9 30.4 8.7 30.4 8.4 30.4 8.2 30.4H8.2V30.4 30.3 30.3H8.2 8.3C8.5 30.2 8.6 30.2 8.6 30V27.6C8.6 27.4 8.5 27.4 8.3 27.4H8.2V27.4 27.2H8.2C8.4 27.2 8.7 27.2 8.9 27.2 9.1 27.2 9.4 27.2 9.6 27.2H9.6V27.2 27.4H9.6 9.5C9.4 27.4 9.2 27.4 9.2 27.6V30C9.2 30.2 9.4 30.2 9.5 30.3H9.6V30.3 30.4H9.6Z" class="c"/><path d="M12.7 29.5L12.7 29.5V27.8C12.7 27.4 12.5 27.4 12.3 27.4H12.2V27.2C12.5 27.2 12.7 27.3 12.9 27.3 13.1 27.3 13.3 27.2 13.4 27.2V27.4H13.4C13.2 27.4 13 27.4 13 28V30C13 30.2 13 30.3 13 30.5H12.8L10.5 27.9V29.7C10.5 30.1 10.6 30.3 10.9 30.3H11V30.4C10.8 30.4 10.6 30.4 10.4 30.4 10.2 30.4 10 30.4 9.8 30.4V30.3H9.8C10.2 30.3 10.3 30.1 10.3 29.7V27.8C10.3 27.5 10 27.4 9.8 27.4H9.8V27.2C10 27.2 10.1 27.3 10.3 27.3 10.4 27.3 10.6 27.2 10.7 27.2L12.7 29.5Z" class="c"/><path d="M12.7 29.5V29.5L12.7 29.5 12.7 29.5ZM12.7 29.5L12.7 29.5 12.7 29.5ZM12.8 30.5H13C13 30.3 13 30.2 13 30V28C13 27.4 13.2 27.4 13.4 27.4H13.4V27.3C13.2 27.3 13.1 27.3 12.9 27.3 12.7 27.3 12.5 27.3 12.3 27.3L12.3 27.4H12.3C12.5 27.4 12.8 27.4 12.8 27.8L12.8 29.5 12.7 29.5 12.7 29.5 10.7 27.3C10.6 27.3 10.4 27.3 10.3 27.3 10.1 27.3 10 27.3 9.8 27.3L9.8 27.4H9.8C10.1 27.4 10.3 27.5 10.3 27.8V29.7C10.3 30.1 10.2 30.3 9.8 30.3L9.8 30.3V30.4C10 30.4 10.2 30.4 10.4 30.4 10.6 30.4 10.8 30.4 11 30.4V30.3H10.9C10.6 30.3 10.5 30.1 10.5 29.7V27.8L12.8 30.5ZM13 30.5L12.8 30.5 10.5 27.9V29.7C10.5 30.1 10.6 30.2 10.9 30.3H11V30.3 30.4H11C10.8 30.4 10.6 30.4 10.4 30.4 10.2 30.4 10 30.4 9.8 30.4H9.8V30.4 30.3H9.8 9.8C10.1 30.3 10.2 30.1 10.2 29.7V27.8C10.2 27.5 10 27.4 9.8 27.4H9.8V27.4 27.2H9.8C10 27.2 10.1 27.2 10.3 27.2 10.4 27.2 10.6 27.2 10.7 27.2L12.7 29.5V27.8C12.7 27.4 12.5 27.4 12.3 27.4H12.2V27.4 27.2H12.2C12.5 27.2 12.7 27.2 12.9 27.2 13.1 27.2 13.3 27.2 13.4 27.2H13.5V27.2 27.4H13.4 13.4C13.2 27.4 13 27.4 13 28V30C13 30.2 13 30.3 13 30.5L13 30.5H13V30.5Z" class="c"/><path d="M14.1 27.5C13.8 27.5 13.8 27.5 13.7 27.9H13.6C13.6 27.8 13.6 27.6 13.6 27.5 13.6 27.4 13.6 27.2 13.6 27.1H13.8C13.8 27.2 13.9 27.2 14 27.2H16.4C16.5 27.2 16.6 27.2 16.6 27.1L16.7 27.1C16.7 27.2 16.7 27.4 16.7 27.5 16.7 27.6 16.7 27.7 16.7 27.9L16.5 27.9C16.5 27.7 16.5 27.5 16.2 27.5H15.4V29.9C15.4 30.2 15.6 30.3 15.8 30.3H15.9V30.4C15.7 30.4 15.4 30.4 15.2 30.4 14.9 30.4 14.6 30.4 14.4 30.4V30.3H14.5C14.7 30.3 14.9 30.3 14.9 29.9V27.5H14.1Z" class="c"/><path d="M15.9 30.4C15.7 30.4 15.4 30.4 15.2 30.4 14.9 30.4 14.6 30.4 14.4 30.4H14.4V30.4 30.3H14.4 14.5C14.7 30.2 14.8 30.2 14.8 29.9V27.5H14.1V27.5 27.4H14.9V29.9C14.9 30.3 14.7 30.3 14.5 30.3H14.4V30.4C14.6 30.4 14.9 30.4 15.2 30.4 15.4 30.4 15.7 30.4 15.9 30.4V30.3H15.8C15.6 30.3 15.4 30.2 15.4 29.9V27.4H16.2C16.5 27.4 16.5 27.7 16.5 27.9L16.6 27.8C16.6 27.7 16.6 27.6 16.7 27.5 16.7 27.4 16.7 27.2 16.7 27.1L16.6 27.1C16.6 27.3 16.5 27.3 16.4 27.3H14 14C13.9 27.3 13.8 27.3 13.7 27.1H13.7C13.7 27.3 13.7 27.4 13.6 27.5 13.6 27.6 13.6 27.7 13.6 27.9H13.7C13.7 27.5 13.8 27.4 14.1 27.4V27.5 27.5C13.8 27.5 13.8 27.5 13.7 27.9L13.7 27.9H13.7 13.5L13.5 27.9C13.6 27.7 13.6 27.6 13.6 27.5 13.6 27.4 13.6 27.2 13.6 27.1V27.1H13.6 13.8L13.8 27.1C13.8 27.2 13.9 27.2 14 27.2H14 16.4C16.5 27.2 16.6 27.2 16.6 27.1L16.6 27.1 16.6 27.1 16.7 27.1 16.7 27.1C16.7 27.2 16.7 27.4 16.7 27.5 16.7 27.6 16.7 27.7 16.7 27.9V27.9L16.7 27.9 16.5 27.9 16.5 27.9C16.5 27.7 16.5 27.5 16.2 27.5H15.5V29.9C15.5 30.2 15.6 30.2 15.8 30.3H15.9V30.3 30.4H15.9V30.4Z" class="c"/><path d="M16.9 30.3H16.9C17.1 30.3 17.3 30.3 17.3 30V27.6C17.3 27.4 17.1 27.4 16.9 27.4H16.9V27.2C17.1 27.2 17.6 27.3 18 27.3 18.4 27.3 18.9 27.2 19.2 27.2 19.2 27.4 19.2 27.7 19.2 27.9L19 28C19 27.7 19 27.4 18.5 27.4H17.9V28.6H18.4C18.7 28.6 18.7 28.5 18.8 28.2H18.9C18.9 28.4 18.9 28.6 18.9 28.8 18.9 28.9 18.9 29.1 18.9 29.3L18.8 29.3C18.7 29 18.7 28.9 18.4 28.9H17.9V29.9C17.9 30.2 18.1 30.2 18.4 30.2 19 30.2 19.2 30.2 19.3 29.7L19.5 29.7C19.4 29.9 19.3 30.2 19.3 30.4 19 30.4 18.5 30.4 18.1 30.4 17.7 30.4 17.1 30.4 16.9 30.4V30.3H16.9Z" class="c"/><path d="M19.3 30.4C19.3 30.2 19.4 29.9 19.4 29.7L19.3 29.7C19.2 30.2 18.9 30.2 18.4 30.2 18.1 30.2 17.8 30.2 17.8 29.9V28.8H18.4C18.7 28.8 18.7 29 18.8 29.3L18.9 29.3C18.9 29.1 18.9 28.9 18.9 28.8 18.9 28.6 18.9 28.4 18.9 28.2H18.8C18.7 28.5 18.7 28.7 18.4 28.6H17.8V27.4H18.5C19 27.4 19 27.7 19.1 27.9L19.2 27.9C19.1 27.8 19.1 27.6 19.1 27.5 19.1 27.4 19.1 27.3 19.1 27.3 18.8 27.3 18.4 27.3 18 27.3 17.6 27.3 17.2 27.3 16.9 27.3V27.4H16.9C17.1 27.4 17.3 27.4 17.3 27.6V30C17.3 30.3 17.1 30.3 16.9 30.3H16.9V30.4C17.2 30.4 17.7 30.4 18.1 30.4 18.5 30.4 19 30.4 19.3 30.4ZM19.3 30.4C19 30.4 18.5 30.4 18.1 30.4 17.7 30.4 17.1 30.4 16.9 30.4H16.9V30.4 30.3 30.3H16.9 16.9C17.1 30.3 17.2 30.2 17.3 30V27.6C17.2 27.4 17.1 27.4 16.9 27.4H16.9V27.4 27.2H16.9C17.1 27.2 17.6 27.2 18 27.2 18.4 27.2 18.9 27.2 19.2 27.2H19.2L19.2 27.2C19.2 27.3 19.2 27.4 19.2 27.5 19.2 27.6 19.2 27.8 19.2 27.9L19.2 27.9 19.2 28 19 28 19 28C19 27.7 19 27.5 18.5 27.5H17.9L17.9 28.6H18.4C18.7 28.6 18.7 28.5 18.7 28.2L18.7 28.2H18.8 18.9L18.9 28.2C18.9 28.4 18.9 28.6 18.9 28.8 18.9 28.9 18.9 29.1 18.9 29.3L18.9 29.3 18.9 29.3 18.7 29.3 18.7 29.3C18.7 29 18.7 28.9 18.4 28.9H17.9V29.9C17.9 30.2 18.1 30.2 18.4 30.2 19 30.2 19.2 30.2 19.3 29.7L19.3 29.6 19.3 29.6 19.5 29.7 19.5 29.7C19.4 29.9 19.4 30.2 19.3 30.4L19.3 30.4H19.3V30.4Z" class="c"/><path d="M20.6 28.8H20.9C21.3 28.8 21.6 28.6 21.6 28.1 21.6 27.7 21.3 27.4 20.9 27.4 20.8 27.4 20.7 27.4 20.6 27.4V28.8ZM20.1 27.7C20.1 27.4 19.9 27.4 19.7 27.4H19.7V27.2C19.8 27.2 20.1 27.3 20.4 27.3 20.6 27.3 20.9 27.2 21.1 27.2 21.7 27.2 22.2 27.4 22.2 28 22.2 28.4 21.9 28.7 21.5 28.8L22.3 30C22.4 30.2 22.5 30.2 22.8 30.3V30.4C22.6 30.4 22.5 30.4 22.3 30.4 22.2 30.4 22 30.4 21.9 30.4 21.5 30 21.2 29.5 20.9 28.9H20.6V29.9C20.6 30.3 20.8 30.3 21 30.3H21.1V30.4C20.8 30.4 20.6 30.4 20.3 30.4 20.1 30.4 19.9 30.4 19.7 30.4V30.3H19.7C19.9 30.3 20.1 30.2 20.1 30V27.7H20.1Z" class="c"/><path d="M20.9 28.8C21.3 28.7 21.5 28.6 21.5 28.1 21.5 27.7 21.3 27.4 20.9 27.4 20.8 27.4 20.7 27.4 20.7 27.4V28.8H20.9ZM20.6 28.8H20.6V27.4L20.6 27.4C20.7 27.4 20.8 27.4 20.9 27.4 21.3 27.4 21.6 27.7 21.6 28.1 21.6 28.6 21.3 28.8 20.9 28.8H20.6V28.8ZM20.6 28.9H21L21 28.9C21.3 29.4 21.6 29.9 21.9 30.4 22 30.4 22.2 30.4 22.3 30.4 22.5 30.4 22.6 30.4 22.7 30.4V30.3C22.5 30.3 22.4 30.2 22.3 30L21.5 28.8 21.5 28.8C21.9 28.7 22.2 28.4 22.2 28 22.2 27.4 21.7 27.3 21.1 27.3 20.9 27.3 20.6 27.3 20.4 27.3 20.1 27.3 19.8 27.3 19.7 27.3V27.4H19.7C19.9 27.4 20.1 27.4 20.1 27.7V30C20.1 30.2 19.9 30.3 19.7 30.3H19.7V30.4C19.9 30.4 20.1 30.4 20.3 30.4 20.6 30.4 20.8 30.4 21.1 30.4V30.3H21C20.8 30.3 20.6 30.3 20.6 29.9V28.9H20.6V28.9ZM22.8 30.4C22.6 30.4 22.5 30.4 22.3 30.4 22.2 30.4 22 30.4 21.9 30.4 21.5 30 21.2 29.5 20.9 29H20.7V29.9C20.7 30.3 20.8 30.2 21 30.3H21.1V30.3 30.4H21.1C20.8 30.4 20.6 30.4 20.3 30.4 20.1 30.4 19.9 30.4 19.7 30.4H19.6V30.4 30.3H19.7 19.7C19.9 30.3 20 30.2 20 30V27.7C20 27.4 19.9 27.4 19.7 27.4H19.6V27.4 27.2H19.7C19.8 27.2 20.1 27.2 20.4 27.2 20.6 27.2 20.9 27.2 21.1 27.2 21.7 27.2 22.2 27.4 22.2 28 22.2 28.4 21.9 28.7 21.6 28.8L22.3 30C22.5 30.2 22.5 30.2 22.8 30.3L22.8 30.3V30.3 30.4H22.8Z" class="c"/><path d="M25.9 29.5L25.9 29.5V27.8C25.9 27.4 25.6 27.4 25.5 27.4H25.4V27.2C25.6 27.2 25.8 27.3 26 27.3 26.2 27.3 26.4 27.2 26.6 27.2V27.4H26.5C26.3 27.4 26.1 27.4 26.1 28V30C26.1 30.2 26.1 30.3 26.1 30.5H25.9L23.6 27.9V29.7C23.6 30.1 23.7 30.3 24 30.3H24.1V30.4C23.9 30.4 23.7 30.4 23.5 30.4 23.3 30.4 23.1 30.4 22.9 30.4V30.3H23C23.3 30.3 23.4 30.1 23.4 29.7V27.8C23.4 27.5 23.2 27.4 23 27.4H22.9V27.2C23.1 27.2 23.3 27.3 23.4 27.3 23.6 27.3 23.7 27.2 23.8 27.2L25.9 29.5Z" class="c"/><path d="M25.8 29.5V29.5L25.8 29.5 25.8 29.5ZM25.8 29.5L25.9 29.5 25.8 29.5ZM25.9 30.5H26.1C26.1 30.3 26.1 30.2 26.1 30V28C26.1 27.4 26.3 27.4 26.5 27.4H26.5V27.3C26.4 27.3 26.2 27.3 26 27.3 25.8 27.3 25.6 27.3 25.4 27.3V27.4H25.5C25.6 27.4 25.9 27.4 25.9 27.8L25.9 29.5 25.9 29.5 25.8 29.5 23.8 27.3C23.7 27.3 23.6 27.3 23.4 27.3 23.3 27.3 23.1 27.3 22.9 27.3V27.4H23C23.2 27.4 23.4 27.5 23.4 27.8V29.7C23.4 30.1 23.3 30.3 23 30.3L22.9 30.3V30.4C23.1 30.4 23.3 30.4 23.5 30.4 23.7 30.4 23.9 30.4 24.1 30.4V30.3H24C23.7 30.3 23.6 30.1 23.6 29.7V27.8L25.9 30.5ZM26.1 30.5L25.9 30.5 23.6 27.9V29.7C23.6 30.1 23.7 30.2 24 30.3H24.1V30.3 30.4H24.1C23.9 30.4 23.7 30.4 23.5 30.4 23.3 30.4 23.1 30.4 22.9 30.4H22.9V30.4 30.3H22.9 23C23.3 30.3 23.3 30.1 23.4 29.7V27.8C23.4 27.5 23.2 27.4 23 27.4H22.9V27.4 27.2H22.9C23.1 27.2 23.3 27.2 23.4 27.2 23.6 27.2 23.7 27.2 23.8 27.2L25.8 29.5V27.8C25.8 27.4 25.6 27.4 25.5 27.4H25.3V27.4 27.2H25.4C25.6 27.2 25.8 27.2 26 27.2 26.2 27.2 26.4 27.2 26.6 27.2H26.6V27.2 27.4H26.6 26.5C26.3 27.4 26.1 27.4 26.1 28V30C26.1 30.2 26.1 30.3 26.1 30.5L26.1 30.5H26.1V30.5Z" class="c"/><path d="M28 27.7H27.9L27.5 29H28.4L28 27.7ZM27.3 29.8C27.2 29.9 27.2 30 27.2 30.1 27.2 30.3 27.4 30.3 27.5 30.3H27.6V30.4C27.4 30.4 27.2 30.4 27 30.4 26.9 30.4 26.7 30.4 26.5 30.4V30.3H26.6C26.7 30.3 26.9 30.2 27 30L27.7 27.9C27.7 27.7 27.8 27.5 27.9 27.3 28 27.3 28.2 27.2 28.3 27.1 28.3 27.1 28.3 27.1 28.3 27.1 28.3 27.1 28.3 27.1 28.3 27.1 28.4 27.2 28.4 27.2 28.4 27.3L29.2 29.6C29.3 29.8 29.3 30 29.4 30.1 29.4 30.2 29.5 30.3 29.7 30.3H29.7V30.4C29.5 30.4 29.3 30.4 29.1 30.4 28.9 30.4 28.6 30.4 28.4 30.4V30.3H28.5C28.6 30.3 28.7 30.3 28.7 30.1 28.7 30.1 28.7 30 28.6 29.8L28.5 29.3H27.4L27.3 29.8Z" class="c"/><path d="M27.9 27.8L27.9 27.8 27.9 27.8ZM27.5 29H28.3L27.9 27.8 27.5 29ZM27.5 29.1L27.9 27.7H27.9 28V27.7L27.9 27.7 28 27.7V27.7H28L28.4 29.1H27.5ZM28.4 30.4C28.6 30.4 28.9 30.4 29.1 30.4 29.3 30.4 29.5 30.4 29.7 30.4V30.3H29.7C29.5 30.3 29.4 30.2 29.4 30.1 29.3 30 29.2 29.8 29.2 29.6L28.4 27.3C28.3 27.2 28.3 27.2 28.3 27.1 28.3 27.1 28.3 27.1 28.3 27.1H28.3C28.3 27.1 28.3 27.1 28.3 27.2 28.2 27.2 28 27.3 27.9 27.3 27.8 27.5 27.8 27.7 27.7 27.9L27 30C26.9 30.2 26.8 30.3 26.6 30.3H26.6V30.4C26.7 30.4 26.9 30.4 27 30.4 27.2 30.4 27.4 30.4 27.6 30.4V30.3H27.5C27.4 30.3 27.2 30.3 27.2 30.1 27.2 30 27.2 29.9 27.3 29.8L27.3 29.8 27.3 29.8 27.4 29.3H28.5L28.7 29.8C28.7 30 28.8 30.1 28.8 30.1 28.7 30.3 28.6 30.3 28.5 30.3H28.4V30.4H28.4ZM29.7 30.4C29.5 30.4 29.3 30.4 29.1 30.4 28.9 30.4 28.6 30.4 28.4 30.4L28.4 30.4V30.4 30.3H28.4 28.5C28.6 30.3 28.7 30.2 28.7 30.1 28.7 30.1 28.7 30 28.6 29.8L28.5 29.3H27.4L27.3 29.8C27.3 29.9 27.2 30 27.2 30.1 27.2 30.2 27.4 30.3 27.5 30.3H27.6V30.3 30.4L27.6 30.4C27.4 30.4 27.2 30.4 27 30.4 26.9 30.4 26.7 30.4 26.5 30.4L26.5 30.4V30.4 30.3H26.5 26.6C26.7 30.3 26.9 30.2 26.9 30L27.7 27.9C27.7 27.7 27.8 27.5 27.9 27.3 28 27.3 28.2 27.2 28.3 27.1 28.3 27.1 28.3 27.1 28.3 27.1 28.3 27.1 28.3 27.1 28.4 27.1 28.4 27.2 28.4 27.2 28.4 27.2L29.2 29.6C29.3 29.8 29.3 29.9 29.4 30.1 29.5 30.2 29.5 30.3 29.7 30.3H29.7V30.3 30.4L29.7 30.4Z" class="c"/><path d="M29.9 27.5C29.6 27.5 29.6 27.5 29.5 27.9H29.4C29.4 27.8 29.4 27.6 29.4 27.5 29.4 27.4 29.4 27.2 29.4 27.1H29.5C29.6 27.2 29.7 27.2 29.8 27.2H32.2C32.3 27.2 32.4 27.2 32.4 27.1L32.5 27.1C32.5 27.2 32.5 27.4 32.5 27.5 32.5 27.6 32.5 27.7 32.5 27.9L32.3 27.9C32.3 27.7 32.3 27.5 32 27.5H31.2V29.9C31.2 30.2 31.4 30.3 31.6 30.3H31.7V30.4C31.5 30.4 31.2 30.4 31 30.4 30.7 30.4 30.4 30.4 30.2 30.4V30.3H30.3C30.5 30.3 30.7 30.3 30.7 29.9V27.5H29.9Z" class="c"/><path d="M31.7 30.4C31.5 30.4 31.2 30.4 31 30.4 30.7 30.4 30.4 30.4 30.2 30.4H30.2V30.4 30.3H30.2 30.3C30.5 30.2 30.6 30.2 30.6 29.9L30.6 27.5H29.9V27.5 27.4H30.7V29.9C30.7 30.3 30.5 30.3 30.3 30.3H30.2V30.4C30.4 30.4 30.7 30.4 31 30.4 31.2 30.4 31.5 30.4 31.7 30.4V30.3H31.6C31.4 30.3 31.2 30.2 31.2 29.9V27.4H32C32.3 27.4 32.3 27.7 32.3 27.9L32.4 27.8C32.4 27.7 32.4 27.6 32.4 27.5 32.5 27.4 32.5 27.2 32.5 27.1L32.4 27.1C32.4 27.3 32.3 27.3 32.2 27.3H29.8 29.8C29.7 27.3 29.6 27.3 29.5 27.1H29.5C29.5 27.3 29.4 27.4 29.4 27.5 29.4 27.6 29.4 27.7 29.4 27.9H29.5C29.5 27.5 29.6 27.4 29.9 27.4V27.5 27.5C29.6 27.5 29.6 27.5 29.5 27.9L29.5 27.9H29.5 29.3L29.3 27.9C29.4 27.7 29.4 27.6 29.4 27.5 29.4 27.4 29.4 27.2 29.4 27.1V27.1H29.4 29.6L29.6 27.1C29.6 27.2 29.7 27.2 29.8 27.2H29.8 32.2C32.3 27.2 32.4 27.2 32.4 27.1L32.4 27.1 32.4 27.1 32.5 27.1 32.5 27.1C32.5 27.2 32.5 27.4 32.5 27.5 32.5 27.6 32.5 27.7 32.5 27.9V27.9L32.5 27.9 32.3 27.9 32.3 27.9C32.3 27.7 32.3 27.5 32 27.5H31.3V29.9C31.3 30.2 31.4 30.2 31.6 30.3H31.7V30.3 30.4H31.7V30.4Z" class="c"/><path d="M32.7 30.3H32.7C32.9 30.3 33.1 30.3 33.1 30V27.6C33.1 27.4 32.9 27.4 32.7 27.4H32.7V27.2C32.9 27.2 33.1 27.3 33.4 27.3 33.6 27.3 33.9 27.2 34.1 27.2V27.4H34C33.8 27.4 33.7 27.4 33.7 27.6V30C33.7 30.3 33.8 30.3 34 30.3H34.1V30.4C33.8 30.4 33.6 30.4 33.3 30.4 33.1 30.4 32.9 30.4 32.7 30.4V30.3H32.7Z" class="c"/><path d="M34 30.4V30.3H34C33.8 30.3 33.6 30.3 33.6 30V27.6C33.6 27.4 33.8 27.4 34 27.4H34V27.3C33.8 27.3 33.6 27.3 33.4 27.3 33.1 27.3 32.9 27.3 32.7 27.3V27.4H32.7C32.9 27.4 33.1 27.4 33.1 27.6V30C33.1 30.3 32.9 30.3 32.7 30.3H32.7V30.4C32.9 30.4 33.1 30.4 33.3 30.4 33.6 30.4 33.8 30.4 34 30.4ZM34.1 30.4C33.8 30.4 33.6 30.4 33.3 30.4 33.1 30.4 32.9 30.4 32.7 30.4H32.7V30.4 30.3 30.3H32.7 32.7C32.9 30.3 33.1 30.2 33.1 30V27.6C33.1 27.4 32.9 27.4 32.7 27.4H32.7V27.4 27.2H32.7C32.9 27.2 33.1 27.2 33.4 27.2 33.6 27.2 33.9 27.2 34.1 27.2H34.1V27.2 27.4H34.1 34C33.8 27.4 33.7 27.4 33.7 27.6V30C33.7 30.2 33.8 30.3 34 30.3H34.1V30.3 30.4H34.1Z" class="c"/><path d="M35.9 30.3C36.8 30.3 37 29.5 37 28.8 37 28.2 36.6 27.4 35.9 27.4 35.1 27.4 34.8 28.1 34.8 28.7 34.8 29.5 35.2 30.3 35.9 30.3ZM35.9 27.2C36.8 27.2 37.6 27.8 37.6 28.7 37.6 29.8 36.9 30.5 35.9 30.5 34.9 30.5 34.2 29.8 34.2 28.8 34.2 27.9 34.9 27.2 35.9 27.2Z" class="c"/><path d="M34.8 28.7C34.8 28.1 35.1 27.4 35.9 27.4 36.6 27.4 37 28.2 37 28.8 37 29.5 36.8 30.3 35.9 30.3V30.3 30.3C36.8 30.3 37 29.5 37 28.8 37 28.2 36.6 27.4 35.9 27.4 35.1 27.4 34.9 28.1 34.9 28.7 34.9 29.5 35.2 30.3 35.9 30.3V30.3 30.3C35.2 30.3 34.8 29.5 34.8 28.7ZM34.2 28.8C34.2 27.9 34.9 27.2 35.9 27.2V27.2 27.2C34.9 27.2 34.2 27.9 34.2 28.8 34.2 29.8 34.9 30.5 35.9 30.5 36.9 30.5 37.6 29.8 37.6 28.7 37.6 27.8 36.8 27.2 35.9 27.2V27.2 27.2C36.9 27.2 37.6 27.8 37.6 28.7 37.6 29.8 36.9 30.5 35.9 30.5 34.9 30.5 34.2 29.8 34.2 28.8Z" class="c"/><path d="M40.7 29.5L40.7 29.5V27.8C40.7 27.4 40.4 27.4 40.3 27.4H40.2V27.2C40.4 27.2 40.6 27.3 40.8 27.3 41 27.3 41.2 27.2 41.4 27.2V27.4H41.3C41.1 27.4 40.9 27.4 40.9 28V30C40.9 30.2 40.9 30.3 40.9 30.5H40.8L38.4 27.9V29.7C38.4 30.1 38.5 30.3 38.9 30.3H38.9V30.4C38.7 30.4 38.5 30.4 38.3 30.4 38.1 30.4 37.9 30.4 37.7 30.4V30.3H37.8C38.1 30.3 38.2 30.1 38.2 29.7V27.8C38.2 27.5 38 27.4 37.8 27.4H37.7V27.2C37.9 27.2 38.1 27.3 38.3 27.3 38.4 27.3 38.5 27.2 38.7 27.2L40.7 29.5Z" class="c"/><path d="M40.7 29.5V29.5L40.7 29.5 40.7 29.5ZM40.7 29.5L40.7 29.5 40.7 29.5ZM40.8 30.5H40.9C40.9 30.3 40.9 30.2 40.9 30V28C40.9 27.4 41.1 27.4 41.3 27.4H41.4V27.3C41.2 27.3 41 27.3 40.8 27.3 40.6 27.3 40.4 27.3 40.2 27.3V27.4H40.3C40.4 27.4 40.7 27.4 40.7 27.8L40.7 29.5 40.7 29.5 40.7 29.5 38.7 27.3C38.5 27.3 38.4 27.3 38.3 27.3 38.1 27.3 37.9 27.3 37.7 27.3V27.4H37.8C38 27.4 38.2 27.5 38.2 27.8V29.7C38.2 30.1 38.1 30.3 37.8 30.3L37.7 30.3V30.4C37.9 30.4 38.1 30.4 38.3 30.4 38.5 30.4 38.7 30.4 38.9 30.4V30.3H38.9C38.5 30.3 38.4 30.1 38.4 29.7V27.8L40.8 30.5ZM40.9 30.5L40.8 30.5 38.4 27.9V29.7C38.5 30.1 38.5 30.2 38.9 30.3H39V30.3 30.4H38.9C38.7 30.4 38.5 30.4 38.3 30.4 38.1 30.4 37.9 30.4 37.7 30.4H37.7V30.4 30.3H37.7 37.8C38.1 30.3 38.2 30.1 38.2 29.7V27.8C38.2 27.5 38 27.4 37.8 27.4H37.7V27.4 27.2H37.7C37.9 27.2 38.1 27.2 38.3 27.2 38.4 27.2 38.5 27.2 38.7 27.2L40.7 29.5V27.8C40.7 27.4 40.4 27.4 40.3 27.4H40.2V27.4 27.2H40.2C40.4 27.2 40.6 27.2 40.8 27.2 41 27.2 41.2 27.2 41.4 27.2H41.4V27.2 27.4H41.4 41.3C41.1 27.4 40.9 27.4 40.9 28V30C40.9 30.2 40.9 30.3 41 30.5L41 30.5H40.9V30.5Z" class="c"/><path d="M42.8 27.7H42.8L42.3 29H43.2L42.8 27.7ZM42.1 29.8C42.1 29.9 42 30 42 30.1 42 30.3 42.2 30.3 42.4 30.3H42.4V30.4C42.2 30.4 42 30.4 41.9 30.4 41.7 30.4 41.5 30.4 41.4 30.4V30.3H41.4C41.6 30.3 41.7 30.2 41.8 30L42.5 27.9C42.6 27.7 42.7 27.5 42.7 27.3 42.8 27.3 43 27.2 43.1 27.1 43.1 27.1 43.1 27.1 43.1 27.1 43.1 27.1 43.2 27.1 43.2 27.1 43.2 27.2 43.2 27.2 43.2 27.3L44 29.6C44.1 29.8 44.2 30 44.2 30.1 44.3 30.2 44.4 30.3 44.5 30.3H44.5V30.4C44.3 30.4 44.1 30.4 43.9 30.4 43.7 30.4 43.5 30.4 43.2 30.4V30.3H43.3C43.4 30.3 43.6 30.3 43.6 30.1 43.6 30.1 43.5 30 43.5 29.8L43.3 29.3H42.3L42.1 29.8Z" class="c"/><path d="M42.8 27.8L42.8 27.8 42.8 27.8ZM42.4 29H43.2L42.8 27.8 42.4 29ZM42.3 29.1L42.8 27.7H42.8 42.8V27.7L42.8 27.7 42.8 27.7V27.7H42.8L43.2 29.1H42.3ZM43.2 30.4C43.5 30.4 43.7 30.4 43.9 30.4 44.1 30.4 44.3 30.4 44.5 30.4L44.5 30.3H44.5C44.4 30.3 44.2 30.2 44.2 30.1 44.1 30 44.1 29.8 44 29.6L43.2 27.3C43.2 27.2 43.2 27.2 43.1 27.2 43.1 27.1 43.1 27.1 43.1 27.1H43.1C43.1 27.1 43.1 27.1 43.1 27.2 43 27.2 42.8 27.3 42.7 27.3 42.7 27.5 42.6 27.7 42.5 27.9L41.8 30C41.7 30.2 41.6 30.3 41.4 30.3H41.4V30.4C41.5 30.4 41.7 30.4 41.9 30.4 42 30.4 42.2 30.4 42.4 30.4V30.3H42.4C42.2 30.3 42 30.3 42 30.1 42 30 42.1 29.9 42.1 29.8L42.1 29.8 42.1 29.8 42.2 29.3H43.3L43.5 29.8C43.5 30 43.6 30.1 43.6 30.1 43.6 30.3 43.4 30.3 43.3 30.3H43.2V30.4H43.2ZM44.5 30.4C44.3 30.4 44.1 30.4 43.9 30.4 43.7 30.4 43.5 30.4 43.2 30.4L43.2 30.4V30.4 30.3H43.2 43.3C43.4 30.3 43.5 30.2 43.5 30.1 43.5 30.1 43.5 30 43.5 29.8L43.3 29.3H42.3L42.1 29.8C42.1 29.9 42 30 42 30.1 42 30.2 42.2 30.3 42.4 30.3H42.4V30.3 30.4L42.4 30.4C42.2 30.4 42 30.4 41.9 30.4 41.7 30.4 41.5 30.4 41.4 30.4L41.3 30.4V30.4 30.3H41.4 41.4C41.6 30.3 41.7 30.2 41.8 30L42.5 27.9C42.6 27.7 42.6 27.5 42.7 27.3 42.8 27.3 43 27.2 43.1 27.1 43.1 27.1 43.1 27.1 43.1 27.1 43.1 27.1 43.2 27.1 43.2 27.1 43.2 27.2 43.2 27.2 43.2 27.2L44.1 29.6C44.1 29.8 44.2 29.9 44.2 30.1 44.3 30.2 44.4 30.3 44.5 30.3H44.6V30.3 30.4L44.5 30.4Z" class="c"/><path d="M45.7 30C45.7 30.1 45.8 30.2 46 30.2 46.1 30.2 46.3 30.2 46.6 30.2 46.7 30.2 46.9 30.1 47 30 47.1 29.9 47.1 29.7 47.1 29.6H47.3C47.2 29.9 47.1 30.2 47.1 30.4 46.7 30.4 46.3 30.4 45.9 30.4 45.5 30.4 45.1 30.4 44.7 30.4V30.3H44.8C44.9 30.3 45.1 30.3 45.1 30V27.6C45.1 27.4 44.9 27.4 44.8 27.4H44.7V27.2C44.9 27.2 45.2 27.3 45.4 27.3 45.6 27.3 45.9 27.2 46.1 27.2V27.4H46C45.8 27.4 45.7 27.4 45.7 27.6V30H45.7Z" class="c"/><path d="M47.1 30.4C47.1 30.1 47.2 29.9 47.2 29.7H47.1C47.1 29.8 47.1 29.9 47 30 46.9 30.1 46.8 30.2 46.6 30.2 46.4 30.2 46.3 30.2 46.2 30.2 46.1 30.2 46 30.2 46 30.2 45.8 30.2 45.7 30.2 45.7 30V27.6C45.7 27.4 45.8 27.4 46 27.4H46.1V27.3C45.9 27.3 45.6 27.3 45.4 27.3 45.2 27.3 44.9 27.3 44.7 27.3V27.4H44.8C44.9 27.4 45.1 27.4 45.1 27.6V30C45.1 30.3 44.9 30.3 44.8 30.3H44.7V30.4C45.1 30.4 45.5 30.4 45.9 30.4 46.3 30.4 46.7 30.4 47.1 30.4ZM47.1 30.4C46.7 30.4 46.3 30.4 45.9 30.4 45.5 30.4 45.1 30.4 44.7 30.4H44.7V30.4 30.3H44.7 44.8C44.9 30.2 45.1 30.2 45.1 30V27.6C45.1 27.4 44.9 27.4 44.8 27.4H44.7V27.4 27.2H44.7C44.9 27.2 45.2 27.2 45.4 27.2 45.6 27.2 45.9 27.2 46.1 27.2H46.1V27.2 27.4H46.1 46C45.8 27.4 45.7 27.4 45.7 27.6V30C45.7 30.1 45.8 30.2 46 30.2 46 30.2 46.1 30.2 46.2 30.2 46.3 30.2 46.4 30.2 46.6 30.2 46.7 30.2 46.9 30.1 47 30 47 29.9 47.1 29.7 47.1 29.6L47.1 29.6H47.1 47.3L47.3 29.6C47.2 29.9 47.2 30.2 47.1 30.4L47.1 30.4H47.1Z" class="c"/><path d="M47.1 27.6H47.2C47.2 27.6 47.3 27.5 47.3 27.5 47.3 27.4 47.2 27.4 47.2 27.4H47.1V27.6ZM47 27.8V27.8C47 27.8 47 27.8 47 27.8V27.4C47 27.4 47 27.4 47 27.4V27.3H47.2C47.3 27.3 47.4 27.4 47.4 27.5 47.4 27.5 47.3 27.6 47.3 27.6L47.3 27.7C47.4 27.8 47.4 27.8 47.4 27.8V27.8H47.4C47.3 27.8 47.3 27.7 47.2 27.6H47.1V27.8C47.1 27.8 47.1 27.8 47.2 27.8V27.8H47V27.8ZM47.2 28C47.4 28 47.6 27.8 47.6 27.6 47.6 27.4 47.4 27.2 47.2 27.2 47 27.2 46.8 27.4 46.8 27.6 46.8 27.8 47 28 47.2 28ZM47.2 27.1C47.5 27.1 47.7 27.3 47.7 27.6 47.7 27.9 47.5 28.1 47.2 28.1 46.9 28.1 46.7 27.9 46.7 27.6 46.7 27.3 46.9 27.1 47.2 27.1Z" class="c"/><path d="M26.5 18.9C30.8 18.9 34.2 15.5 34.2 11.2 34.2 7 30.8 3.5 26.5 3.5 22.3 3.5 18.8 7 18.8 11.2 18.8 15.5 22.3 18.9 26.5 18.9Z" class="a"/><path d="M26.5 19C22.1 19.1 18.5 15.5 18.5 11.1 18.5 6.4 22.1 3.1 26.5 3.1H28.6C33 3.1 36.9 6.4 36.9 11.1 36.9 15.5 33 19 28.6 19H26.5ZM26.6 3.8C22.5 3.8 19.3 7 19.3 11.1 19.3 15.1 22.5 18.3 26.6 18.3 30.6 18.3 33.8 15.1 33.8 11.1 33.8 7 30.6 3.8 26.6 3.8ZM24.9 15.4V6.7C23.2 7.4 21.9 9.1 21.9 11.1 21.9 13 23.2 14.7 24.9 15.4ZM31.2 11.1C31.2 9.1 29.9 7.4 28.2 6.7V15.4C29.9 14.7 31.2 13 31.2 11.1Z" class="b"/></g><defs><clipPath><rect x="0.8" width="53.8" height="34" class="a"/></clipPath></defs></svg>
