<svg width="54" height="34" viewBox="0 0 54 34" fill="none" xmlns="http://www.w3.org/2000/svg">
    <g clip-path="url(#clip0)">
        <path d="M0.00390629 1.71729C0.00369405 0.770484 0.771146 0.00281745 1.71795 0.00276545L52.0705 2.64192e-09C53.0172 -5.19935e-05 53.7847 0.767411 53.7847 1.71414V32.3533C53.7847 33.3 53.0173 34.0674 52.0706 34.0674L1.72495 34.0684C0.778394 34.0685 0.0109865 33.3012 0.0107743 32.3547L0.00390629 1.71729Z" fill="white"/>
        <mask id="mask0" mask-type="alpha" maskUnits="userSpaceOnUse" x="0" y="0" width="54" height="35">
            <path d="M0.00390629 1.71729C0.00369405 0.770484 0.771146 0.00281745 1.71795 0.00276545L52.0705 2.64192e-09C53.0172 -5.19935e-05 53.7847 0.767411 53.7847 1.71414V32.3533C53.7847 33.3 53.0173 34.0674 52.0706 34.0674L1.72495 34.0684C0.778394 34.0685 0.0109865 33.3012 0.0107743 32.3547L0.00390629 1.71729Z" fill="white"/>
        </mask>
        <g mask="url(#mask0)">
            <path d="M53.8754 18.9922C53.8754 18.9922 39.0309 29.4669 11.8438 34.1551H53.8754V18.9922Z" fill="#F48120"/>
        </g>
        <path d="M4.33336 10.2603H2.06641V18.1777H4.32136C5.5204 18.1777 6.38626 17.8948 7.14627 17.2636C8.04941 16.5162 8.58357 15.3896 8.58357 14.2244C8.58379 11.888 6.83794 10.2603 4.33336 10.2603ZM6.13749 16.2079C5.65218 16.6461 5.02202 16.8372 4.02417 16.8372H3.60978V11.6018H4.02417C5.02202 11.6018 5.62754 11.7803 6.13749 12.242C6.67166 12.7175 6.99285 13.4546 6.99285 14.2128C6.99285 14.9731 6.67166 15.7326 6.13749 16.2079Z" fill="#231F20"/>
        <path d="M10.8413 10.2603H9.29688V18.1777H10.8413V10.2603Z" fill="#231F20"/>
        <path d="M14.6164 13.2986C13.6897 12.9558 13.4176 12.7295 13.4176 12.3019C13.4176 11.803 13.9025 11.4242 14.568 11.4242C15.0308 11.4242 15.4109 11.6143 15.8133 12.0653L16.6213 11.0072C15.9573 10.4264 15.1628 10.1294 14.2948 10.1294C12.8939 10.1294 11.8253 11.1022 11.8253 12.3981C11.8253 13.4889 12.3229 14.0473 13.7732 14.5692C14.3779 14.7824 14.6856 14.9245 14.8409 15.0201C15.1495 15.2215 15.304 15.5069 15.304 15.8392C15.304 16.4807 14.794 16.956 14.1049 16.956C13.3683 16.956 12.775 16.5876 12.4195 15.9L11.4219 16.8608C12.1335 17.9052 12.988 18.3682 14.163 18.3682C15.7679 18.3682 16.8936 17.3011 16.8936 15.7685C16.8936 14.5105 16.3732 13.941 14.6164 13.2986Z" fill="#231F20"/>
        <path d="M17.3828 14.2246C17.3828 16.5517 19.2103 18.3563 21.5619 18.3563C22.2268 18.3563 22.7961 18.2256 23.4982 17.895V16.0769C22.8807 16.6949 22.3339 16.9441 21.6339 16.9441C20.0785 16.9441 18.9746 15.8164 18.9746 14.213C18.9746 12.693 20.1134 11.4937 21.5621 11.4937C22.2988 11.4937 22.8563 11.7566 23.4984 12.3846V10.5674C22.8205 10.2235 22.2632 10.0811 21.5985 10.0811C19.2585 10.0815 17.3828 11.9227 17.3828 14.2246Z" fill="#231F20"/>
        <path d="M35.7399 15.5784L33.6286 10.2603H31.9414L35.3016 18.3808H36.1325L39.5528 10.2603H37.8788L35.7399 15.5784Z" fill="#231F20"/>
        <path d="M40.2539 18.1777H44.6338V16.8374H41.7971V14.7003H44.5292V13.3592H41.7971V11.6018H44.6338V10.2603H40.2539V18.1777Z" fill="#231F20"/>
        <path d="M50.7481 12.5977C50.7481 11.1154 49.7271 10.2603 47.9461 10.2603H45.6562V18.1777H47.1988V14.9971H47.4002L49.5377 18.1777H51.437L48.9446 14.8421C50.1077 14.6056 50.7481 13.81 50.7481 12.5977ZM47.65 13.9054H47.199V11.5073H47.6744C48.6363 11.5073 49.1591 11.9103 49.1591 12.6808C49.1591 13.4768 48.6363 13.9054 47.65 13.9054Z" fill="#231F20"/>
        <path d="M28.2119 18.4584C30.538 18.4584 32.4237 16.5727 32.4237 14.2465C32.4237 11.9204 30.538 10.0347 28.2119 10.0347C25.8857 10.0347 24 11.9204 24 14.2465C24 16.5727 25.8857 18.4584 28.2119 18.4584Z" fill="url(#paint0_linear)"/>
        <path opacity="0.65" d="M28.2119 18.4584C30.538 18.4584 32.4237 16.5727 32.4237 14.2465C32.4237 11.9204 30.538 10.0347 28.2119 10.0347C25.8857 10.0347 24 11.9204 24 14.2465C24 16.5727 25.8857 18.4584 28.2119 18.4584Z" fill="url(#paint1_linear)"/>
        <path d="M51.7331 10.558C51.7331 10.4191 51.6376 10.3433 51.4696 10.3433H51.2461V11.0392H51.4122V10.7692L51.6069 11.0392H51.8096L51.5808 10.7523C51.6791 10.7259 51.7331 10.6546 51.7331 10.558ZM51.4404 10.6531H51.4124V10.4712H51.4422C51.5242 10.4712 51.5671 10.5007 51.5671 10.5607C51.5671 10.622 51.5238 10.6531 51.4404 10.6531Z" fill="#231F20"/>
        <path d="M51.5046 10.0835C51.1667 10.0835 50.8984 10.353 50.8984 10.6901C50.8984 11.0269 51.1697 11.2969 51.5046 11.2969C51.8337 11.2969 52.1035 11.0239 52.1035 10.6901C52.1035 10.3578 51.8337 10.0835 51.5046 10.0835ZM51.502 11.1885C51.2361 11.1885 51.0186 10.9671 51.0186 10.6909C51.0186 10.4139 51.2333 10.1928 51.502 10.1928C51.7666 10.1928 51.9824 10.419 51.9824 10.6909C51.9824 10.9648 51.7669 11.1885 51.502 11.1885Z" fill="#231F20"/>
    </g>
    <defs>
        <linearGradient id="paint0_linear" x1="30.3678" y1="17.622" x2="27.4515" y2="13.056" gradientUnits="userSpaceOnUse">
            <stop stop-color="#F89F20"/>
            <stop offset="0.2502" stop-color="#F79A20"/>
            <stop offset="0.5331" stop-color="#F68D20"/>
            <stop offset="0.6196" stop-color="#F58720"/>
            <stop offset="0.7232" stop-color="#F48120"/>
            <stop offset="1" stop-color="#F37521"/>
        </linearGradient>
        <linearGradient id="paint1_linear" x1="29.9071" y1="17.5599" x2="25.6449" y2="9.22924" gradientUnits="userSpaceOnUse">
            <stop stop-color="#F58720" stop-opacity="0"/>
            <stop offset="0.3587" stop-color="#E16F27" stop-opacity="0.2704"/>
            <stop offset="0.703" stop-color="#D4602C" stop-opacity="0.5299"/>
            <stop offset="0.9816" stop-color="#D05B2E" stop-opacity="0.74"/>
        </linearGradient>
        <clipPath id="clip0">
            <rect width="53.8133" height="34" fill="white"/>
        </clipPath>
    </defs>
</svg>
