<svg width="54" height="34" viewBox="0 0 54 34" fill="none" xmlns="http://www.w3.org/2000/svg">
    <g clip-path="url(#clip0)">
        <path d="M52.0992 0H1.71414C0.767447 0 0 0.767445 0 1.71414V32.2859C0 33.2326 0.767449 34 1.71414 34H52.0992C53.0459 34 53.8133 33.2326 53.8133 32.2859V1.71414C53.8133 0.767447 53.0459 0 52.0992 0Z" fill="#034693"/>
        <path d="M43.3909 24.5698C43.3909 27.4016 41.095 29.6977 38.263 29.6977H10.4258V9.4301C10.4258 6.59812 12.7217 4.30225 15.5541 4.30225H43.3909V24.5698Z" fill="white"/>
        <path d="M34.3125 19.3769H36.4327C36.4993 19.3769 36.6253 19.3664 36.6855 19.3532C37.0926 19.2651 37.4314 18.9036 37.4314 18.4117C37.4314 17.9193 37.0924 17.5569 36.6855 17.4691C36.6255 17.456 36.4993 17.4453 36.4327 17.4453H34.3125V19.3769Z" fill="url(#paint0_linear)"/>
        <path d="M36.1863 6.01123C34.1634 6.01123 32.5234 7.65123 32.5234 9.67371V13.478H37.7064C37.8266 13.478 37.9735 13.4864 38.065 13.4911C39.2379 13.55 40.1029 14.1525 40.1029 15.1982C40.1029 16.0203 39.5118 16.7225 38.4357 16.8806V16.922C39.6245 17.0044 40.5345 17.6584 40.5345 18.6892C40.5345 19.8041 39.5356 20.521 38.2041 20.521H32.5234V27.9878H37.8958C39.9187 27.9878 41.5585 26.3478 41.5585 24.3251V6.01123H36.1863Z" fill="url(#paint1_linear)"/>
        <path d="M37.1803 15.4636C37.1803 14.9797 36.8413 14.6553 36.4428 14.5878C36.4055 14.5814 36.3041 14.5718 36.2343 14.5718H34.3125V16.3551H36.2343C36.3041 16.3551 36.4057 16.3451 36.4428 16.3388C36.8415 16.2711 37.1803 15.9472 37.1803 15.4636Z" fill="url(#paint2_linear)"/>
        <path d="M15.9209 6.01123C13.8978 6.01123 12.258 7.65124 12.258 9.67371V18.7192C13.2852 19.217 14.3465 19.5412 15.4266 19.5412C16.6929 19.5412 17.3887 18.7683 17.3887 17.7278V13.4785H20.5388V17.728C20.5388 19.3901 19.5185 20.7233 16.0174 20.7233C13.9102 20.7233 12.2578 20.2688 12.2578 20.2688V27.988H17.6304C19.6533 27.988 21.2933 26.348 21.2933 24.3253V6.01123H15.9209Z" fill="url(#paint3_linear)"/>
        <path d="M26.0533 6.01123C24.0304 6.01123 22.3906 7.65123 22.3906 9.67371V14.469C23.3186 13.673 24.9235 13.1755 27.5309 13.2929C28.9266 13.355 30.4068 13.7294 30.4068 13.7294V15.2802C29.6661 14.9048 28.7777 14.5571 27.6331 14.4703C25.6543 14.3207 24.4635 15.2879 24.4635 16.9997C24.4635 18.7111 25.6543 19.6781 27.6331 19.5279C28.7777 19.442 29.6779 19.085 30.4068 18.719V20.269C30.4068 20.269 28.9266 20.6431 27.5309 20.7066C24.9235 20.8238 23.3186 20.3265 22.3906 19.5304V27.9878H27.7627C29.7854 27.9878 31.4254 26.3478 31.4254 24.3251V6.01123H26.0533Z" fill="url(#paint4_linear)"/>
    </g>
    <defs>
        <linearGradient id="paint0_linear" x1="32.5221" y1="18.4111" x2="41.5804" y2="18.4111" gradientUnits="userSpaceOnUse">
            <stop stop-color="#007F49"/>
            <stop offset="0.2883" stop-color="#209248"/>
            <stop offset="0.7632" stop-color="#50AF47"/>
            <stop offset="1" stop-color="#62BA46"/>
        </linearGradient>
        <linearGradient id="paint1_linear" x1="32.5236" y1="16.9997" x2="41.5821" y2="16.9997" gradientUnits="userSpaceOnUse">
            <stop stop-color="#007F49"/>
            <stop offset="0.2883" stop-color="#209248"/>
            <stop offset="0.7632" stop-color="#50AF47"/>
            <stop offset="1" stop-color="#62BA46"/>
        </linearGradient>
        <linearGradient id="paint2_linear" x1="32.5221" y1="15.4634" x2="41.5799" y2="15.4634" gradientUnits="userSpaceOnUse">
            <stop stop-color="#007F49"/>
            <stop offset="0.2883" stop-color="#209248"/>
            <stop offset="0.7632" stop-color="#50AF47"/>
            <stop offset="1" stop-color="#62BA46"/>
        </linearGradient>
        <linearGradient id="paint3_linear" x1="12.2464" y1="16.9997" x2="21.4448" y2="16.9997" gradientUnits="userSpaceOnUse">
            <stop stop-color="#333377"/>
            <stop offset="0.0714" stop-color="#2F397D"/>
            <stop offset="0.6913" stop-color="#0D66AD"/>
            <stop offset="1" stop-color="#0077BF"/>
        </linearGradient>
        <linearGradient id="paint4_linear" x1="22.3364" y1="16.9997" x2="31.27" y2="16.9997" gradientUnits="userSpaceOnUse">
            <stop stop-color="#743237"/>
            <stop offset="0.4006" stop-color="#AA263E"/>
            <stop offset="0.8011" stop-color="#DA1C44"/>
            <stop offset="1" stop-color="#EC1846"/>
        </linearGradient>
        <clipPath id="clip0">
            <rect width="53.8133" height="34" fill="white"/>
        </clipPath>
    </defs>
</svg>
