<svg xmlns="http://www.w3.org/2000/svg" width="54" height="34" viewBox="0 0 54 34" fill="none"><style>.a{fill:#F79E1D;}</style><g clip-path="url(#clip0)"><path d="M52 33.5H1.8C1.1 33.5 0.5 32.9 0.5 32.2V1.8C0.5 1.1 1.1 0.5 1.8 0.5H52C52.7 0.5 53.3 1.1 53.3 1.8V32.2C53.3 32.9 52.7 33.5 52 33.5Z" stroke="#E6E6E6"/><path d="M15.1 31.2V29.2C15.1 28.5 14.7 28 13.9 28 13.5 28 13.1 28.2 12.9 28.6 12.6 28.2 12.3 28 11.8 28 11.5 28 11.2 28.1 10.9 28.5V28.1H10.3V31.2H10.9V29.4C10.9 28.9 11.3 28.6 11.7 28.6 12.1 28.6 12.4 28.9 12.4 29.4V31.2H13V29.4C13 28.9 13.3 28.6 13.8 28.6 14.2 28.6 14.5 28.9 14.5 29.4V31.2H15.1V31.2ZM25.1 28.1H23.9V27.2H23.3V28.1H22.7V28.7H23.3V30.1C23.3 30.8 23.6 31.2 24.4 31.2 24.6 31.2 25 31.2 25.2 31L25 30.5C24.8 30.6 24.6 30.6 24.4 30.6 24.1 30.6 23.9 30.4 23.9 30.1V28.7H25.1V28.1ZM30.7 28C30.3 28 30.1 28.2 29.9 28.5V28.1H29.3V31.2H29.9V29.4C29.9 28.9 30.1 28.6 30.6 28.6 30.7 28.6 30.8 28.6 31 28.7L31.2 28.1C31 28.1 30.9 28 30.7 28ZM22.2 28.4C21.8 28.1 21.4 28 20.9 28 20.1 28 19.7 28.4 19.7 29 19.7 29.5 20 29.8 20.7 29.9L21 29.9C21.4 30 21.6 30.1 21.6 30.3 21.6 30.5 21.3 30.7 20.8 30.7 20.4 30.7 20.1 30.5 19.8 30.4L19.5 30.8C20 31.2 20.5 31.2 20.8 31.2 21.7 31.2 22.2 30.8 22.2 30.3 22.2 29.7 21.8 29.4 21.2 29.3L20.9 29.3C20.6 29.3 20.3 29.2 20.3 29 20.3 28.7 20.6 28.6 20.9 28.6 21.3 28.6 21.7 28.7 21.9 28.9L22.2 28.4ZM31.4 29.6C31.4 30.6 32 31.2 33 31.2 33.5 31.2 33.8 31.1 34.1 30.9L33.8 30.4C33.5 30.6 33.3 30.7 33 30.7 32.5 30.7 32.1 30.3 32.1 29.6 32.1 29 32.5 28.6 33 28.6 33.3 28.6 33.5 28.7 33.8 28.9L34.1 28.4C33.8 28.1 33.5 28 33 28 32 28 31.4 28.7 31.4 29.6ZM27.1 28C26.2 28 25.6 28.7 25.6 29.6 25.6 30.6 26.3 31.2 27.2 31.2 27.6 31.2 28 31.1 28.4 30.8L28.1 30.4C27.8 30.6 27.5 30.7 27.2 30.7 26.8 30.7 26.3 30.4 26.3 29.9H28.5C28.6 29.8 28.6 29.7 28.6 29.6 28.6 28.7 28 28 27.1 28ZM27.1 28.6C27.6 28.6 27.9 28.9 27.9 29.4H26.3C26.3 28.9 26.6 28.6 27.1 28.6ZM18.8 29.6V28.1H18.2V28.5C18 28.2 17.7 28 17.2 28 16.4 28 15.7 28.7 15.7 29.6 15.7 30.6 16.4 31.2 17.2 31.2 17.7 31.2 18 31.1 18.2 30.8V31.2H18.8V29.6ZM16.4 29.6C16.4 29.1 16.7 28.6 17.3 28.6 17.9 28.6 18.3 29 18.3 29.6 18.3 30.2 17.9 30.7 17.3 30.7 16.7 30.7 16.4 30.2 16.4 29.6ZM39.9 28C39.6 28 39.3 28.2 39.1 28.5V28.1H38.5V31.2H39.1V29.4C39.1 28.9 39.4 28.6 39.8 28.6 39.9 28.6 40.1 28.6 40.2 28.7L40.4 28.1C40.3 28.1 40.1 28 39.9 28ZM44.9 30.7C44.9 30.7 44.9 30.7 45 30.7 45 30.8 45.1 30.8 45.1 30.8 45.1 30.8 45.1 30.9 45.1 30.9 45.2 30.9 45.2 31 45.2 31 45.2 31.1 45.2 31.1 45.1 31.1 45.1 31.2 45.1 31.2 45.1 31.2 45.1 31.3 45 31.3 45 31.3 44.9 31.3 44.9 31.3 44.9 31.3 44.8 31.3 44.8 31.3 44.7 31.3 44.7 31.3 44.7 31.3 44.6 31.2 44.6 31.2 44.6 31.2 44.6 31.1 44.6 31.1 44.6 31.1 44.6 31 44.6 31 44.6 30.9 44.6 30.9 44.6 30.9 44.6 30.8 44.6 30.8 44.7 30.8 44.7 30.8 44.7 30.7 44.8 30.7 44.8 30.7 44.9 30.7ZM44.9 31.3C44.9 31.3 44.9 31.3 45 31.2 45 31.2 45 31.2 45 31.2 45 31.2 45.1 31.1 45.1 31.1 45.1 31.1 45.1 31.1 45.1 31 45.1 31 45.1 31 45.1 30.9 45.1 30.9 45 30.9 45 30.9 45 30.8 45 30.8 45 30.8 44.9 30.8 44.9 30.8 44.9 30.8 44.8 30.8 44.8 30.8 44.8 30.8 44.7 30.8 44.7 30.8 44.7 30.9 44.7 30.9 44.7 30.9 44.6 30.9 44.6 31 44.6 31 44.6 31 44.6 31.1 44.6 31.1 44.6 31.1 44.7 31.1 44.7 31.2 44.7 31.2 44.7 31.2 44.7 31.2 44.8 31.2 44.8 31.3 44.8 31.3 44.9 31.3ZM44.9 30.9C44.9 30.9 44.9 30.9 45 30.9 45 30.9 45 30.9 45 31 45 31 45 31 45 31 45 31 44.9 31.1 44.9 31.1L45 31.2H44.9L44.8 31.1H44.8V31.2H44.7V30.9H44.9V30.9ZM44.8 30.9V31H44.9C44.9 31 44.9 31 44.9 31 44.9 31 44.9 31 44.9 31 44.9 31 44.9 31 44.9 30.9 44.9 30.9 44.9 30.9 44.9 30.9H44.8V30.9ZM37.6 29.6V28.1H37V28.5C36.8 28.2 36.4 28 36 28 35.1 28 34.5 28.7 34.5 29.6 34.5 30.6 35.1 31.2 36 31.2 36.4 31.2 36.8 31.1 37 30.8V31.2H37.6V29.6ZM35.1 29.6C35.1 29.1 35.5 28.6 36.1 28.6 36.6 28.6 37 29 37 29.6 37 30.2 36.6 30.7 36.1 30.7 35.5 30.7 35.1 30.2 35.1 29.6ZM43.8 29.6V26.9H43.1V28.5C42.9 28.2 42.6 28 42.2 28 41.3 28 40.6 28.7 40.6 29.6 40.6 30.6 41.3 31.2 42.2 31.2 42.6 31.2 42.9 31.1 43.1 30.8V31.2H43.8V29.6ZM41.3 29.6C41.3 29.1 41.6 28.6 42.2 28.6 42.8 28.6 43.2 29 43.2 29.6 43.2 30.2 42.8 30.7 42.2 30.7 41.6 30.7 41.3 30.2 41.3 29.6Z" fill="#010101"/><path d="M32.5 4.9H21.4V22.9H32.5V4.9Z" fill="#F16122"/><path d="M22.6 13.9C22.6 10.2 24.3 7 27 4.9 25 3.3 22.6 2.4 19.9 2.4 13.5 2.4 8.4 7.6 8.4 13.9 8.4 20.2 13.5 25.4 19.9 25.4 22.6 25.4 25 24.5 27 22.9 24.3 20.8 22.6 17.6 22.6 13.9Z" fill="#E91D25"/><path d="M44.5 21V20.7H44.6V20.6H44.2V20.7H44.4V21H44.5V21ZM45.2 21V20.6H45.1L44.9 20.9 44.8 20.6H44.7V21H44.8V20.7L44.9 21H45L45.1 20.7V21H45.2Z" class="a"/><path d="M45.5 13.9C45.5 20.2 40.4 25.4 34.1 25.4 31.4 25.4 28.9 24.5 27 22.9 29.6 20.8 31.4 17.6 31.4 13.9 31.4 10.2 29.6 7 27 4.9 28.9 3.3 31.4 2.4 34.1 2.4 40.4 2.4 45.5 7.6 45.5 13.9Z" class="a"/></g><defs><clipPath><rect width="53.8" height="34" fill="white"/></clipPath></defs></svg>
