<svg xmlns="http://www.w3.org/2000/svg" width="54" height="34" viewBox="0 0 54 34" fill="none"><g clip-path="url(#clip0)"><path d="M10.5 0H23.9C25.8 0 27 1.5 26.5 3.4L20.3 30.6C19.8 32.5 18 34 16.1 34H2.7C0.8 34-0.3 32.5 0.1 30.6L6.3 3.4C6.8 1.5 8.6 0 10.5 0Z" fill="#E21836"/><path d="M22.8 0H38.2C40.1 0 39.3 1.5 38.8 3.4L32.6 30.6C32.1 32.5 32.3 34 30.4 34H15C13.1 34 11.9 32.5 12.4 30.6L18.6 3.4C19.1 1.5 20.9 0 22.8 0Z" fill="#00447C"/><path d="M37.6 0H51C52.9 0 54.1 1.5 53.6 3.4L47.4 30.6C46.9 32.5 45.1 34 43.2 34H29.8C27.9 34 26.8 32.5 27.2 30.6L33.4 3.4C33.9 1.5 35.7 0 37.6 0Z" fill="#007B84"/><path d="M14 8.7C12.6 8.7 12.2 8.7 12.1 8.7 12.1 8.9 11.1 13.2 11.1 13.2 10.9 14.1 10.8 14.8 10.3 15.2 10 15.4 9.7 15.5 9.3 15.5 8.7 15.5 8.3 15.2 8.3 14.6L8.3 14.4C8.3 14.4 8.4 13.2 8.4 13.2 8.4 13.2 9.4 9.3 9.6 8.7 9.6 8.7 9.6 8.7 9.6 8.7 7.7 8.7 7.4 8.7 7.3 8.7 7.3 8.7 7.3 8.9 7.3 8.9L6.3 13.4 6.2 13.8 6 15C6 15.4 6.1 15.7 6.2 15.9 6.7 16.7 8 16.9 8.7 16.9 9.7 16.9 10.6 16.7 11.2 16.3 12.2 15.7 12.5 14.7 12.7 13.8L12.8 13.4C12.8 13.4 13.8 9.3 14 8.7 14 8.7 14 8.7 14 8.7ZM17.4 12C17.2 12 16.8 12.1 16.4 12.3 16.2 12.3 16.1 12.4 15.9 12.5L16.1 12 16 12C15.2 12.1 15 12.2 14.2 12.3L14.1 12.3C14 13.1 13.9 13.6 13.6 15.1 13.5 15.7 13.3 16.2 13.2 16.8L13.3 16.9C14.1 16.8 14.3 16.8 15 16.8L15 16.8C15.1 16.3 15.1 16.2 15.3 15.3 15.4 14.8 15.6 13.9 15.7 13.5 15.9 13.4 16.1 13.4 16.2 13.4 16.6 13.4 16.6 13.7 16.6 13.8 16.5 14.1 16.4 14.8 16.2 15.5L16.2 15.9C16.1 16.2 16 16.5 15.9 16.8L16 16.9C16.8 16.8 17 16.8 17.7 16.8L17.8 16.8C17.9 16 17.9 15.9 18.1 14.8L18.2 14.3C18.4 13.4 18.5 12.9 18.4 12.5 18.2 12.1 17.8 12 17.4 12ZM21.3 13C20.8 13.1 20.6 13.1 20.3 13.2 20.1 13.2 19.8 13.2 19.4 13.3L19.4 13.3 19.3 13.3C19.3 13.7 19.3 13.9 19.2 14.2 19.2 14.5 19.1 14.9 19 15.4 18.9 15.8 18.8 16 18.8 16.1 18.7 16.3 18.7 16.4 18.6 16.8L18.6 16.8 18.6 16.9C19 16.8 19.2 16.8 19.5 16.8 19.7 16.8 20 16.8 20.4 16.8L20.4 16.8 20.5 16.8C20.5 16.4 20.6 16.3 20.6 16.1 20.6 16 20.7 15.7 20.8 15 20.9 14.7 21 14.4 21.1 14 21.1 13.7 21.2 13.4 21.3 13.1L21.3 13 21.3 13ZM21.3 11.7C20.9 11.4 20.2 11.5 19.8 11.8 19.3 12.1 19.3 12.6 19.7 12.8 20 13 20.7 13 21.1 12.6 21.6 12.3 21.7 11.9 21.3 11.7ZM23.6 16.9C24.3 16.9 25.1 16.7 25.7 16.1 26.2 15.6 26.4 14.8 26.5 14.5 26.7 13.4 26.5 12.9 26.3 12.6 25.9 12.2 25.3 12 24.7 12 24.3 12 23.4 12.1 22.6 12.7 22.1 13.2 21.9 13.9 21.7 14.5 21.6 15.2 21.4 16.3 22.5 16.7 22.8 16.9 23.3 16.9 23.6 16.9ZM23.5 14.6C23.7 13.8 23.9 13.1 24.4 13.1 24.9 13.1 24.9 13.6 24.7 14.4 24.7 14.6 24.5 15.2 24.3 15.5 24.2 15.7 24 15.8 23.8 15.8 23.7 15.8 23.4 15.8 23.4 15.3 23.4 15.1 23.5 14.8 23.5 14.6ZM28.4 16.8L28.5 16.8C28.5 16.3 28.6 16.2 28.7 15.3 28.8 14.8 29 13.9 29.1 13.5 29.3 13.4 29.5 13.4 29.6 13.4 30 13.4 30 13.7 30 13.8 29.9 14.1 29.8 14.8 29.7 15.5L29.6 15.9C29.5 16.2 29.4 16.5 29.3 16.8L29.4 16.9C30.2 16.8 30.4 16.8 31.1 16.8L31.2 16.8C31.3 16 31.3 15.9 31.5 14.8L31.6 14.3C31.8 13.4 32 12.9 31.8 12.5 31.6 12.1 31.2 12 30.9 12 30.6 12 30.2 12.1 29.8 12.3 29.6 12.3 29.5 12.4 29.3 12.5L29.5 12 29.4 12C28.6 12.1 28.4 12.2 27.6 12.3L27.5 12.3C27.4 13.1 27.4 13.6 27 15.1 26.9 15.7 26.8 16.2 26.6 16.8L26.7 16.9C27.5 16.8 27.7 16.8 28.4 16.8ZM34.2 16.9C34.2 16.6 34.5 15.2 34.5 15.2 34.5 15.2 34.8 14.1 34.8 14 34.8 14 34.9 13.9 35 13.9H35.1C36.2 13.9 37.4 13.9 38.4 13.2 39.1 12.7 39.5 11.9 39.7 11.1 39.8 10.8 39.8 10.6 39.8 10.3 39.8 10 39.7 9.6 39.5 9.4 39 8.7 38.1 8.7 36.9 8.7 36.9 8.7 36.4 8.7 36.4 8.7 34.9 8.7 34.3 8.7 34.1 8.6 34.1 8.8 34 8.9 34 8.9 34 8.9 33.5 11.4 33.5 11.4 33.5 11.4 32.2 16.6 32.2 16.8 33.5 16.8 34 16.8 34.2 16.9ZM35.2 12.5C35.2 12.5 35.7 10.1 35.7 10.1L35.7 9.9 35.7 9.8 36 9.9C36 9.9 37.1 10 37.1 10 37.6 10.2 37.8 10.6 37.6 11.2 37.5 11.7 37.2 12.2 36.7 12.4 36.4 12.6 35.9 12.6 35.4 12.6H35.1L35.2 12.5ZM38.6 14.6C38.5 15.2 38.3 16.4 39.4 16.8 39.7 17 40 17 40.3 17 40.6 17 40.9 16.8 41.2 16.6 41.2 16.7 41.1 16.8 41.1 16.9L41.2 16.9C41.9 16.9 42.1 16.9 43 16.9L43 16.8C43.1 16.1 43.3 15.4 43.6 14.1 43.7 13.4 43.9 12.8 44 12.2L44 12.1C43.2 12.2 42.9 12.3 42.1 12.4L42.1 12.4C42.1 12.5 42 12.6 42 12.6 41.9 12.4 41.7 12.3 41.5 12.1 41.1 12 40.2 12.2 39.5 12.9 39 13.3 38.8 14 38.6 14.6ZM40.4 14.7C40.6 13.9 40.8 13.2 41.3 13.2 41.7 13.2 41.8 13.5 41.8 14.1 41.8 14.2 41.7 14.3 41.7 14.5 41.6 14.7 41.6 15 41.5 15.2 41.5 15.4 41.4 15.5 41.3 15.6 41.2 15.8 40.9 15.9 40.7 15.9 40.6 15.9 40.3 15.9 40.3 15.4 40.3 15.2 40.3 14.9 40.4 14.7ZM49.6 12.1L49.6 12C48.7 12.2 48.6 12.2 47.8 12.3L47.7 12.4C47.7 12.4 47.7 12.4 47.7 12.4L47.7 12.4C47.2 13.7 47.2 13.4 46.7 14.5 46.7 14.4 46.7 14.4 46.7 14.3L46.6 12.1 46.5 12C45.7 12.2 45.6 12.2 44.8 12.3L44.8 12.4C44.8 12.4 44.8 12.4 44.8 12.4L44.8 12.5C44.9 13 44.8 12.9 44.9 13.7 45 14.1 45 14.5 45.1 14.9 45.2 15.6 45.2 15.9 45.3 16.9 44.8 17.8 44.6 18.2 44.1 19L44.1 19 43.8 19.5C43.7 19.6 43.7 19.7 43.6 19.7 43.6 19.7 43.5 19.7 43.4 19.7H43.2L42.9 20.7 43.9 20.7C44.5 20.7 44.9 20.5 45.1 20.1L45.8 18.9H45.8L45.8 18.9C46.3 17.9 49.6 12.1 49.6 12.1ZM38.6 25.5H38.2L39.8 20H40.4L40.5 19.5 40.5 20.1C40.5 20.5 40.8 20.8 41.6 20.8H42.5L42.9 19.7H42.5C42.3 19.7 42.2 19.7 42.2 19.5L42.2 18.9H40.5V18.9C40 18.9 38.3 19 38 19.1 37.6 19.2 37.2 19.5 37.2 19.5L37.3 18.9H35.8L35.4 20 33.8 25.6H33.4L33.1 26.6H36.3L36.2 27H37.7L37.8 26.6H38.3L38.6 25.5ZM37.3 21.1C37.1 21.2 36.6 21.4 36.6 21.4L37 20H38.3L38 21C38 21 37.6 21.1 37.3 21.1ZM37.4 23.1C37.4 23.1 37 23.2 36.7 23.2 36.4 23.3 36 23.6 36 23.6L36.4 22.1H37.7L37.4 23.1ZM36.6 25.5H35.4L35.7 24.3H37L36.6 25.5ZM39.7 22.1H41.5L41.2 23H39.4L39.1 23.9H40.7L39.5 25.7C39.4 25.8 39.4 25.8 39.3 25.9 39.2 25.9 39.1 26 38.9 26H38.5L38.2 27H39.4C40 27 40.3 26.7 40.6 26.3L41.4 25.2 41.6 26.4C41.7 26.6 41.8 26.7 41.9 26.8 42 26.8 42.2 26.9 42.3 26.9 42.5 26.9 42.6 26.9 42.7 26.9H43.3L43.6 25.8H43.4C43.3 25.8 43.1 25.8 43 25.7 43 25.7 43 25.6 43 25.5L42.8 24.3H42L42.4 23.9H44.2L44.5 23H42.8L43.1 22.1H44.8L45.1 21.1H40L39.7 22.1ZM24.3 25.7L24.7 24.3H26.5L26.8 23.3H25L25.3 22.4H27L27.3 21.3H23.1L22.8 22.4H23.7L23.5 23.3H22.5L22.2 24.3H23.1L22.6 26.2C22.5 26.5 22.6 26.6 22.7 26.7 22.8 26.8 22.8 26.9 23 26.9 23.2 27 23.3 27 23.4 27H25.4L25.8 25.8 24.9 25.9C24.7 25.9 24.3 25.9 24.3 25.7ZM24.5 18.9L24.1 19.7C24 19.9 23.9 20 23.8 20 23.7 20.1 23.6 20.1 23.4 20.1H23.2L22.9 21.1H23.6C24 21.1 24.3 21 24.4 20.9 24.6 20.9 24.6 20.9 24.7 20.8L25 20.6H27.4L27.7 19.5H25.9L26.2 18.9H24.5ZM28 25.8C28 25.7 28 25.6 28.1 25.4L28.7 23.2H31.1C31.4 23.2 31.7 23.2 31.8 23.2 32 23.2 32.2 23.1 32.4 23 32.6 22.9 32.7 22.7 32.8 22.6 32.9 22.5 33.1 22.2 33.2 21.7L34 18.9 31.6 18.9C31.6 18.9 30.9 19 30.5 19.1 30.2 19.3 29.7 19.7 29.7 19.7L29.9 18.9H28.4L26.4 25.9C26.3 26.2 26.2 26.4 26.2 26.5 26.2 26.6 26.4 26.8 26.5 26.9 26.6 27 26.8 26.9 27 27 27.2 27 27.4 27 27.8 27H28.9L29.3 25.8 28.3 25.9C28.2 25.9 28.1 25.8 28 25.8ZM29.2 21.7H31.6L31.5 22.2C31.4 22.2 31.4 22.2 31.1 22.2H29L29.2 21.7ZM29.7 20.1H32.1L32 20.6C32 20.6 30.8 20.6 30.6 20.7 29.8 20.8 29.3 21.3 29.3 21.3L29.7 20.1ZM31.5 23.9C31.5 23.9 31.5 24 31.4 24 31.4 24 31.3 24.1 31.2 24.1H30.8L30.8 23.5H29.4L29.3 26.4C29.3 26.6 29.4 26.7 29.5 26.8 29.7 26.9 30.1 27 30.8 27H31.7L32 25.9 31.2 25.9 30.9 25.9C30.9 25.9 30.9 25.9 30.8 25.9 30.8 25.8 30.7 25.8 30.8 25.6L30.8 24.9 31.6 24.8C32 24.8 32.2 24.7 32.4 24.5 32.6 24.4 32.6 24.3 32.7 24.1L32.8 23.4H31.7L31.5 23.9Z" fill="#FEFEFE"/></g><defs><clipPath><rect width="53.8" height="34" fill="white"/></clipPath></defs></svg>
