<?xml version="1.0" encoding="UTF-8"?>
<svg xmlns="http://www.w3.org/2000/svg" xmlns:xlink="http://www.w3.org/1999/xlink" width="100pt" height="41pt" viewBox="0 0 100 41" version="1.1">
<g id="surface1">
<path style=" stroke:none;fill-rule:nonzero;fill:rgb(11.372549%,11.372549%,10.588235%);fill-opacity:1;" d="M 37.0625 30.632812 C 36.335938 30.632812 35.839844 30.980469 35.566406 31.675781 C 35.425781 32.039062 35.355469 32.484375 35.355469 33.011719 L 34.503906 33.011719 L 34.503906 33.34375 L 35.355469 33.34375 L 35.355469 36.550781 C 35.355469 36.917969 35.296875 37.160156 35.1875 37.277344 C 35.078125 37.390625 34.847656 37.457031 34.496094 37.472656 L 34.496094 37.613281 L 37.144531 37.613281 L 37.144531 37.472656 C 36.71875 37.445312 36.453125 37.375 36.351562 37.273438 C 36.25 37.167969 36.203125 36.925781 36.203125 36.550781 L 36.203125 33.34375 L 37.4375 33.34375 L 37.4375 33.011719 L 36.203125 33.011719 L 36.203125 31.828125 C 36.203125 31.609375 36.226562 31.4375 36.277344 31.304688 C 36.363281 31.054688 36.535156 30.929688 36.785156 30.929688 C 36.894531 30.929688 36.980469 30.953125 37.042969 31 C 37.105469 31.046875 37.160156 31.109375 37.207031 31.175781 L 37.292969 31.308594 C 37.386719 31.453125 37.46875 31.554688 37.539062 31.613281 C 37.605469 31.671875 37.691406 31.703125 37.785156 31.703125 C 37.898438 31.703125 37.992188 31.660156 38.070312 31.574219 C 38.148438 31.484375 38.191406 31.386719 38.191406 31.277344 C 38.191406 31.082031 38.074219 30.925781 37.84375 30.808594 C 37.613281 30.691406 37.351562 30.632812 37.0625 30.632812 Z M 7.972656 30.644531 C 7.828125 30.644531 7.703125 30.695312 7.605469 30.796875 C 7.503906 30.898438 7.457031 31.023438 7.457031 31.164062 C 7.457031 31.308594 7.503906 31.429688 7.605469 31.53125 C 7.703125 31.632812 7.828125 31.683594 7.972656 31.683594 C 8.113281 31.683594 8.234375 31.632812 8.335938 31.53125 C 8.4375 31.429688 8.488281 31.308594 8.488281 31.164062 C 8.488281 31.019531 8.4375 30.894531 8.335938 30.792969 C 8.234375 30.695312 8.113281 30.644531 7.972656 30.644531 Z M 1.289062 30.847656 L 1.289062 31.039062 C 1.664062 31.066406 1.90625 31.132812 2.015625 31.246094 C 2.125 31.355469 2.179688 31.59375 2.179688 31.957031 L 2.179688 36.386719 C 2.179688 36.824219 2.128906 37.097656 2.03125 37.203125 C 1.933594 37.308594 1.6875 37.378906 1.289062 37.421875 L 1.289062 37.613281 L 4.128906 37.613281 L 4.128906 37.421875 C 3.746094 37.394531 3.496094 37.328125 3.382812 37.222656 C 3.265625 37.117188 3.210938 36.878906 3.210938 36.503906 L 3.210938 34.269531 L 4.683594 34.269531 C 5.113281 34.269531 5.386719 34.332031 5.507812 34.460938 C 5.625 34.589844 5.722656 34.851562 5.800781 35.246094 L 6.039062 35.246094 L 6.039062 32.886719 L 5.800781 32.886719 C 5.726562 33.277344 5.632812 33.539062 5.511719 33.671875 C 5.394531 33.800781 5.117188 33.863281 4.683594 33.863281 L 3.210938 33.863281 L 3.210938 31.582031 C 3.210938 31.445312 3.230469 31.355469 3.269531 31.308594 C 3.304688 31.261719 3.394531 31.238281 3.527344 31.238281 L 4.921875 31.238281 C 5.488281 31.238281 5.867188 31.300781 6.058594 31.425781 C 6.25 31.546875 6.378906 31.84375 6.449219 32.3125 L 6.730469 32.3125 L 6.699219 30.847656 Z M 47.988281 30.847656 L 47.988281 31.039062 C 48.367188 31.066406 48.609375 31.132812 48.71875 31.246094 C 48.828125 31.355469 48.882812 31.59375 48.882812 31.957031 L 48.882812 36.503906 C 48.882812 36.890625 48.828125 37.128906 48.714844 37.222656 C 48.605469 37.316406 48.363281 37.382812 47.988281 37.421875 L 47.988281 37.613281 L 53.480469 37.613281 L 53.941406 35.886719 L 53.65625 35.886719 C 53.394531 36.46875 53.101562 36.835938 52.773438 36.988281 C 52.445312 37.136719 51.9375 37.214844 51.25 37.214844 C 50.613281 37.214844 50.230469 37.195312 50.105469 37.160156 C 49.976562 37.121094 49.914062 37.003906 49.914062 36.800781 L 49.914062 34.269531 L 51.480469 34.269531 C 51.910156 34.269531 52.183594 34.332031 52.304688 34.460938 C 52.421875 34.589844 52.519531 34.851562 52.597656 35.246094 L 52.832031 35.246094 L 52.832031 32.886719 L 52.597656 32.886719 C 52.523438 33.277344 52.425781 33.539062 52.308594 33.671875 C 52.191406 33.800781 51.914062 33.863281 51.480469 33.863281 L 49.914062 33.863281 L 49.914062 31.582031 C 49.914062 31.449219 49.929688 31.359375 49.964844 31.308594 C 50 31.261719 50.09375 31.238281 50.242188 31.238281 L 51.625 31.238281 C 52.21875 31.238281 52.601562 31.304688 52.773438 31.4375 C 52.945312 31.570312 53.074219 31.859375 53.160156 32.3125 L 53.417969 32.3125 L 53.382812 30.847656 Z M 16.378906 32.878906 C 15.824219 32.878906 15.40625 33.007812 15.121094 33.261719 C 14.835938 33.515625 14.691406 33.761719 14.691406 33.992188 C 14.691406 34.113281 14.730469 34.222656 14.8125 34.320312 C 14.890625 34.417969 15.003906 34.46875 15.152344 34.46875 C 15.25 34.46875 15.332031 34.445312 15.402344 34.402344 C 15.523438 34.332031 15.585938 34.199219 15.585938 34.011719 C 15.585938 33.984375 15.578125 33.925781 15.558594 33.832031 C 15.542969 33.734375 15.535156 33.667969 15.535156 33.628906 C 15.535156 33.472656 15.613281 33.351562 15.765625 33.257812 C 15.914062 33.171875 16.074219 33.128906 16.242188 33.128906 C 16.597656 33.128906 16.832031 33.242188 16.941406 33.464844 C 17.007812 33.597656 17.042969 33.832031 17.042969 34.171875 L 17.042969 34.597656 C 16.132812 34.941406 15.527344 35.210938 15.222656 35.410156 C 14.742188 35.734375 14.503906 36.136719 14.503906 36.621094 C 14.503906 36.929688 14.609375 37.183594 14.816406 37.386719 C 15.023438 37.585938 15.269531 37.6875 15.554688 37.6875 C 15.828125 37.6875 16.113281 37.597656 16.414062 37.417969 C 16.589844 37.3125 16.804688 37.148438 17.058594 36.929688 C 17.066406 37.132812 17.121094 37.308594 17.222656 37.453125 C 17.324219 37.601562 17.488281 37.671875 17.710938 37.671875 C 17.902344 37.671875 18.09375 37.609375 18.277344 37.484375 C 18.398438 37.398438 18.515625 37.292969 18.621094 37.164062 L 18.621094 36.902344 C 18.496094 36.992188 18.414062 37.050781 18.363281 37.074219 C 18.3125 37.097656 18.25 37.109375 18.171875 37.109375 C 18.039062 37.109375 17.949219 37.042969 17.90625 36.914062 C 17.878906 36.839844 17.867188 36.707031 17.867188 36.515625 L 17.867188 34.511719 C 17.867188 34.074219 17.804688 33.738281 17.683594 33.507812 C 17.453125 33.089844 17.019531 32.878906 16.378906 32.878906 Z M 69.921875 32.894531 C 69.609375 32.894531 69.304688 32.988281 69.007812 33.175781 C 68.839844 33.28125 68.648438 33.445312 68.429688 33.664062 L 68.429688 32.988281 C 68.429688 32.96875 68.425781 32.953125 68.417969 32.9375 C 68.410156 32.921875 68.398438 32.914062 68.378906 32.914062 C 67.734375 33.140625 67.402344 33.257812 67.382812 33.257812 L 66.914062 33.414062 L 66.914062 33.578125 C 66.972656 33.570312 67.019531 33.5625 67.050781 33.558594 C 67.082031 33.554688 67.113281 33.554688 67.152344 33.554688 C 67.320312 33.554688 67.433594 33.589844 67.496094 33.660156 C 67.558594 33.734375 67.585938 33.894531 67.585938 34.148438 L 67.585938 38.941406 C 67.585938 39.183594 67.546875 39.363281 67.460938 39.476562 C 67.378906 39.589844 67.183594 39.65625 66.875 39.675781 L 66.875 39.839844 L 69.324219 39.839844 L 69.324219 39.664062 C 68.957031 39.636719 68.71875 39.585938 68.609375 39.511719 C 68.5 39.433594 68.445312 39.226562 68.445312 38.890625 L 68.445312 37.253906 C 68.625 37.441406 68.820312 37.570312 69.03125 37.636719 C 69.167969 37.683594 69.324219 37.707031 69.511719 37.707031 C 70.109375 37.707031 70.609375 37.4375 71.003906 36.894531 C 71.398438 36.351562 71.59375 35.75 71.59375 35.085938 C 71.59375 34.40625 71.429688 33.871094 71.101562 33.480469 C 70.773438 33.089844 70.378906 32.894531 69.921875 32.894531 Z M 25.847656 32.90625 C 25.183594 32.90625 24.636719 33.152344 24.203125 33.648438 C 23.773438 34.144531 23.554688 34.738281 23.554688 35.425781 C 23.554688 36.128906 23.753906 36.683594 24.148438 37.09375 C 24.546875 37.503906 25.003906 37.707031 25.519531 37.707031 C 26.042969 37.707031 26.507812 37.484375 26.90625 37.039062 C 27.113281 36.804688 27.3125 36.488281 27.503906 36.089844 L 27.363281 36.003906 C 27.171875 36.285156 27 36.492188 26.847656 36.625 C 26.578125 36.851562 26.273438 36.964844 25.929688 36.964844 C 25.445312 36.964844 25.058594 36.765625 24.773438 36.363281 C 24.484375 35.964844 24.34375 35.511719 24.34375 35.007812 C 24.34375 34.460938 24.472656 34.019531 24.730469 33.6875 C 24.992188 33.355469 25.308594 33.191406 25.6875 33.191406 C 25.867188 33.191406 26.011719 33.222656 26.117188 33.292969 C 26.222656 33.367188 26.300781 33.492188 26.339844 33.667969 L 26.402344 33.910156 C 26.441406 34.0625 26.503906 34.179688 26.59375 34.257812 C 26.679688 34.339844 26.78125 34.378906 26.898438 34.378906 C 27.054688 34.378906 27.171875 34.332031 27.25 34.234375 C 27.324219 34.140625 27.363281 34.039062 27.363281 33.929688 C 27.363281 33.675781 27.214844 33.441406 26.914062 33.226562 C 26.613281 33.011719 26.257812 32.90625 25.847656 32.90625 Z M 43.917969 32.90625 C 43.742188 32.984375 43.574219 33.054688 43.410156 33.121094 C 43.332031 33.148438 43.195312 33.199219 43 33.269531 C 42.800781 33.339844 42.609375 33.40625 42.421875 33.472656 L 42.421875 33.640625 C 42.480469 33.625 42.539062 33.617188 42.59375 33.605469 C 42.644531 33.597656 42.691406 33.59375 42.722656 33.59375 C 42.886719 33.59375 42.996094 33.664062 43.058594 33.804688 C 43.117188 33.949219 43.148438 34.183594 43.148438 34.511719 L 43.148438 36.765625 C 43.148438 37.03125 43.101562 37.203125 43 37.285156 C 42.902344 37.367188 42.699219 37.421875 42.394531 37.449219 L 42.394531 37.613281 L 44.839844 37.613281 L 44.839844 37.449219 C 44.53125 37.457031 44.3125 37.402344 44.179688 37.292969 C 44.046875 37.179688 43.980469 36.980469 43.980469 36.695312 L 43.980469 34.441406 C 43.980469 34.242188 44.066406 34.050781 44.234375 33.859375 C 44.402344 33.671875 44.546875 33.578125 44.660156 33.578125 C 44.734375 33.578125 44.835938 33.636719 44.960938 33.753906 C 45.089844 33.871094 45.214844 33.929688 45.339844 33.929688 C 45.464844 33.929688 45.566406 33.882812 45.644531 33.789062 C 45.726562 33.695312 45.769531 33.582031 45.769531 33.445312 C 45.769531 33.292969 45.714844 33.164062 45.609375 33.0625 C 45.503906 32.960938 45.363281 32.910156 45.195312 32.910156 C 44.984375 32.910156 44.777344 32.992188 44.582031 33.160156 C 44.382812 33.328125 44.179688 33.558594 43.96875 33.851562 L 43.96875 33.035156 C 43.96875 32.980469 43.964844 32.945312 43.960938 32.929688 C 43.957031 32.914062 43.941406 32.90625 43.917969 32.90625 Z M 60.328125 32.90625 C 60.152344 32.984375 59.984375 33.054688 59.820312 33.121094 C 59.742188 33.148438 59.605469 33.199219 59.40625 33.269531 C 59.210938 33.339844 59.019531 33.40625 58.832031 33.472656 L 58.832031 33.640625 C 58.890625 33.625 58.945312 33.617188 59 33.605469 C 59.054688 33.597656 59.097656 33.59375 59.132812 33.59375 C 59.292969 33.59375 59.40625 33.664062 59.46875 33.804688 C 59.527344 33.949219 59.558594 34.183594 59.558594 34.511719 L 59.558594 36.765625 C 59.558594 37.03125 59.507812 37.203125 59.410156 37.285156 C 59.3125 37.367188 59.109375 37.421875 58.804688 37.449219 L 58.804688 37.613281 L 61.25 37.613281 L 61.25 37.449219 C 60.941406 37.457031 60.722656 37.402344 60.589844 37.292969 C 60.457031 37.179688 60.390625 36.980469 60.390625 36.695312 L 60.390625 34.441406 C 60.390625 34.242188 60.476562 34.050781 60.644531 33.859375 C 60.8125 33.671875 60.957031 33.578125 61.070312 33.578125 C 61.144531 33.578125 61.242188 33.636719 61.371094 33.753906 C 61.5 33.871094 61.625 33.929688 61.75 33.929688 C 61.871094 33.929688 61.976562 33.882812 62.054688 33.789062 C 62.136719 33.695312 62.179688 33.582031 62.179688 33.445312 C 62.179688 33.292969 62.125 33.164062 62.019531 33.0625 C 61.910156 32.960938 61.773438 32.910156 61.605469 32.910156 C 61.394531 32.910156 61.1875 32.992188 60.992188 33.160156 C 60.792969 33.328125 60.589844 33.558594 60.378906 33.851562 L 60.378906 33.035156 C 60.378906 32.980469 60.375 32.945312 60.371094 32.929688 C 60.363281 32.914062 60.351562 32.90625 60.328125 32.90625 Z M 12.402344 32.910156 C 12.125 32.910156 11.859375 32.992188 11.601562 33.15625 C 11.429688 33.261719 11.191406 33.457031 10.886719 33.742188 L 10.886719 33.011719 C 10.886719 32.980469 10.886719 32.957031 10.882812 32.941406 C 10.875 32.921875 10.863281 32.914062 10.839844 32.914062 L 10.371094 33.070312 C 9.867188 33.238281 9.546875 33.339844 9.410156 33.378906 L 9.410156 33.554688 C 9.457031 33.546875 9.496094 33.542969 9.527344 33.539062 C 9.558594 33.535156 9.589844 33.535156 9.621094 33.535156 C 9.8125 33.535156 9.941406 33.597656 10.003906 33.722656 C 10.046875 33.808594 10.066406 33.957031 10.066406 34.167969 L 10.066406 36.703125 C 10.066406 37.011719 10.019531 37.207031 9.921875 37.296875 C 9.828125 37.382812 9.664062 37.445312 9.429688 37.472656 L 9.429688 37.613281 L 11.597656 37.613281 L 11.597656 37.472656 C 11.371094 37.464844 11.203125 37.421875 11.097656 37.339844 C 10.992188 37.257812 10.9375 37.097656 10.9375 36.859375 L 10.9375 34.0625 C 11.113281 33.886719 11.261719 33.761719 11.371094 33.683594 C 11.574219 33.550781 11.769531 33.484375 11.964844 33.484375 C 12.246094 33.484375 12.441406 33.578125 12.546875 33.765625 C 12.652344 33.953125 12.703125 34.191406 12.703125 34.476562 L 12.703125 36.609375 C 12.703125 36.949219 12.65625 37.171875 12.558594 37.273438 C 12.464844 37.375 12.296875 37.441406 12.054688 37.472656 L 12.054688 37.613281 L 14.171875 37.613281 L 14.171875 37.472656 C 13.949219 37.46875 13.789062 37.414062 13.695312 37.308594 C 13.597656 37.203125 13.550781 37.03125 13.550781 36.789062 L 13.550781 34.457031 C 13.550781 33.808594 13.371094 33.359375 13.015625 33.105469 C 12.832031 32.976562 12.628906 32.910156 12.402344 32.910156 Z M 21.601562 32.910156 C 21.324219 32.910156 21.058594 32.992188 20.800781 33.15625 C 20.628906 33.261719 20.390625 33.457031 20.089844 33.742188 L 20.089844 33.011719 C 20.089844 32.980469 20.085938 32.957031 20.082031 32.941406 C 20.074219 32.921875 20.0625 32.914062 20.039062 32.914062 L 19.574219 33.070312 C 19.066406 33.238281 18.746094 33.339844 18.609375 33.378906 L 18.609375 33.554688 C 18.65625 33.546875 18.695312 33.542969 18.726562 33.539062 C 18.757812 33.535156 18.789062 33.535156 18.820312 33.535156 C 19.011719 33.535156 19.144531 33.597656 19.207031 33.722656 C 19.246094 33.808594 19.265625 33.957031 19.265625 34.167969 L 19.265625 36.703125 C 19.265625 37.011719 19.21875 37.207031 19.125 37.296875 C 19.03125 37.382812 18.863281 37.445312 18.628906 37.472656 L 18.628906 37.613281 L 20.796875 37.613281 L 20.796875 37.472656 C 20.570312 37.464844 20.402344 37.421875 20.296875 37.339844 C 20.191406 37.257812 20.136719 37.097656 20.136719 36.859375 L 20.136719 34.0625 C 20.316406 33.886719 20.460938 33.761719 20.570312 33.683594 C 20.773438 33.550781 20.96875 33.484375 21.164062 33.484375 C 21.445312 33.484375 21.640625 33.578125 21.746094 33.765625 C 21.851562 33.953125 21.902344 34.191406 21.902344 34.476562 L 21.902344 36.609375 C 21.902344 36.949219 21.855469 37.171875 21.757812 37.273438 C 21.664062 37.375 21.496094 37.441406 21.253906 37.472656 L 21.253906 37.613281 L 23.371094 37.613281 L 23.371094 37.472656 C 23.148438 37.46875 22.988281 37.414062 22.894531 37.308594 C 22.800781 37.203125 22.75 37.03125 22.75 36.789062 L 22.75 34.457031 C 22.75 33.808594 22.574219 33.359375 22.214844 33.105469 C 22.03125 32.976562 21.828125 32.910156 21.601562 32.910156 Z M 8.464844 32.914062 C 8.4375 32.914062 8.378906 32.933594 8.285156 32.976562 C 8.054688 33.070312 7.652344 33.214844 7.074219 33.402344 L 6.859375 33.472656 L 6.859375 33.628906 C 7.027344 33.582031 7.128906 33.554688 7.160156 33.550781 C 7.195312 33.542969 7.230469 33.539062 7.269531 33.539062 C 7.425781 33.539062 7.53125 33.609375 7.582031 33.742188 C 7.609375 33.828125 7.625 33.976562 7.625 34.191406 L 7.625 36.574219 C 7.625 36.964844 7.578125 37.203125 7.488281 37.292969 C 7.394531 37.378906 7.171875 37.441406 6.816406 37.472656 L 6.816406 37.613281 L 9.226562 37.613281 L 9.226562 37.472656 C 8.90625 37.445312 8.699219 37.386719 8.609375 37.289062 C 8.519531 37.191406 8.472656 36.953125 8.472656 36.574219 L 8.472656 32.992188 C 8.472656 32.964844 8.46875 32.9375 8.464844 32.914062 Z M 29.960938 32.929688 C 29.332031 32.929688 28.816406 33.171875 28.425781 33.660156 C 28.03125 34.144531 27.835938 34.722656 27.835938 35.390625 C 27.835938 36.007812 28.003906 36.550781 28.34375 37.023438 C 28.683594 37.496094 29.160156 37.734375 29.785156 37.734375 C 30.320312 37.734375 30.777344 37.554688 31.148438 37.191406 C 31.519531 36.832031 31.773438 36.441406 31.910156 36.019531 L 31.738281 35.957031 C 31.535156 36.292969 31.316406 36.554688 31.078125 36.734375 C 30.839844 36.917969 30.546875 37.007812 30.199219 37.007812 C 29.769531 37.007812 29.398438 36.832031 29.085938 36.480469 C 28.769531 36.128906 28.597656 35.566406 28.5625 34.796875 L 31.710938 34.796875 C 31.710938 34.203125 31.539062 33.742188 31.1875 33.417969 C 30.835938 33.09375 30.429688 32.929688 29.960938 32.929688 Z M 39.976562 32.929688 C 39.316406 32.929688 38.777344 33.160156 38.359375 33.617188 C 37.941406 34.074219 37.734375 34.632812 37.734375 35.296875 C 37.734375 36.003906 37.953125 36.59375 38.394531 37.0625 C 38.832031 37.53125 39.371094 37.769531 40.003906 37.769531 C 40.664062 37.769531 41.203125 37.523438 41.621094 37.035156 C 42.039062 36.542969 42.246094 35.96875 42.246094 35.308594 C 42.246094 34.585938 42.03125 34.011719 41.601562 33.578125 C 41.171875 33.148438 40.628906 32.929688 39.976562 32.929688 Z M 64.4375 32.929688 C 63.78125 32.929688 63.242188 33.160156 62.824219 33.617188 C 62.40625 34.074219 62.195312 34.632812 62.195312 35.296875 C 62.195312 36.003906 62.417969 36.59375 62.855469 37.0625 C 63.296875 37.53125 63.832031 37.769531 64.46875 37.769531 C 65.128906 37.769531 65.667969 37.523438 66.085938 37.035156 C 66.5 36.542969 66.710938 35.96875 66.710938 35.308594 C 66.710938 34.585938 66.496094 34.011719 66.066406 33.578125 C 65.636719 33.148438 65.09375 32.929688 64.4375 32.929688 Z M 74.023438 32.929688 C 73.394531 32.929688 72.882812 33.171875 72.488281 33.660156 C 72.09375 34.144531 71.898438 34.722656 71.898438 35.390625 C 71.898438 36.007812 72.066406 36.550781 72.40625 37.023438 C 72.746094 37.496094 73.222656 37.734375 73.847656 37.734375 C 74.386719 37.734375 74.839844 37.554688 75.210938 37.191406 C 75.585938 36.832031 75.839844 36.441406 75.972656 36.019531 L 75.800781 35.957031 C 75.597656 36.292969 75.378906 36.554688 75.140625 36.734375 C 74.902344 36.917969 74.609375 37.007812 74.261719 37.007812 C 73.832031 37.007812 73.460938 36.832031 73.148438 36.480469 C 72.832031 36.128906 72.660156 35.566406 72.625 34.796875 L 75.777344 34.796875 C 75.777344 34.203125 75.601562 33.742188 75.25 33.417969 C 74.898438 33.09375 74.492188 32.929688 74.023438 32.929688 Z M 53.976562 32.992188 L 53.976562 33.128906 C 54.214844 33.152344 54.367188 33.191406 54.441406 33.25 C 54.554688 33.335938 54.609375 33.515625 54.609375 33.777344 L 54.609375 36.371094 C 54.609375 36.851562 54.738281 37.195312 54.996094 37.398438 C 55.25 37.605469 55.523438 37.707031 55.808594 37.707031 C 56.125 37.707031 56.421875 37.609375 56.703125 37.410156 C 56.886719 37.277344 57.09375 37.078125 57.316406 36.808594 L 57.316406 37.613281 C 57.316406 37.632812 57.320312 37.652344 57.324219 37.664062 C 57.324219 37.679688 57.335938 37.6875 57.351562 37.6875 C 57.644531 37.574219 57.832031 37.503906 57.917969 37.472656 C 58.121094 37.40625 58.265625 37.359375 58.347656 37.335938 C 58.433594 37.3125 58.570312 37.273438 58.75 37.222656 L 58.75 37.082031 C 58.488281 37.09375 58.316406 37.054688 58.238281 36.972656 C 58.15625 36.886719 58.117188 36.730469 58.117188 36.503906 L 58.117188 32.992188 L 56.511719 32.992188 L 56.511719 33.15625 C 56.8125 33.171875 57.011719 33.21875 57.109375 33.300781 C 57.207031 33.378906 57.257812 33.546875 57.257812 33.804688 L 57.257812 36.539062 C 57.132812 36.6875 57.007812 36.800781 56.886719 36.882812 C 56.671875 37.035156 56.453125 37.109375 56.226562 37.109375 C 55.898438 37.109375 55.675781 36.984375 55.550781 36.730469 C 55.488281 36.59375 55.457031 36.410156 55.457031 36.183594 L 55.457031 32.992188 Z M 39.832031 33.230469 C 40.316406 33.230469 40.6875 33.484375 40.941406 33.992188 C 41.195312 34.503906 41.324219 35.046875 41.324219 35.621094 C 41.324219 36.175781 41.222656 36.625 41.023438 36.96875 C 40.824219 37.3125 40.539062 37.484375 40.167969 37.484375 C 39.691406 37.484375 39.324219 37.226562 39.054688 36.714844 C 38.789062 36.203125 38.65625 35.648438 38.65625 35.058594 C 38.65625 34.316406 38.820312 33.792969 39.152344 33.488281 C 39.34375 33.316406 39.570312 33.230469 39.832031 33.230469 Z M 64.296875 33.230469 C 64.78125 33.230469 65.148438 33.484375 65.40625 33.992188 C 65.660156 34.503906 65.789062 35.046875 65.789062 35.621094 C 65.789062 36.175781 65.6875 36.625 65.488281 36.96875 C 65.285156 37.3125 65 37.484375 64.628906 37.484375 C 64.15625 37.484375 63.785156 37.226562 63.519531 36.714844 C 63.253906 36.203125 63.117188 35.648438 63.117188 35.058594 C 63.117188 34.316406 63.285156 33.792969 63.617188 33.488281 C 63.808594 33.316406 64.035156 33.230469 64.296875 33.230469 Z M 29.675781 33.292969 C 30.054688 33.292969 30.324219 33.441406 30.488281 33.734375 C 30.578125 33.898438 30.640625 34.144531 30.675781 34.476562 L 28.582031 34.476562 C 28.628906 34.203125 28.707031 33.980469 28.8125 33.800781 C 29.011719 33.464844 29.296875 33.292969 29.675781 33.292969 Z M 73.738281 33.292969 C 74.117188 33.292969 74.386719 33.441406 74.550781 33.734375 C 74.640625 33.898438 74.703125 34.144531 74.738281 34.476562 L 72.644531 34.476562 C 72.691406 34.203125 72.769531 33.980469 72.875 33.800781 C 73.074219 33.464844 73.359375 33.292969 73.738281 33.292969 Z M 69.417969 33.507812 C 69.765625 33.507812 70.070312 33.660156 70.332031 33.960938 C 70.59375 34.265625 70.726562 34.722656 70.726562 35.335938 C 70.726562 35.972656 70.601562 36.46875 70.347656 36.828125 C 70.09375 37.183594 69.789062 37.363281 69.433594 37.363281 C 69.199219 37.363281 69 37.308594 68.832031 37.195312 C 68.660156 37.085938 68.53125 36.917969 68.445312 36.691406 L 68.445312 34.183594 C 68.445312 34.035156 68.546875 33.886719 68.75 33.734375 C 68.949219 33.585938 69.171875 33.507812 69.417969 33.507812 Z M 17.042969 34.847656 L 17.042969 36.429688 C 17.042969 36.621094 16.941406 36.777344 16.742188 36.898438 C 16.542969 37.023438 16.335938 37.082031 16.117188 37.082031 C 15.957031 37.082031 15.8125 37.039062 15.683594 36.945312 C 15.484375 36.800781 15.386719 36.578125 15.386719 36.273438 C 15.386719 35.898438 15.625 35.5625 16.101562 35.265625 C 16.347656 35.113281 16.660156 34.972656 17.042969 34.847656 Z M 17.042969 34.847656 "/>
<path style=" stroke:none;fill-rule:nonzero;fill:rgb(46.666667%,60%,5.882353%);fill-opacity:1;" d="M 83.851562 30.519531 L 78.417969 30.519531 L 93.394531 1.207031 L 98.828125 1.207031 L 83.851562 30.519531 "/>
<path style=" stroke:none;fill-rule:nonzero;fill:rgb(11.372549%,11.372549%,10.588235%);fill-opacity:1;" d="M 63.910156 15.914062 C 63.984375 14.4375 64.933594 11.855469 68.230469 11.855469 C 70.757812 11.855469 71.894531 13.257812 72.367188 15.914062 Z M 13.773438 20.113281 C 13.773438 21.257812 13.625 24.503906 9.5625 24.503906 C 7.875 24.503906 6.375 24.027344 6.375 22.074219 C 6.375 20.152344 7.839844 19.601562 9.453125 19.269531 C 11.0625 18.972656 12.894531 18.933594 13.773438 18.164062 Z M 68.378906 7.910156 C 63.558594 7.910156 60.023438 10.96875 59.007812 15.324219 L 59.007812 14.730469 C 59.007812 9.792969 56.113281 7.910156 52.082031 7.910156 C 49.445312 7.910156 47.464844 9.421875 46.367188 11.082031 C 45.339844 8.796875 43.21875 7.910156 40.839844 7.910156 C 38.382812 7.910156 36.40625 9.050781 35.050781 11.007812 L 34.976562 11.007812 L 34.976562 8.425781 L 26.8125 8.425781 L 26.8125 7.285156 C 26.8125 5.699219 27.398438 5.105469 28.789062 5.105469 C 29.449219 5.105469 30.070312 5.144531 30.691406 5.21875 L 30.691406 1.308594 C 29.8125 1.273438 28.863281 1.160156 27.945312 1.160156 C 23.695312 1.160156 21.609375 3.59375 21.609375 6.953125 L 21.609375 8.425781 L 18.496094 8.425781 L 18.496094 11.070312 C 17.234375 8.464844 13.699219 7.910156 10.660156 7.910156 C 6.410156 7.910156 2.050781 9.386719 1.761719 14.289062 L 6.960938 14.289062 C 7.144531 12.222656 8.425781 11.414062 10.40625 11.414062 C 12.234375 11.414062 13.773438 11.746094 13.773438 13.996094 C 13.773438 16.132812 10.804688 16.023438 7.621094 16.503906 C 4.398438 16.945312 1.171875 17.980469 1.171875 22.292969 C 1.171875 26.203125 4.03125 28.007812 7.621094 28.007812 C 9.925781 28.007812 12.34375 27.382812 13.992188 25.648438 C 14.03125 26.273438 14.175781 26.902344 14.359375 27.492188 L 19.632812 27.492188 C 19.15625 26.71875 18.972656 24.980469 18.972656 23.25 L 18.972656 13.332031 C 18.972656 12.816406 18.914062 12.351562 18.804688 11.929688 L 21.609375 11.929688 L 21.609375 27.492188 L 26.8125 27.492188 L 26.8125 11.929688 L 30.070312 11.929688 L 30.070312 27.492188 L 35.269531 27.492188 L 35.269531 16.429688 C 35.269531 12.707031 37.761719 12.042969 38.785156 12.042969 C 42.082031 12.042969 41.933594 14.585938 41.933594 16.796875 L 41.933594 27.492188 L 47.136719 27.492188 L 47.136719 16.871094 C 47.136719 14.472656 47.6875 12.042969 50.621094 12.042969 C 53.585938 12.042969 53.804688 14.144531 53.804688 16.6875 L 53.804688 27.492188 L 59.007812 27.492188 L 59.007812 20.753906 C 59.996094 25.132812 63.394531 28.007812 68.378906 28.007812 C 72.664062 28.007812 75.777344 26.089844 77.242188 21.59375 L 72.664062 21.59375 C 72.332031 22.769531 70.648438 24.0625 68.558594 24.0625 C 65.667969 24.0625 64.058594 22.550781 63.910156 19.234375 L 77.570312 19.234375 C 77.9375 13.367188 74.824219 7.910156 68.378906 7.910156 "/>
</g>
</svg>
