<?xml version="1.0" encoding="UTF-8"?>
<svg xmlns="http://www.w3.org/2000/svg" xmlns:xlink="http://www.w3.org/1999/xlink" width="224pt" height="40pt" viewBox="0 0 224 40" version="1.1">
<g id="surface1">
<path style=" stroke:none;fill-rule:nonzero;fill:rgb(93.333333%,18.039216%,14.117647%);fill-opacity:1;" d="M 205.210938 9.519531 C 205.210938 9.519531 206.5625 0.0703125 214.628906 0.015625 L 224.003906 0.015625 C 224.003906 0.015625 222.152344 9.519531 214.464844 9.519531 Z M 205.210938 9.519531 "/>
<path style=" stroke:none;fill-rule:nonzero;fill:rgb(93.333333%,18.039216%,14.117647%);fill-opacity:1;" d="M 195.359375 20.765625 C 195.359375 20.765625 196.714844 11.3125 204.777344 11.261719 L 214.152344 11.261719 C 214.152344 11.261719 212.300781 20.765625 204.613281 20.765625 Z M 195.359375 20.765625 "/>
<path style=" stroke:none;fill-rule:nonzero;fill:rgb(93.333333%,18.039216%,14.117647%);fill-opacity:1;" d="M 15.703125 35.171875 C 16.308594 35.171875 17.097656 35.730469 17.097656 36.523438 C 17.097656 38.582031 13.976562 39.5625 10.667969 39.5625 C 3.683594 39.566406 0 33.113281 0 26.847656 C 0 20.582031 4.054688 14.128906 11.089844 14.128906 C 14.257812 14.128906 17.242188 15.347656 17.242188 16.746094 C 17.242188 17.820312 16.683594 18.617188 15.378906 18.617188 C 14.492188 18.617188 13.699219 17.214844 10.671875 17.214844 C 5.921875 17.214844 3.632812 22.59375 3.632812 26.5625 C 3.632812 31.800781 6.292969 36.476562 10.671875 36.476562 C 13.695312 36.480469 14.769531 35.171875 15.703125 35.171875 "/>
<path style=" stroke:none;fill-rule:nonzero;fill:rgb(93.333333%,18.039216%,14.117647%);fill-opacity:1;" d="M 25.761719 37.414062 C 25.761719 38.8125 25.15625 39.5625 24.082031 39.5625 C 23.015625 39.5625 22.40625 38.8125 22.40625 37.414062 L 22.40625 16.28125 C 22.40625 14.882812 23.015625 14.132812 24.082031 14.132812 C 25.15625 14.132812 25.761719 14.882812 25.761719 16.28125 L 25.761719 18.621094 L 25.859375 18.621094 C 27.066406 15.863281 29.214844 14.132812 31.308594 14.132812 C 32.890625 14.132812 33.546875 15.023438 33.546875 15.953125 C 33.546875 16.890625 32.890625 17.402344 31.257812 17.78125 C 29.398438 18.199219 25.761719 19.789062 25.761719 25.304688 Z M 25.761719 37.414062 "/>
<path style=" stroke:none;fill-rule:nonzero;fill:rgb(93.333333%,18.039216%,14.117647%);fill-opacity:1;" d="M 53.902344 25.539062 C 53.761719 21.375 51.433594 16.933594 46.914062 16.933594 C 42.394531 16.933594 40.0625 21.375 39.925781 25.539062 Z M 39.929688 28.34375 C 40.066406 32.695312 43.003906 36.761719 47.289062 36.761719 C 52.597656 36.761719 54 32.925781 55.582031 32.925781 C 56.515625 32.925781 57.164062 33.253906 57.164062 34.5625 C 57.164062 36.058594 53.300781 39.566406 47.519531 39.566406 C 39.601562 39.566406 36.289062 33.117188 36.289062 26.847656 C 36.289062 20.582031 39.972656 14.128906 46.960938 14.128906 C 53.949219 14.128906 57.535156 20.019531 57.535156 26.289062 C 57.535156 27.175781 57.257812 28.34375 55.25 28.34375 Z M 39.929688 28.34375 "/>
<path style=" stroke:none;fill-rule:nonzero;fill:rgb(93.333333%,18.039216%,14.117647%);fill-opacity:1;" d="M 72.023438 36.761719 C 77.238281 36.761719 79.011719 31.382812 79.011719 26.847656 C 79.011719 22.3125 77.238281 16.933594 72.023438 16.933594 C 66.945312 16.933594 64.984375 22.3125 64.984375 26.847656 C 64.988281 31.382812 66.804688 36.761719 72.023438 36.761719 M 79.011719 5.339844 C 79.011719 3.941406 79.617188 3.191406 80.6875 3.191406 C 81.757812 3.191406 82.367188 3.941406 82.367188 5.339844 L 82.367188 37.417969 C 82.367188 38.820312 81.757812 39.566406 80.6875 39.566406 C 79.617188 39.566406 79.011719 38.820312 79.011719 37.417969 L 79.011719 35.875 L 78.871094 35.875 C 77.378906 38.304688 74.910156 39.570312 72.023438 39.570312 C 64.894531 39.570312 61.355469 33.867188 61.355469 26.855469 C 61.355469 20.589844 64.753906 14.136719 71.929688 14.136719 C 74.816406 14.136719 76.960938 15.355469 78.871094 17.828125 L 79.011719 17.828125 Z M 79.011719 5.339844 "/>
<path style=" stroke:none;fill-rule:nonzero;fill:rgb(93.333333%,18.039216%,14.117647%);fill-opacity:1;" d="M 91.921875 37.414062 C 91.921875 38.8125 91.3125 39.5625 90.242188 39.5625 C 89.167969 39.5625 88.566406 38.8125 88.566406 37.414062 L 88.566406 16.277344 C 88.566406 14.878906 89.171875 14.128906 90.242188 14.128906 C 91.3125 14.128906 91.921875 14.878906 91.921875 16.277344 Z M 90.246094 5.714844 C 91.5 5.714844 92.527344 6.742188 92.527344 8.003906 C 92.527344 9.265625 91.5 10.292969 90.246094 10.292969 C 88.988281 10.292969 87.960938 9.265625 87.960938 8.003906 C 87.960938 6.742188 88.988281 5.714844 90.246094 5.714844 "/>
<path style=" stroke:none;fill-rule:nonzero;fill:rgb(93.333333%,18.039216%,14.117647%);fill-opacity:1;" d="M 102.730469 37.414062 C 102.730469 38.8125 102.125 39.5625 101.050781 39.5625 C 99.980469 39.5625 99.375 38.8125 99.375 37.414062 L 99.375 17.214844 L 97.1875 17.214844 C 96.066406 17.214844 95.742188 16.375 95.742188 15.808594 C 95.742188 15.25 96.066406 14.410156 97.1875 14.410156 L 99.375 14.410156 L 99.375 8.941406 C 99.375 7.492188 99.980469 6.742188 101.050781 6.742188 C 102.125 6.742188 102.730469 7.492188 102.730469 8.941406 L 102.730469 14.414062 L 104.921875 14.414062 C 106.039062 14.414062 106.363281 15.253906 106.363281 15.8125 C 106.363281 16.378906 106.039062 17.21875 104.921875 17.21875 L 102.730469 17.21875 Z M 102.730469 37.414062 "/>
<path style=" stroke:none;fill-rule:nonzero;fill:rgb(93.333333%,18.039216%,14.117647%);fill-opacity:1;" d="M 118.878906 24.414062 C 116.136719 23.347656 113.769531 22.433594 113.769531 20.820312 C 113.769531 18.8125 115.878906 18.105469 117.6875 18.105469 C 119.882812 18.105469 120.96875 18.925781 121.921875 19.648438 C 122.589844 20.152344 123.214844 20.628906 124.070312 20.628906 C 125.644531 20.628906 126.347656 19.578125 126.347656 18.527344 C 126.347656 15.589844 121.21875 13.714844 117.6875 13.714844 C 113.398438 13.714844 108.839844 16.324219 108.839844 21.148438 C 108.839844 25.191406 112.953125 26.902344 116.578125 28.421875 C 119.402344 29.597656 122.066406 30.710938 122.066406 32.648438 C 122.066406 34.101562 120.425781 35.597656 117.683594 35.597656 C 115.082031 35.597656 113.546875 34.523438 112.308594 33.65625 C 111.46875 33.070312 110.742188 32.5625 109.902344 32.5625 C 108.730469 32.5625 107.808594 33.566406 107.808594 34.847656 C 107.808594 37.226562 112.0625 39.988281 117.542969 39.988281 C 122.25 39.988281 126.996094 37.484375 126.996094 31.898438 C 127 27.5625 122.683594 25.886719 118.878906 24.414062 "/>
<path style=" stroke:none;fill-rule:nonzero;fill:rgb(93.333333%,18.039216%,14.117647%);fill-opacity:1;" d="M 142.039062 35.59375 C 137.324219 35.59375 135.652344 30.882812 135.652344 26.847656 C 135.652344 22.8125 137.324219 18.101562 142.039062 18.101562 C 146.757812 18.101562 148.429688 22.816406 148.429688 26.847656 C 148.429688 30.882812 146.757812 35.59375 142.039062 35.59375 M 150.800781 13.710938 C 149.644531 13.710938 148.476562 14.550781 148.476562 16.144531 L 148.476562 16.574219 C 146.507812 14.644531 144.5 13.714844 142.046875 13.714844 C 134.613281 13.714844 130.726562 20.328125 130.726562 26.855469 C 130.726562 33.382812 134.613281 39.992188 142.046875 39.992188 C 144.570312 39.992188 146.757812 38.871094 148.476562 36.839844 L 148.476562 37.5625 C 148.476562 39.15625 149.644531 39.992188 150.800781 39.992188 C 151.929688 39.992188 153.128906 39.140625 153.128906 37.5625 L 153.128906 16.136719 C 153.128906 14.566406 151.925781 13.710938 150.800781 13.710938 "/>
<path style=" stroke:none;fill-rule:nonzero;fill:rgb(93.333333%,18.039216%,14.117647%);fill-opacity:1;" d="M 167.519531 13.992188 L 165.375 13.992188 L 165.375 8.378906 C 165.375 7.480469 165.707031 7.160156 166.632812 7.160156 L 167.660156 7.160156 C 169.964844 7.160156 170.3125 5.785156 170.3125 4.964844 C 170.3125 3.613281 168.882812 2.769531 167.566406 2.769531 L 166.308594 2.769531 C 162.746094 2.769531 160.445312 5.046875 160.445312 8.5625 L 160.445312 13.992188 L 159.183594 13.992188 C 157.636719 13.992188 156.71875 14.8125 156.71875 16.1875 C 156.71875 17.558594 157.640625 18.378906 159.183594 18.378906 L 160.445312 18.378906 L 160.445312 37.363281 C 160.445312 38.953125 161.410156 39.984375 162.910156 39.984375 C 164.40625 39.984375 165.375 38.953125 165.375 37.363281 L 165.375 18.378906 L 167.519531 18.378906 C 169.0625 18.378906 169.984375 17.558594 169.984375 16.1875 C 169.984375 14.8125 169.0625 13.992188 167.519531 13.992188 "/>
<path style=" stroke:none;fill-rule:nonzero;fill:rgb(93.333333%,18.039216%,14.117647%);fill-opacity:1;" d="M 182.128906 18.101562 C 186.023438 18.101562 188.078125 21.476562 188.238281 24.933594 L 175.558594 24.933594 C 175.710938 22.84375 176.644531 17.898438 182.128906 18.101562 M 190.808594 32.230469 C 190.136719 32.230469 189.558594 32.679688 188.828125 33.253906 C 187.566406 34.242188 185.839844 35.597656 182.421875 35.597656 C 178.441406 35.597656 175.78125 32.890625 175.59375 28.859375 L 190.527344 28.859375 C 192.394531 28.859375 193.226562 28.054688 193.226562 26.242188 C 193.226562 20.171875 189.339844 13.714844 182.140625 13.714844 C 174.558594 13.714844 170.589844 20.328125 170.589844 26.851562 C 170.589844 32.910156 173.671875 39.988281 182.371094 39.988281 C 187.503906 39.988281 192.710938 36.78125 192.710938 34.476562 C 192.714844 33.011719 191.734375 32.230469 190.808594 32.230469 "/>
</g>
</svg>
