<svg width="172" height="70" viewBox="0 0 172 70" fill="none" xmlns="http://www.w3.org/2000/svg">
<g clip-path="url(#clip0)">
<path d="M79.3858 32.9008C79.1388 32.9008 78.9412 32.7032 78.9412 32.4562V26.7752C78.9412 26.5282 79.1388 26.3306 79.3858 26.3306H82.1028C82.251 26.3306 82.3992 26.4788 82.3992 26.627C82.3992 26.8246 82.251 26.9234 82.1028 26.9234H79.5834V29.1464H81.9546C82.1028 29.1464 82.251 29.2946 82.251 29.4428C82.251 29.6404 82.1028 29.7392 81.9546 29.7392H79.5834V32.2092H82.1522C82.3498 32.2092 82.4486 32.3574 82.4486 32.5056C82.4486 32.7032 82.3004 32.802 82.1522 32.802H79.3858V32.9008Z" fill="#1A1A1A"/>
<path d="M86.4502 28.4054C86.4502 28.2572 86.5984 28.109 86.7466 28.109C86.9442 28.109 87.043 28.2572 87.043 28.4054V32.308C87.043 32.5056 86.9442 32.6538 86.7466 32.7032C86.302 32.8514 85.808 32.9502 85.314 32.9502C84.2766 32.9502 83.585 32.2586 83.585 31.2212V28.356C83.585 28.2078 83.7332 28.0596 83.8814 28.0596C84.079 28.0596 84.1778 28.2078 84.1778 28.356V31.2706C84.1778 31.9622 84.573 32.3574 85.2646 32.3574C85.6104 32.3574 86.0056 32.308 86.3514 32.2092V28.4054H86.4502Z" fill="#1A1A1A"/>
<path d="M88.6238 29.3933C88.6238 28.6029 89.1672 28.1089 89.8588 28.1089C90.1058 28.1089 90.3034 28.1583 90.5504 28.2077C90.6986 28.2571 90.7974 28.3559 90.7974 28.5041C90.7974 28.6523 90.6492 28.8005 90.501 28.8005C90.4516 28.8005 90.4022 28.8005 90.3528 28.7511C90.2046 28.7017 90.0564 28.7017 89.9082 28.7017C89.5624 28.7017 89.3154 28.9487 89.3154 29.3439V32.6537C89.3154 32.8513 89.1672 32.9501 89.019 32.9501C88.8214 32.9501 88.7226 32.8019 88.7226 32.6537V29.3933H88.6238Z" fill="#1A1A1A"/>
<path d="M95.1447 31.1718C95.1447 32.2586 94.4037 32.9996 93.3663 32.9996C92.2795 32.9996 91.5879 32.2586 91.5879 31.1718V29.8874C91.5879 28.8006 92.3289 28.0596 93.3663 28.0596C94.4531 28.0596 95.1447 28.8006 95.1447 29.8874V31.1718ZM94.5025 29.838C94.5025 29.097 94.0579 28.6524 93.3169 28.6524C92.5759 28.6524 92.1313 29.097 92.1313 29.838V31.2212C92.1313 31.9622 92.5759 32.4068 93.3169 32.4068C94.0579 32.4068 94.5025 31.9622 94.5025 31.2212V29.838Z" fill="#1A1A1A"/>
<path d="M96.4783 28.7511C96.4783 28.5535 96.5771 28.4053 96.7747 28.3559C97.2193 28.2077 97.7133 28.1089 98.2073 28.1089C99.2447 28.1089 99.9363 28.8005 99.9363 29.8379V31.2705C99.9363 32.3079 99.2447 32.9995 98.2073 32.9995C97.8121 32.9995 97.4663 32.9007 97.1205 32.7031V34.6791C97.1205 34.8767 96.9723 34.9755 96.8241 34.9755C96.6265 34.9755 96.5277 34.8273 96.5277 34.6791V28.7511H96.4783ZM99.2941 29.7885C99.2941 29.0969 98.8989 28.7017 98.2073 28.7017C97.8121 28.7017 97.4663 28.7511 97.1205 28.8499V32.0115C97.4169 32.3079 97.8121 32.4067 98.2073 32.4067C98.8495 32.4067 99.2941 32.0115 99.2941 31.3199V29.7885Z" fill="#1A1A1A"/>
<path d="M101.764 30.7271V31.2705C101.764 31.9621 102.159 32.4067 102.851 32.4067C103.246 32.4067 103.592 32.3079 103.938 32.1597C103.987 32.1597 104.036 32.1103 104.086 32.1103C104.283 32.1103 104.382 32.2585 104.382 32.4067C104.382 32.5055 104.333 32.6537 104.185 32.7031C103.74 32.9007 103.295 32.9995 102.851 32.9995C101.813 32.9995 101.122 32.3079 101.122 31.2705V29.8379C101.122 28.8005 101.813 28.1089 102.851 28.1089C103.888 28.1089 104.58 28.8005 104.58 29.8379V30.3319C104.58 30.5789 104.382 30.7765 104.135 30.7765H101.764V30.7271ZM103.938 29.7885C103.938 29.0969 103.542 28.7017 102.851 28.7017C102.159 28.7017 101.764 29.0969 101.764 29.7885V30.1343H103.938V29.7885Z" fill="#1A1A1A"/>
<path d="M109.076 32.3574C109.076 32.555 108.977 32.7032 108.779 32.7526C108.335 32.9008 107.841 32.9996 107.396 32.9996C106.803 32.9996 106.359 32.8514 106.112 32.6044C105.815 32.3574 105.716 32.0116 105.716 31.567C105.716 31.1224 105.865 30.7766 106.112 30.5296C106.408 30.2826 106.853 30.1344 107.396 30.1344H108.483V29.5416C108.483 28.9982 108.088 28.7018 107.495 28.7018C107.1 28.7018 106.754 28.8006 106.408 28.9982C106.359 29.0476 106.309 29.0476 106.26 29.0476C106.112 29.0476 105.963 28.9488 105.963 28.7512C105.963 28.6524 106.013 28.5536 106.112 28.4548C106.556 28.1584 107.05 28.0596 107.495 28.0596C108.384 28.0596 109.125 28.5042 109.125 29.4922V32.3574H109.076ZM108.433 30.7272H107.347C106.408 30.7272 106.26 31.1718 106.26 31.567C106.26 31.9622 106.359 32.4068 107.347 32.4068C107.692 32.4068 108.088 32.3574 108.433 32.2586V30.7272Z" fill="#1A1A1A"/>
<path d="M113.373 29.7885C113.373 29.0969 112.978 28.7017 112.287 28.7017C111.891 28.7017 111.546 28.7511 111.2 28.8499V32.6537C111.2 32.8513 111.052 32.9501 110.903 32.9501C110.706 32.9501 110.607 32.8019 110.607 32.6537V28.7511C110.607 28.5535 110.706 28.4053 110.903 28.3559C111.348 28.2077 111.842 28.1089 112.336 28.1089C113.373 28.1089 114.065 28.8005 114.065 29.8379V32.7031C114.065 32.9007 113.917 32.9995 113.769 32.9995C113.571 32.9995 113.472 32.8513 113.472 32.7031V29.7885H113.373Z" fill="#1A1A1A"/>
<path d="M118.906 29.4919C118.215 29.1461 117.77 28.7509 117.77 27.8617C117.77 26.8242 118.659 26.2314 119.746 26.2314C120.388 26.2314 120.833 26.3796 121.277 26.5278C121.426 26.5772 121.475 26.676 121.475 26.8242C121.475 26.9724 121.327 27.1206 121.179 27.1206C121.129 27.1206 121.08 27.1206 121.03 27.0712C120.635 26.923 120.24 26.7748 119.746 26.7748C119.153 26.7748 118.462 27.0218 118.462 27.8123C118.462 28.2569 118.709 28.6027 119.203 28.8497L120.24 29.3437C120.932 29.6895 121.623 30.1341 121.623 31.1221C121.623 32.3077 120.685 32.9005 119.598 32.9005C119.054 32.9005 118.511 32.7523 118.017 32.5547C117.918 32.5053 117.819 32.4065 117.819 32.2583C117.819 32.1101 117.968 31.9619 118.116 31.9619C118.165 31.9619 118.215 31.9619 118.264 32.0113C118.709 32.2089 119.104 32.3077 119.598 32.3077C120.487 32.3077 120.932 31.8631 120.932 31.1221C120.932 30.5293 120.438 30.1341 119.944 29.8871L118.906 29.4919Z" fill="#1A1A1A"/>
<path d="M123.204 30.7271V31.2705C123.204 31.9621 123.599 32.4067 124.291 32.4067C124.686 32.4067 125.032 32.3079 125.378 32.1597C125.427 32.1597 125.476 32.1103 125.526 32.1103C125.723 32.1103 125.822 32.2585 125.822 32.4067C125.822 32.5055 125.773 32.6537 125.625 32.7031C125.18 32.9007 124.735 32.9995 124.291 32.9995C123.253 32.9995 122.562 32.3079 122.562 31.2705V29.8379C122.562 28.8005 123.253 28.1089 124.291 28.1089C125.328 28.1089 126.02 28.8005 126.02 29.8379V30.3319C126.02 30.5789 125.822 30.7765 125.575 30.7765H123.204V30.7271ZM125.378 29.7885C125.378 29.0969 124.982 28.7017 124.291 28.7017C123.599 28.7017 123.204 29.0969 123.204 29.7885V30.1343H125.378V29.7885Z" fill="#1A1A1A"/>
<path d="M127.205 29.8379C127.205 28.8005 127.897 28.1089 128.934 28.1089C129.379 28.1089 129.774 28.2077 130.169 28.4053C130.268 28.4547 130.367 28.5535 130.367 28.7017C130.367 28.8499 130.219 28.9981 130.071 28.9981C130.021 28.9981 129.972 28.9981 129.922 28.9487C129.626 28.8005 129.28 28.7017 128.984 28.7017C128.292 28.7017 127.897 29.0969 127.897 29.7885V31.3199C127.897 32.0115 128.292 32.4067 128.984 32.4067C129.33 32.4067 129.626 32.3079 129.922 32.1597C129.972 32.1597 130.021 32.1103 130.071 32.1103C130.219 32.1103 130.367 32.2585 130.367 32.4067C130.367 32.5055 130.318 32.6537 130.169 32.7031C129.774 32.9007 129.379 32.9995 128.934 32.9995C127.897 32.9995 127.205 32.3079 127.205 31.2705V29.8379Z" fill="#1A1A1A"/>
<path d="M134.22 28.4054C134.22 28.2572 134.368 28.109 134.517 28.109C134.714 28.109 134.813 28.2572 134.813 28.4054V32.308C134.813 32.5056 134.714 32.6538 134.517 32.7032C134.072 32.8514 133.578 32.9502 133.084 32.9502C132.047 32.9502 131.355 32.2586 131.355 31.2212V28.356C131.355 28.2078 131.503 28.0596 131.651 28.0596C131.8 28.0596 131.948 28.2078 131.948 28.356V31.2706C131.948 31.9622 132.343 32.3574 133.035 32.3574C133.38 32.3574 133.776 32.308 134.121 32.2092V28.4054H134.22Z" fill="#1A1A1A"/>
<path d="M136.394 29.3933C136.394 28.6029 136.937 28.1089 137.629 28.1089C137.876 28.1089 138.073 28.1583 138.32 28.2077C138.469 28.2571 138.567 28.3559 138.567 28.5041C138.567 28.6523 138.419 28.8005 138.271 28.8005C138.222 28.8005 138.172 28.8005 138.123 28.7511C137.975 28.7017 137.826 28.7017 137.678 28.7017C137.332 28.7017 137.085 28.9487 137.085 29.3439V32.6537C137.085 32.8513 136.937 32.9501 136.789 32.9501C136.641 32.9501 136.493 32.8019 136.493 32.6537V29.3933H136.394Z" fill="#1A1A1A"/>
<path d="M139.605 26.6267C139.605 26.3797 139.802 26.1821 140.049 26.1821C140.296 26.1821 140.494 26.3797 140.494 26.6267C140.494 26.8737 140.296 27.0713 140.049 27.0713C139.802 27.0713 139.605 26.8737 139.605 26.6267ZM139.704 28.4051C139.704 28.2569 139.852 28.1087 140 28.1087C140.198 28.1087 140.296 28.2569 140.296 28.4051V32.6535C140.296 32.8511 140.148 32.9499 140 32.9499C139.802 32.9499 139.704 32.8017 139.704 32.6535V28.4051Z" fill="#1A1A1A"/>
<path d="M141.976 26.5278C141.976 26.3302 142.124 26.2314 142.272 26.2314C142.421 26.2314 142.569 26.3796 142.569 26.5278V28.1581H143.656C143.804 28.1581 143.952 28.3063 143.952 28.4545C143.952 28.6521 143.804 28.7509 143.656 28.7509H142.569V31.6655C142.569 32.0607 142.816 32.3077 143.162 32.3077C143.31 32.3077 143.557 32.2583 143.656 32.2583C143.804 32.2583 143.952 32.3571 143.952 32.5547C143.952 32.7029 143.853 32.8511 143.705 32.8511C143.507 32.9005 143.359 32.9005 143.162 32.9005C142.47 32.9005 141.927 32.3571 141.927 31.6161V26.5278H141.976Z" fill="#1A1A1A"/>
<path d="M145.187 26.6267C145.187 26.3797 145.385 26.1821 145.632 26.1821C145.879 26.1821 146.076 26.3797 146.076 26.6267C146.076 26.8737 145.879 27.0713 145.632 27.0713C145.385 27.0713 145.187 26.8737 145.187 26.6267ZM145.286 28.4051C145.286 28.2569 145.434 28.1087 145.582 28.1087C145.73 28.1087 145.879 28.2569 145.879 28.4051V32.6535C145.879 32.8511 145.73 32.9499 145.582 32.9499C145.434 32.9499 145.286 32.8017 145.286 32.6535V28.4051Z" fill="#1A1A1A"/>
<path d="M148.052 30.7271V31.2705C148.052 31.9621 148.447 32.4067 149.139 32.4067C149.534 32.4067 149.88 32.3079 150.226 32.1597C150.275 32.1597 150.325 32.1103 150.374 32.1103C150.572 32.1103 150.67 32.2585 150.67 32.4067C150.67 32.5055 150.621 32.6537 150.473 32.7031C150.028 32.9007 149.584 32.9995 149.139 32.9995C148.102 32.9995 147.41 32.3079 147.41 31.2705V29.8379C147.41 28.8005 148.102 28.1089 149.139 28.1089C150.176 28.1089 150.868 28.8005 150.868 29.8379V30.3319C150.868 30.5789 150.67 30.7765 150.423 30.7765H148.052V30.7271ZM150.176 29.7885C150.176 29.0969 149.781 28.7017 149.09 28.7017C148.398 28.7017 148.003 29.0969 148.003 29.7885V30.1343H150.127V29.7885H150.176Z" fill="#1A1A1A"/>
<path d="M152.745 30.5789C152.3 30.3813 151.905 30.0355 151.905 29.3933C151.905 28.6029 152.597 28.1089 153.437 28.1089C153.881 28.1089 154.276 28.2077 154.573 28.3559C154.672 28.4053 154.77 28.5041 154.77 28.6523C154.77 28.8005 154.622 28.9487 154.474 28.9487C154.425 28.9487 154.375 28.9487 154.375 28.8993C154.079 28.7511 153.733 28.7017 153.387 28.7017C153.041 28.7017 152.597 28.8993 152.597 29.3439C152.597 29.7391 152.844 29.8873 153.041 29.9861L153.931 30.3319C154.474 30.5789 154.869 31.0235 154.869 31.5669C154.869 32.3573 154.227 32.9501 153.387 32.9501C152.893 32.9501 152.498 32.8513 152.152 32.6537C152.053 32.6043 151.955 32.5055 151.955 32.3573C151.955 32.2091 152.103 32.0609 152.251 32.0609C152.3 32.0609 152.35 32.0609 152.399 32.1103C152.696 32.2585 153.041 32.3573 153.387 32.3573C153.832 32.3573 154.227 32.1103 154.227 31.6657C154.227 31.2705 154.029 31.0729 153.634 30.8753L152.745 30.5789Z" fill="#1A1A1A"/>
<path d="M161.934 32.3574C161.934 32.555 161.835 32.7032 161.637 32.7526C161.193 32.9008 160.699 32.9996 160.254 32.9996C159.661 32.9996 159.217 32.8514 158.97 32.6044C158.673 32.3574 158.574 32.0116 158.574 31.567C158.574 31.1224 158.723 30.7766 158.97 30.5296C159.266 30.2826 159.711 30.1344 160.254 30.1344H161.341V29.5416C161.341 28.9982 160.946 28.7018 160.353 28.7018C159.958 28.7018 159.612 28.8006 159.266 28.9982C159.217 29.0476 159.167 29.0476 159.118 29.0476C158.97 29.0476 158.821 28.9488 158.821 28.7512C158.821 28.6524 158.871 28.5536 158.97 28.4548C159.414 28.1584 159.908 28.0596 160.353 28.0596C161.242 28.0596 161.983 28.5042 161.983 29.4922V32.3574H161.934ZM161.291 30.7272H160.205C159.266 30.7272 159.118 31.1718 159.118 31.567C159.118 31.9622 159.217 32.4068 160.205 32.4068C160.55 32.4068 160.946 32.3574 161.291 32.2586V30.7272Z" fill="#1A1A1A"/>
<path d="M166.232 29.7885C166.232 29.0969 165.836 28.7017 165.145 28.7017C164.749 28.7017 164.404 28.7511 164.058 28.8499V32.6537C164.058 32.8513 163.91 32.9501 163.761 32.9501C163.564 32.9501 163.465 32.8019 163.465 32.6537V28.7511C163.465 28.5535 163.564 28.4053 163.761 28.3559C164.206 28.2077 164.7 28.1089 165.194 28.1089C166.232 28.1089 166.923 28.8005 166.923 29.8379V32.7031C166.923 32.9007 166.775 32.9995 166.627 32.9995C166.479 32.9995 166.33 32.8513 166.33 32.7031V29.7885H166.232Z" fill="#1A1A1A"/>
<path d="M168.158 31.2702V29.8376C168.158 28.8002 168.8 28.1086 169.887 28.1086C170.282 28.1086 170.628 28.2074 170.974 28.405V26.5772C170.974 26.3796 171.122 26.2808 171.27 26.2808C171.468 26.2808 171.567 26.429 171.567 26.5772V32.357C171.567 32.5546 171.468 32.7028 171.27 32.7522C170.826 32.9004 170.332 32.9992 169.838 32.9992C168.85 32.9992 168.158 32.3076 168.158 31.2702ZM168.8 31.3196C168.8 32.0112 169.195 32.4064 169.887 32.4064C170.282 32.4064 170.628 32.357 170.974 32.2582V29.0966C170.677 28.8002 170.282 28.7014 169.887 28.7014C169.245 28.7014 168.8 29.0966 168.8 29.7882V31.3196Z" fill="#1A1A1A"/>
<path d="M83.6837 38.0381L81.9547 41.3479C81.9053 41.4961 81.7571 41.5455 81.6089 41.5455C81.4607 41.5455 81.3125 41.4467 81.2631 41.3479L79.5341 38.0381V43.0275C79.5341 43.2251 79.3859 43.3733 79.1883 43.3733C78.9907 43.3733 78.8425 43.2251 78.8425 43.0275V37.0007C78.8425 36.8031 78.9907 36.6055 79.2377 36.6055C79.3859 36.6055 79.5341 36.7043 79.5835 36.8525L81.5595 40.7057L83.5355 36.8525C83.6343 36.7043 83.7331 36.6055 83.8813 36.6055C84.0789 36.6055 84.2765 36.7537 84.2765 37.0007V43.0769C84.2765 43.2745 84.1283 43.4227 83.9307 43.4227C83.7825 43.4227 83.5849 43.2745 83.5849 43.0769V38.0381H83.6837Z" fill="#1A1A1A"/>
<path d="M89.1178 42.7314C89.1178 42.929 89.019 43.0772 88.8214 43.1266C88.3768 43.2748 87.8828 43.3736 87.4382 43.3736C86.8453 43.3736 86.4007 43.2254 86.1537 42.9784C85.8573 42.7314 85.7585 42.3856 85.7585 41.941C85.7585 41.4964 85.9067 41.1506 86.1537 40.9036C86.4501 40.6566 86.8947 40.5084 87.4382 40.5084H88.525V39.9156C88.525 39.3722 88.1298 39.0758 87.5369 39.0758C87.1417 39.0758 86.7959 39.1746 86.4501 39.3722C86.4007 39.4216 86.3513 39.4216 86.3019 39.4216C86.1537 39.4216 86.0055 39.3228 86.0055 39.1252C86.0055 39.0264 86.0549 38.9276 86.1537 38.8288C86.5983 38.5324 87.0923 38.4336 87.5369 38.4336C88.4262 38.4336 89.1672 38.8782 89.1672 39.8662V42.7314H89.1178ZM88.4756 41.1012H87.3887C86.4501 41.1012 86.3019 41.5458 86.3019 41.941C86.3019 42.3362 86.4007 42.7808 87.3887 42.7808C87.7345 42.7808 88.1298 42.7314 88.4756 42.6326V41.1012Z" fill="#1A1A1A"/>
<path d="M90.5999 39.7673C90.5999 38.9769 91.1433 38.4829 91.8349 38.4829C92.0819 38.4829 92.2795 38.5323 92.5265 38.5817C92.6747 38.6311 92.7735 38.7299 92.7735 38.8781C92.7735 39.0263 92.6253 39.1745 92.4771 39.1745C92.4277 39.1745 92.3783 39.1745 92.3289 39.1251C92.1807 39.0757 92.0325 39.0757 91.8843 39.0757C91.5385 39.0757 91.2915 39.3227 91.2915 39.7179V43.0277C91.2915 43.2253 91.1433 43.3241 90.9951 43.3241C90.7975 43.3241 90.6987 43.1759 90.6987 43.0277V39.7673H90.5999Z" fill="#1A1A1A"/>
<path d="M94.4529 41.0021V43.0275C94.4529 43.2251 94.3047 43.3239 94.1565 43.3239C93.9589 43.3239 93.8601 43.1757 93.8601 43.0275V36.9019C93.8601 36.7043 94.0083 36.6055 94.1565 36.6055C94.3541 36.6055 94.4529 36.7537 94.4529 36.9019V40.3105L96.4289 38.5321C96.4783 38.4827 96.5771 38.4333 96.6265 38.4333C96.7747 38.4333 96.9229 38.5815 96.9229 38.7297C96.9229 38.8285 96.8735 38.9273 96.8241 38.9767L94.9469 40.6069L96.9229 42.7805C96.9723 42.8299 97.0217 42.9287 97.0217 42.9781C97.0217 43.1757 96.8735 43.2745 96.7253 43.2745C96.6265 43.2745 96.5277 43.2251 96.4783 43.1757L94.4529 41.0021Z" fill="#1A1A1A"/>
<path d="M98.5531 41.1011V41.6445C98.5531 42.3361 98.9483 42.7807 99.6399 42.7807C100.035 42.7807 100.381 42.6819 100.727 42.5337C100.776 42.5337 100.825 42.4843 100.875 42.4843C101.072 42.4843 101.171 42.6325 101.171 42.7807C101.171 42.8795 101.122 43.0277 100.974 43.0771C100.529 43.2747 100.084 43.3735 99.6399 43.3735C98.6025 43.3735 97.9109 42.6819 97.9109 41.6445V40.2119C97.9109 39.1745 98.6025 38.4829 99.6399 38.4829C100.677 38.4829 101.369 39.1745 101.369 40.2119V40.7059C101.369 40.9529 101.171 41.1505 100.924 41.1505H98.5531V41.1011ZM100.677 40.1625C100.677 39.4709 100.282 39.0757 99.5905 39.0757C98.8989 39.0757 98.5037 39.4709 98.5037 40.1625V40.5083H100.677V40.1625Z" fill="#1A1A1A"/>
<path d="M102.703 36.9019C102.703 36.7043 102.851 36.6055 102.999 36.6055C103.197 36.6055 103.296 36.7537 103.296 36.9019V38.5321H104.382C104.531 38.5321 104.679 38.6803 104.679 38.8285C104.679 39.0261 104.531 39.1249 104.382 39.1249H103.296V42.0395C103.296 42.4347 103.543 42.6817 103.888 42.6817C104.037 42.6817 104.284 42.6323 104.382 42.6323C104.531 42.6323 104.679 42.7311 104.679 42.9287C104.679 43.0769 104.58 43.2251 104.432 43.2251C104.234 43.2745 104.086 43.2745 103.888 43.2745C103.197 43.2745 102.653 42.7311 102.653 41.9901V36.9019H102.703Z" fill="#1A1A1A"/>
<path d="M106.309 40.9529C105.864 40.7553 105.469 40.4095 105.469 39.7673C105.469 38.9769 106.161 38.4829 107.001 38.4829C107.445 38.4829 107.84 38.5817 108.137 38.7299C108.236 38.7793 108.334 38.8781 108.334 39.0263C108.334 39.1745 108.186 39.3227 108.038 39.3227C107.989 39.3227 107.939 39.3227 107.939 39.2733C107.643 39.1251 107.297 39.0757 106.951 39.0757C106.605 39.0757 106.161 39.2733 106.161 39.7179C106.161 40.1131 106.408 40.2613 106.655 40.3601L107.544 40.7059C108.087 40.9529 108.483 41.3975 108.483 41.9409C108.483 42.7313 107.84 43.3241 107.001 43.3241C106.507 43.3241 106.111 43.2253 105.766 43.0277C105.667 42.9783 105.568 42.8795 105.568 42.7313C105.568 42.5831 105.716 42.4349 105.864 42.4349C105.914 42.4349 105.963 42.4349 106.013 42.4843C106.309 42.6325 106.655 42.7313 107.001 42.7313C107.445 42.7313 107.84 42.4843 107.84 42.0397C107.84 41.6445 107.643 41.4469 107.248 41.2493L106.309 40.9529Z" fill="#1A1A1A"/>
<path d="M115.497 41.4467H112.978L112.385 43.1263C112.336 43.2745 112.237 43.3239 112.089 43.3239C111.94 43.3239 111.792 43.1757 111.792 43.0275C111.792 42.9781 111.792 42.9781 111.792 42.9287L113.867 36.8525C113.916 36.7043 114.065 36.6055 114.213 36.6055C114.361 36.6055 114.509 36.7043 114.559 36.8525L116.633 42.9287C116.633 42.9781 116.633 42.9781 116.633 43.0275C116.633 43.1757 116.485 43.3239 116.337 43.3239C116.189 43.3239 116.09 43.2251 116.041 43.1263L115.497 41.4467ZM114.213 37.6923L113.175 40.8045H115.25L114.213 37.6923Z" fill="#1A1A1A"/>
<path d="M120.437 38.7794C120.437 38.6312 120.586 38.483 120.734 38.483C120.931 38.483 121.03 38.6312 121.03 38.7794V42.682C121.03 42.8796 120.931 43.0278 120.734 43.0772C120.289 43.2254 119.795 43.3242 119.301 43.3242C118.264 43.3242 117.572 42.6326 117.572 41.5952V38.73C117.572 38.5818 117.72 38.4336 117.869 38.4336C118.017 38.4336 118.165 38.5818 118.165 38.73V41.6446C118.165 42.3362 118.56 42.7314 119.252 42.7314C119.598 42.7314 119.993 42.682 120.339 42.5832V38.7794H120.437Z" fill="#1A1A1A"/>
<path d="M122.611 36.9019C122.611 36.7043 122.759 36.6055 122.908 36.6055C123.105 36.6055 123.204 36.7537 123.204 36.9019V38.5321H124.291C124.439 38.5321 124.587 38.6803 124.587 38.8285C124.587 39.0261 124.439 39.1249 124.291 39.1249H123.204V42.0395C123.204 42.4347 123.451 42.6817 123.797 42.6817C123.945 42.6817 124.192 42.6323 124.291 42.6323C124.439 42.6323 124.587 42.7311 124.587 42.9287C124.587 43.0769 124.488 43.2251 124.34 43.2251C124.143 43.2745 123.994 43.2745 123.797 43.2745C123.105 43.2745 122.562 42.7311 122.562 41.9901V36.9019H122.611Z" fill="#1A1A1A"/>
<path d="M128.638 40.1623C128.638 39.4707 128.243 39.0755 127.551 39.0755C127.156 39.0755 126.761 39.2237 126.464 39.5201V43.0769C126.464 43.2745 126.316 43.3733 126.168 43.3733C125.97 43.3733 125.871 43.2251 125.871 43.0769V36.9019C125.871 36.7043 126.02 36.6055 126.168 36.6055C126.365 36.6055 126.464 36.7537 126.464 36.9019V38.7297C126.81 38.5321 127.156 38.4333 127.551 38.4333C128.588 38.4333 129.28 39.1249 129.28 40.1623V43.0275C129.28 43.2251 129.132 43.3239 128.984 43.3239C128.835 43.3239 128.687 43.1757 128.687 43.0275V40.1623H128.638Z" fill="#1A1A1A"/>
<path d="M134.171 41.5458C134.171 42.6326 133.43 43.3736 132.392 43.3736C131.306 43.3736 130.614 42.6326 130.614 41.5458V40.2614C130.614 39.1746 131.355 38.4336 132.392 38.4336C133.479 38.4336 134.171 39.1746 134.171 40.2614V41.5458ZM133.529 40.212C133.529 39.471 133.084 39.0264 132.343 39.0264C131.602 39.0264 131.157 39.471 131.157 40.212V41.5952C131.157 42.3362 131.602 42.7808 132.343 42.7808C133.084 42.7808 133.529 42.3362 133.529 41.5952V40.212Z" fill="#1A1A1A"/>
<path d="M135.554 39.7673C135.554 38.9769 136.097 38.4829 136.789 38.4829C137.036 38.4829 137.234 38.5323 137.481 38.5817C137.629 38.6311 137.728 38.7299 137.728 38.8781C137.728 39.0263 137.579 39.1745 137.431 39.1745C137.382 39.1745 137.332 39.1745 137.283 39.1251C137.135 39.0757 136.987 39.0757 136.838 39.0757C136.493 39.0757 136.246 39.3227 136.246 39.7179V43.0277C136.246 43.2253 136.097 43.3241 135.949 43.3241C135.752 43.3241 135.653 43.1759 135.653 43.0277V39.7673H135.554Z" fill="#1A1A1A"/>
<path d="M138.715 37.0008C138.715 36.7538 138.913 36.5562 139.16 36.5562C139.407 36.5562 139.605 36.7538 139.605 37.0008C139.605 37.2478 139.407 37.4454 139.16 37.4454C138.913 37.4454 138.715 37.2478 138.715 37.0008ZM138.814 38.7792C138.814 38.631 138.962 38.4828 139.111 38.4828C139.308 38.4828 139.407 38.631 139.407 38.7792V43.0276C139.407 43.2252 139.259 43.324 139.111 43.324C138.913 43.324 138.814 43.1758 138.814 43.0276V38.7792Z" fill="#1A1A1A"/>
<path d="M141.136 36.9019C141.136 36.7043 141.284 36.6055 141.432 36.6055C141.63 36.6055 141.729 36.7537 141.729 36.9019V38.5321H142.816C142.964 38.5321 143.112 38.6803 143.112 38.8285C143.112 39.0261 142.964 39.1249 142.816 39.1249H141.778V42.0395C141.778 42.4347 142.025 42.6817 142.371 42.6817C142.519 42.6817 142.766 42.6323 142.865 42.6323C143.013 42.6323 143.161 42.7311 143.161 42.9287C143.161 43.0769 143.063 43.2251 142.914 43.2251C142.717 43.2745 142.569 43.2745 142.371 43.2745C141.679 43.2745 141.136 42.7311 141.136 41.9901V36.9019Z" fill="#1A1A1A"/>
<path d="M145.434 43.2747L143.853 38.9275C143.853 38.8781 143.853 38.8781 143.853 38.8287C143.853 38.6805 143.952 38.5323 144.149 38.5323C144.298 38.5323 144.396 38.6311 144.446 38.7299L145.73 42.3855L146.817 38.7299C146.866 38.5817 146.965 38.4829 147.113 38.4829C147.262 38.4829 147.459 38.6311 147.459 38.7793C147.459 38.8287 147.459 38.8287 147.459 38.8781L145.78 44.1639C145.533 44.8555 144.94 45.3495 144.149 45.3495C144.001 45.3495 143.853 45.2507 143.853 45.0531C143.853 44.9049 144.001 44.7567 144.149 44.7567C144.693 44.7073 145.039 44.4603 145.187 44.0157L145.434 43.2747Z" fill="#1A1A1A"/>
<path d="M35.6668 2.71701L38.532 2.76641L36.2596 4.49541L37.0994 7.26182L34.7282 5.63162L32.357 7.26182L33.1968 4.54481L30.875 2.81581L33.7896 2.71701L34.7282 0L35.6668 2.71701Z" fill="#708FC9"/>
<path d="M35.6668 65.4553L38.532 65.5047L36.2596 67.2337L37.0994 70.0001L34.7282 68.3699L32.357 70.0001L33.1968 67.2831L30.875 65.5047L33.7896 65.4553L34.7282 62.7383L35.6668 65.4553Z" fill="#708FC9"/>
<path d="M19.8589 6.91623L22.7241 6.96563L20.4517 8.74403L21.2915 11.5104L18.9203 9.83083L16.5491 11.5104L17.3889 8.74403L15.1165 7.01503L17.9817 6.91623L18.9203 4.19922L19.8589 6.91623Z" fill="#708FC9"/>
<path d="M52.2158 60.5153L55.081 60.5647L52.8086 62.2937L53.6484 65.0602L51.2772 63.4299L48.906 65.0602L49.7458 62.3431L47.4734 60.5647L50.3386 60.5153L51.2772 57.7983L52.2158 60.5153Z" fill="#708FC9"/>
<path d="M6.86667 18.2287L7.80528 15.5117L8.74388 18.2287L11.6585 18.3275L9.33668 20.0565L10.1765 22.8229L7.80528 21.1433L5.43407 22.8229L6.27387 20.0565L4.00146 18.3275L6.86667 18.2287Z" fill="#708FC9"/>
<path d="M61.2068 49.4494L62.1454 46.7324L63.084 49.4494H65.9493L63.6768 51.2278L64.5167 53.9942L62.1454 52.364L59.7742 53.9942L60.614 51.2278L58.2922 49.4988L61.2068 49.4494Z" fill="#708FC9"/>
<path d="M2.86521 33.7404L3.85321 31.0234L4.79181 33.7898L7.65702 33.8392L5.33522 35.5683L6.17502 38.3347L3.80381 36.7045L1.4326 38.2853L2.27241 35.5683L0 33.7898L2.86521 33.7404Z" fill="#708FC9"/>
<path d="M6.37275 51.1292L4.10034 49.3508H6.96555L7.95355 46.6338L8.84276 49.3508L11.7574 49.4496L9.43556 51.1786L10.226 53.945L7.85475 52.2654L5.48355 53.8956L6.37275 51.1292Z" fill="#708FC9"/>
<path d="M61.4043 18.2287L62.3429 15.5117L63.3309 18.2287L66.1961 18.2781L63.8743 20.0565L64.7635 22.7735L62.3923 21.1433L60.0211 22.8229L60.8609 20.0565L58.5391 18.3275L61.4043 18.2287Z" fill="#708FC9"/>
<path d="M17.6851 62.2937L15.3633 60.5647L18.2779 60.5153L19.2165 57.7983L20.1551 60.5153L23.0203 60.5647L20.7479 62.2937L21.5877 65.0602L19.2165 63.4299L16.8453 65.0602L17.6851 62.2937Z" fill="#708FC9"/>
<path d="M49.5484 8.79335L47.2266 7.06434L50.1412 7.01494L51.0304 4.24854L52.0184 6.96554L54.8836 7.01494L52.6112 8.74395L53.451 11.5104L51.0798 9.88015L48.758 11.5598L49.5484 8.79335Z" fill="#708FC9"/>
<path d="M22.5263 36.3587C22.5263 37.3467 22.6745 38.0383 23.0203 38.4335C23.4155 38.9769 24.0577 39.2733 24.8975 39.2733C25.8361 39.2733 26.6759 39.0263 27.5157 38.6311C27.6639 38.5817 27.8615 38.5323 28.0097 38.5323C28.6025 38.5323 29.1953 39.0263 29.1953 39.6685C29.1953 40.1131 28.9977 40.5577 28.5531 40.7553C27.3675 41.2987 26.1325 41.5951 24.8481 41.5951C23.4155 41.5951 22.2299 41.1505 21.2913 40.2119C20.4021 39.3227 19.9575 38.1371 19.9575 36.6551V33.5923C19.9575 32.1597 20.4021 30.9741 21.2913 30.0849C22.1805 29.1957 23.4155 28.7017 24.8481 28.7017C26.2807 28.7017 27.5157 29.1463 28.4049 30.0849C29.2941 30.9741 29.7881 32.1597 29.7881 33.5923V34.7285C29.7881 35.6177 29.0965 36.3093 28.2073 36.3093H22.5263V36.3587ZM27.2687 34.0863C27.2687 32.0609 26.4289 31.1223 24.8975 31.1223C23.3661 31.1223 22.5263 32.0609 22.5263 34.0863H27.2687Z" fill="#3D3D91"/>
<path d="M34.1355 35.8151C32.8017 35.3211 31.8137 34.2837 31.8137 32.4559C31.8137 30.3317 33.5921 28.8003 36.0127 28.8003C37.6923 28.8003 38.5321 29.0473 39.3225 29.3931C39.8165 29.5907 40.1129 30.0353 40.1129 30.5293C40.1129 31.1715 39.6189 31.7149 38.9273 31.7149C38.7791 31.7149 38.5321 31.6655 38.3345 31.6161C37.7417 31.3197 36.7043 31.1221 35.9139 31.1221C34.9259 31.1221 34.2343 31.6161 34.2343 32.4559C34.2343 33.0981 34.7283 33.4933 35.2223 33.6415L37.5935 34.4319C39.2237 34.9753 40.1623 36.0621 40.1623 37.8405C40.1623 39.9647 38.4333 41.6443 35.8151 41.6443C34.3825 41.6443 33.1969 41.3973 32.3077 40.9527C31.8631 40.7551 31.5667 40.3105 31.5667 39.8165C31.5667 39.1743 32.1101 38.5815 32.8017 38.5815C32.9499 38.5815 33.1969 38.6309 33.3451 38.7297C33.9873 39.0755 34.8271 39.2731 35.8645 39.2731C37.0501 39.2731 37.6429 38.8285 37.6429 37.9887C37.6429 37.0995 36.9019 36.8031 36.0127 36.4573L34.1355 35.8151Z" fill="#3D3D91"/>
<path d="M55.5749 33.1969C55.5749 32.0607 54.6363 31.1221 53.5001 31.1221C52.7591 31.1221 52.018 31.3691 51.4252 31.7643V40.4093C51.4252 41.1009 50.8818 41.6937 50.1408 41.6937C49.4492 41.6937 48.9058 41.1503 48.9058 40.4093V32.8511C48.9058 31.4185 47.9672 31.0727 46.9298 31.0727C46.0406 31.0727 45.4972 31.1715 44.7562 31.4185V40.3599C44.7562 41.0515 44.2128 41.6443 43.5212 41.6443C42.8296 41.6443 42.2368 41.1009 42.2368 40.3599V30.9739C42.2368 30.3317 42.632 29.7389 43.2742 29.4919C44.5586 28.9979 45.7936 28.8003 47.1768 28.8003C48.3624 28.8003 49.3504 29.1461 50.1408 29.7883C51.1288 29.1461 52.3144 28.8003 53.5495 28.8003C56.1677 28.8003 58.1437 30.7763 58.1437 33.3945V40.3599C58.1437 41.0515 57.6003 41.6443 56.8593 41.6443C56.1183 41.6443 55.6243 41.1009 55.6243 40.3599V33.1969H55.5749Z" fill="#3D3D91"/>
<path d="M69.5552 39.5203C69.5552 40.2119 69.1106 40.8047 68.4684 41.0023C67.2828 41.3975 65.8996 41.6445 64.5164 41.6445C63.0344 41.6445 61.8488 41.2987 61.009 40.5577C60.1692 39.8661 59.7246 38.8287 59.7246 37.6431C59.7246 36.4575 60.1692 35.5189 61.009 34.8273C61.8488 34.1357 62.985 33.7405 64.5164 33.7405H67.0358V32.9007C67.0358 31.8633 66.2948 31.0729 65.0104 31.0729C63.8742 31.0729 63.232 31.2211 62.3922 31.7151C62.1946 31.8139 61.9476 31.9127 61.7006 31.9127C61.0584 31.9127 60.515 31.4187 60.515 30.8259C60.515 30.3813 60.7126 29.9367 61.1078 29.6897C62.4416 28.9487 63.5778 28.7017 65.3068 28.7017C68.0238 28.7017 69.5058 30.6777 69.5058 32.8513V39.5203H69.5552ZM67.0358 36.1117H64.5164C62.3922 36.1117 62.2934 37.2479 62.2934 37.6925C62.2934 38.1371 62.3922 39.3721 64.5164 39.3721C65.3562 39.3721 66.2454 39.2733 67.0358 39.0757V36.1117Z" fill="#3D3D91"/>
</g>
<defs>
<clipPath id="clip0">
<rect width="171.616" height="70" fill="white"/>
</clipPath>
</defs>
</svg>
