<svg width="200" height="60" viewBox="0 0 200 60" fill="none" xmlns="http://www.w3.org/2000/svg">
<path d="M25.7603 60C25.7603 60 0 52.3303 0 14.4852V0H51.5235V14.4852C51.5235 50.9789 25.7603 60 25.7603 60Z" fill="#51AF3D"/>
<path d="M65.8442 29.0608V8.58496H78.2821V10.0914C78.2809 10.4575 78.2083 10.8197 78.0683 11.1575C77.9283 11.4953 77.7238 11.8019 77.4663 12.06C77.2088 12.318 76.9034 12.5224 76.5676 12.6614C76.2318 12.8004 75.8721 12.8714 75.5091 12.8703H70.8043V17.1731H76.9971V18.6357C76.9971 19.389 76.7003 20.1114 76.1722 20.644C75.644 21.1767 74.9276 21.476 74.1806 21.476H70.8043V29.0608H65.8442Z" fill="black"/>
<path d="M81.0867 29.0608V8.58496H88.1584C89.9567 8.58496 91.2726 8.74682 92.1061 9.07053C93.2368 9.49367 94.2028 10.272 94.8617 11.2907C95.5503 12.411 95.8954 13.7116 95.8537 15.029C95.8548 16.1707 95.5822 17.2957 95.0589 18.308C94.5779 19.2987 93.7925 20.1061 92.8196 20.6101V20.6686C93.1 21.0627 93.3558 21.4739 93.5854 21.9001L97.5331 29.0608H91.993L88.3846 22.1575H86.0641V29.0608H81.0867ZM86.0554 17.8605H88.2164C88.9111 17.9032 89.5942 17.6665 90.1163 17.2024C90.3506 16.9565 90.5314 16.6641 90.6473 16.3437C90.7632 16.0234 90.8115 15.6822 90.7892 15.342C90.7892 14.2129 90.3918 13.4865 89.5971 13.1628C88.9974 12.9427 88.3608 12.8433 87.7233 12.8703H86.0467L86.0554 17.8605Z" fill="black"/>
<path d="M99.7817 29.0608V8.58496H112.504V12.8703H104.745V16.5998H110.937V20.8968H104.745V24.7638H112.895V29.0608H99.7817Z" fill="black"/>
<path d="M116.077 29.0608V8.58496H128.802V12.8703H121.046V16.5998H127.239V20.8968H121.046V24.7638H129.2V29.0608H116.077Z" fill="black"/>
<path d="M132.378 29.0608V8.58496H139.592C142.808 8.58496 145.359 9.48687 147.246 11.2907C149.134 13.0945 150.076 15.5916 150.072 18.7819C150.072 21.9878 149.13 24.5025 147.246 26.3258C145.363 28.1491 142.811 29.0618 139.592 29.0637L132.378 29.0608ZM137.35 24.7638H139.395C141.135 24.7638 142.488 24.248 143.455 23.2164C144.422 22.1848 144.91 20.7057 144.92 18.779C144.92 16.8679 144.428 15.4054 143.444 14.3913C142.459 13.3773 141.106 12.8722 139.383 12.8761H137.338L137.35 24.7638Z" fill="black"/>
<path d="M152.201 18.6917C152.201 15.7139 153.195 13.2266 155.183 11.2297C157.17 9.23282 159.717 8.23536 162.823 8.23731C165.928 8.23731 168.475 9.23477 170.463 11.2297C172.451 13.2246 173.449 15.712 173.456 18.6917C173.456 21.7455 172.459 24.2903 170.463 26.3262C168.467 28.3621 165.921 29.384 162.823 29.3918C159.717 29.3996 157.17 28.3777 155.183 26.3262C153.195 24.2747 152.201 21.7299 152.201 18.6917ZM157.341 18.6917C157.341 20.4467 157.857 21.9093 158.89 23.0794C159.389 23.6306 159.996 24.071 160.673 24.3723C161.35 24.6735 162.083 24.8291 162.823 24.8291C163.563 24.8291 164.295 24.6735 164.972 24.3723C165.649 24.071 166.257 23.6306 166.756 23.0794C167.789 21.9093 168.305 20.4467 168.305 18.6917C168.354 17.1419 167.797 15.6348 166.756 14.4941C166.244 13.9645 165.633 13.5435 164.957 13.2561C164.282 12.9687 163.556 12.8206 162.823 12.8206C162.09 12.8206 161.364 12.9687 160.688 13.2561C160.013 13.5435 159.401 13.9645 158.89 14.4941C157.848 15.6348 157.292 17.1419 157.341 18.6917Z" fill="black"/>
<path d="M175.803 29.0618L177.477 8.58593H182.875L185.828 17.2297L186.849 20.6111H186.907C187.294 19.246 187.635 18.1189 187.931 17.2297L190.884 8.58301H196.282L197.929 29.0588H192.958L192.334 19.8359C192.293 19.3767 192.276 18.8619 192.276 18.2885C192.276 17.7152 192.276 17.2589 192.302 16.9137L192.334 16.3989H192.276C191.82 17.8303 191.441 18.9759 191.139 19.8359L189.01 25.7651H184.749L182.62 19.8359L181.483 16.3989H181.425C181.5 17.5433 181.5 18.6915 181.425 19.8359L180.801 29.0588L175.803 29.0618Z" fill="black"/>
<path d="M66.0645 50.9726V38.7251H69.0347V43.6247H73.4523V38.7251H76.4254V50.9726H73.4523V46.1754H69.0347V50.9726H66.0645Z" fill="black"/>
<path d="M78.3164 44.7725C78.2947 43.9449 78.4419 43.1216 78.7487 42.3538C79.0556 41.5859 79.5156 40.8899 80.1003 40.3087C81.2895 39.1153 82.8123 38.5186 84.6687 38.5186C86.5251 38.5186 88.0489 39.1153 89.2401 40.3087C89.8244 40.89 90.284 41.5862 90.5903 42.354C90.8967 43.1219 91.0433 43.9451 91.0211 44.7725C91.0448 45.6166 90.8993 46.457 90.5932 47.2431C90.2872 48.0292 89.827 48.7449 89.2401 49.3473C88.047 50.5759 86.5212 51.1902 84.6629 51.1902C82.8046 51.1902 81.2818 50.5798 80.0945 49.359C79.5067 48.755 79.0461 48.0372 78.7406 47.249C78.435 46.4608 78.2907 45.6184 78.3164 44.7725ZM81.391 44.7725C81.3554 45.7369 81.6864 46.6786 82.3163 47.4051C82.6164 47.7324 82.9807 47.9933 83.3861 48.1712C83.7914 48.3492 84.229 48.4402 84.6711 48.4385C85.1132 48.4369 85.5501 48.3426 85.9541 48.1617C86.3582 47.9807 86.7205 47.7171 87.0182 47.3875C87.6492 46.6615 87.9813 45.7197 87.9464 44.7549C87.9756 43.8279 87.6422 42.9265 87.0182 42.2452C86.7127 41.9276 86.347 41.6751 85.943 41.5027C85.5389 41.3303 85.1046 41.2415 84.6658 41.2415C84.2271 41.2415 83.7928 41.3303 83.3887 41.5027C82.9846 41.6751 82.619 41.9276 82.3134 42.2452C81.6851 42.9308 81.3514 43.8394 81.3852 44.7725H81.391Z" fill="black"/>
<path d="M92.9033 50.9726V38.7251H95.8735V48.4014H100.834V50.9726H92.9033Z" fill="black"/>
<path d="M102.278 50.9726V38.7251H106.594C108.517 38.7251 110.042 39.2643 111.172 40.3427C112.301 41.4211 112.865 42.9139 112.863 44.821C112.863 46.7399 112.299 48.2444 111.172 49.3345C110.044 50.4246 108.518 50.9706 106.594 50.9726H102.278ZM105.251 48.4014H106.476C107.518 48.4014 108.33 48.0933 108.912 47.477C109.494 46.8608 109.784 45.9755 109.782 44.821C109.782 43.6802 109.487 42.8027 108.898 42.1884C108.308 41.5742 107.498 41.2719 106.47 41.2817H105.246L105.251 48.4014Z" fill="black"/>
<path d="M114.797 50.9726V38.7251H117.764V50.9726H114.797Z" fill="black"/>
<path d="M120.32 50.9726V38.7251H123.325L126.69 44.4613C126.826 44.7011 126.98 44.9936 127.148 45.3388C127.316 45.684 127.438 45.9765 127.554 46.2163L127.708 46.5586H127.742C127.652 45.6791 127.606 44.9829 127.606 44.47V38.7251H130.579V50.9726H127.589L124.21 45.2686C124.073 45.0287 123.919 44.7333 123.748 44.391C123.577 44.0488 123.444 43.7534 123.342 43.5135L123.189 43.1713H123.157C123.246 44.0508 123.291 44.7479 123.293 45.2627V50.9667L120.32 50.9726Z" fill="black"/>
<path d="M132.482 44.8212C132.462 43.9862 132.614 43.1561 132.926 42.3826C133.238 41.6091 133.705 40.9088 134.298 40.3253C134.897 39.7281 135.611 39.2599 136.395 38.9492C137.18 38.6384 138.018 38.4916 138.861 38.5176C140.752 38.5176 142.309 39.0597 143.533 40.1439L142.103 42.3904C141.704 42.0404 141.244 41.7677 140.746 41.586C140.239 41.3766 139.698 41.2654 139.151 41.2584C137.95 41.2584 137.052 41.587 136.456 42.2442C135.854 42.9226 135.535 43.8091 135.566 44.7188C135.541 45.2155 135.618 45.7118 135.792 46.1772C135.966 46.6426 136.232 47.0671 136.575 47.4246C136.897 47.7537 137.282 48.0131 137.707 48.1872C138.132 48.3612 138.588 48.446 139.046 48.4367C139.943 48.4355 140.813 48.126 141.512 47.5591V46.6143H139.795V44.0519H144.146V50.9727H141.666V50.6305L141.683 50.1157H141.648C141.231 50.465 140.749 50.7266 140.23 50.885C139.658 51.0787 139.058 51.1775 138.455 51.1775C137.675 51.189 136.901 51.0419 136.178 50.7449C135.456 50.4478 134.801 50.007 134.252 49.4487C133.072 48.2943 132.482 46.7518 132.482 44.8212Z" fill="black"/>
<path d="M150.21 44.8222C150.187 43.9876 150.335 43.1571 150.643 42.3823C150.951 41.6074 151.414 40.9046 152.003 40.3175C153.198 39.1182 154.725 38.5186 156.583 38.5186C157.429 38.5183 158.268 38.6668 159.063 38.9573C159.839 39.2306 160.546 39.6719 161.134 40.2502L159.759 42.5113C159.332 42.134 158.847 41.8297 158.323 41.6104C157.816 41.3858 157.27 41.2664 156.716 41.2594C155.585 41.2594 154.73 41.5997 154.152 42.2803C153.57 42.9687 153.26 43.85 153.282 44.7549C153.265 45.6967 153.581 46.6138 154.175 47.3407C154.771 48.072 155.617 48.4376 156.713 48.4376C157.874 48.4376 158.95 47.9355 159.942 46.9312L161.47 49.1221C160.843 49.7892 160.083 50.3161 159.241 50.6688C158.398 51.0215 157.492 51.1921 156.58 51.1697C154.646 51.1697 153.099 50.573 151.939 49.3795C150.779 48.1861 150.203 46.667 150.21 44.8222Z" fill="black"/>
<path d="M162.033 44.7725C162.012 43.9449 162.159 43.1216 162.466 42.3538C162.772 41.5859 163.232 40.8899 163.817 40.3087C165.006 39.1153 166.53 38.5186 168.389 38.5186C170.247 38.5186 171.77 39.1153 172.957 40.3087C173.542 40.8899 174.002 41.5859 174.309 42.3538C174.615 43.1216 174.763 43.9449 174.741 44.7725C174.764 45.6168 174.618 46.4573 174.312 47.2434C174.005 48.0295 173.544 48.7451 172.957 49.3473C171.768 50.5759 170.245 51.1902 168.389 51.1902C166.532 51.1902 165.008 50.5798 163.817 49.359C163.228 48.7555 162.767 48.038 162.46 47.2497C162.154 46.4615 162.008 45.6188 162.033 44.7725ZM165.108 44.7725C165.074 45.7366 165.405 46.6777 166.033 47.4051C166.332 47.7345 166.696 47.9976 167.101 48.1775C167.506 48.3575 167.944 48.4505 168.387 48.4505C168.83 48.4505 169.268 48.3575 169.673 48.1775C170.078 47.9976 170.442 47.7345 170.741 47.4051C171.371 46.6786 171.702 45.7369 171.666 44.7725C171.696 43.8459 171.364 42.9445 170.741 42.2627C170.435 41.9451 170.069 41.6925 169.665 41.5201C169.261 41.3477 168.826 41.2588 168.387 41.2588C167.948 41.2588 167.514 41.3477 167.109 41.5201C166.705 41.6925 166.339 41.9451 166.033 42.2627C165.411 42.9452 165.079 43.8461 165.108 44.7725Z" fill="black"/>
<path d="M176.626 50.9734V38.7259H180.855C181.653 38.6887 182.451 38.7876 183.216 39.0184C183.893 39.2714 184.47 39.737 184.864 40.3464C185.272 41.0174 185.473 41.7949 185.444 42.5812C185.444 43.2645 185.281 43.9377 184.968 44.544C184.681 45.1373 184.211 45.6208 183.628 45.9217V45.9568C183.795 46.1932 183.948 46.4393 184.087 46.6939L186.448 50.9763H183.15L180.997 46.8431H179.605V50.9734H176.626ZM179.599 44.2748H180.89C181.306 44.3001 181.715 44.1581 182.027 43.88C182.168 43.7337 182.278 43.5593 182.348 43.3678C182.419 43.1764 182.449 42.9722 182.436 42.7684C182.436 42.0927 182.198 41.6598 181.723 41.4638C181.363 41.3354 180.982 41.2778 180.6 41.2941H179.599V44.2748Z" fill="black"/>
<path d="M187.802 50.9727V38.7252H192.849C193.381 38.7036 193.911 38.7967 194.405 38.9985C194.898 39.2003 195.343 39.5061 195.709 39.8953C196.455 40.7224 196.849 41.8117 196.806 42.9286C196.85 44.0536 196.456 45.1514 195.709 45.9883C195.345 46.3815 194.901 46.691 194.407 46.8959C193.914 47.1008 193.383 47.1963 192.849 47.1759H190.775V50.9639L187.802 50.9727ZM190.775 44.6164H192.226C192.441 44.6313 192.657 44.5975 192.858 44.5176C193.058 44.4376 193.239 44.3135 193.386 44.1543C193.664 43.8125 193.807 43.379 193.786 42.9374C193.808 42.5025 193.668 42.0751 193.395 41.7381C193.254 41.5869 193.082 41.4687 192.891 41.3919C192.7 41.3151 192.495 41.2815 192.289 41.2935H190.778L190.775 44.6164Z" fill="black"/>
<path d="M197.212 49.5686C197.212 49.1955 197.359 48.8376 197.621 48.5737C197.883 48.3099 198.238 48.1616 198.608 48.1616C198.791 48.1616 198.972 48.198 199.141 48.2688C199.31 48.3395 199.464 48.4432 199.593 48.5739C199.722 48.7046 199.825 48.8597 199.895 49.0304C199.965 49.2011 200 49.384 200 49.5686C200 49.753 199.964 49.9356 199.894 50.1059C199.824 50.2763 199.721 50.431 199.592 50.5614C199.463 50.6918 199.309 50.7952 199.14 50.8658C198.971 50.9363 198.79 50.9727 198.608 50.9727C198.425 50.973 198.243 50.937 198.074 50.8666C197.905 50.7962 197.751 50.6929 197.621 50.5625C197.492 50.432 197.389 50.2771 197.319 50.1066C197.249 49.9361 197.212 49.7532 197.212 49.5686Z" fill="black"/>
<path d="M40.6347 14.599H19.8838V26.6183H40.6347V30.2191C40.6347 36.3063 38.9321 41.2205 29.7517 41.2409H19.8896V57.1273C23.2978 59.2626 25.7662 59.9997 25.7662 59.9997C25.7662 59.9997 51.5294 50.9787 51.5294 14.4849V3.56836C51.5236 9.6526 48.8522 14.4878 40.6347 14.599Z" fill="#0F5431"/>
</svg>
