<svg width="177" height="50" viewBox="0 0 177 50" fill="none" xmlns="http://www.w3.org/2000/svg">
<g clip-path="url(#clip0)">
<path d="M129.883 37.8726C123.868 37.8726 120.131 34.3886 120.131 28.7726C120.131 22.9442 123.579 19.3181 129.133 19.3181H129.599C130.295 19.3181 131.254 19.3408 132.565 19.5045V12.4692H136.487V37.2386C136.487 37.2386 132.76 37.8726 129.883 37.8726ZM129.848 22.4067C126.048 22.4067 124.2 24.4579 124.2 28.6749C124.2 32.4613 126.429 34.8147 130.011 34.8147C130.7 34.8147 131.489 34.7692 132.564 34.6772V22.659C131.49 22.4863 130.624 22.4067 129.848 22.4067ZM76.1499 37.3045L65.5533 18.8124L65.5499 37.3045H61.8567V13.8942H67.0271L77.6237 32.2215L77.6192 13.8942H81.3612V37.3045H76.1499ZM109.903 37.6647C108.119 37.6647 106.259 37.4647 104.044 37.0386L103.804 36.9931V33.7226L104.154 33.7976C106.108 34.2147 107.794 34.5704 109.482 34.5704C110.844 34.5704 114.018 34.3567 114.018 32.3511C114.018 30.6692 111.825 30.2465 110.064 29.909L109.952 29.8863C109.623 29.8249 109.312 29.7624 109.051 29.6965C106.467 29.0261 103.71 28.0181 103.71 24.5556C103.71 21.1783 106.383 19.2431 111.044 19.2431C113.282 19.2431 114.906 19.4817 116.211 19.6772L116.845 19.7704V22.9442L116.508 22.8829C115.031 22.6113 113.299 22.3317 111.634 22.3317C109.783 22.3317 107.586 22.6783 107.586 24.3249C107.586 25.692 109.384 26.0829 111.466 26.5363C114.377 27.1658 117.986 27.9567 117.986 31.9295C117.986 35.5738 115.043 37.6647 109.903 37.6647ZM147.5 37.6647C143.44 37.6647 139.679 36.9488 139.679 31.7647C139.679 26.1226 145.494 26.1226 148.97 26.1226C149.316 26.1226 150.95 26.1988 151.451 26.2204C151.446 23.0556 151.407 22.3011 146.817 22.3011C144.998 22.3011 142.977 22.6601 141.193 22.9806L140.852 23.042V19.917L141.082 19.8681C143.15 19.4476 145.144 19.2431 147.177 19.2431C151.625 19.2431 155.393 19.6908 155.393 25.209V37.2431L155.123 37.2738C152.042 37.6192 149.596 37.6647 147.501 37.6647H147.5ZM148.873 28.9147C145.52 28.9147 143.443 29.4079 143.443 31.8624C143.443 34.7033 146.093 34.9386 148.579 34.9386C149.507 34.9386 151.176 34.8192 151.686 34.7829V29.0124C150.968 28.9817 149.099 28.9147 148.873 28.9147ZM92.4578 37.6647C88.3919 37.6647 84.6328 36.9488 84.6328 31.7647C84.6328 26.1226 90.4476 26.1226 93.9226 26.1226C94.2692 26.1226 95.9067 26.1988 96.409 26.2204C96.4044 23.0556 96.3601 22.3011 91.7703 22.3011C89.9499 22.3011 87.9294 22.6601 86.1453 22.9806L85.8044 23.042V19.917L86.0396 19.8681C88.0435 19.4538 90.0843 19.2443 92.1306 19.2431C96.5771 19.2431 100.346 19.6908 100.346 25.209V37.2431L100.075 37.2738C96.9953 37.6192 94.5487 37.6647 92.4578 37.6647ZM93.8249 28.9147C90.4737 28.9147 88.401 29.4079 88.401 31.8624C88.401 34.7033 91.0465 34.9386 93.5328 34.9386C94.4646 34.9386 96.134 34.8192 96.6442 34.7829V29.0124C95.9203 28.9817 94.0522 28.9147 93.826 28.9147" fill="#231F20"/>
<mask id="mask0" mask-type="alpha" maskUnits="userSpaceOnUse" x="157" y="18" width="19" height="28">
<path d="M157.954 18.1816H175.031V45.4544H157.954V18.1816Z" fill="white"/>
</mask>
<g mask="url(#mask0)">
<path d="M171.014 45.2591V37.5795C169.483 37.7932 168.67 37.7932 168.014 37.7932C166.459 37.7932 164.733 37.4557 163.396 36.892C160.404 35.6477 158.62 32.4886 158.62 28.4352C158.62 26.4125 159.114 22.7136 162.411 20.7204C164.067 19.7318 166.02 19.3091 168.959 19.3091C170.01 19.3091 171.431 19.3886 172.802 19.4682L175.031 19.5841V43.4795L171.014 45.2591ZM168.666 22.3989C164.679 22.3977 162.659 24.4318 162.659 28.4352C162.659 33.5898 165.673 34.6727 168.207 34.6727C168.824 34.6727 169.517 34.6727 171.052 34.4773V22.5102C169.85 22.4307 169.294 22.3989 168.665 22.3989H168.666Z" fill="#231F20"/>
</g>
<mask id="mask1" mask-type="alpha" maskUnits="userSpaceOnUse" x="28" y="0" width="32" height="38">
<path d="M28.4089 0.0180664H59.0908V37.4999H28.4089V0.0180664Z" fill="white"/>
</mask>
<g mask="url(#mask1)">
<path d="M44.3316 0.0180664L31.3566 35.6658C31.1962 36.1047 30.9154 36.4896 30.5464 36.7764C30.1775 37.0632 29.7352 37.2402 29.2703 37.2874V37.3044H42.9862C44.06 37.3044 44.9794 36.6215 45.3214 35.6669L58.3009 0.0180664H44.3316Z" fill="#0996C7"/>
</g>
<path d="M28.1509 36.7634C28.9464 36.7634 29.643 36.368 30.0691 35.7691C30.1134 35.7066 30.2691 35.4884 30.3793 35.1918L35.1384 22.11L32.3543 14.4703C32.1922 14.0834 31.9295 13.7469 31.5935 13.4957C31.2576 13.2445 30.8606 13.0877 30.4436 13.0416C30.0267 12.9955 29.605 13.0617 29.2223 13.2334C28.8395 13.405 28.5096 13.6759 28.2668 14.018C28.2214 14.0805 28.0361 14.3589 27.9566 14.5953L23.1975 27.6725L25.9941 35.343C26.1755 35.7646 26.4765 36.1238 26.8598 36.3762C27.2431 36.6287 27.692 36.7633 28.1509 36.7634Z" fill="#0996C7"/>
<mask id="mask2" mask-type="alpha" maskUnits="userSpaceOnUse" x="-2" y="11" width="32" height="39">
<path d="M-1.13647 11.3633H29.5453V49.769H-1.13647V11.3633Z" fill="white"/>
</mask>
<g mask="url(#mask2)">
<path d="M29.1681 12.4814H15.3011C14.2272 12.4814 13.3079 13.161 12.9613 14.1201L-0.0136719 49.7678H13.9556L26.9318 14.1212C27.1001 13.6575 27.4027 13.2543 27.801 12.9631C28.1992 12.6719 28.6752 12.5058 29.1681 12.486V12.4814Z" fill="#0996C7"/>
</g>
</g>
<defs>
<clipPath id="clip0">
<rect width="176.136" height="50" fill="white"/>
</clipPath>
</defs>
</svg>
