<svg width="10" height="7" viewBox="0 0 10 7" fill="none" xmlns="http://www.w3.org/2000/svg">
<g opacity="0.5">
<path d="M0.731707 0C0.635857 0 0.544872 0.0206375 0.461128 0.0546875L4.70655 3.75781C4.89237 3.92005 5.09957 3.92016 5.28582 3.75781L9.53506 0.0507736C9.45253 0.0178611 9.36245 0 9.26829 0H0.731707ZM0.00762195 0.640625C0.00266098 0.676025 0 0.71315 0 0.75V5.75C0 6.16549 0.326349 6.5 0.731707 6.5H9.26829C9.67365 6.5 10 6.16549 10 5.75V0.75C10 0.71315 9.99734 0.676025 9.99238 0.640625L5.7622 4.32812C5.32368 4.71035 4.66867 4.71096 4.23018 4.32812L0.00762195 0.640625Z" fill="black"/>
</g>
</svg>
