<svg xmlns="http://www.w3.org/2000/svg" width="55" height="34" viewBox="0 0 55 34" fill="none"><style>.a{fill:white;}</style><g clip-path="url(#clip0)"><path d="M52.8 34H2.6C1.6 34 0.8 33.2 0.8 32.2V1.8C0.8 0.8 1.6 0 2.6 0H52.8C53.8 0 54.6 0.8 54.6 1.8V32.2C54.6 33.2 53.8 34 52.8 34Z" fill="#007DC3"/><path d="M7.9 12L7 9.8 6.1 12H7.9V12ZM28.4 11.1C28.2 11.2 28 11.3 27.7 11.3H26.1V10H27.7C28 10 28.2 10 28.4 10.1 28.6 10.2 28.7 10.4 28.7 10.6 28.7 10.8 28.6 11 28.4 11.1L28.4 11.1ZM40.2 12L39.2 9.8 38.3 12H40.2ZM18.2 14.5H16.8V10L14.9 14.5H13.7L11.7 10V14.5H8.9L8.4 13.2H5.6L5.1 14.5H3.6L6.1 8.8H8.1L10.4 14.1V8.8H12.6L14.4 12.7 16 8.8H18.3L18.2 14.5ZM23.8 14.5H19.2V8.8H23.8V9.9H20.6V10.9H23.7V12.1H20.6V13.2H23.8V14.5ZM30.2 10.3C30.2 11 29.8 11.6 29.2 11.9 29.5 12 29.7 12.1 29.9 12.4 30.1 12.7 30.2 13 30.1 13.4V14.5H28.8V13.8C28.8 13.4 28.7 13 28.5 12.7 28.3 12.5 28 12.4 27.5 12.4H26.1V14.5H24.7V8.8H27.8C28.4 8.7 29 8.8 29.5 9.1 29.9 9.3 30.2 9.8 30.2 10.3L30.2 10.3ZM32.3 14.5H30.9V8.8H32.3V14.5ZM48.4 14.5H46.5L43.9 10.2V14.5H41.1L40.6 13.2H37.8L37.3 14.5H35.7C34.4 14.6 33.2 13.7 33 12.4 32.9 12.2 33 11.9 33 11.7 32.9 10.9 33.2 10.1 33.7 9.5 34.3 9 35 8.7 35.8 8.8H37.1V10H35.8C35.4 10 35.1 10.1 34.8 10.3 34.5 10.7 34.4 11.2 34.4 11.6 34.3 12.1 34.5 12.6 34.8 13 35 13.2 35.4 13.3 35.7 13.3H36.3L38.2 8.8H40.3L42.5 14.2V8.8H44.6L47 12.8V8.8H48.4L48.4 14.5ZM3.6 15.6H5.9L6.4 14.3H7.5L8.1 15.6H12.6V14.6L13 15.6H15.4L15.8 14.6V15.6H27.1V13.5H27.3C27.5 13.5 27.5 13.5 27.5 13.8V15.6H33.4V15.1C34.1 15.4 34.8 15.6 35.6 15.6H38.1L38.6 14.3H39.8L40.3 15.6H45V14.4L45.8 15.6H49.6V7.7H45.9V8.6L45.3 7.7H41.4V8.6L41 7.7H35.7C35 7.6 34.2 7.8 33.5 8.1V7.7H29.9V8.1C29.5 7.8 28.9 7.6 28.4 7.7H15.2L14.3 9.7 13.4 7.7H9.2V8.6L8.8 7.7H5.2L3.6 11.4V15.6Z" class="a"/><path d="M51.9 19.8H49.4C49.2 19.8 49 19.8 48.8 19.9 48.7 20 48.6 20.1 48.6 20.3 48.6 20.5 48.7 20.7 48.9 20.7 49.1 20.8 49.3 20.8 49.4 20.8H50.2C50.7 20.7 51.3 20.9 51.7 21.2 51.8 21.3 51.8 21.3 51.9 21.4L51.9 19.8ZM51.9 23.5C51.4 24.1 50.7 24.3 50 24.3H47.4V23H50C50.2 23 50.4 23 50.6 22.9 50.7 22.8 50.7 22.7 50.7 22.5 50.7 22.4 50.7 22.2 50.6 22.1 50.4 22 50.2 22 50.1 22 48.8 22 47.2 22 47.2 20.3 47.2 19.3 48 18.6 48.9 18.5 49 18.5 49.1 18.5 49.2 18.6H51.9V17.4H49.3C48.7 17.4 48.1 17.6 47.6 17.9V17.4H43.9C43.4 17.4 42.8 17.6 42.3 17.9V17.4H35.7V17.9C35.1 17.6 34.5 17.4 33.9 17.4H29.5V17.9C28.9 17.5 28.3 17.4 27.6 17.4H22.7L21.5 18.7 20.5 17.4H13.2V25.4H20.4L21.5 24.1 22.6 25.4H27.1V23.5H27.5C28.1 23.6 28.8 23.5 29.3 23.3V25.4H33V23.3H33.2C33.4 23.3 33.4 23.3 33.4 23.5V25.4H44.5C45.2 25.4 45.8 25.2 46.4 24.8V25.4H49.9C50.6 25.4 51.2 25.3 51.9 25V23.5H51.9ZM46.4 21.2C46.7 21.6 46.9 22 46.9 22.4 46.9 23.6 46.1 24.2 44.7 24.2H42.1V23H44.7C44.9 23 45.1 23 45.3 22.9 45.4 22.8 45.4 22.7 45.4 22.5 45.5 22.4 45.4 22.2 45.3 22.1 45.1 22 45 22 44.8 22 43.5 22 41.9 22 41.9 20.3 41.9 19.4 42.5 18.6 43.9 18.6H46.6V19.8H44.1C43.9 19.8 43.7 19.8 43.6 19.9 43.4 19.9 43.4 20.1 43.4 20.3 43.4 20.5 43.5 20.6 43.7 20.7 43.9 20.7 44 20.8 44.2 20.8H44.9C45.5 20.7 46.1 20.9 46.5 21.2L46.4 21.2ZM34.2 20.9C34 21 33.8 21 33.6 21H31.9V19.7H33.5C33.8 19.7 34 19.8 34.2 19.9 34.4 20 34.5 20.2 34.5 20.4 34.5 20.6 34.4 20.8 34.2 20.9L34.2 20.9ZM35 21.6C35.3 21.7 35.5 21.9 35.7 22.1 35.9 22.4 36 22.8 35.9 23.1V24.3H34.6V23.6C34.6 23.2 34.5 22.8 34.3 22.4 34.1 22.2 33.8 22.2 33.3 22.2H31.9V24.3H30.5V18.6H33.6C34.2 18.5 34.8 18.6 35.3 18.8 35.7 19.1 36 19.6 36 20.1 36 20.7 35.6 21.3 35 21.6L35 21.6ZM36.7 18.6H41.3V19.7H38.1V20.7H41.2V21.9H38.1V23H41.3V24.2H36.7V18.6ZM27.6 21.2H25.8V19.7H27.6C28.1 19.7 28.4 19.9 28.4 20.4 28.4 20.9 28.1 21.2 27.6 21.2H27.6ZM24.5 23.7L22.4 21.5 24.5 19.2V23.7ZM19.1 23.1H15.8V21.9H18.7V20.8H15.8V19.8H19.2L20.7 21.4 19.1 23.1ZM29.9 20.4C29.9 22 28.8 22.3 27.5 22.3H25.8V24.2H23.2L21.5 22.4 19.8 24.3H14.4V18.6H19.9L21.5 20.4 23.3 18.6H27.6C28.7 18.6 29.9 18.8 29.9 20.4" class="a"/></g><defs><clipPath><rect x="0.8" width="53.8" height="34" class="a"/></clipPath></defs></svg>