<svg width="10" height="14" viewBox="0 0 10 14" fill="none" xmlns="http://www.w3.org/2000/svg">
<g opacity="0.5">
<path d="M5 0C7.75701 0 10 2.24298 10 4.99997C10 8.42148 5.52549 13.4445 5.33498 13.6566C5.15605 13.8559 4.84363 13.8556 4.66502 13.6566C4.47451 13.4445 0 8.42148 0 4.99997C5.34058e-05 2.24298 2.24301 0 5 0ZM5 7.5156C6.38712 7.5156 7.5156 6.3871 7.5156 4.99997C7.5156 3.61285 6.3871 2.48437 5 2.48437C3.6129 2.48437 2.48443 3.61288 2.48443 5C2.48443 6.38712 3.6129 7.5156 5 7.5156Z" fill="black"/>
</g>
</svg>
