<svg width="106" height="119" viewBox="0 0 106 119" fill="none" xmlns="http://www.w3.org/2000/svg">
<path fill-rule="evenodd" clip-rule="evenodd" d="M39.7062 34.4525V49.4408H93.9753V79.4673H39.7062C39.7062 79.4673 39.7062 114.523 39.7062 114.674C43.8856 116.611 48.2732 118.063 52.7831 119C79.1716 113.501 104.001 89.9624 104.755 48.1498L105.024 34.4525H39.7062Z" fill="#3F873F"/>
<path d="M105.118 34.4531L105.638 2.06266C88.2021 0.710259 70.5874 0.0228817 52.7937 0.000528038C35.0004 -0.0218256 17.4023 0.665553 0 2.06266L0.318541 27.395L0.821496 48.1504C0.821496 48.1504 0.98915 67.4135 7.52761 81.178C13.6884 95.9745 25.2002 107.906 39.7671 114.591V79.3839H93.986V49.4414H39.7169V34.4531H105.118Z" fill="#76BC21"/>
</svg>
