<svg viewBox="0 0 24 18" xmlns="http://www.w3.org/2000/svg">
    <style>
        svg>g {display:none}
        :target {display: inline}
    </style>

    <g id="eu" fill="none">
        <path d="M24 0H0V18H24V0Z" fill="#003399"/>
        <path d="M11.96 2L12.18 2.69H12.91L12.32 3.12L12.54 3.81L11.95 3.38L11.36 3.81L11.58 3.12L10.9901 2.69H11.72L11.96 2Z" fill="#FFEF52"/>
        <path d="M17.16 11L17.38 11.69H18.11L17.52 12.12L17.74 12.81L17.15 12.38L16.56 12.81L16.78 12.12L16.19 11.69H16.92L17.16 11Z" fill="#FFEF52"/>
        <path d="M11.96 14L12.18 14.69H12.91L12.32 15.12L12.54 15.81L11.95 15.38L11.36 15.81L11.58 15.12L10.9901 14.69H11.72L11.96 14Z" fill="#FFEF52"/>
        <path d="M17.9601 8L18.1801 8.69H18.9101L18.3201 9.12L18.5401 9.80999L17.9501 9.37999L17.3601 9.80999L17.5801 9.12L16.9901 8.69H17.7201L17.9601 8Z" fill="#FFEF52"/>
        <path d="M5.96 8L6.18 8.69H6.90999L6.31999 9.12L6.53999 9.80999L5.96 9.37999L5.37 9.80999L5.59 9.12L5 8.69H5.73L5.96 8Z" fill="#FFEF52"/>
        <path d="M14.9601 2.80005L15.1801 3.49005H15.9101L15.3201 3.92005L15.5401 4.61005L14.9501 4.18005L14.3601 4.61005L14.5801 3.92005L13.9901 3.49005H14.7201L14.9601 2.80005Z" fill="#FFEF52"/>
        <path d="M8.96005 2.80005L9.18005 3.49005H9.91005L9.32005 3.92005L9.54005 4.61005L8.95005 4.18005L8.36005 4.61005L8.58005 3.92005L7.99005 3.49005H8.72005L8.96005 2.80005Z" fill="#FFEF52"/>
        <path d="M8.96005 13.2L9.18005 13.89H9.91005L9.32005 14.32L9.54005 15.01L8.95005 14.58L8.36005 15.01L8.58005 14.32L7.99005 13.89H8.72005L8.96005 13.2Z" fill="#FFEF52"/>
        <path d="M14.9601 13.2L15.1801 13.89H15.9101L15.3201 14.32L15.5401 15.01L14.9501 14.58L14.3601 15.01L14.5801 14.32L13.9901 13.89H14.7201L14.9601 13.2Z" fill="#FFEF52"/>
        <path d="M17.16 5L17.38 5.69H18.11L17.52 6.12L17.74 6.81L17.15 6.38L16.56 6.81L16.78 6.12L16.19 5.69H16.92L17.16 5Z" fill="#FFEF52"/>
        <path d="M6.76005 5L6.98005 5.69H7.71005L7.12005 6.12L7.34005 6.81L6.76005 6.38L6.17005 6.81L6.39005 6.12L5.80005 5.69H6.53005L6.76005 5Z" fill="#FFEF52"/>
        <path d="M6.76004 11L6.98004 11.69H7.71004L7.12004 12.12L7.34004 12.81L6.75004 12.38L6.16004 12.81L6.38004 12.12L5.79004 11.69H6.52004L6.76004 11Z" fill="#FFEF52"/>
    </g>

    <g id="us" fill="none">
        <g clip-path="url(#clip0)">
            <path fill-rule="evenodd" clip-rule="evenodd" d="M0 0H34.2003V1.38461H0V0ZM0 2.76927H34.2003V4.15388H0V2.76927ZM0 5.53853H34.2003V6.92315H0V5.53853ZM0 8.3078H34.2003V9.69242H0V8.3078ZM0 11.0771H34.2003V12.4617H0V11.0771ZM0 13.8463H34.2003V15.2309H0V13.8463ZM0 16.6156H34.2003V18.0002H0V16.6156Z" fill="#BD3D44"/>
            <path fill-rule="evenodd" clip-rule="evenodd" d="M0 1.38452H34.2003V2.76913H0V1.38452ZM0 4.15378H34.2003V5.5384H0V4.15378ZM0 6.92305H34.2003V8.30766H0V6.92305ZM0 9.69231H34.2003V11.0769H0V9.69231ZM0 12.4616H34.2003V13.8462H0V12.4616ZM0 15.2308H34.2003V16.6154H0V15.2308Z" fill="white"/>
            <path fill-rule="evenodd" clip-rule="evenodd" d="M0 0H13.68V9.69221H0V0Z" fill="#192F5D"/>
            <path fill-rule="evenodd" clip-rule="evenodd" d="M1.13959 0.414795L1.26405 0.797858H1.66688L1.34096 1.03463L1.46546 1.4177L1.13955 1.18096L0.813717 1.4177L0.93818 1.03463L0.612305 0.797858H1.01509L1.13959 0.414795ZM3.41959 0.414795L3.54409 0.797858H3.94691L3.621 1.03463L3.7455 1.4177L3.41959 1.18096L3.09375 1.4177L3.21821 1.03463L2.89234 0.797858H3.29513L3.41959 0.414795ZM5.69966 0.414795L5.82413 0.797858H6.22695L5.90104 1.03463L6.02554 1.4177L5.69966 1.18096L5.37379 1.4177L5.49825 1.03463L5.17238 0.797858H5.5752L5.69966 0.414795ZM7.97963 0.414795L8.10409 0.797858H8.50688L8.181 1.03463L8.30546 1.4177L7.97963 1.18096L7.65371 1.4177L7.77821 1.03463L7.4523 0.797858H7.85513L7.97963 0.414795ZM10.2597 0.414795L10.3842 0.797858H10.787L10.4611 1.03463L10.5856 1.4177L10.2597 1.18096L9.93383 1.4177L10.0583 1.03463L9.73241 0.797858H10.1352L10.2597 0.414795ZM12.5398 0.414795L12.6643 0.797858H13.0671L12.7412 1.03463L12.8657 1.4177L12.5398 1.18096L12.2139 1.4177L12.3384 1.03463L12.0125 0.797858H12.4153L12.5398 0.414795ZM2.27966 1.38406L2.40413 1.76712H2.80695L2.48104 2.00386L2.60558 2.38696L2.27966 2.15022L1.95379 2.38696L2.07825 2.00386L1.75238 1.76712H2.1552L2.27966 1.38406ZM4.55963 1.38406L4.68409 1.76712H5.08688L4.761 2.00386L4.88546 2.38696L4.55963 2.15022L4.23371 2.38696L4.35821 2.00386L4.0323 1.76712H4.43513L4.55963 1.38406ZM6.8397 1.38406L6.96416 1.76712H7.36699L7.04108 2.00386L7.16558 2.38696L6.83966 2.15022L6.51383 2.38696L6.63829 2.00386L6.31241 1.76712H6.7152L6.8397 1.38406ZM9.11978 1.38406L9.24424 1.76712H9.64706L9.32115 2.00386L9.44565 2.38696L9.11978 2.15022L8.79387 2.38696L8.91844 2.00386L8.59253 1.76712H8.99535L9.11978 1.38406ZM11.3998 1.38406L11.5242 1.76712H11.927L11.6011 2.00386L11.7256 2.38696L11.3998 2.15022L11.0739 2.38696L11.1984 2.00386L10.8724 1.76712H11.2753L11.3998 1.38406ZM1.13966 2.35329L1.26413 2.73635H1.66695L1.34104 2.97312L1.46554 3.35619L1.13963 3.11945L0.813792 3.35619L0.938255 2.97312L0.61238 2.73635H1.01516L1.13966 2.35329ZM3.41966 2.35329L3.54416 2.73635H3.94699L3.62108 2.97312L3.74558 3.35619L3.41966 3.11945L3.09383 3.35619L3.21829 2.97312L2.89241 2.73635H3.2952L3.41966 2.35329ZM5.69974 2.35329L5.8242 2.73635H6.22703L5.90111 2.97312L6.02561 3.35619L5.69974 3.11945L5.37386 3.35619L5.49833 2.97312L5.17245 2.73635H5.57528L5.69974 2.35329ZM7.9797 2.35329L8.10416 2.73635H8.50695L8.18108 2.97312L8.30554 3.35619L7.9797 3.11945L7.65379 3.35619L7.77829 2.97312L7.45238 2.73635H7.8552L7.9797 2.35329ZM10.2598 2.35329L10.3843 2.73635H10.7871L10.4612 2.97312L10.5857 3.35619L10.2598 3.11945L9.9339 3.35619L10.0584 2.97312L9.73249 2.73635H10.1353L10.2598 2.35329ZM12.5399 2.35329L12.6643 2.73635H13.0672L12.7413 2.97312L12.8658 3.35619L12.5399 3.11945L12.214 3.35619L12.3385 2.97312L12.0126 2.73635H12.4154L12.5399 2.35329ZM2.27974 3.32251L2.4042 3.70561H2.80703L2.48111 3.94235L2.60565 4.32545L2.27974 4.08871L1.95386 4.32545L2.07833 3.94235L1.75245 3.70561H2.15528L2.27974 3.32251ZM4.5597 3.32251L4.68416 3.70561H5.08695L4.76108 3.94235L4.88554 4.32545L4.5597 4.08871L4.23379 4.32545L4.35829 3.94235L4.03238 3.70561H4.4352L4.5597 3.32251ZM6.83978 3.32251L6.96424 3.70561H7.36706L7.04115 3.94235L7.16565 4.32545L6.83974 4.08871L6.5139 4.32545L6.63836 3.94235L6.31249 3.70561H6.71528L6.83978 3.32251ZM9.11985 3.32251L9.24431 3.70561H9.64714L9.32123 3.94235L9.44573 4.32545L9.11985 4.08871L8.79394 4.32545L8.91848 3.94235L8.59256 3.70561H8.99539L9.11985 3.32251ZM11.3998 3.32251L11.5243 3.70561H11.9271L11.6012 3.94235L11.7257 4.32545L11.3998 4.08871L11.0739 4.32545L11.1984 3.94235L10.8725 3.70561H11.2753L11.3998 3.32251ZM1.13974 4.29178L1.2642 4.67484H1.66703L1.34111 4.91162L1.46561 5.29468L1.1397 5.05794L0.813867 5.29468L0.93833 4.91162L0.612455 4.67484H1.01524L1.13974 4.29178ZM3.41974 4.29178L3.54424 4.67484H3.94706L3.62115 4.91162L3.74565 5.29468L3.41974 5.05794L3.0939 5.29468L3.21836 4.91162L2.89249 4.67484H3.29528L3.41974 4.29178ZM5.69981 4.29178L5.82428 4.67484H6.2271L5.90119 4.91162L6.02569 5.29468L5.69981 5.05794L5.37394 5.29468L5.4984 4.91162L5.17253 4.67484H5.57535L5.69981 4.29178ZM7.97978 4.29178L8.10424 4.67484H8.50703L8.18115 4.91162L8.30561 5.29468L7.97978 5.05794L7.65386 5.29468L7.77836 4.91162L7.45245 4.67484H7.85528L7.97978 4.29178ZM10.2599 4.29178L10.3843 4.67484H10.7872L10.4613 4.91162L10.5858 5.29468L10.2598 5.05794L9.93398 5.29468L10.0585 4.91162L9.73256 4.67484H10.1354L10.2599 4.29178ZM12.54 4.29178L12.6644 4.67484H13.0672L12.7413 4.91162L12.8658 5.29468L12.54 5.05794L12.214 5.29468L12.3386 4.91162L12.0127 4.67484H12.4155L12.54 4.29178ZM2.27981 5.261L2.40428 5.6441H2.8071L2.48119 5.88084L2.60573 6.26394L2.27981 6.02721L1.95394 6.26394L2.0784 5.88084L1.75253 5.6441H2.15535L2.27981 5.261ZM4.55978 5.261L4.68424 5.6441H5.08703L4.76115 5.88084L4.88561 6.26394L4.55978 6.02721L4.23386 6.26394L4.35836 5.88084L4.03245 5.6441H4.43528L4.55978 5.261ZM6.83985 5.261L6.96431 5.6441H7.36714L7.04123 5.88084L7.16573 6.26394L6.83981 6.02721L6.51398 6.26394L6.63844 5.88084L6.31256 5.6441H6.71535L6.83985 5.261ZM9.11993 5.261L9.24439 5.6441H9.64721L9.3213 5.88084L9.4458 6.26394L9.11993 6.02721L8.79402 6.26394L8.91855 5.88084L8.59264 5.6441H8.99546L9.11993 5.261ZM11.3999 5.261L11.5244 5.6441H11.9272L11.6013 5.88084L11.7258 6.26394L11.3999 6.02721L11.074 6.26394L11.1985 5.88084L10.8726 5.6441H11.2754L11.3999 5.261ZM1.13959 6.23023L1.26405 6.61329H1.66688L1.34096 6.85007L1.46546 7.23313L1.13955 6.99639L0.813717 7.23313L0.93818 6.85007L0.612305 6.61329H1.01509L1.13959 6.23023ZM3.41959 6.23023L3.54409 6.61329H3.94691L3.621 6.85007L3.7455 7.23313L3.41959 6.99639L3.09375 7.23313L3.21821 6.85007L2.89234 6.61329H3.29513L3.41959 6.23023ZM5.69966 6.23023L5.82413 6.61329H6.22695L5.90104 6.85007L6.02554 7.23313L5.69966 6.99639L5.37379 7.23313L5.49825 6.85007L5.17238 6.61329H5.5752L5.69966 6.23023ZM7.97963 6.23023L8.10409 6.61329H8.50688L8.181 6.85007L8.30546 7.23313L7.97963 6.99639L7.65371 7.23313L7.77821 6.85007L7.4523 6.61329H7.85513L7.97963 6.23023ZM10.2597 6.23023L10.3842 6.61329H10.787L10.4611 6.85007L10.5856 7.23313L10.2597 6.99639L9.93383 7.23313L10.0583 6.85007L9.73241 6.61329H10.1352L10.2597 6.23023ZM12.5398 6.23023L12.6643 6.61329H13.0671L12.7412 6.85007L12.8657 7.23313L12.5398 6.99639L12.2139 7.23313L12.3384 6.85007L12.0125 6.61329H12.4153L12.5398 6.23023ZM2.27966 7.19946L2.40413 7.58256H2.80695L2.48104 7.8193L2.60558 8.2024L2.27966 7.96566L1.95379 8.2024L2.07825 7.8193L1.75238 7.58256H2.1552L2.27966 7.19946ZM4.55963 7.19946L4.68409 7.58256H5.08688L4.761 7.8193L4.88546 8.2024L4.55963 7.96566L4.23371 8.2024L4.35821 7.8193L4.0323 7.58256H4.43513L4.55963 7.19946ZM6.8397 7.19946L6.96416 7.58256H7.36699L7.04108 7.8193L7.16558 8.2024L6.83966 7.96566L6.51383 8.2024L6.63829 7.8193L6.31241 7.58256H6.7152L6.8397 7.19946ZM9.11978 7.19946L9.24424 7.58256H9.64706L9.32115 7.8193L9.44565 8.2024L9.11978 7.96566L8.79387 8.2024L8.9184 7.8193L8.59249 7.58256H8.99531L9.11978 7.19946ZM11.3998 7.19946L11.5242 7.58256H11.927L11.6011 7.8193L11.7256 8.2024L11.3998 7.96566L11.0739 8.2024L11.1984 7.8193L10.8724 7.58256H11.2753L11.3998 7.19946ZM1.13959 8.16872L1.26405 8.55178H1.66688L1.34096 8.78856L1.46546 9.17162L1.13955 8.93489L0.813717 9.17162L0.93818 8.78856L0.612305 8.55178H1.01509L1.13959 8.16872ZM3.41959 8.16872L3.54409 8.55178H3.94691L3.621 8.78856L3.7455 9.17162L3.41959 8.93489L3.09375 9.17162L3.21821 8.78856L2.89234 8.55178H3.29513L3.41959 8.16872ZM5.69966 8.16872L5.82413 8.55178H6.22695L5.90104 8.78856L6.02554 9.17162L5.69966 8.93489L5.37379 9.17162L5.49825 8.78856L5.17238 8.55178H5.5752L5.69966 8.16872ZM7.97963 8.16872L8.10409 8.55178H8.50688L8.181 8.78856L8.30546 9.17162L7.97963 8.93489L7.65371 9.17162L7.77821 8.78856L7.4523 8.55178H7.85513L7.97963 8.16872ZM10.2597 8.16872L10.3842 8.55178H10.787L10.4611 8.78856L10.5856 9.17162L10.2597 8.93489L9.93383 9.17162L10.0583 8.78856L9.73241 8.55178H10.1352L10.2597 8.16872ZM12.5398 8.16872L12.6643 8.55178H13.0671L12.7412 8.78856L12.8657 9.17162L12.5398 8.93489L12.2139 9.17162L12.3384 8.78856L12.0125 8.55178H12.4153L12.5398 8.16872Z" fill="white"/>
        </g>
        <defs>
            <clipPath id="clip0">
                <rect width="24" height="18" fill="white"/>
            </clipPath>
        </defs>
    </g>

    <g id="all" fill="none">
        <rect width="6" height="6" rx="3" fill="#48AE4D"/>
        <rect x="18" width="6" height="6" rx="3" fill="#48AE4D"/>
        <rect y="9" width="6" height="6" rx="3" fill="#48AE4D"/>
        <rect x="9" y="9" width="6" height="6" rx="3" fill="#48AE4D"/>
        <rect x="18" y="9" width="6" height="6" rx="3" fill="#48AE4D"/>
        <rect x="9" width="6" height="6" rx="3" fill="#48AE4D"/>
    </g>

    <g id="ipo" fill="none">
        <rect width="24" height="18" fill="#48AE4D"/>
        <circle cx="7" cy="9" r="3" fill="white"/>
        <circle cx="15" cy="9" r="5" fill="white"/>
    </g>

    <g id="dividends" fill="none">
        <path fill-rule="evenodd" clip-rule="evenodd" d="M0 2C0 0.89543 0.895431 0 2 0H17.8232C18.5495 0 19.2188 0.393784 19.5715 1.02871L22.9208 7.05743C23.592 8.26552 23.592 9.73448 22.9208 10.9426L19.5715 16.9713C19.2188 17.6062 18.5495 18 17.8232 18H2C0.895431 18 0 17.1046 0 16V2ZM19 9C19 9.55229 18.5523 10 18 10C17.4477 10 17 9.55229 17 9C17 8.44771 17.4477 8 18 8C18.5523 8 19 8.44771 19 9ZM6.34862 3C7.87156 3 8.69725 3.86747 8.69725 5.28112V6.1004C8.69725 7.51406 7.87156 8.3494 6.34862 8.3494C4.80734 8.3494 4 7.51406 4 6.1004V5.28112C4 3.86747 4.80734 3 6.34862 3ZM6.34862 4.18876C5.72477 4.18876 5.44954 4.51004 5.44954 5.29719V6.1004C5.44954 6.90361 5.72477 7.20884 6.34862 7.20884C6.97248 7.20884 7.24771 6.90361 7.24771 6.1004V5.29719C7.24771 4.51004 6.97248 4.18876 6.34862 4.18876ZM5.94495 14.8072H4.40367L11.9266 3.16064H13.4862L5.94495 14.8072ZM11.6514 9.66667C13.1743 9.66667 14 10.5341 14 11.9478V12.7671C14 14.1647 13.1743 15 11.6514 15C10.1101 15 9.30275 14.1647 9.30275 12.7671V11.9478C9.30275 10.5341 10.1101 9.66667 11.6514 9.66667ZM11.6514 10.8554C11.0275 10.8554 10.7523 11.1606 10.7523 11.9478V12.7671C10.7523 13.5703 11.0275 13.8755 11.6514 13.8755C12.2752 13.8755 12.5505 13.5703 12.5505 12.7671V11.9478C12.5505 11.1606 12.2752 10.8554 11.6514 10.8554Z" fill="#48AE4D"/>
    </g>

    <g id="bonds" fill="none">
        <rect width="24" height="18" fill="#48AE4D"/>
        <path d="M11.2052 12.7467C10.6594 13.2511 9.90453 13.364 9.23499 13.0416C8.99295 12.9251 8.78869 12.7641 8.62878 12.5713L7.71711 14.5878C7.67563 14.6795 7.72195 14.7487 7.74377 14.7741C7.76559 14.7996 7.82687 14.8559 7.92383 14.8289L8.58752 14.6442C8.66315 14.6231 8.73961 14.613 8.81499 14.613C9.13303 14.613 9.43236 14.793 9.57649 15.0913L9.87623 15.7116C9.92001 15.8022 10.0021 15.8113 10.0363 15.8106C10.0698 15.8102 10.1523 15.7993 10.1937 15.7075L11.6439 12.5C11.4845 12.5459 11.3337 12.628 11.2052 12.7467Z" fill="white"/>
        <path d="M16.2828 14.5878L15.3712 12.5713C15.2113 12.7641 15.007 12.9251 14.7649 13.0416C14.0954 13.364 13.3405 13.2511 12.7947 12.7467C12.6663 12.628 12.5154 12.5459 12.356 12.5L13.8061 15.7075C13.8476 15.7993 13.9301 15.8102 13.9636 15.8106C13.9978 15.8113 14.0799 15.8022 14.1237 15.7116L14.4234 15.0913C14.5675 14.793 14.8669 14.613 15.1849 14.613C15.2603 14.613 15.3368 14.6231 15.4124 14.6442L16.0761 14.8289C16.173 14.8559 16.2343 14.7996 16.2561 14.7741C16.278 14.7486 16.3243 14.6795 16.2828 14.5878Z" fill="white"/>
        <path d="M16.999 7.68179C16.2418 7.16335 16.0069 6.13399 16.4641 5.33837C16.739 4.8601 16.5959 4.38749 16.3704 4.10468C16.1449 3.82194 15.7159 3.57735 15.1885 3.73882C14.3113 4.00752 13.3599 3.54946 13.0229 2.6959C12.8203 2.18282 12.3616 2 12 2C11.6383 2 11.1796 2.18282 10.977 2.69593C10.6401 3.54952 9.68876 4.00752 8.81139 3.73884C8.28395 3.57741 7.85507 3.82194 7.62951 4.1047C7.404 4.38752 7.26097 4.86007 7.5358 5.3384C7.99304 6.13399 7.7581 7.16338 7.00096 7.68181C6.54579 7.9935 6.46964 8.48134 6.55008 8.83397C6.63053 9.18659 6.91086 9.59306 7.45617 9.67637C8.36328 9.81495 9.02155 10.6404 8.95486 11.5556C8.91472 12.1058 9.24867 12.4695 9.57452 12.6265C9.90041 12.7834 10.393 12.8178 10.7981 12.4433C11.135 12.132 11.5676 11.9762 11.9999 11.9762C12.4325 11.9762 12.8648 12.1319 13.2018 12.4433C13.6069 12.8178 14.0995 12.7834 14.4254 12.6265C14.7512 12.4696 15.0852 12.1058 15.045 11.5557C14.9784 10.6404 15.6366 9.81498 16.5437 9.67637C17.089 9.59306 17.3693 9.18657 17.4498 8.83397C17.5303 8.48129 17.4541 7.99345 16.999 7.68179ZM12 11.1854C10.0155 11.1854 8.40101 9.57091 8.40101 7.58644C8.40101 5.60196 10.0155 3.98745 12 3.98745C13.9845 3.98745 15.5989 5.60194 15.5989 7.58641C15.5989 9.57088 13.9844 11.1854 12 11.1854Z" fill="white"/>
        <path d="M12 4.65845C10.3855 4.65845 9.07208 5.97193 9.07208 7.58639C9.07208 9.20085 10.3855 10.5143 12 10.5143C13.6145 10.5143 14.9279 9.20085 14.9279 7.58639C14.9279 5.97193 13.6145 4.65845 12 4.65845Z" fill="white"/>
    </g>

    <g id="etf" fill="none">
        <path d="M9.48876 0C4.24463 0 0 4.24392 0 9.48876C0 9.77111 0.228889 10 0.511238 10H9.48876C9.77111 10 10 9.77111 10 9.48876V0.511238C10 0.228889 9.77111 0 9.48876 0Z" fill="#48AE4D"/>
        <path d="M6.04135 11.8506C5.94875 11.6815 5.77124 11.5764 5.57844 11.5764H2.45677C2.28876 11.5764 2.13073 11.6564 2.03131 11.7919C1.93185 11.9274 1.90288 12.102 1.95319 12.2624C2.94738 15.4288 5.81494 17.7831 9.26888 17.9999V14.0434C7.91416 13.8753 6.70791 13.0675 6.04135 11.8506Z" fill="#48AE4D"/>
        <path d="M12.2623 1.9534C12.102 1.90313 11.9272 1.93213 11.7918 2.03152C11.6563 2.13098 11.5764 2.28897 11.5764 2.45702V5.57865C11.5764 5.77141 11.6815 5.94888 11.8506 6.04152C13.0674 6.70815 13.8752 7.91437 14.0433 9.26904H17.9999C17.7825 5.80762 15.4213 2.94527 12.2623 1.9534Z" fill="#48AE4D"/>
        <path d="M14.0442 10.3247C13.8047 12.2635 12.2635 13.8047 10.3247 14.0442V17.9997C14.4434 17.7404 17.7401 14.449 17.9996 10.3247H14.0442Z" fill="#48AE4D"/>
    </g>

    <view id="eu" viewBox="0 0 24 18"></view>
    <view id="us" viewBox="0 0 24 15"></view>
    <view id="all" viewBox="0 0 24 18"></view>
    <view id="ipo" viewBox="0 0 24 18"></view>
    <view id="dividends" viewBox="0 0 24 18"></view>
    <view id="bonds" viewBox="0 0 24 18"></view>
    <view id="etf" viewBox="0 0 18 18"></view>
</svg>
