<svg width="32" height="40" viewBox="0 0 32 40" fill="none" xmlns="http://www.w3.org/2000/svg">
<path fill-rule="evenodd" clip-rule="evenodd" d="M0 0.77852C0 0.348555 0.349031 0 0.779582 0H30.7204C31.151 0 31.5 0.348555 31.5 0.77852V36.2721C31.5 38.3293 29.8271 40 27.7671 40H0.779582C0.349031 40 0 39.6514 0 39.2215V0.77852ZM1.55916 1.55704V38.443H27.7671C28.966 38.443 29.9408 37.4694 29.9408 36.2721V1.55704H1.55916Z" fill="#72BF44"/>
<path fill-rule="evenodd" clip-rule="evenodd" d="M5.09277 6.16866C5.09277 5.73869 5.4418 5.39014 5.87236 5.39014H25.5274C25.958 5.39014 26.307 5.73869 26.307 6.16866C26.307 6.59862 25.958 6.94718 25.5274 6.94718H5.87236C5.4418 6.94718 5.09277 6.59862 5.09277 6.16866Z" fill="#72BF44"/>
<path fill-rule="evenodd" clip-rule="evenodd" d="M5.09277 12.1691C5.09277 11.7392 5.4418 11.3906 5.87236 11.3906H25.5274C25.958 11.3906 26.307 11.7392 26.307 12.1691C26.307 12.5991 25.958 12.9477 25.5274 12.9477H5.87236C5.4418 12.9477 5.09277 12.5991 5.09277 12.1691Z" fill="#72BF44"/>
<path fill-rule="evenodd" clip-rule="evenodd" d="M5.09277 18.2712C5.09277 17.8412 5.4418 17.4927 5.87236 17.4927H25.5274C25.958 17.4927 26.307 17.8412 26.307 18.2712C26.307 18.7012 25.958 19.0497 25.5274 19.0497H5.87236C5.4418 19.0497 5.09277 18.7012 5.09277 18.2712Z" fill="#72BF44"/>
</svg>
