<svg width="74" height="74" viewBox="0 0 74 74" fill="none" xmlns="http://www.w3.org/2000/svg">
<path d="M36.9932 19.5105C35.8924 19.5105 34.8163 19.1775 33.9011 18.5537C32.9858 17.93 32.2724 17.0434 31.8512 16.006C31.4299 14.9687 31.3197 13.8273 31.5344 12.7261C31.7492 11.6249 32.2793 10.6134 33.0577 9.81946C33.836 9.02553 34.8277 8.48486 35.9074 8.26582C36.987 8.04678 38.1061 8.1592 39.1231 8.58887C40.1401 9.01854 41.0093 9.74615 41.6209 10.6797C42.2325 11.6133 42.5589 12.7108 42.5589 13.8336C42.5589 14.5791 42.4149 15.3173 42.1352 16.006C41.8555 16.6948 41.4456 17.3206 40.9287 17.8478C40.4119 18.3749 39.7984 18.7931 39.1231 19.0783C38.4478 19.3636 37.7241 19.5105 36.9932 19.5105V19.5105Z" stroke="#72BF44" stroke-width="3" stroke-linecap="round" stroke-linejoin="round"/>
<path d="M21.3665 31.126V56.8029H13.6602V31.126" stroke="#72BF44" stroke-width="3" stroke-linecap="round" stroke-linejoin="round"/>
<path d="M40.611 31.126V56.8029H32.9047V31.126" stroke="#72BF44" stroke-width="3" stroke-linecap="round" stroke-linejoin="round"/>
<path d="M60.348 31.126V56.8029H52.6416V31.126" stroke="#72BF44" stroke-width="3" stroke-linecap="round" stroke-linejoin="round"/>
<path d="M5.18323 62.502V61.002C4.3548 61.002 3.68323 61.6735 3.68323 62.502H5.18323ZM5.18323 71.9998H3.68323C3.68323 72.8282 4.3548 73.4998 5.18323 73.4998V71.9998ZM66.3418 71.9998L66.3418 70.4998H66.3418V71.9998ZM71.8861 66.3229L70.3861 66.3229L70.3861 66.3286L71.8861 66.3229ZM71.8861 62.502H73.3861C73.3861 61.6735 72.7145 61.002 71.8861 61.002V62.502ZM3.68323 62.502V71.9998H6.68323V62.502H3.68323ZM5.18323 73.4998H66.3418V70.4998H5.18323V73.4998ZM66.3418 73.4998C67.2733 73.4998 68.195 73.3121 69.0536 72.9484L67.8833 70.1861C67.3938 70.3934 66.87 70.4998 66.3418 70.4998L66.3418 73.4998ZM69.0536 72.9484C69.9121 72.5847 70.6898 72.0525 71.3429 71.3838L69.1967 69.2877C68.8195 69.6739 68.3729 69.9787 67.8833 70.1861L69.0536 72.9484ZM71.3429 71.3838C71.9959 70.7152 72.5115 69.9232 72.8616 69.0541L70.0788 67.9333C69.8742 68.4414 69.5739 68.9015 69.1967 69.2877L71.3429 71.3838ZM72.8616 69.0541C73.2116 68.1851 73.3896 67.2551 73.3861 66.3172L70.3861 66.3286C70.3882 66.8797 70.2835 67.4251 70.0788 67.9333L72.8616 69.0541ZM73.3861 66.3229V62.502H70.3861V66.3229H73.3861ZM71.8861 61.002H5.18323V64.002H71.8861V61.002Z" fill="#72BF44"/>
<path d="M31.6631 3.46261C33.2902 2.50444 35.1359 2 37.0147 2C38.8935 2 40.7393 2.50444 42.3664 3.46261L70.3447 19.991C70.6259 20.0656 70.8898 20.1959 71.1216 20.3745C71.3533 20.5531 71.5483 20.7765 71.6954 21.0319C71.8425 21.2874 71.9388 21.5699 71.9789 21.8633C72.0189 22.1568 72.0019 22.4554 71.9288 22.7421C71.8557 23.0288 71.728 23.2981 71.5529 23.5345C71.3778 23.7708 71.1588 23.9697 70.9083 24.1197C70.6578 24.2698 70.3809 24.368 70.0932 24.4089C69.8055 24.4497 69.5127 24.4324 69.2316 24.3578H4.75503C4.18729 24.5055 3.5853 24.4171 3.08148 24.112C2.57766 23.807 2.21328 23.3103 2.06851 22.7312C1.92374 22.1521 2.01042 21.5381 2.30951 21.0242C2.60859 20.5103 3.09556 20.1387 3.6633 19.991L31.6631 3.46261Z" stroke="#72BF44" stroke-width="3" stroke-linecap="round" stroke-linejoin="round"/>
</svg>
