<svg width="22" height="12" viewBox="0 0 22 12" fill="none" xmlns="http://www.w3.org/2000/svg">
<path d="M22 0H0V12H22V0Z" fill="#B22234"/>
<path d="M0 1H22H0ZM22 3H0H22ZM0 5H22H0ZM22 7H0H22ZM0 9H22H0ZM22 11H0H22Z" fill="black"/>
<path fill-rule="evenodd" clip-rule="evenodd" d="M0 1H22V1.90909H0V1ZM22 3.72727H0V2.81818H22V3.72727ZM0 4.63636H22V5.54545H0V4.63636ZM22 7.36364H0V6.45455H22V7.36364ZM0 8.27273H22V9.18182H0V8.27273ZM0 10.0909H22V11H0V10.0909Z" fill="white"/>
<path d="M8.6087 0H0V7H8.6087V0Z" fill="#3C3B6E"/>
<path d="M0.478261 0L0.773842 1L0 0.381966H0.956522L0.182679 1L0.478261 0Z" fill="white"/>
</svg>
