<svg width="286" height="286" viewBox="0 0 286 286" fill="none" xmlns="http://www.w3.org/2000/svg">
<path fill-rule="evenodd" clip-rule="evenodd" d="M123.043 89.5705C123.043 86.4975 125.558 84.0063 128.659 84.0063H154.13C163.406 84.0063 172.303 87.6578 178.862 94.1574C185.422 100.657 189.107 109.472 189.107 118.664C189.107 127.856 185.422 136.671 178.862 143.171C172.303 149.67 163.406 153.322 154.13 153.322H134.274V196.344C134.274 199.417 131.76 201.908 128.659 201.908C125.558 201.908 123.043 199.417 123.043 196.344V153.322H102.747C99.646 153.322 97.1319 150.831 97.1319 147.758C97.1319 144.685 99.646 142.194 102.747 142.194H123.043V89.5705ZM134.274 142.194H154.13C160.428 142.194 166.468 139.715 170.921 135.302C175.374 130.889 177.876 124.904 177.876 118.664C177.876 112.424 175.374 106.439 170.921 102.026C166.468 97.6136 160.428 95.1346 154.13 95.1346H134.274V142.194Z" fill="#F7F7F7"/>
<path fill-rule="evenodd" clip-rule="evenodd" d="M97.2786 171.179C97.2786 168.106 99.7927 165.615 102.894 165.615H153.836C156.937 165.615 159.452 168.106 159.452 171.179C159.452 174.252 156.937 176.743 153.836 176.743H102.894C99.7927 176.743 97.2786 174.252 97.2786 171.179Z" fill="#F7F7F7"/>
<path fill-rule="evenodd" clip-rule="evenodd" d="M141.637 3.64164e-05L141.652 0C179.922 1.30058e-05 216.626 15.0589 243.694 41.8662C270.763 68.6734 285.98 105.034 286 142.956C286.002 146.029 283.489 148.521 280.388 148.523C277.286 148.524 274.771 146.035 274.769 142.962C274.751 107.991 260.717 74.4586 235.755 49.7371C210.794 25.0173 176.949 11.1302 141.659 11.1283C124.333 11.1731 107.189 14.629 91.2222 21.2952C75.2535 27.9624 60.7814 37.7079 48.6468 49.9653C36.5122 62.2228 26.9573 76.7477 20.5371 92.696C14.117 108.644 10.9598 125.698 11.249 142.866L11.2501 142.93L11.2497 142.93C11.3413 160.424 14.925 177.728 21.7943 193.844C28.6636 209.96 38.6828 224.57 51.2748 236.833C63.8669 249.096 78.7829 258.77 95.164 265.296C109.828 271.139 125.406 274.356 141.174 274.815V254.075C120.845 253.87 100.914 248.187 83.5426 237.583C64.5065 225.964 49.4138 208.967 40.2056 188.779C30.9974 168.591 28.0949 146.135 31.8713 124.299C35.6476 102.463 45.9302 82.2459 61.3966 66.2476C76.8629 50.2494 96.8058 39.2016 118.66 34.5253C140.515 29.8489 163.281 31.7578 184.032 40.0063C204.782 48.2549 222.568 62.466 235.102 80.8119C247.635 99.1578 254.343 120.8 254.363 142.954V142.972C254.311 164.356 248.036 185.271 236.291 203.211C224.545 221.151 207.828 235.353 188.142 244.116C185.313 245.375 181.989 244.123 180.718 241.32C179.447 238.517 180.711 235.224 183.54 233.965C201.255 226.079 216.299 213.298 226.869 197.154C237.438 181.012 243.084 162.192 243.132 142.95C243.112 123.021 237.076 103.554 225.801 87.0502C214.524 70.5431 198.521 57.7564 179.85 50.3345C161.179 42.9127 140.695 41.1952 121.031 45.4028C101.367 49.6105 83.4229 59.5509 69.5067 73.9457C55.5905 88.3404 46.3385 106.531 42.9407 126.178C39.5428 145.826 42.1544 166.031 50.4397 184.196C58.7249 202.36 72.3049 217.653 89.433 228.108C106.561 238.563 126.454 243.702 146.554 242.864C148.082 242.8 149.571 243.357 150.676 244.406C151.781 245.456 152.405 246.906 152.405 248.423V280.426C152.405 283.472 149.932 285.953 146.858 285.989C127.722 286.219 108.73 282.696 90.9741 275.621C73.2187 268.547 57.0511 258.062 43.4025 244.77C29.7539 231.478 18.8941 215.642 11.4484 198.173C4.00692 180.715 0.122757 161.971 0.0192403 143.019C-0.290312 124.388 3.13811 105.881 10.1056 88.573C17.0771 71.255 27.4527 55.4826 40.6294 42.1725C53.8061 28.8624 69.5212 18.2799 86.8613 11.0401C104.201 3.80034 122.821 0.0476144 141.637 3.64164e-05Z" fill="#F7F7F7"/>
</svg>
