<svg width="40" height="34" viewBox="0 0 40 34" fill="none" xmlns="http://www.w3.org/2000/svg">
  <path fill-rule="evenodd" clip-rule="evenodd" d="M0 0.661742C0 0.296272 0.304416 0 0.679931 0H26.7935C27.1691 0 27.4735 0.296272 27.4735 0.661742V12.5048C27.4735 12.8703 27.1691 13.1666 26.7935 13.1666C26.418 13.1666 26.1136 12.8703 26.1136 12.5048V1.32348H1.35986V32.6765H24.2177C25.2634 32.6765 26.1136 31.849 26.1136 30.8313C26.1136 30.4658 26.418 30.1696 26.7935 30.1696C27.1691 30.1696 27.4735 30.4658 27.4735 30.8313C27.4735 32.5799 26.0144 34 24.2177 34H0.679931C0.304416 34 0 33.7037 0 33.3383V0.661742Z" />
  <path fill-rule="evenodd" clip-rule="evenodd" d="M4.44141 5.24338C4.44141 4.87791 4.74582 4.58164 5.12134 4.58164H22.264C22.6395 4.58164 22.9439 4.87791 22.9439 5.24338C22.9439 5.60885 22.6395 5.90513 22.264 5.90513H5.12134C4.74582 5.90513 4.44141 5.60885 4.44141 5.24338Z" />
  <path fill-rule="evenodd" clip-rule="evenodd" d="M4.44141 10.3437C4.44141 9.97821 4.74582 9.68194 5.12134 9.68194H22.264C22.6395 9.68194 22.9439 9.97821 22.9439 10.3437C22.9439 10.7092 22.6395 11.0054 22.264 11.0054H5.12134C4.74582 11.0054 4.44141 10.7092 4.44141 10.3437Z" />
  <path fill-rule="evenodd" clip-rule="evenodd" d="M4.44141 15.5304C4.44141 15.165 4.74582 14.8687 5.12134 14.8687H22.264C22.6395 14.8687 22.9439 15.165 22.9439 15.5304C22.9439 15.8959 22.6395 16.1922 22.264 16.1922H5.12134C4.74582 16.1922 4.44141 15.8959 4.44141 15.5304Z" />
  <path fill-rule="evenodd" clip-rule="evenodd" d="M32.0833 10.9729C32.0831 10.9731 32.0831 10.9732 32.0832 10.973L32.0833 10.9729ZM32.0841 10.9721L32.0838 10.9724L32.0734 10.9828L19.8826 22.9311L24.8544 27.9867L37.1534 16.183C37.1582 16.1784 37.1631 16.1739 37.168 16.1694C37.1681 16.1693 37.1683 16.1692 37.1684 16.1691L37.1687 16.1688C37.1688 16.1687 37.169 16.1685 37.1691 16.1684L37.1717 16.166C37.1758 16.1622 37.183 16.1555 37.1929 16.146C37.2128 16.1269 37.2437 16.0966 37.2833 16.056C37.3625 15.9744 37.4753 15.8521 37.6027 15.6954C37.8596 15.3791 38.1637 14.9374 38.3763 14.4202C38.5881 13.9048 38.7011 13.3348 38.6076 12.7432C38.5153 12.1596 38.2139 11.5012 37.5053 10.8116C36.7927 10.118 36.1158 9.81261 35.5189 9.70932C34.9158 9.60497 34.3408 9.69794 33.8256 9.88365C33.3078 10.0703 32.8674 10.3449 32.5526 10.5783C32.3966 10.6939 32.2752 10.7967 32.1945 10.8688C32.1543 10.9048 32.1245 10.9329 32.1058 10.9509C32.1015 10.9551 32.0977 10.9587 32.0946 10.9617C32.0911 10.9652 32.0883 10.9679 32.0864 10.9698L32.0841 10.9721ZM38.1026 17.1307L38.1101 17.1239C38.1193 17.1154 38.1317 17.1037 38.147 17.0891C38.1776 17.0598 38.2198 17.0183 38.2712 16.9654C38.3738 16.8599 38.5136 16.708 38.6693 16.5163C38.9786 16.1356 39.3629 15.5832 39.6389 14.9117C39.9156 14.2385 40.0913 13.4254 39.9516 12.542C39.8107 11.6506 39.3572 10.7422 38.4669 9.87576C37.5808 9.01332 36.6588 8.56232 35.7569 8.40627C34.8611 8.25128 34.0372 8.39603 33.3533 8.64255C32.672 8.88814 32.1132 9.24027 31.7285 9.52554C31.5347 9.66922 31.3813 9.79874 31.2746 9.89412C31.2212 9.94189 31.1792 9.98133 31.1495 10.01C31.1346 10.0243 31.1227 10.036 31.114 10.0446L31.1047 10.054L18.6534 22.2576C18.5686 22.288 18.4887 22.3356 18.4193 22.4003C18.2155 22.5901 18.1595 22.8736 18.2542 23.1149L17.24 29.6958C17.2083 29.9009 17.2773 30.1085 17.4263 30.2567C17.5753 30.405 17.7871 30.4767 17.9985 30.4504L22.1731 29.9317C22.5456 29.8854 22.809 29.554 22.7615 29.1915C22.7139 28.829 22.3734 28.5726 22.0009 28.6189L18.7181 29.0267L19.4331 24.3881L24.3493 29.3871C24.4752 29.5151 24.6486 29.5886 24.8306 29.5912C25.0127 29.5938 25.1882 29.5251 25.3179 29.4007L38.1026 17.1307Z"/>
  <path fill-rule="evenodd" clip-rule="evenodd" d="M34.5562 13.5912C34.8227 13.8486 34.8243 14.2676 34.5598 14.527L22.7465 26.1107C22.482 26.3701 22.0515 26.3717 21.7849 26.1142C21.5184 25.8568 21.5168 25.4378 21.7813 25.1784L33.5946 13.5947C33.8592 13.3353 34.2897 13.3337 34.5562 13.5912Z" />
</svg>
