<svg width="14" height="14" viewBox="0 0 14 14" fill="none" xmlns="http://www.w3.org/2000/svg">
<path d="M10.8031 9.7424C10.5102 9.4495 10.0353 9.4495 9.7424 9.7424C9.4495 10.0353 9.4495 10.5102 9.7424 10.8031L10.8031 9.7424ZM12.4697 13.5303C12.7626 13.8232 13.2374 13.8232 13.5303 13.5303C13.8232 13.2374 13.8232 12.7626 13.5303 12.4697L12.4697 13.5303ZM11.1591 6.45455C11.1591 9.05279 9.05279 11.1591 6.45455 11.1591V12.6591C9.88122 12.6591 12.6591 9.88122 12.6591 6.45455H11.1591ZM6.45455 11.1591C3.8563 11.1591 1.75 9.05279 1.75 6.45455H0.25C0.25 9.88122 3.02787 12.6591 6.45455 12.6591V11.1591ZM1.75 6.45455C1.75 3.8563 3.8563 1.75 6.45455 1.75V0.25C3.02787 0.25 0.25 3.02787 0.25 6.45455H1.75ZM6.45455 1.75C9.05279 1.75 11.1591 3.8563 11.1591 6.45455H12.6591C12.6591 3.02787 9.88122 0.25 6.45455 0.25V1.75ZM9.7424 10.8031L12.4697 13.5303L13.5303 12.4697L10.8031 9.7424L9.7424 10.8031Z" fill="#999999"/>
</svg>
