<svg width="32" height="42" viewBox="0 0 32 42" fill="none" xmlns="http://www.w3.org/2000/svg">
<path d="M31.369 5.09131C18.7413 5.09131 16.603 0.429356 16.584 0.385625C16.4913 0.157695 16.2651 0.00530069 16.0034 0C16.0034 0 16.0007 0 15.9952 0C15.7431 0 15.5128 0.152395 15.4147 0.375024C15.397 0.424055 13.2124 5.09131 0.629615 5.09131C0.279375 5.09131 0 5.36827 0 5.70221V26.5922C0 35.1436 15.1067 41.6767 15.7445 41.951C15.829 41.9867 15.9121 42 16.0007 42C16.0838 42 16.1724 41.9867 16.2514 41.951C16.896 41.6767 32 35.1436 32 26.5922V5.70221C31.9986 5.36827 31.7193 5.09131 31.369 5.09131ZM28.5276 25.377C28.5276 32.0678 16.7012 37.187 16.1969 37.399C16.1356 37.4295 16.0647 37.4401 16.0007 37.4401C15.9312 37.4401 15.8671 37.4295 15.799 37.399C15.3016 37.187 3.47515 32.0678 3.47515 25.377V9.02575C3.47515 8.76204 3.69456 8.54471 3.96712 8.54471C13.8202 8.54471 15.5251 4.89253 15.5441 4.85676C15.6218 4.68051 15.8004 4.56124 15.9993 4.56124C16.002 4.56124 16.0048 4.56124 16.0048 4.56124C16.2078 4.56389 16.385 4.68316 16.4586 4.86471C16.4736 4.89784 18.1471 8.54471 28.0342 8.54471C28.3082 8.54471 28.5262 8.76204 28.5262 9.02575C28.5262 9.02575 28.5262 25.377 28.5276 25.377ZM26.1686 25.1995C26.1686 30.6353 16.5676 34.7858 16.1574 34.9567C16.1083 34.9845 16.0497 34.9925 15.998 34.9925C15.9421 34.9925 15.8385 8.3022 15.998 8.3022H16.0007C16.1656 8.30485 16.3128 8.40027 16.37 8.54868C16.3809 8.57519 17.741 11.5356 25.7665 11.5356C25.99 11.5356 26.1686 11.7119 26.1686 11.9239V25.1995Z" fill="#48AE4D"/>
</svg>
