<svg width="33" height="30" viewBox="0 0 33 30" fill="none" xmlns="http://www.w3.org/2000/svg">
<path fill-rule="evenodd" clip-rule="evenodd" d="M0 0.598039C0 0.267751 0.26224 0 0.58573 0H26.0666C26.3901 0 26.6524 0.267751 26.6524 0.598039V9.72067C26.6524 10.051 26.3901 10.3187 26.0666 10.3187C25.7432 10.3187 25.4809 10.051 25.4809 9.72067V1.19608H1.17146V16.8937H3.97767C4.30116 16.8937 4.5634 17.1615 4.5634 17.4918C4.5634 17.8221 4.30116 18.0898 3.97767 18.0898H0.58573C0.26224 18.0898 0 17.8221 0 17.4918V0.598039Z" fill="#48AE4D"/>
<path fill-rule="evenodd" clip-rule="evenodd" d="M0 3.38564C0 3.05535 0.26224 2.7876 0.58573 2.7876H23.1711C23.4946 2.7876 23.7568 3.05535 23.7568 3.38564C23.7568 3.71592 23.4946 3.98368 23.1711 3.98368H0.58573C0.26224 3.98368 0 3.71592 0 3.38564Z" fill="#48AE4D"/>
<path fill-rule="evenodd" clip-rule="evenodd" d="M0.0820312 6.17299C0.0820312 5.8427 0.344272 5.57495 0.667761 5.57495H23.0877C23.4111 5.57495 23.6734 5.8427 23.6734 6.17299C23.6734 6.50328 23.4111 6.77103 23.0877 6.77103H0.667761C0.344272 6.77103 0.0820312 6.50328 0.0820312 6.17299Z" fill="#48AE4D"/>
<path fill-rule="evenodd" clip-rule="evenodd" d="M6.20703 12.5082C6.20703 12.1779 6.46927 11.9102 6.79276 11.9102H32.2737C32.5972 11.9102 32.8594 12.1779 32.8594 12.5082V26.3611C32.8594 28.3807 31.2735 30 29.2954 30H6.79276C6.46927 30 6.20703 29.7322 6.20703 29.4019V12.5082ZM7.37849 13.1062V28.8039H29.2954C30.6265 28.8039 31.6879 27.7202 31.6879 26.3611V13.1062H7.37849Z" fill="#48AE4D"/>
<path fill-rule="evenodd" clip-rule="evenodd" d="M8.93359 22.6444C8.93359 22.3141 9.19583 22.0464 9.51932 22.0464H15.9723C16.2958 22.0464 16.558 22.3141 16.558 22.6444C16.558 22.9747 16.2958 23.2425 15.9723 23.2425H9.51932C9.19583 23.2425 8.93359 22.9747 8.93359 22.6444Z" fill="#48AE4D"/>
<path fill-rule="evenodd" clip-rule="evenodd" d="M8.93359 25.432C8.93359 25.1017 9.19583 24.834 9.51932 24.834H12.994C13.3175 24.834 13.5797 25.1017 13.5797 25.432C13.5797 25.7623 13.3175 26.0301 12.994 26.0301H9.51932C9.19583 26.0301 8.93359 25.7623 8.93359 25.432Z" fill="#48AE4D"/>
<path fill-rule="evenodd" clip-rule="evenodd" d="M23.6692 22.3977C22.6562 22.3977 21.773 23.241 21.773 24.3338C21.773 25.368 22.5989 26.2698 23.6692 26.2698C24.6822 26.2698 25.5654 25.4266 25.5654 24.3338C25.5654 23.2281 24.7521 22.3977 23.6692 22.3977ZM20.6016 24.3338C20.6016 22.5546 22.0348 21.2017 23.6692 21.2017C25.3991 21.2017 26.7368 22.5675 26.7368 24.3338C26.7368 26.1129 25.3036 27.4659 23.6692 27.4659C21.9267 27.4659 20.6016 26.0025 20.6016 24.3338Z" fill="#48AE4D"/>
<path fill-rule="evenodd" clip-rule="evenodd" d="M28.8813 22.8986C28.1173 22.1185 26.9163 22.1185 26.1522 22.8986C25.9235 23.1321 25.5526 23.1321 25.3239 22.8986C25.0952 22.665 25.0952 22.2864 25.3239 22.0528C26.5454 20.8056 28.4881 20.8056 29.7096 22.0528C30.9311 23.3 30.9311 25.2836 29.7096 26.5307C28.4881 27.7779 26.5454 27.7779 25.3239 26.5307C25.0952 26.2972 25.0952 25.9185 25.3239 25.685C25.5526 25.4514 25.9235 25.4514 26.1522 25.685C26.9163 26.465 28.1173 26.465 28.8813 25.685C29.6453 24.9049 29.6453 23.6786 28.8813 22.8986Z" fill="#48AE4D"/>
</svg>
