<svg width="31" height="36" viewBox="0 0 31 36" fill="none" xmlns="http://www.w3.org/2000/svg">
  <path fill-rule="evenodd" clip-rule="evenodd" d="M19.4894 25.9586C19.8439 25.7284 20.3195 25.8266 20.5517 26.178L26.2646 34.8224C26.4969 35.1738 26.3978 35.6453 26.0433 35.8755C25.6889 36.1057 25.2133 36.0075 24.9811 35.6561L19.2681 27.0116C19.0359 26.6603 19.135 26.1888 19.4894 25.9586Z"/>
  <path fill-rule="evenodd" clip-rule="evenodd" d="M11.0513 10.4704C11.3104 10.2914 11.6537 10.2881 11.9163 10.4621L30.6589 22.8823C30.9277 23.0604 31.055 23.3866 30.9772 23.6977C30.8993 24.0089 30.6331 24.2382 30.3114 24.2712L24.4982 24.8674C24.0768 24.9106 23.6997 24.6069 23.6561 24.1891C23.6125 23.7712 23.9189 23.3975 24.3403 23.3542L28.0376 22.9751L12.6939 12.8072L17.1831 31.3372L19.196 26.314C19.3525 25.9236 19.7985 25.7329 20.1923 25.888C20.5861 26.0431 20.7785 26.4853 20.6221 26.8757L17.7155 34.1291C17.592 34.4372 17.2814 34.6306 16.9479 34.607C16.6143 34.5834 16.3345 34.3483 16.2564 34.0259L10.7439 11.272C10.6702 10.9676 10.7921 10.6494 11.0513 10.4704Z"/>
  <path fill-rule="evenodd" clip-rule="evenodd" d="M8.29147 15.4922C8.6092 15.7701 8.6395 16.2508 8.35915 16.5657L5.35232 19.944C5.07197 20.259 4.58713 20.2891 4.26939 20.0111C3.95166 19.7332 3.92136 19.2525 4.20171 18.9376L7.20854 15.5593C7.48889 15.2443 7.97373 15.2142 8.29147 15.4922Z"/>
  <path fill-rule="evenodd" clip-rule="evenodd" d="M0.000770735 11.0607C0.0195846 10.641 0.378003 10.3159 0.801321 10.3346L5.31156 10.5333C5.73488 10.5519 6.06279 10.9073 6.04398 11.3269C6.02516 11.7466 5.66675 12.0717 5.24343 12.053L0.73319 11.8543C0.309872 11.8356 -0.0180431 11.4803 0.000770735 11.0607Z"/>
  <path fill-rule="evenodd" clip-rule="evenodd" d="M4.31671 2.13953C4.6557 1.88749 5.1366 1.9556 5.39085 2.29166L8.09698 5.86868C8.35123 6.20474 8.28253 6.6815 7.94354 6.93354C7.60455 7.18559 7.12364 7.11748 6.8694 6.78142L4.16326 3.20439C3.90902 2.86833 3.97772 2.39158 4.31671 2.13953Z"/>
  <path fill-rule="evenodd" clip-rule="evenodd" d="M14.1041 0.0281874C14.5123 0.141105 14.7508 0.560648 14.6369 0.965263L13.4342 5.23782C13.3203 5.64243 12.8971 5.8789 12.4889 5.76598C12.0808 5.65307 11.8423 5.23352 11.9562 4.82891L13.1589 0.556354C13.2728 0.151738 13.696 -0.0847297 14.1041 0.0281874Z"/>
  <path fill-rule="evenodd" clip-rule="evenodd" d="M21.9245 6.23838C22.0835 6.62777 21.894 7.0712 21.5012 7.2288L17.2916 8.91796C16.8989 9.07557 16.4516 8.88768 16.2926 8.49829C16.1336 8.1089 16.3231 7.66547 16.7159 7.50786L20.9255 5.81871C21.3182 5.6611 21.7655 5.84899 21.9245 6.23838Z"/>
</svg>
