<svg width="10" height="12" viewBox="0 0 10 12" fill="none" xmlns="http://www.w3.org/2000/svg">
    <path d="M3.33618 10.5667C3.33615 10.5698 3.33594 10.5729 3.33594 10.576C3.33594 11.3625 3.99281 12 4.80311 12C5.61341 12 6.27028 11.3625 6.27028 10.576C6.27028 10.5729 6.27007 10.5698 6.27004 10.5667H3.33618Z" fill="#72BF44"/>
    <path d="M9.48437 8.79667L8.16391 6.91407C8.16391 6.33778 8.16391 4.92961 8.16391 4.56533C8.16391 2.98135 7.00161 1.66101 5.45965 1.36346V0.640197C5.45962 0.286644 5.1643 0 4.79999 0C4.43568 0 4.14037 0.286644 4.14037 0.640197V1.36349C2.5984 1.66106 1.43611 2.9814 1.43611 4.56536C1.43611 5.18545 1.43611 6.55469 1.43611 6.9141L0.115644 8.7967C-0.0234476 8.99499 -0.0381567 9.25167 0.0774157 9.46372C0.192988 9.67577 0.419877 9.80838 0.667051 9.80838H8.93294C9.18011 9.80838 9.407 9.67574 9.52257 9.46372C9.63817 9.25165 9.62344 8.99496 9.48437 8.79667Z" fill="#72BF44"/>
</svg>
