<svg width="58" height="42" viewBox="0 0 58 42" fill="none" xmlns="http://www.w3.org/2000/svg">
<path d="M53 35.8537V18.9512C53 8.50141 44.698 0 34.494 0H23.506C13.302 0 5 8.50141 5 18.9512V35.8537H1C0.447715 35.8537 0 36.3014 0 36.8537V36.9024C0 37.4547 0.447715 37.9024 1 37.9024H6H8H12.05C12.302 40.2001 14.189 42 16.5 42C18.811 42 20.698 40.2001 20.95 37.9024H37.05C37.301 40.2001 39.189 42 41.5 42C43.811 42 45.698 40.2001 45.95 37.9024H50H52H57C57.5523 37.9024 58 37.4547 58 36.9024V36.8537C58 36.3014 57.5523 35.8537 57 35.8537H53ZM50 35.8537H46V29.7073H44V35.8537V37.3923C44 38.8029 42.879 39.9512 41.5 39.9512C40.121 39.9512 39 38.8029 39 37.3923V35.8537V29.7073H37V35.8537H21V29.7073H19V35.8537V37.3923C19 38.8029 17.879 39.9512 16.5 39.9512C15.121 39.9512 14 38.8029 14 37.3923V35.8537V29.7073H12V35.8537H8H7V18.9512C7 9.63132 14.404 2.04878 23.506 2.04878H34.494C43.596 2.04878 51 9.63132 51 18.9512V35.8537H50Z" fill="black"/>
<path d="M24.192 14.5904C21.851 16.9865 18.046 16.9844 15.707 14.5904C15.316 14.1899 14.684 14.1899 14.293 14.5904C14.085 14.8035 13.996 15.0862 14.01 15.3659H14V20.4879H16V17.3614C17.221 18.0713 18.584 18.435 19.949 18.435C21.998 18.435 24.047 17.636 25.606 16.0389C25.997 15.6384 25.997 14.991 25.606 14.5904C25.215 14.1899 24.583 14.1909 24.192 14.5904Z" fill="black"/>
<path d="M42.1922 14.5904C39.8512 16.9865 36.0462 16.9845 33.7072 14.5904C33.3162 14.1899 32.6842 14.1899 32.2932 14.5904C31.9023 14.991 31.9023 15.6384 32.2932 16.0389C33.8532 17.637 35.9012 18.435 37.9492 18.435C38.9872 18.435 40.0252 18.2281 41.0002 17.8173V19.4635H43.0002V16.6003C43.2092 16.4262 43.4122 16.2387 43.6062 16.0389C43.9972 15.6384 43.9972 14.991 43.6062 14.5904C43.2162 14.1899 42.5832 14.1909 42.1922 14.5904Z" fill="black"/>
<path d="M16 24.6098V23.5366C16 22.9843 15.5523 22.5366 15 22.5366C14.4477 22.5366 14 22.9843 14 23.5366V24.6098C14 25.1621 14.4477 25.6098 15 25.6098C15.5523 25.6098 16 25.1621 16 24.6098Z" fill="black"/>
<path d="M43 25.6342V22.5122C43 21.9599 42.5523 21.5122 42 21.5122C41.4477 21.5122 41 21.9599 41 22.5122V25.6342C41 26.1864 41.4477 26.6342 42 26.6342C42.5523 26.6342 43 26.1865 43 25.6342Z" fill="black"/>
</svg>
