<svg width="209" height="244" viewBox="0 0 209 244" fill="none" xmlns="http://www.w3.org/2000/svg">
<path fill-rule="evenodd" clip-rule="evenodd" d="M131.389 176.178C133.768 174.609 136.972 175.262 138.544 177.635L177.226 236.009C178.798 238.382 178.144 241.577 175.765 243.145C173.385 244.714 170.181 244.062 168.609 241.688L129.928 183.315C128.355 180.941 129.009 177.746 131.389 176.178Z" fill="#F7F7F7"/>
<path fill-rule="evenodd" clip-rule="evenodd" d="M74.5065 71.2228C76.2474 70.0101 78.5553 69.9838 80.3235 71.1567L206.695 154.981C208.504 156.18 209.366 158.38 208.854 160.485C208.341 162.59 206.563 164.15 204.405 164.389L164.846 168.765C162.011 169.079 159.458 167.041 159.144 164.214C158.83 161.386 160.873 158.84 163.707 158.527L189.147 155.712L85.5536 86.9973L115.762 212.56L129.442 178.495C130.503 175.855 133.509 174.571 136.157 175.629C138.804 176.687 140.091 179.685 139.03 182.326L119.319 231.408C118.482 233.49 116.392 234.793 114.149 234.63C111.907 234.467 110.028 232.876 109.503 230.695L72.4419 76.6472C71.9465 74.5877 72.7656 72.4356 74.5065 71.2228Z" fill="#F7F7F7"/>
<path fill-rule="evenodd" clip-rule="evenodd" d="M55.613 104.96C57.7614 106.831 57.9823 110.085 56.1064 112.228L36.1245 135.052C34.2486 137.195 30.9863 137.415 28.8379 135.544C26.6895 133.673 26.4686 130.42 28.3445 128.277L48.3263 105.453C50.2022 103.31 53.4646 103.09 55.613 104.96Z" fill="#F7F7F7"/>
<path fill-rule="evenodd" clip-rule="evenodd" d="M0.00521098 74.9456C0.132128 72.1038 2.54483 69.9027 5.39413 70.0292L35.7045 71.3758C38.5538 71.5024 40.7607 73.9087 40.6338 76.7505C40.5069 79.5923 38.0942 81.7935 35.2449 81.6669L4.93453 80.3203C2.08522 80.1937 -0.121707 77.7874 0.00521098 74.9456Z" fill="#F7F7F7"/>
<path fill-rule="evenodd" clip-rule="evenodd" d="M29.5397 14.6504C31.8485 12.9803 35.0776 13.4931 36.7521 15.7958L54.5738 40.3034C56.2483 42.6061 55.7341 45.8267 53.4253 47.4968C51.1165 49.167 47.8874 48.6541 46.2128 46.3514L28.3912 21.8438C26.7167 19.5411 27.2308 16.3205 29.5397 14.6504Z" fill="#F7F7F7"/>
<path fill-rule="evenodd" clip-rule="evenodd" d="M95.1793 0.18839C97.9278 0.9481 99.5384 3.78622 98.7767 6.52751L90.6759 35.6807C89.9142 38.422 87.0686 40.0284 84.3201 39.2687C81.5716 38.509 79.9609 35.6709 80.7226 32.9296L88.8234 3.77636C89.5851 1.03507 92.4307 -0.571321 95.1793 0.18839Z" fill="#F7F7F7"/>
<path fill-rule="evenodd" clip-rule="evenodd" d="M147.495 42.3207C148.611 44.9386 147.388 47.963 144.763 49.0759L116.816 60.9257C114.191 62.0386 111.159 60.8186 110.043 58.2007C108.927 55.5828 110.15 52.5584 112.775 51.4455L140.722 39.5957C143.347 38.4828 146.38 39.7028 147.495 42.3207Z" fill="#F7F7F7"/>
</svg>
