<svg width="70" height="70" viewBox="0 0 70 70" fill="none" xmlns="http://www.w3.org/2000/svg">
<path fill-rule="evenodd" clip-rule="evenodd" d="M30.1155 21.9228C30.1155 21.1707 30.7308 20.561 31.4899 20.561H37.7241C39.9945 20.561 42.172 21.4547 43.7774 23.0455C45.3829 24.6363 46.2848 26.7939 46.2848 29.0436C46.2848 31.2934 45.3829 33.451 43.7774 35.0418C42.172 36.6326 39.9945 37.5263 37.7241 37.5263H32.8643V48.0562C32.8643 48.8083 32.2489 49.418 31.4899 49.418C30.7308 49.418 30.1155 48.8083 30.1155 48.0562V37.5263H25.1479C24.3888 37.5263 23.7735 36.9166 23.7735 36.1644C23.7735 35.4123 24.3888 34.8026 25.1479 34.8026H30.1155V21.9228ZM32.8643 34.8026H37.7241C39.2655 34.8026 40.7438 34.1958 41.8338 33.1158C42.9237 32.0358 43.536 30.571 43.536 29.0436C43.536 27.5163 42.9237 26.0515 41.8338 24.9714C40.7438 23.8914 39.2655 23.2847 37.7241 23.2847H32.8643V34.8026Z" fill="#72BF44"/>
<path fill-rule="evenodd" clip-rule="evenodd" d="M23.8095 41.8971C23.8095 41.1449 24.4248 40.5352 25.1839 40.5352H37.6523C38.4113 40.5352 39.0267 41.1449 39.0267 41.8971C39.0267 42.6492 38.4113 43.2589 37.6523 43.2589H25.1839C24.4248 43.2589 23.8095 42.6492 23.8095 41.8971Z" fill="#72BF44"/>
<path fill-rule="evenodd" clip-rule="evenodd" d="M34.6664 8.91309e-06L34.67 0C44.0368 3.18325e-06 53.0203 3.68576 59.6455 10.247C66.2706 16.8082 69.995 25.7077 70 34.9891C70.0004 35.7413 69.3854 36.3513 68.6263 36.3517C67.8673 36.3521 67.2516 35.7427 67.2512 34.9906C67.2466 26.4313 63.812 18.2241 57.7023 12.1734C51.593 6.1231 43.3092 2.72416 34.6717 2.72371C30.4311 2.73467 26.235 3.58051 22.3271 5.21212C18.4187 6.84395 14.8766 9.22921 11.9066 12.2293C8.93656 15.2293 6.59793 18.7844 5.02657 22.6878C3.45522 26.5913 2.68247 30.7652 2.75325 34.9671L2.75351 34.9828L2.75342 34.9828C2.77585 39.2646 3.65297 43.4998 5.33426 47.4443C7.01556 51.3888 9.46781 54.9648 12.5498 57.9662C15.6317 60.9676 19.2825 63.3353 23.2919 64.9327C26.8809 66.3626 30.6937 67.1501 34.5532 67.2623V62.1861C29.5775 62.1361 24.6993 60.7451 20.4475 58.1497C15.7883 55.3058 12.0943 51.1457 9.84053 46.2046C7.58679 41.2635 6.87637 35.7672 7.80066 30.4228C8.72494 25.0784 11.2417 20.1301 15.0271 16.2145C18.8126 12.2988 23.6937 9.59481 29.0427 8.45024C34.3917 7.30567 39.9639 7.77288 45.0427 9.79176C50.1216 11.8106 54.4747 15.2889 57.5424 19.7791C60.61 24.2694 62.2518 29.5663 62.2567 34.9887V34.9931C62.244 40.227 60.7082 45.3462 57.8334 49.737C54.9586 54.1278 50.8669 57.6039 46.0487 59.7486C45.3563 60.0568 44.5428 59.7505 44.2318 59.0644C43.9207 58.3783 44.2299 57.5723 44.9223 57.2641C49.2582 55.334 52.9404 52.2059 55.5274 48.2546C58.1142 44.3036 59.4962 39.6974 59.5079 34.9878C59.5029 30.1101 58.0257 25.3453 55.2661 21.306C52.5059 17.2658 48.5891 14.1362 44.0193 12.3196C39.4495 10.5031 34.4358 10.0827 29.6229 11.1126C24.8101 12.1424 20.4182 14.5754 17.0121 18.0986C13.6061 21.6218 11.3416 26.0741 10.51 30.8828C9.67831 35.6916 10.3175 40.637 12.3454 45.0828C14.3732 49.5287 17.697 53.2718 21.8892 55.8307C26.0814 58.3897 30.9503 59.6474 35.8698 59.4421C36.244 59.4265 36.6084 59.5629 36.8788 59.8198C37.1491 60.0766 37.302 60.4317 37.302 60.8028V68.6357C37.302 69.3814 36.6967 69.9884 35.9442 69.9974C31.2607 70.0537 26.6121 69.1912 22.2664 67.4598C17.9207 65.7283 13.9635 63.162 10.623 59.9087C7.28242 56.6555 4.62442 52.7795 2.80205 48.504C0.980715 44.2309 0.0300455 39.6432 0.00470915 35.0048C-0.0710553 30.4446 0.76807 25.9149 2.4734 21.6787C4.17971 17.44 6.71919 13.5797 9.94426 10.3219C13.1693 7.06422 17.0157 4.4741 21.2598 2.70213C25.5038 0.930153 30.061 0.0116539 34.6664 8.91309e-06Z" fill="#72BF44"/>
</svg>
