<svg width="312" height="243" viewBox="0 0 312 243" fill="none" xmlns="http://www.w3.org/2000/svg">
<path fill-rule="evenodd" clip-rule="evenodd" d="M156.141 12.0557C144.821 12.0274 133.747 15.3884 124.32 21.7132C114.894 28.038 107.54 37.0422 103.188 47.586C98.837 58.1298 97.6839 69.7391 99.8752 80.9444C102.067 92.1498 107.504 102.447 115.499 110.533C123.493 118.619 133.686 124.131 144.787 126.369C155.888 128.608 167.397 127.473 177.859 123.109C188.32 118.745 197.263 111.347 203.555 101.853C209.847 92.3581 213.206 81.1936 213.206 69.7722C213.206 54.4895 207.198 39.8307 196.501 29.0108C185.803 18.1909 171.289 12.0934 156.141 12.0557ZM117.703 11.675C129.099 4.02911 142.486 -0.0339198 156.171 0.000213307C174.482 0.0458866 192.028 7.41701 204.96 20.4969C217.893 33.5767 225.155 51.2974 225.155 69.7723C225.155 83.5792 221.095 97.0757 213.488 108.553C205.882 120.031 195.071 128.974 182.425 134.25C169.778 139.525 155.865 140.897 142.445 138.191C129.026 135.485 116.704 128.822 107.039 119.047C97.3742 109.272 90.8014 96.8239 88.1523 83.2781C85.5033 69.7323 86.8972 55.6981 92.1576 42.9519C97.4181 30.2058 106.308 19.3209 117.703 11.675Z" fill="#F7F7F7"/>
<path fill-rule="evenodd" clip-rule="evenodd" d="M259.45 46.5625C254.23 44.5666 248.664 43.6555 243.086 43.8841C239.789 44.0192 237.008 41.4322 236.874 38.1059C236.74 34.7796 239.304 31.9736 242.601 31.8386C249.788 31.5441 256.959 32.7179 263.684 35.2894C270.41 37.861 276.551 41.7773 281.739 46.8032C286.927 51.829 291.054 57.8608 293.874 64.5363C296.694 71.2119 298.147 78.3934 298.147 85.6499C298.147 92.9063 296.694 100.088 293.874 106.763C291.054 113.439 286.927 119.471 281.739 124.497C276.551 129.522 270.41 133.439 263.684 136.01C256.959 138.582 249.788 139.756 242.601 139.461C239.304 139.326 236.74 136.52 236.874 133.194C237.008 129.868 239.789 127.281 243.086 127.416C248.664 127.644 254.23 126.733 259.45 124.737C264.67 122.741 269.436 119.702 273.463 115.801C277.489 111.9 280.693 107.218 282.882 102.037C285.07 96.8559 286.198 91.2819 286.198 85.6499C286.198 80.0178 285.07 74.4438 282.882 69.2626C280.693 64.0813 277.489 59.3997 273.463 55.4989C269.436 51.5981 264.67 48.5584 259.45 46.5625Z" fill="#F7F7F7"/>
<path fill-rule="evenodd" clip-rule="evenodd" d="M260.8 163.611C261.623 160.387 264.88 158.446 268.076 159.276L299.627 167.471C301.965 168.078 303.711 170.046 304.052 172.457L311.94 228.243C312.185 229.973 311.673 231.725 310.539 233.044C309.404 234.364 307.757 235.122 306.026 235.122H282.05C278.75 235.122 276.075 232.424 276.075 229.094C276.075 225.765 278.75 223.067 282.05 223.067H299.138L292.786 178.143L265.097 170.951C261.901 170.121 259.978 166.835 260.8 163.611Z" fill="#F7F7F7"/>
<path fill-rule="evenodd" clip-rule="evenodd" d="M48.3146 35.2894C55.0401 32.7179 62.2113 31.5441 69.3977 31.8386C72.6946 31.9736 75.2587 34.7796 75.1248 38.1059C74.9909 41.4322 72.2097 44.0192 68.9128 43.8841C63.3351 43.6555 57.7691 44.5666 52.5491 46.5625C47.3291 48.5584 42.5627 51.5981 38.5361 55.4989C34.5096 59.3997 31.3059 64.0813 29.1174 69.2626C26.9289 74.4438 25.8008 80.0178 25.8008 85.6499C25.8008 91.2819 26.9289 96.8559 29.1174 102.037C31.3059 107.218 34.5096 111.9 38.5361 115.801C42.5627 119.702 47.3291 122.741 52.5491 124.737C57.7691 126.733 63.3351 127.644 68.9128 127.416C72.2097 127.281 74.9909 129.868 75.1248 133.194C75.2587 136.52 72.6946 139.326 69.3977 139.461C62.2113 139.756 55.0401 138.582 48.3146 136.01C41.5891 133.439 35.4481 129.522 30.2602 124.497C25.0723 119.471 20.9446 113.439 18.125 106.763C15.3053 100.088 13.8519 92.9063 13.8519 85.6499C13.8519 78.3934 15.3053 71.2119 18.125 64.5363C20.9446 57.8608 25.0723 51.829 30.2602 46.8032C35.4481 41.7773 41.5891 37.861 48.3146 35.2894Z" fill="#F7F7F7"/>
<path fill-rule="evenodd" clip-rule="evenodd" d="M51.1996 163.611C52.0222 166.835 50.0986 170.121 46.9032 170.951L19.2137 178.143L12.8617 223.067H29.9504C33.25 223.067 35.9249 225.765 35.9249 229.094C35.9249 232.424 33.25 235.122 29.9504 235.122H5.9745C4.24276 235.122 2.59622 234.364 1.46146 233.044C0.326689 231.725 -0.184647 229.973 0.0599185 228.243L7.94777 172.457C8.28874 170.046 10.0348 168.078 12.3729 167.471L43.9243 159.276C47.1197 158.446 50.377 160.387 51.1996 163.611Z" fill="#F7F7F7"/>
<path fill-rule="evenodd" clip-rule="evenodd" d="M115.375 155.463C116.386 158.632 114.66 162.028 111.52 163.049L82.6851 172.42L75.8724 230.945H236.127L229.314 172.42L200.48 163.049C197.339 162.028 195.613 158.632 196.625 155.463C197.636 152.295 201.003 150.553 204.143 151.574L236.632 162.133C238.858 162.856 240.461 164.823 240.734 167.167L248.778 236.269C248.977 237.979 248.442 239.692 247.308 240.978C246.175 242.264 244.55 243 242.844 243H69.1552C67.4493 243 65.8248 242.264 64.691 240.978C63.5573 239.692 63.0226 237.979 63.2215 236.269L71.2656 167.167C71.5384 164.823 73.1414 162.856 75.3675 162.133L107.856 151.574C110.997 150.553 114.363 152.295 115.375 155.463Z" fill="#F7F7F7"/>
</svg>
