<svg width="20" height="20" viewBox="0 0 20 20" fill="none" xmlns="http://www.w3.org/2000/svg">
<path d="M19.0363 4.54496C18.9077 3.32573 18.3134 2.23068 17.3629 1.4616L16.816 1.01895C16.004 0.361838 14.9813 0 13.936 0C12.5421 0 11.2416 0.6192 10.3679 1.69893L1.95886 12.0906C1.18849 13.0423 0.834902 14.2373 0.963315 15.4552C1.09173 16.673 1.68678 17.7679 2.63879 18.5384L3.1857 18.9811C3.99757 19.6382 5.02022 20 6.06519 20C6.22654 20 6.38976 19.9914 6.5503 19.9743C7.76075 19.8467 8.85066 19.2585 9.6161 18.3218C9.61867 18.3188 9.62017 18.3171 15.2892 11.3124C16.2988 10.0645 16.1051 8.22781 14.8574 7.21807L14.5708 6.98625C14.0552 6.56899 13.4057 6.33921 12.7421 6.33921C11.8571 6.33921 11.0313 6.73243 10.4765 7.41797L4.8141 14.4153C4.44413 14.8726 4.51508 15.5457 4.9724 15.9158C5.16164 16.0689 5.39978 16.1532 5.6429 16.1532C5.96677 16.1532 6.26927 16.0091 6.47292 15.7575L12.1353 8.76026C12.2834 8.57728 12.504 8.47232 12.7405 8.47232C12.9202 8.47232 13.0889 8.53203 13.2285 8.64497L13.5152 8.87705C13.6763 9.0074 13.7769 9.193 13.7987 9.39981C13.8205 9.60662 13.7608 9.8092 13.6304 9.97017L7.97452 16.9595C7.50751 17.5363 6.81233 17.8669 6.06718 17.867C5.50854 17.867 4.9619 17.6736 4.52793 17.3223L3.98102 16.8798C3.47208 16.4678 3.15394 15.8824 3.08534 15.2315C3.01669 14.5805 3.20567 13.9416 3.61753 13.4327L12.0266 3.04116C12.4936 2.46411 13.189 2.13311 13.9345 2.13311C14.4932 2.13311 15.0399 2.32648 15.4737 2.67767L16.0206 3.1202C17.0712 3.97042 17.2342 5.51679 16.3841 6.56733C16.2049 6.78892 16.1226 7.06695 16.1525 7.35039C16.1824 7.63378 16.3209 7.88863 16.5423 8.06781C16.7316 8.22096 16.9698 8.30535 17.2129 8.30535C17.5367 8.30535 17.8392 8.16114 18.0428 7.90962C18.812 6.9591 19.1649 5.76413 19.0363 4.54496Z" fill="black"/>
</svg>
