<svg width="14" height="14" viewBox="0 0 14 14" fill="none" xmlns="http://www.w3.org/2000/svg">
<path d="M10.4991 10.5C9.53259 10.5 8.74902 11.2835 8.74902 12.25C8.74902 13.2165 9.53259 14 10.4991 14C11.4655 14 12.2491 13.2165 12.2491 12.25C12.2491 11.2835 11.4655 10.5 10.4991 10.5Z" fill="#72BF44"/>
<path d="M6.12405 10.5C5.1576 10.5 4.37402 11.2835 4.37402 12.25C4.37402 13.2165 5.1576 14 6.12405 14C7.09052 14 7.87409 13.2165 7.87409 12.25C7.87409 11.2835 7.09052 10.5 6.12405 10.5Z" fill="#72BF44"/>
<path d="M13.8362 2.98816C13.6696 2.75955 13.4064 2.62498 13.1245 2.62498H4.12984L3.4539 0.597706C3.33512 0.24053 3.00102 0 2.62419 0H0.874988C0.391324 0 0 0.390927 0 0.875C0 1.35906 0.39134 1.75 0.874988 1.75H1.99356L4.41863 9.02683C4.5383 9.384 4.8724 9.62503 5.24923 9.62503H11.3744C11.753 9.62503 12.0853 9.384 12.205 9.02683L13.955 3.77641C14.0439 3.50983 13.9994 3.21673 13.8362 2.98816Z" fill="#72BF44"/>
</svg>
