<svg width="277" height="291" viewBox="0 0 277 291" fill="none" xmlns="http://www.w3.org/2000/svg">
<g opacity="0.04">
<path fill-rule="evenodd" clip-rule="evenodd" d="M6.45779 23.1213C12.3862 11.7358 23.9245 0 44.9851 0C66.0189 0 77.7389 11.7031 83.8704 23.0343C86.8821 28.6 88.5859 34.1012 89.5414 38.1701C90.0222 40.2174 90.3214 41.9366 90.5026 43.1664C90.5933 43.7822 90.6548 44.2779 90.6948 44.6337C90.7148 44.8117 90.7294 44.9549 90.7396 45.0608L90.7518 45.1916L90.7556 45.2356L90.757 45.2521C90.7572 45.2551 90.7581 45.2649 84.5911 45.7681L90.7581 45.2649C90.7717 45.4323 90.7786 45.6001 90.7786 45.7681V273.048H260.797C269.35 273.048 275.625 266.279 275.625 258.228V51.1444H104.798C101.381 51.1444 98.6108 48.3757 98.6108 44.9604C98.6108 41.5451 101.381 38.7765 104.798 38.7765H281.813C285.23 38.7765 288 41.5451 288 44.9604V258.228C288 272.797 276.493 285.416 260.797 285.416H84.5911C81.1739 285.416 78.4037 282.648 78.4037 279.232V46.0757L78.3972 46.0133C78.372 45.7892 78.3285 45.4345 78.2598 44.9679C78.122 44.033 77.8846 42.6597 77.4939 40.996C76.7065 37.6429 75.3286 33.248 72.9855 28.9178C68.4071 20.4569 60.3242 12.3679 44.9851 12.3679C29.6729 12.3679 21.8124 20.4242 17.4351 28.8308C15.1883 33.1458 13.9028 37.5294 13.1847 40.8788C12.8285 42.54 12.6194 43.9115 12.5009 44.8452C12.4418 45.3112 12.4056 45.6654 12.385 45.8891L12.3748 46.0088V278.127L12.3837 278.214C12.4091 278.449 12.4525 278.819 12.5203 279.302C12.6561 280.272 12.8881 281.69 13.266 283.407C14.0275 286.867 15.351 291.396 17.5817 295.855C21.9914 304.669 29.526 312.632 43.3686 312.632H141.976L141.979 318.816L141.979 325H43.3686C23.2632 325 12.2072 312.767 6.51332 301.386C3.69226 295.747 2.08566 290.178 1.18014 286.064C0.72439 283.994 0.438642 282.257 0.264991 281.017C0.178047 280.397 0.118858 279.898 0.0803717 279.542C0.0611204 279.364 0.0470242 279.221 0.0372094 279.116L0.0255808 278.988L0.0219651 278.945L0.0206711 278.929C0.0204432 278.927 0.0197061 278.917 6.18742 278.424L0.0197061 278.917C0.00657382 278.753 0 278.589 0 278.424V45.7681C0 45.642 0.00385661 45.516 0.0115641 45.3902L6.18742 45.7681C0.0115641 45.3902 0.0113742 45.3932 0.0115641 45.3902L0.0123652 45.3773L0.0134252 45.3607L0.0163674 45.3167L0.0258757 45.1856C0.0339493 45.0795 0.0456694 44.9361 0.0620411 44.758C0.09477 44.4018 0.146182 43.9056 0.224401 43.2892C0.380607 42.0581 0.645067 40.3371 1.08456 38.2873C1.95774 34.2147 3.5518 28.7022 6.45779 23.1213ZM141.979 318.816L141.979 325H150.062C164.639 325 177.265 313.5 177.265 297.813C177.265 294.397 174.495 291.629 171.078 291.629C167.66 291.629 164.89 294.397 164.89 297.813C164.89 306.36 158.118 312.632 150.062 312.632H141.976L141.979 318.816Z" fill="black"/>
<path fill-rule="evenodd" clip-rule="evenodd" d="M24.8603 254.068C24.8548 254.082 24.8493 254.096 24.8437 254.109C24.842 254.113 24.8411 254.115 24.8411 254.115L24.8413 254.115L24.8476 254.1L24.8541 254.084L24.8581 254.074L24.8603 254.068ZM66.7387 254.109C66.7364 254.104 66.7325 254.095 66.7271 254.083C66.7058 254.034 66.6604 253.934 66.5895 253.789C66.4473 253.499 66.2053 253.035 65.8524 252.455C65.1418 251.288 64.0122 249.701 62.3848 248.114C59.216 245.024 54.0426 241.793 45.7912 241.793C37.5398 241.793 32.3664 245.024 29.1976 248.114C27.5702 249.701 26.4406 251.288 25.73 252.455C25.3771 253.035 25.1351 253.499 24.9929 253.789C24.922 253.934 24.8766 254.034 24.8553 254.083C24.8499 254.095 24.846 254.104 24.8437 254.109C23.558 257.249 19.977 258.77 16.8198 257.508C13.647 256.239 12.1038 252.64 13.3729 249.469L19.1162 251.765C13.3729 249.469 13.3741 249.466 13.3754 249.463L13.3781 249.456L13.3839 249.442L13.3975 249.409L13.4326 249.324C13.4596 249.26 13.4937 249.18 13.5354 249.086C13.6186 248.898 13.7319 248.651 13.8773 248.354C14.1676 247.761 14.5887 246.962 15.1577 246.027C16.2911 244.165 18.041 241.713 20.556 239.261C25.6721 234.273 33.8355 229.425 45.7912 229.425C57.7469 229.425 65.9103 234.273 71.0264 239.261C73.5414 241.713 75.2913 244.165 76.4247 246.027C76.9937 246.962 77.4148 247.761 77.7051 248.354C77.8505 248.651 77.9638 248.898 78.047 249.086C78.0887 249.18 78.1228 249.26 78.1498 249.324L78.1849 249.409L78.1985 249.442L78.2043 249.456L78.207 249.463C78.2083 249.466 78.2095 249.469 72.4646 251.766L78.2095 249.469C79.4786 252.64 77.9354 256.239 74.7626 257.508C71.6054 258.77 68.0244 257.249 66.7387 254.109Z" fill="black"/>
<path fill-rule="evenodd" clip-rule="evenodd" d="M117.201 81.3131C117.201 77.8978 119.971 75.1292 123.389 75.1292H255.947C259.365 75.1292 262.135 77.8978 262.135 81.3131V125.744C262.135 129.159 259.365 131.928 255.947 131.928H123.389C119.971 131.928 117.201 129.159 117.201 125.744V84.5442C117.201 83.9852 117.275 83.4436 117.414 82.9286C117.275 82.4137 117.201 81.872 117.201 81.3131ZM129.576 87.4971V119.56H249.76V87.4971H129.576Z" fill="black"/>
<path fill-rule="evenodd" clip-rule="evenodd" d="M117.201 150.787C117.201 147.371 119.971 144.603 123.389 144.603H174.311C177.728 144.603 180.498 147.371 180.498 150.787C180.498 154.202 177.728 156.971 174.311 156.971H123.389C119.971 156.971 117.201 154.202 117.201 150.787Z" fill="black"/>
<path fill-rule="evenodd" clip-rule="evenodd" d="M117.201 175.022C117.201 171.606 119.971 168.838 123.389 168.838H174.311C177.728 168.838 180.498 171.606 180.498 175.022C180.498 178.437 177.728 181.206 174.311 181.206H123.389C119.971 181.206 117.201 178.437 117.201 175.022Z" fill="black"/>
<path fill-rule="evenodd" clip-rule="evenodd" d="M117.201 199.257C117.201 195.841 119.971 193.073 123.389 193.073H174.311C177.728 193.073 180.498 195.841 180.498 199.257C180.498 202.672 177.728 205.441 174.311 205.441H123.389C119.971 205.441 117.201 202.672 117.201 199.257Z" fill="black"/>
<path fill-rule="evenodd" clip-rule="evenodd" d="M117.201 223.492C117.201 220.076 119.971 217.308 123.389 217.308H174.311C177.728 217.308 180.498 220.076 180.498 223.492C180.498 226.907 177.728 229.676 174.311 229.676H123.389C119.971 229.676 117.201 226.907 117.201 223.492Z" fill="black"/>
<path fill-rule="evenodd" clip-rule="evenodd" d="M117.201 248.534C117.201 245.119 119.971 242.35 123.389 242.35H174.311C177.728 242.35 180.498 245.119 180.498 248.534C180.498 251.95 177.728 254.718 174.311 254.718H123.389C119.971 254.718 117.201 251.95 117.201 248.534Z" fill="black"/>
<path fill-rule="evenodd" clip-rule="evenodd" d="M194.794 150.787C194.794 147.371 197.564 144.603 200.981 144.603H251.903C255.321 144.603 258.091 147.371 258.091 150.787C258.091 154.202 255.321 156.971 251.903 156.971H200.981C197.564 156.971 194.794 154.202 194.794 150.787Z" fill="black"/>
<path fill-rule="evenodd" clip-rule="evenodd" d="M194.794 175.022C194.794 171.606 197.564 168.838 200.981 168.838H251.903C255.321 168.838 258.091 171.606 258.091 175.022C258.091 178.437 255.321 181.206 251.903 181.206H200.981C197.564 181.206 194.794 178.437 194.794 175.022Z" fill="black"/>
<path fill-rule="evenodd" clip-rule="evenodd" d="M194.794 199.257C194.794 195.841 197.564 193.073 200.981 193.073H255.945C259.362 193.073 262.132 195.841 262.132 199.257V248.534C262.132 251.95 259.362 254.718 255.945 254.718H200.981C197.564 254.718 194.794 251.95 194.794 248.534V199.257ZM207.169 205.441V242.35H249.757V205.441H207.169Z" fill="black"/>
</g>
</svg>
