<svg width="1287" height="479" viewBox="0 0 1287 479" fill="none" xmlns="http://www.w3.org/2000/svg">
    <path d="M748 353.5C822.282 353.5 882.5 293.282 882.5 219C882.5 144.718 822.282 84.5 748 84.5C673.718 84.5 613.5 144.718 613.5 219C613.5 293.282 673.718 353.5 748 353.5Z" stroke="white"/>
    <path opacity="0.15" d="M748 334C811.513 334 863 282.513 863 219C863 155.487 811.513 104 748 104C684.487 104 633 155.487 633 219C633 282.513 684.487 334 748 334Z" fill="white"/>
    <path d="M748 314C800.467 314 843 271.467 843 219C843 166.533 800.467 124 748 124C695.533 124 653 166.533 653 219C653 271.467 695.533 314 748 314Z" fill="white"/>
    <path d="M704.5 189.8C701.6 189.8 700 191.5 700 194.3V198.7C700 201.5 701.6 203.2 704.5 203.2C707.4 203.2 709 201.5 709 198.7V194.3C709 191.5 707.4 189.8 704.5 189.8ZM706.8 198.7C706.8 200.6 706.1 201.4 704.5 201.4C703 201.4 702.2 200.5 702.2 198.7V194.3C702.2 192.5 702.9 191.6 704.5 191.6C706 191.6 706.8 192.4 706.8 194.3V198.7ZM713 203V195.5H716.1V203H718.1V193.9H711V203H713ZM728.2 193.9V203H730.2V193.9H728.2ZM722.2 193.9H720.2V203H723.9C726.3 203 727.2 202 727.2 200.2C727.2 198.5 726.3 197.4 723.9 197.4H722.2V193.9ZM722.2 198.9H723.8C724.8 198.9 725.3 199.2 725.3 200.2C725.3 201.2 724.8 201.6 723.8 201.6H722.2V198.9ZM736.2 203V195.5H738.8V193.9H731.6V195.5H734.2V203H736.2ZM748.3 203.1C750.3 203.1 751.3 201.8 751.3 199.6V197.1C751.3 195 750.3 193.6 748.4 193.6C747.3 193.6 746.5 193.9 745.9 194.6L745.8 193.7H744V206.4H746V202.1C746.6 202.9 747.4 203.1 748.3 203.1ZM746 196.2C746.3 195.7 747 195.3 747.7 195.3C748.7 195.3 749.2 195.9 749.2 197.2V199.7C749.2 201 748.7 201.6 747.6 201.6C746.8 201.6 746.3 201.2 745.9 200.8V196.2H746ZM754.2 196.5C754.6 195.7 755.2 195.2 756 195.2C756.9 195.2 757.3 195.7 757.3 196.8V197.7H756.7C753.7 197.7 752.7 199 752.7 200.7C752.7 202.2 753.7 203.2 755.3 203.2C756.2 203.2 757 202.9 757.7 202.3C758 202.8 758.5 203.1 759.3 203.1C759.6 203.1 760 203 760.2 203V201.8H760C759.6 201.8 759.4 201.5 759.4 201.1V196.8C759.4 195 758.5 193.7 756.4 193.7C754.8 193.7 753.8 194.6 753.1 195.8L754.2 196.5ZM755.7 201.8C755 201.8 754.5 201.5 754.5 200.5C754.5 199.6 755 199 756.6 199H757.2V201.1C756.9 201.5 756.4 201.8 755.7 201.8ZM767.8 189.8L764.4 190.5C762.3 190.9 761.1 192.4 761.1 194.8V200C761.1 201.8 762.3 203.3 764.8 203.3C767.3 203.3 768.5 201.8 768.5 200V197C768.5 195.1 767.4 193.7 765.2 193.7C764 193.7 763.2 194.1 762.7 194.8V194.6C762.7 193.3 763.1 192.3 764.9 192.1L766.7 191.8C767.3 191.7 767.9 191.5 768.2 191.3L767.8 189.8ZM763.1 197.1C763.1 195.9 763.6 195.2 764.8 195.2C765.9 195.2 766.4 195.9 766.4 197.1V199.7C766.4 200.9 765.9 201.6 764.7 201.6C763.6 201.6 763.1 200.9 763.1 199.7V197.1ZM777.2 197C777.2 195.1 776 193.7 773.5 193.7C771.1 193.7 769.8 195.2 769.8 197V199.8C769.8 201.7 771 203.1 773.5 203.1C776 203.1 777.2 201.7 777.2 199.8V197ZM771.9 197.1C771.9 195.9 772.4 195.2 773.5 195.2C774.7 195.2 775.2 195.9 775.2 197.1V199.8C775.2 201 774.7 201.7 773.5 201.7C772.4 201.7 771.9 201 771.9 199.8V197.1ZM782.9 203V195.5H785.5V193.9H778.3V195.5H780.9V203H782.9ZM794.8 193.9V203H796.8V193.9H794.8ZM788.9 193.9H786.9V203H790.6C793 203 793.9 202 793.9 200.2C793.9 198.5 793 197.4 790.6 197.4H788.9V193.9ZM788.9 198.9H790.5C791.5 198.9 792 199.2 792 200.2C792 201.2 791.5 201.6 790.5 201.6H788.9V198.9Z" fill="#48AE4D"/>
    <path d="M744.4 63.8C744.3 65.3 744.1 65.5 743 65.5H742V66.1H744.1V74H744.9V63.8H744.4ZM753.6 67.1C753.6 65 752.5 63.8 750.5 63.8C748.5 63.8 747.4 65.1 747.4 67.1V70.9C747.4 72.9 748.5 74.2 750.5 74.2C752.5 74.2 753.6 73 753.6 70.9V67.1ZM748.3 67.1C748.3 65.4 749.1 64.5 750.6 64.5C752.1 64.5 752.9 65.4 752.9 67.1V70.9C752.9 72.6 752.1 73.4 750.6 73.4C749.1 73.4 748.3 72.5 748.3 70.9V67.1Z" fill="white"/>
    <path d="M897.4 212.7C895.8 212.7 894.8 213.8 894.5 215.1L895.2 215.3C895.5 214.2 896.3 213.4 897.5 213.4C898.9 213.4 899.5 214.1 899.5 215.2C899.5 218.2 894.6 219.1 894.6 222.4V222.9H900.5V222.2H895.4C895.7 219.4 900.3 218.7 900.3 215.2C900.2 213.8 899.3 212.7 897.4 212.7ZM902 223H902.6C902.6 223.8 902.5 224 902 224.2L902.1 224.6C902.9 224.5 903.2 223.8 903.2 222.7V221.8H902V223ZM905.6 218.1C906.1 217.7 907 217.3 907.8 217.3C909.4 217.3 910.1 218 910.1 219.7C910.1 221.4 909.4 222.3 907.7 222.3C906.8 222.3 905.9 221.8 905.5 220.7L904.9 221C905.4 222.3 906.5 223 907.8 223C909.8 223 910.9 221.8 910.9 219.7C910.9 217.5 909.9 216.5 908 216.5C907.2 216.5 906.4 216.8 905.8 217.1L906.1 213.4H910.5L910.6 212.7H905.5L905 217.6L905.6 218.1Z" fill="white"/>
    <path d="M587.7 223L591.6 213.4V212.8H585.2V213.5H590.7L586.7 222.9H587.7V223ZM591.5 223H592.1C592.1 223.8 592 224 591.5 224.2L591.6 224.6C592.4 224.5 592.7 223.8 592.7 222.7V221.8H591.6V223H591.5ZM595 218.1C595.5 217.7 596.4 217.3 597.2 217.3C598.8 217.3 599.5 218 599.5 219.7C599.5 221.4 598.8 222.3 597.1 222.3C596.2 222.3 595.3 221.8 594.9 220.7L594.3 221C594.8 222.3 595.9 223 597.2 223C599.2 223 600.3 221.8 600.3 219.7C600.3 217.5 599.3 216.5 597.4 216.5C596.6 216.5 595.8 216.8 595.2 217.1L595.5 213.4H599.9L600 212.7H594.9L594.4 217.6L595 218.1Z" fill="white"/>
    <path d="M745.8 371.1C746.3 370.7 747.2 370.3 748 370.3C749.6 370.3 750.3 371 750.3 372.8C750.3 374.5 749.6 375.4 747.9 375.4C747 375.4 746.1 374.9 745.7 373.8L745.1 374.1C745.6 375.4 746.7 376.1 748 376.1C750 376.1 751.1 374.9 751.1 372.8C751.1 370.6 750.1 369.6 748.2 369.6C747.4 369.6 746.6 369.9 746 370.2L746.3 366.5H750.7L750.8 365.8H745.7L745.2 370.7L745.8 371.1Z" fill="white"/>
    <path d="M715.4 224.1C715.1 227.4 714.5 228 712.1 228H710.1V230.5H714.5V246H718.1V224.1H715.4ZM736.1 231.4C736.1 226.8 733.6 223.9 729.2 223.9C724.7 223.9 722.3 226.8 722.3 231.4V238.8C722.3 243.4 724.7 246.2 729.2 246.2C733.7 246.2 736.1 243.3 736.1 238.8V231.4ZM725.7 231.4C725.7 228.4 726.8 227 729.2 227C731.5 227 732.7 228.3 732.7 231.4V238.8C732.7 241.9 731.6 243.2 729.2 243.2C726.9 243.2 725.7 241.9 725.7 238.8V231.4ZM758.1 246V230.8H747.9L747.3 240.7C747.2 243.1 746.4 244 745 244H744.4V246C744.8 246.1 745.5 246.2 746 246.2C748.5 246.2 750.2 244.9 750.4 241.4L751 233.4H754.8V246H758.1ZM772.6 238.8V236.2C772.6 233 770.6 230.5 766.9 230.5C763.1 230.5 761.1 233 761.1 236V240.7C761.1 243.9 763.2 246.3 767 246.3C770 246.3 771.8 245 772.7 242.4L770.3 241.5C769.7 243.1 768.8 243.8 767.4 243.8C765.5 243.8 764.5 242.7 764.5 240.7V238.9H772.6V238.8ZM764.4 235.8C764.4 234 765.2 232.9 767 232.9C768.7 232.9 769.6 233.9 769.6 235.7V236.8H764.4V235.8ZM781.9 246V233.5H786.3V230.8H774.2V233.5H778.6V246H781.9Z" fill="#72BF44"/>
    <path d="M749 84H748V94H749V84Z" fill="white"/>
    <path d="M749 344H748V354H749V344Z" fill="white"/>
    <path d="M883 218H873V219H883V218Z" fill="white"/>
    <path d="M623 218H613V219H623V218Z" fill="white"/>
</svg>
