<svg width="18" height="18" viewBox="0 0 18 18" fill="none" xmlns="http://www.w3.org/2000/svg">
    <path d="M11.7355 15.4285H9.16416C9.07037 15.4285 8.99342 15.4585 8.93312 15.519C8.87299 15.5792 8.84277 15.6562 8.84277 15.7499V17.6784C8.84277 17.7725 8.87285 17.8492 8.93312 17.9096C8.99346 17.9698 9.07037 17.9999 9.16416 17.9999H11.7355C11.8293 17.9999 11.9063 17.9698 11.9664 17.9096C12.0268 17.8491 12.0566 17.7725 12.0566 17.6784V15.7499C12.0566 15.6562 12.0268 15.5792 11.9664 15.519C11.9063 15.4586 11.8293 15.4285 11.7355 15.4285Z" fill="black"/>
    <path d="M6.9141 14.1428H4.98553V0.321422C4.98553 0.227732 4.95549 0.150578 4.89519 0.0903822C4.83488 0.0302212 4.75794 0 4.66411 0H2.73551C2.64182 0 2.56467 0.0300805 2.50447 0.0903471C2.44434 0.150684 2.41412 0.227732 2.41412 0.321386V14.1428H0.485523C0.338323 14.1428 0.237843 14.2097 0.184226 14.3436C0.130574 14.471 0.154145 14.5881 0.254484 14.6953L3.46874 17.9097C3.54241 17.9697 3.61935 17.9998 3.69978 17.9998C3.78682 17.9998 3.8639 17.9697 3.93081 17.9097L7.13504 14.7054C7.2021 14.6252 7.23552 14.5445 7.23552 14.4646C7.23552 14.3704 7.2053 14.2936 7.14517 14.2329C7.08491 14.1729 7.00796 14.1428 6.9141 14.1428Z" fill="black"/>
    <path d="M13.6641 10.2859H9.16416C9.07037 10.2859 8.99342 10.316 8.93312 10.3762C8.87296 10.4364 8.84277 10.5134 8.84277 10.6071V12.5358C8.84277 12.6295 8.87285 12.7066 8.93312 12.7667C8.99342 12.8269 9.07037 12.857 9.16416 12.857H13.6641C13.7579 12.857 13.835 12.8269 13.895 12.7667C13.9554 12.7065 13.9856 12.6295 13.9856 12.5358V10.6071C13.9856 10.5134 13.9554 10.4363 13.895 10.3762C13.835 10.316 13.7579 10.2859 13.6641 10.2859Z" fill="black"/>
    <path d="M17.7523 0.0903471C17.692 0.0302212 17.615 0 17.5212 0H9.16416C9.07037 0 8.99342 0.0300805 8.93312 0.0903471C8.87299 0.150684 8.84277 0.227732 8.84277 0.321386V2.24999C8.84277 2.34378 8.87285 2.42072 8.93312 2.48103C8.99346 2.54115 9.07037 2.57137 9.16416 2.57137H17.5212C17.615 2.57137 17.692 2.54129 17.7523 2.48103C17.8125 2.42072 17.8426 2.34378 17.8426 2.24999V0.321422C17.8427 0.227732 17.8125 0.150543 17.7523 0.0903471Z" fill="black"/>
    <path d="M15.5928 5.14307H9.16416C9.07036 5.14307 8.99342 5.17315 8.93312 5.23348C8.87296 5.29375 8.84277 5.37069 8.84277 5.46452V7.39305C8.84277 7.48688 8.87285 7.56383 8.93312 7.62409C8.99342 7.68429 9.07036 7.71451 9.16416 7.71451H15.5928C15.6865 7.71451 15.7635 7.68443 15.8239 7.62409C15.884 7.56383 15.9141 7.48688 15.9141 7.39305V5.46452C15.9141 5.37069 15.884 5.29361 15.8239 5.23348C15.7634 5.17329 15.6863 5.14307 15.5928 5.14307Z" fill="black"/>
</svg>
