<svg width="60" height="70" viewBox="0 0 60 70" fill="none" xmlns="http://www.w3.org/2000/svg">
<path fill-rule="evenodd" clip-rule="evenodd" d="M37.7192 50.5428C38.4023 50.0928 39.3221 50.28 39.7735 50.9608L50.8782 67.7074C51.3296 68.3882 51.1418 69.3049 50.4587 69.7548C49.7757 70.2048 48.8559 70.0176 48.4045 69.3368L37.2998 52.5902C36.8484 51.9094 37.0362 50.9927 37.7192 50.5428Z" fill="#72BF44"/>
<path fill-rule="evenodd" clip-rule="evenodd" d="M21.3894 20.4327C21.8892 20.0848 22.5518 20.0773 23.0594 20.4138L59.3384 44.4616C59.8575 44.8058 60.1052 45.4368 59.9581 46.0407C59.811 46.6446 59.3005 47.0921 58.6808 47.1607L47.3243 48.4162C46.5105 48.5061 45.7776 47.9215 45.6873 47.1104C45.597 46.2993 46.1836 45.5689 46.9974 45.4789L54.3006 44.6715L24.5609 24.9582L33.2331 60.9804L37.1605 51.2077C37.465 50.4501 38.328 50.082 39.0881 50.3854C39.8481 50.6889 40.2175 51.549 39.9131 52.3065L34.2541 66.3876C34.0141 66.9848 33.414 67.3587 32.7701 67.3119C32.1263 67.2651 31.5869 66.8085 31.4363 66.1829L20.7967 21.9889C20.6545 21.3981 20.8896 20.7807 21.3894 20.4327Z" fill="#72BF44"/>
<path fill-rule="evenodd" clip-rule="evenodd" d="M15.9655 30.1115C16.5822 30.6482 16.6457 31.5817 16.1071 32.1964L10.3707 38.7444C9.83216 39.3591 8.8956 39.4223 8.27884 38.8856C7.66207 38.3488 7.59865 37.4154 8.13718 36.8007L13.8736 30.2527C14.4121 29.638 15.3487 29.5747 15.9655 30.1115Z" fill="#72BF44"/>
<path fill-rule="evenodd" clip-rule="evenodd" d="M0.00149598 21.5008C0.0379316 20.6856 0.730574 20.0541 1.54856 20.0904L10.2501 20.4767C11.0681 20.513 11.7016 21.2034 11.6652 22.0187C11.6288 22.8339 10.9361 23.4654 10.1181 23.4291L1.41661 23.0428C0.598629 23.0065 -0.0349397 22.3161 0.00149598 21.5008Z" fill="#72BF44"/>
<path fill-rule="evenodd" clip-rule="evenodd" d="M8.48028 4.20304C9.14309 3.72391 10.0701 3.87103 10.5508 4.53165L15.6671 11.5625C16.1478 12.2231 16.0002 13.1471 15.3374 13.6262C14.6746 14.1053 13.7476 13.9582 13.2668 13.2976L8.15057 6.26674C7.66984 5.60612 7.81746 4.68217 8.48028 4.20304Z" fill="#72BF44"/>
<path fill-rule="evenodd" clip-rule="evenodd" d="M27.3242 0.0540463C28.1133 0.271996 28.5756 1.08621 28.357 1.87265L26.0314 10.2363C25.8127 11.0227 24.9958 11.4836 24.2067 11.2656C23.4177 11.0477 22.9553 10.2335 23.174 9.44702L25.4996 1.08338C25.7182 0.296945 26.5352 -0.163904 27.3242 0.0540463Z" fill="#72BF44"/>
<path fill-rule="evenodd" clip-rule="evenodd" d="M42.3432 12.1411C42.6636 12.8922 42.3124 13.7598 41.5589 14.0791L33.5356 17.4786C32.7821 17.7979 31.9116 17.4479 31.5912 16.6969C31.2709 15.9458 31.622 15.0782 32.3756 14.7589L40.3988 11.3594C41.1523 11.0401 42.0229 11.3901 42.3432 12.1411Z" fill="#72BF44"/>
</svg>
