<svg width="16" height="14" viewBox="0 0 16 14" fill="none" xmlns="http://www.w3.org/2000/svg">
<path d="M14.5705 1.21546C14.2763 1.15324 13.987 1.33796 13.924 1.62778L13.5283 3.44792C12.2685 1.32941 9.95622 0 7.4219 0C3.51899 0 0.34375 3.12993 0.34375 6.97724C0.34375 7.27364 0.5875 7.51395 0.888223 7.51395C1.1889 7.51395 1.4327 7.27364 1.4327 6.97724C1.4327 3.72185 4.11943 1.07342 7.4219 1.07342C9.57492 1.07342 11.5388 2.20708 12.602 4.01215L10.7868 3.62868C10.4927 3.56655 10.2033 3.75122 10.1403 4.04105C10.0774 4.33087 10.2647 4.61623 10.5587 4.67832L13.6746 5.33654C13.7275 5.34775 13.7813 5.35097 13.8343 5.34659C13.9226 5.33924 14.0087 5.31069 14.0845 5.26234C14.2057 5.18502 14.2908 5.06337 14.3211 4.92422L14.9889 1.85268C15.0518 1.5629 14.8645 1.27763 14.5705 1.21546Z" fill="white"/>
<path d="M14.0216 6.27378C13.721 6.28357 13.4854 6.53166 13.4953 6.82788C13.5481 8.40401 12.9752 9.90598 11.8819 11.0573C10.7886 12.2086 9.30598 12.8713 7.70711 12.9234C7.64046 12.9255 7.57417 12.9266 7.50778 12.9266C5.42154 12.9265 3.49968 11.8585 2.41431 10.128L4.30676 10.6282C4.59721 10.7049 4.8958 10.5351 4.97368 10.2487C5.05156 9.96245 4.87924 9.66816 4.5888 9.5913L1.51083 8.77782C1.37136 8.74102 1.2227 8.76026 1.09768 8.83136C0.972586 8.90246 0.881333 9.01972 0.843917 9.15721L0.0187137 12.1914C-0.0591677 12.4777 0.113147 12.772 0.403591 12.8488C0.450851 12.8613 0.498242 12.8673 0.544936 12.8673C0.785288 12.8673 1.0053 12.7091 1.0705 12.4694L1.53435 10.7641C2.82471 12.767 5.07077 14.0001 7.50752 14C7.5858 14 7.66451 13.9988 7.74308 13.9962C9.63267 13.9346 11.3849 13.1515 12.6769 11.7909C13.969 10.4303 14.6461 8.65515 14.5837 6.79246C14.5738 6.49628 14.322 6.26326 14.0216 6.27378Z" fill="white"/>
</svg>
