<svg width="90" height="70" viewBox="0 0 90 70" fill="none" xmlns="http://www.w3.org/2000/svg">
<path fill-rule="evenodd" clip-rule="evenodd" d="M45.0408 3.47281C41.7753 3.46468 38.5808 4.43286 35.8617 6.25481C33.1426 8.07676 31.0212 10.6706 29.766 13.7079C28.5107 16.7452 28.1781 20.0894 28.8102 23.3173C29.4423 26.5451 31.0107 29.5114 33.3169 31.8408C35.6231 34.1701 38.5634 35.7577 41.7656 36.4025C44.9677 37.0474 48.2878 36.7205 51.3055 35.4634C54.3232 34.2062 56.9028 32.0752 58.7179 29.3402C60.533 26.6051 61.5018 23.389 61.5018 20.0989C61.5018 15.6965 59.7689 11.4738 56.683 8.357C53.5971 5.24017 49.4103 3.48369 45.0408 3.47281ZM33.953 3.36315C37.24 1.16065 41.1017 -0.00977111 45.0493 6.14464e-05C50.3314 0.0132183 55.3928 2.13658 59.1233 5.90443C62.8537 9.67227 64.9487 14.777 64.9486 20.0989C64.9486 24.0762 63.7774 27.9641 61.5832 31.2704C59.389 34.5767 56.2706 37.1528 52.6226 38.6726C48.9745 40.1924 44.961 40.5875 41.09 39.8079C37.219 39.0284 33.6646 37.1092 30.8767 34.2933C28.0888 31.4775 26.1927 27.8916 25.4286 23.9895C24.6644 20.0874 25.0665 16.0447 26.584 12.3729C28.1014 8.70123 30.666 5.56566 33.953 3.36315Z" fill="#72BF44"/>
<path fill-rule="evenodd" clip-rule="evenodd" d="M74.8415 13.4131C73.3357 12.8382 71.7301 12.5757 70.1212 12.6416C69.1702 12.6805 68.3679 11.9353 68.3293 10.9771C68.2906 10.0189 69.0303 9.2106 69.9813 9.17168C72.0543 9.08686 74.1229 9.42499 76.063 10.1658C78.003 10.9065 79.7745 12.0347 81.271 13.4825C82.7675 14.9302 83.9582 16.6678 84.7715 18.5908C85.5849 20.5138 86.0042 22.5825 86.0042 24.6728C86.0042 26.7632 85.5849 28.8319 84.7715 30.7549C83.9582 32.6779 82.7675 34.4154 81.271 35.8632C79.7745 37.311 78.003 38.4391 76.063 39.1799C74.1229 39.9207 72.0543 40.2588 69.9813 40.174C69.0303 40.1351 68.2906 39.3268 68.3293 38.3686C68.3679 37.4104 69.1702 36.6652 70.1212 36.7041C71.7301 36.7699 73.3357 36.5075 74.8415 35.9325C76.3473 35.3576 77.7222 34.482 78.8837 33.3583C80.0452 32.2346 80.9694 30.886 81.6006 29.3934C82.2319 27.9009 82.5574 26.2952 82.5574 24.6728C82.5574 23.0504 82.2319 21.4448 81.6006 19.9522C80.9694 18.4597 80.0452 17.1111 78.8837 15.9874C77.7222 14.8637 76.3473 13.9881 74.8415 13.4131Z" fill="#72BF44"/>
<path fill-rule="evenodd" clip-rule="evenodd" d="M75.231 47.1306C75.4683 46.2019 76.4079 45.6429 77.3296 45.8819L86.431 48.2425C87.1054 48.4174 87.6091 48.9842 87.7075 49.6788L89.9828 65.7489C90.0534 66.2471 89.9059 66.7517 89.5785 67.1319C89.2512 67.5121 88.7762 67.7305 88.2767 67.7305H81.3605C80.4087 67.7305 79.6371 66.9531 79.6371 65.9941C79.6371 65.0351 80.4087 64.2577 81.3605 64.2577H86.29L84.4577 51.3167L76.4703 49.245C75.5486 49.006 74.9937 48.0593 75.231 47.1306Z" fill="#72BF44"/>
<path fill-rule="evenodd" clip-rule="evenodd" d="M13.937 10.1658C15.877 9.42499 17.9456 9.08686 20.0186 9.17168C20.9697 9.2106 21.7093 10.0189 21.6707 10.9771C21.6321 11.9353 20.8298 12.6805 19.8788 12.6416C18.2698 12.5757 16.6642 12.8382 15.1585 13.4131C13.6527 13.9881 12.2778 14.8637 11.1163 15.9874C9.95475 17.1111 9.0306 18.4597 8.3993 19.9522C7.76801 21.4448 7.4426 23.0504 7.4426 24.6728C7.4426 26.2952 7.76801 27.9009 8.3993 29.3934C9.0306 30.886 9.95475 32.2346 11.1163 33.3583C12.2778 34.482 13.6527 35.3576 15.1585 35.9325C16.6642 36.5075 18.2698 36.7699 19.8788 36.7041C20.8298 36.6652 21.6321 37.4104 21.6707 38.3686C21.7093 39.3268 20.9697 40.1351 20.0186 40.174C17.9456 40.2588 15.877 39.9207 13.937 39.1799C11.9969 38.4391 10.2255 37.311 8.72896 35.8632C7.23246 34.4154 6.04178 32.6779 5.22842 30.7549C4.41506 28.8319 3.99579 26.7632 3.99579 24.6728C3.99579 22.5825 4.41506 20.5138 5.22842 18.5908C6.04178 16.6678 7.23246 14.9302 8.72896 13.4825C10.2255 12.0347 11.9969 10.9065 13.937 10.1658Z" fill="#72BF44"/>
<path fill-rule="evenodd" clip-rule="evenodd" d="M14.7691 47.1306C15.0064 48.0593 14.4515 49.006 13.5298 49.245L5.54243 51.3167L3.71012 64.2577H8.63956C9.59137 64.2577 10.363 65.0351 10.363 65.9941C10.363 66.9531 9.59137 67.7305 8.63956 67.7305H1.72342C1.22387 67.7305 0.748912 67.5121 0.421575 67.1319C0.0942375 66.7517 -0.0532637 66.2471 0.0172842 65.7489L2.29263 49.6788C2.39098 48.9842 2.89465 48.4174 3.56912 48.2425L12.6705 45.8819C13.5923 45.6429 14.5318 46.2019 14.7691 47.1306Z" fill="#72BF44"/>
<path fill-rule="evenodd" clip-rule="evenodd" d="M33.2811 44.7835C33.573 45.6963 33.0751 46.6746 32.1691 46.9687L23.8515 49.6681L21.8863 66.527H68.1136L66.1484 49.6681L57.8307 46.9687C56.9248 46.6746 56.4269 45.6963 56.7187 44.7835C57.0106 43.8708 57.9816 43.3691 58.8875 43.6632L68.2592 46.7047C68.9014 46.9131 69.3638 47.4798 69.4425 48.1549L71.7629 68.0608C71.8203 68.5532 71.666 69.0469 71.339 69.4174C71.012 69.7878 70.5433 69.9998 70.0513 69.9998H19.9486C19.4565 69.9998 18.9879 69.7878 18.6609 69.4174C18.3339 69.0469 18.1796 68.5532 18.237 68.0608L20.5574 48.1549C20.6361 47.4798 21.0985 46.9131 21.7406 46.7047L31.1123 43.6632C32.0183 43.3691 32.9893 43.8708 33.2811 44.7835Z" fill="#72BF44"/>
</svg>
