<svg width="22" height="24" viewBox="0 0 22 24" fill="none" xmlns="http://www.w3.org/2000/svg">
<path fill-rule="evenodd" clip-rule="evenodd" d="M7.33152 10.6307C7.51559 10.8218 7.51559 11.1318 7.33152 11.323L5.36125 13.3693C5.17718 13.5604 4.87876 13.5604 4.69469 13.3693C4.51062 13.1781 4.51062 12.8682 4.69469 12.677L6.66496 10.6307C6.84903 10.4395 7.14746 10.4395 7.33152 10.6307Z" fill="#72BF44"/>
<path fill-rule="evenodd" clip-rule="evenodd" d="M12.3179 10.6307C12.5019 10.8218 12.5019 11.1318 12.3179 11.323L10.3476 13.3693C10.1635 13.5604 9.86508 13.5604 9.68102 13.3693C9.49695 13.1781 9.49695 12.8682 9.68102 12.677L11.6513 10.6307C11.8354 10.4395 12.1338 10.4395 12.3179 10.6307Z" fill="#72BF44"/>
<path fill-rule="evenodd" clip-rule="evenodd" d="M17.3061 10.6307C17.4902 10.8218 17.4902 11.1318 17.3061 11.323L15.3359 13.3693C15.1518 13.5604 14.8534 13.5604 14.6693 13.3693C14.4852 13.1781 14.4852 12.8682 14.6693 12.677L16.6396 10.6307C16.8236 10.4395 17.1221 10.4395 17.3061 10.6307Z" fill="#72BF44"/>
<path fill-rule="evenodd" clip-rule="evenodd" d="M7.33152 17.5369C7.51559 17.7281 7.51559 18.038 7.33152 18.2292L5.36125 20.2755C5.17718 20.4667 4.87876 20.4667 4.69469 20.2755C4.51062 20.0843 4.51062 19.7744 4.69469 19.5832L6.66496 17.5369C6.84903 17.3458 7.14746 17.3458 7.33152 17.5369Z" fill="#72BF44"/>
<path fill-rule="evenodd" clip-rule="evenodd" d="M12.3179 17.5369C12.5019 17.7281 12.5019 18.038 12.3179 18.2292L10.3476 20.2755C10.1635 20.4667 9.86508 20.4667 9.68102 20.2755C9.49695 20.0843 9.49695 19.7744 9.68102 19.5832L11.6513 17.5369C11.8354 17.3458 12.1338 17.3458 12.3179 17.5369Z" fill="#72BF44"/>
<path fill-rule="evenodd" clip-rule="evenodd" d="M17.3061 17.5369C17.4902 17.7281 17.4902 18.038 17.3061 18.2292L15.3359 20.2755C15.1518 20.4667 14.8534 20.4667 14.6693 20.2755C14.4852 20.0843 14.4852 19.7744 14.6693 19.5832L16.6396 17.5369C16.8236 17.3458 17.1221 17.3458 17.3061 17.5369Z" fill="#72BF44"/>
<path fill-rule="evenodd" clip-rule="evenodd" d="M7.12172 0C7.38203 0 7.59305 0.219162 7.59305 0.489512V3.94263C7.59305 4.21298 7.38203 4.43214 7.12172 4.43214C6.86141 4.43214 6.65039 4.21298 6.65039 3.94263V0.489512C6.65039 0.219162 6.86141 0 7.12172 0Z" fill="#72BF44"/>
<path fill-rule="evenodd" clip-rule="evenodd" d="M14.8795 0C15.1398 0 15.3509 0.219162 15.3509 0.489512V3.94263C15.3509 4.21298 15.1398 4.43214 14.8795 4.43214C14.6192 4.43214 14.4082 4.21298 14.4082 3.94263V0.489512C14.4082 0.219162 14.6192 0 14.8795 0Z" fill="#72BF44"/>
<path fill-rule="evenodd" clip-rule="evenodd" d="M16.6242 2.21607C16.6242 1.94572 16.8352 1.72656 17.0955 1.72656H21.5287C21.789 1.72656 22 1.94572 22 2.21607V21.2083C22 22.7575 20.8038 23.9999 19.3121 23.9999H0.471327C0.21102 23.9999 0 23.7807 0 23.5103V10.0815C0 9.81118 0.21102 9.59202 0.471327 9.59202C0.731634 9.59202 0.942655 9.81118 0.942655 10.0815V23.0208H19.3121C20.2832 23.0208 21.0573 22.2168 21.0573 21.2083V2.70559H17.0955C16.8352 2.70559 16.6242 2.48642 16.6242 2.21607Z" fill="#72BF44"/>
<path fill-rule="evenodd" clip-rule="evenodd" d="M0 2.21607C0 1.94572 0.21102 1.72656 0.471327 1.72656H4.90445C5.16476 1.72656 5.37578 1.94572 5.37578 2.21607C5.37578 2.48642 5.16476 2.70559 4.90445 2.70559H0.942655V6.33074H21.5287C21.789 6.33074 22 6.5499 22 6.82025C22 7.0906 21.789 7.30976 21.5287 7.30976H0.471327C0.21102 7.30976 0 7.0906 0 6.82025V2.21607Z" fill="#72BF44"/>
<path fill-rule="evenodd" clip-rule="evenodd" d="M6.65039 2.21607C6.65039 1.94572 6.86141 1.72656 7.12172 1.72656H12.6631C12.9234 1.72656 13.1345 1.94572 13.1345 2.21607C13.1345 2.48642 12.9234 2.70559 12.6631 2.70559H7.12172C6.86141 2.70559 6.65039 2.48642 6.65039 2.21607Z" fill="#72BF44"/>
</svg>
