<svg width="232" height="232" viewBox="0 0 232 232" fill="none" xmlns="http://www.w3.org/2000/svg">
<path fill-rule="evenodd" clip-rule="evenodd" d="M120.892 30.0984C118.543 29.1058 115.963 28.8477 113.475 29.3524C110.987 29.8573 108.688 31.1059 106.875 32.9554C105.061 34.806 103.815 37.1752 103.309 39.7681C102.803 42.3615 103.064 45.0487 104.053 47.4859C105.043 49.9224 106.712 51.9897 108.836 53.4371C110.959 54.8838 113.444 55.6498 115.978 55.6498C117.662 55.6498 119.331 55.3117 120.892 54.6523C122.453 53.9929 123.878 53.0236 125.082 51.7953C126.286 50.5668 127.247 49.1033 127.903 47.4859C128.56 45.8684 128.899 44.1316 128.899 42.3754C128.899 39.7292 128.13 37.1499 126.698 34.9643C125.267 32.7797 123.243 31.0915 120.892 30.0984ZM115.978 65.1841C111.516 65.1841 107.162 63.8339 103.467 61.3157C99.7727 58.7983 96.9078 55.2302 95.2197 51.0733C93.5319 46.9172 93.0917 42.3492 93.951 37.9432C94.8103 33.5367 96.9337 29.4764 100.067 26.2807C103.201 23.0839 107.206 20.8959 111.58 20.0085C115.954 19.121 120.488 19.5774 124.603 21.3158C128.716 23.0538 132.217 25.9905 134.673 29.7397C137.129 33.488 138.434 37.885 138.434 42.3754C138.434 45.3577 137.858 48.313 136.737 51.0733C135.616 53.8337 133.97 56.348 131.89 58.4701C129.809 60.5924 127.334 62.2811 124.603 63.435C121.871 64.5889 118.94 65.1841 115.978 65.1841Z" fill="#F7F7F7"/>
<path fill-rule="evenodd" clip-rule="evenodd" d="M41.824 92.5651C44.4568 92.5651 46.5911 94.6994 46.5911 97.3322V174.169H61.5483V97.3322C61.5483 94.6994 63.6827 92.5651 66.3155 92.5651C68.9483 92.5651 71.0826 94.6994 71.0826 97.3322V178.936C71.0826 181.569 68.9483 183.703 66.3155 183.703H41.824C39.1912 183.703 37.0569 181.569 37.0569 178.936V97.3322C37.0569 94.6994 39.1912 92.5651 41.824 92.5651Z" fill="#F7F7F7"/>
<path fill-rule="evenodd" clip-rule="evenodd" d="M102.985 92.5651C105.618 92.5651 107.752 94.6994 107.752 97.3322V174.169H122.709V97.3322C122.709 94.6994 124.843 92.5651 127.476 92.5651C130.109 92.5651 132.243 94.6994 132.243 97.3322V178.936C132.243 181.569 130.109 183.703 127.476 183.703H102.985C100.352 183.703 98.2177 181.569 98.2177 178.936V97.3322C98.2177 94.6994 100.352 92.5651 102.985 92.5651Z" fill="#F7F7F7"/>
<path fill-rule="evenodd" clip-rule="evenodd" d="M165.71 92.5651C168.343 92.5651 170.477 94.6994 170.477 97.3322V174.169H185.434V97.3322C185.434 94.6994 187.569 92.5651 190.201 92.5651C192.834 92.5651 194.968 94.6994 194.968 97.3322V178.936C194.968 181.569 192.834 183.703 190.201 183.703H165.71C163.077 183.703 160.943 181.569 160.943 178.936V97.3322C160.943 94.6994 163.077 92.5651 165.71 92.5651Z" fill="#F7F7F7"/>
<path fill-rule="evenodd" clip-rule="evenodd" d="M10.1166 197.048C10.1166 194.415 12.2509 192.281 14.8837 192.281H226.871C229.504 192.281 231.638 194.415 231.638 197.048V209.187C231.647 212.163 231.082 215.114 229.971 217.872C228.859 220.634 227.22 223.151 225.145 225.275C223.069 227.401 220.597 229.092 217.869 230.248C215.14 231.404 212.211 232 209.251 232H14.8837C12.2509 232 10.1166 229.866 10.1166 227.233V197.048ZM19.6508 201.815V222.466H209.251C210.929 222.466 212.594 222.128 214.15 221.469C215.706 220.81 217.125 219.841 218.324 218.614C219.523 217.386 220.477 215.924 221.127 214.309C221.778 212.694 222.11 210.961 222.104 209.21L222.104 209.192V201.815H19.6508Z" fill="#F7F7F7"/>
<path fill-rule="evenodd" clip-rule="evenodd" d="M116.047 9.53427C110.931 9.53427 105.9 10.9075 101.458 13.5232L12.4765 66.0495C12.0944 66.275 11.6826 66.4462 11.2532 66.5579C10.6973 66.7024 10.1919 67.0741 9.87087 67.6258C9.54799 68.1805 9.44951 68.8561 9.60962 69.4965C9.76928 70.1352 10.164 70.6549 10.6732 70.9633C11.1788 71.2694 11.7694 71.3527 12.3229 71.2087C12.7147 71.1068 13.1179 71.0552 13.5228 71.0552H218.435C218.847 71.0552 219.258 71.1088 219.657 71.2145C219.934 71.288 220.221 71.3048 220.503 71.2648C220.785 71.2248 221.06 71.128 221.314 70.9762C221.567 70.8242 221.795 70.619 221.981 70.3679C222.167 70.1167 222.307 69.8255 222.387 69.5099C222.468 69.1943 222.487 68.864 222.442 68.5394C222.398 68.2148 222.292 67.9062 222.134 67.6311C221.975 67.3563 221.769 67.1222 221.531 66.9388C221.293 66.7555 221.028 66.6256 220.75 66.5521C220.328 66.4402 219.924 66.2708 219.548 66.0486L130.636 13.5232C130.635 13.5229 130.636 13.5235 130.636 13.5232C126.194 10.9081 121.162 9.53427 116.047 9.53427ZM96.6198 5.30764C102.52 1.83308 109.221 0 116.047 0C122.873 0 129.574 1.83309 135.474 5.30764L135.479 5.311L223.905 57.5493C225.148 57.9647 226.312 58.5861 227.351 59.3869C228.586 60.3387 229.619 61.5247 230.396 62.8736C231.173 64.2223 231.679 65.7094 231.889 67.2499C232.099 68.7904 232.01 70.3581 231.626 71.865C231.242 73.3719 230.569 74.792 229.643 76.0433C228.715 77.2947 227.551 78.3536 226.213 79.1552C224.875 79.9571 223.39 80.4848 221.843 80.7044C220.528 80.8911 219.193 80.8516 217.895 80.5895H14.0522C11.1989 81.1547 8.23531 80.6329 5.73506 79.1191C3.04192 77.4884 1.12059 74.8511 0.360056 71.809C-0.400039 68.7687 0.0524916 65.5415 1.63062 62.8299C3.08418 60.3324 5.39264 58.4477 8.12985 57.5438L96.6198 5.30764Z" fill="#F7F7F7"/>
</svg>
