<svg width="20" height="20" viewBox="0 0 20 20" fill="none" xmlns="http://www.w3.org/2000/svg">
<path d="M14.9981 15C13.6174 15 12.498 16.1194 12.498 17.5C12.498 18.8806 13.6174 20 14.9981 20C16.3788 20 17.4982 18.8806 17.4982 17.5C17.4982 16.1194 16.3787 15 14.9981 15Z" fill="#222"/>
<path d="M8.74808 15C7.36745 15 6.24805 16.1194 6.24805 17.5C6.24805 18.8806 7.36745 20 8.74808 20C10.1288 20 11.2481 18.8806 11.2481 17.5C11.2481 16.1194 10.1288 15 8.74808 15Z" fill="#222"/>
<path d="M19.7661 4.26879C19.528 3.94222 19.152 3.74998 18.7492 3.74998H5.89977L4.93414 0.853865C4.76446 0.343614 4.28717 0 3.74884 0H1.24998C0.559034 0 0 0.558467 0 1.25C0 1.94151 0.559056 2.5 1.24998 2.5H2.84794L6.31233 12.8955C6.48328 13.4057 6.96057 13.75 7.4989 13.75H16.2492C16.7899 13.75 17.2648 13.4057 17.4357 12.8955L19.9358 5.39487C20.0627 5.01405 19.9992 4.59532 19.7661 4.26879Z" fill="#222"/>
</svg>
