<svg id="Слой_1" data-name="Слой 1" xmlns="http://www.w3.org/2000/svg" viewBox="0 0 200 53.77"><defs><style>.cls-1{fill:#3e813d;fill-rule:evenodd;}.cls-2{fill:#1d1d1b;}.cls-3{fill:#6ab547;}</style></defs><title>Logo_general_Ffin</title><path class="cls-1" d="M82.1,55.72v6.77h24.53V76.07H82.1s0,15.84,0,15.86a26.81,26.81,0,0,0,5.9,2c11.93-2.47,23.15-13.12,23.5-32l.12-6.19Z" transform="translate(-64.15 -40.15)"/><polygon class="cls-2" points="69.35 8.71 69.35 12.21 76.64 12.21 76.64 16.12 69.35 16.12 69.35 22.66 64.58 22.66 64.58 4.8 77.25 4.8 77.25 8.71 69.35 8.71"/><path class="cls-2" d="M154,58.08h-3.7v4.73h-4.76V45h9.2a12,12,0,0,1,3.52.48,3.42,3.42,0,0,1,2,1.59,6.85,6.85,0,0,1,.66,3.34,18.93,18.93,0,0,1-.16,2.79,2.93,2.93,0,0,1-.89,1.64,5,5,0,0,1-2.33,1.07v.19a3.49,3.49,0,0,1,2.35.87,3,3,0,0,1,.86,2.3v3.59H156V60.32c0-1.5-.64-2.24-1.94-2.24m-3.7-4.15H154a2.71,2.71,0,0,0,1.35-.25,1.08,1.08,0,0,0,.52-.78,10.27,10.27,0,0,0,.1-1.75,2.4,2.4,0,0,0-.4-1.63A2.17,2.17,0,0,0,154,49.1h-3.7Z" transform="translate(-64.15 -40.15)"/><polygon class="cls-2" points="106.03 8.71 106.03 11.97 113.65 11.97 113.65 15.28 106.03 15.28 106.03 18.76 114.32 18.76 114.32 22.66 101.26 22.66 101.26 4.8 114.15 4.8 114.15 8.71 106.03 8.71"/><polygon class="cls-2" points="123.83 8.71 123.83 11.97 131.45 11.97 131.45 15.28 123.83 15.28 123.83 18.76 132.12 18.76 132.12 22.66 119.07 22.66 119.07 4.8 131.95 4.8 131.95 8.71 123.83 8.71"/><path class="cls-2" d="M200.87,62.82V45h9a10.55,10.55,0,0,1,4.11.68,4.53,4.53,0,0,1,2.33,2.21,9.19,9.19,0,0,1,.75,4v3.74a11.41,11.41,0,0,1-.61,4.09,4.34,4.34,0,0,1-2.05,2.34,8.29,8.29,0,0,1-3.89.77Zm4.76-13.72v9.57h4.17c1.6,0,2.4-1,2.4-3.05V51.88a4.87,4.87,0,0,0-.24-1.73,1.49,1.49,0,0,0-.76-.83,3.57,3.57,0,0,0-1.4-.22Z" transform="translate(-64.15 -40.15)"/><path class="cls-2" d="M229.39,63a19.17,19.17,0,0,1-3.45-.27,6.89,6.89,0,0,1-2.55-1,4.56,4.56,0,0,1-1.67-2,7.83,7.83,0,0,1-.6-3.29v-5a7.91,7.91,0,0,1,.6-3.3,4.63,4.63,0,0,1,1.67-2,7.06,7.06,0,0,1,2.55-1,22.18,22.18,0,0,1,6.9,0,7.06,7.06,0,0,1,2.55,1,4.63,4.63,0,0,1,1.67,2,7.92,7.92,0,0,1,.59,3.3v5a7.84,7.84,0,0,1-.59,3.29,4.56,4.56,0,0,1-1.67,2,6.89,6.89,0,0,1-2.55,1,19.32,19.32,0,0,1-3.45.27m0-4.15a8.54,8.54,0,0,0,2-.18,1.53,1.53,0,0,0,1-.82,4.43,4.43,0,0,0,.32-1.93v-4a5.48,5.48,0,0,0-.18-1.58,1.68,1.68,0,0,0-.56-.86,2.21,2.21,0,0,0-1-.38,11.71,11.71,0,0,0-1.63-.09,8.34,8.34,0,0,0-2,.19,1.51,1.51,0,0,0-1,.8,4.57,4.57,0,0,0-.35,1.92v4a4.72,4.72,0,0,0,.35,1.94,1.51,1.51,0,0,0,1,.81,8.44,8.44,0,0,0,2,.18" transform="translate(-64.15 -40.15)"/><polygon class="cls-2" points="182.18 8.97 182.66 22.66 177.9 22.66 177.9 4.8 185.45 4.8 188.85 16.02 189.02 16.02 192.26 4.8 200 4.8 200 22.66 195.24 22.66 195.71 8.97 195.55 8.97 191.02 22.66 186.9 22.66 182.33 8.97 182.18 8.97"/><path class="cls-2" d="M134.69,74.19v1.52h-3.26v11h-1.91v-11h-1.9V74.19h1.9V72.33a3.75,3.75,0,0,1,.94-2.9,4.67,4.67,0,0,1,3.06-.82l1.17.07v1.55a6.9,6.9,0,0,0-1-.07h-.34a2,2,0,0,0-1.49.46,2.37,2.37,0,0,0-.41,1.56v2Z" transform="translate(-64.15 -40.15)"/><path class="cls-2" d="M139.14,70.87h-1.9v-2h1.9Zm0,15.82h-1.9V74.21h1.9Z" transform="translate(-64.15 -40.15)"/><path class="cls-2" d="M144.7,79v7.65h-1.91V74.21h1.79V75.8a3.55,3.55,0,0,1,1.83-1.47,7.39,7.39,0,0,1,2.43-.34,5.2,5.2,0,0,1,3.56,1c.68.62,1,1.78,1,3.48v8.27h-1.9V78.61a3.73,3.73,0,0,0-.57-2.47,3.57,3.57,0,0,0-2.48-.6,4.22,4.22,0,0,0-2.82.81A3.38,3.38,0,0,0,144.7,79" transform="translate(-64.15 -40.15)"/><path class="cls-2" d="M165.52,80.59V78.8c0-1.5-.21-2.45-.64-2.84s-1.43-.58-3-.58a5.16,5.16,0,0,0-2.34.36,1.66,1.66,0,0,0-.62,1.54v.36H157c0-1.56.47-2.59,1.4-3.1A8.14,8.14,0,0,1,162,74a7.86,7.86,0,0,1,4,.74c.95.62,1.43,1.84,1.43,3.67v8.29h-1.79l.07-1.57a3.18,3.18,0,0,1-1.43,1.49,8.25,8.25,0,0,1-2.76.32,6.75,6.75,0,0,1-3.62-.72c-.87-.59-1.31-1.68-1.31-3.28a3.42,3.42,0,0,1,1.29-3.1,6.52,6.52,0,0,1,3.47-.69,9.2,9.2,0,0,1,2.94.31,2.28,2.28,0,0,1,1.23,1.14m0,2.45c0-1.07-.26-1.75-.77-2a8.51,8.51,0,0,0-3.38-.42,4.32,4.32,0,0,0-2.14.38,2,2,0,0,0-.74,1.76,2.81,2.81,0,0,0,.65,2.15,3.39,3.39,0,0,0,2.25.57,9,9,0,0,0,3-.31,2,2,0,0,0,1.16-2.1" transform="translate(-64.15 -40.15)"/><path class="cls-2" d="M173,79v7.65h-1.91V74.21h1.79V75.8a3.61,3.61,0,0,1,1.84-1.47,7.28,7.28,0,0,1,2.42-.34,5.2,5.2,0,0,1,3.56,1q1,.93,1,3.48v8.27h-1.91V78.61a3.73,3.73,0,0,0-.57-2.47,3.57,3.57,0,0,0-2.48-.6,4.24,4.24,0,0,0-2.82.81A3.38,3.38,0,0,0,173,79" transform="translate(-64.15 -40.15)"/><path class="cls-2" d="M193.91,82.16h1.84c0,1.88-.43,3.16-1.27,3.84s-2.13.93-4.12.93-3.49-.46-4.24-1.36S185,83,185,80.47s.37-4.17,1.11-5.09,2.14-1.39,4.2-1.39a7.19,7.19,0,0,1,3.79.77,3.4,3.4,0,0,1,1.43,3.12v.4h-1.81a2.85,2.85,0,0,0-.6-2.12,4.48,4.48,0,0,0-2.82-.62c-1.4,0-2.31.3-2.75.91s-.64,1.93-.64,4,.23,3.35.68,4,1.37,1,2.76,1a4.5,4.5,0,0,0,2.88-.63,3.59,3.59,0,0,0,.68-2.59" transform="translate(-64.15 -40.15)"/><path class="cls-2" d="M209.56,80.81h-9c0,1.89.23,3.13.68,3.72s1.41.9,2.87.9A6.12,6.12,0,0,0,207,85a1.9,1.9,0,0,0,.65-1.73v-.4h1.91c0,1.67-.46,2.78-1.38,3.36a8.2,8.2,0,0,1-4,.69c-2.09,0-3.53-.46-4.3-1.36S198.7,83,198.7,80.43s.41-4.09,1.24-5S202.16,74,204.13,74a5.63,5.63,0,0,1,4.17,1.31c.84.88,1.26,2.39,1.26,4.55Zm-1.91-1.46a4.53,4.53,0,0,0-.76-3,4.94,4.94,0,0,0-5.54,0,4.59,4.59,0,0,0-.75,3Z" transform="translate(-64.15 -40.15)"/><path class="cls-3" d="M111.66,55.72l.23-14.63q-11.82-.93-23.87-.94t-23.87.94l.15,11.44.22,9.38s.08,8.71,3,14.93A28.87,28.87,0,0,0,82.13,91.93l0-15.86h24.53V62.49H82.1V55.72Z" transform="translate(-64.15 -40.15)"/></svg>