<svg width="122" height="56" viewBox="0 0 122 56" fill="none" xmlns="http://www.w3.org/2000/svg">
    <rect x="4.28321" y="1.99603" width="116" height="46" rx="1" transform="rotate(3 4.28321 1.99603)" fill="white" stroke="#72BF44" stroke-width="2"/>
    <path d="M20.2207 14.1468L20.1654 15.2014L19.9258 15.1888C17.9964 15.0877 17.0159 16.1418 16.9324 17.7356L16.8727 18.8741C16.7879 20.4918 17.6535 21.6307 19.5829 21.7318L19.8225 21.7444L19.7654 22.8349L21.2513 22.9128L21.3085 21.8223L21.5601 21.8354C23.4775 21.9359 24.4574 20.8938 24.5422 19.276L24.6018 18.1376C24.6841 16.5677 23.8444 15.3942 21.9031 15.2924L21.6514 15.2792L21.7067 14.2247L20.2207 14.1468ZM19.6078 20.5675C18.6132 20.5154 18.2466 19.9434 18.2975 18.9728L18.3597 17.7864C18.4087 16.8517 18.8204 16.3325 19.827 16.3853L20.1626 16.4029L19.9434 20.5851L19.6078 20.5675ZM21.8762 16.4927C22.8708 16.5448 23.226 17.1041 23.1771 18.0389L23.1155 19.2133C23.0634 20.2079 22.6397 20.7264 21.657 20.6749L21.3215 20.6573L21.5407 16.4751L21.8762 16.4927ZM28.9373 23.4117C30.2675 23.4814 30.9977 22.6184 31.0711 21.2164L31.1591 19.5387C31.2338 18.1126 30.6092 17.1907 29.3629 17.1254C28.6559 17.0883 28.0807 17.2865 27.6488 17.7325L27.6248 17.7312L27.6196 17.1421L26.4213 17.0793L25.9766 25.5637L27.3188 25.634L27.4676 22.7939L27.4916 22.7952C27.8562 23.1748 28.3621 23.3816 28.9373 23.4117ZM27.6812 18.7195C27.9252 18.4199 28.3464 18.1776 28.8737 18.2052C29.5568 18.241 29.8703 18.678 29.8276 19.4929L29.741 21.1467C29.697 21.9855 29.3161 22.3741 28.6211 22.3377C28.0818 22.3094 27.7349 22.0509 27.5242 21.7154L27.6812 18.7195ZM36.7623 17.6213L34.1079 21.9523L34.084 21.9511L34.3176 17.4932L33.0474 17.4266L32.7283 23.5142L33.9986 23.5808L36.6497 19.3097L36.6737 19.311L36.4432 23.7089L37.7015 23.7749L38.0205 17.6872L36.7623 17.6213ZM40.8514 17.8356L40.4571 20.5427C40.3438 21.3298 40.1226 22.1113 39.8446 22.8297L39.0896 22.7902L38.9402 25.6423L40.2104 25.7088L40.3046 23.9113L44.0675 24.1085L43.9733 25.906L45.2435 25.9726L45.393 23.1205L44.5661 23.0772L44.8299 18.0441L40.8514 17.8356ZM43.4445 19.0289L43.2328 23.0674L41.0518 22.9531C41.3285 22.2586 41.5384 21.4645 41.6524 20.6654L41.8866 18.9473L43.4445 19.0289ZM51.6112 20.5144C51.6772 19.2561 50.9125 18.2547 49.2828 18.1693C47.677 18.0852 46.7986 19.0245 46.7339 20.2588L46.6347 22.1522C46.57 23.3865 47.3466 24.3885 48.9524 24.4727C50.5582 24.5568 51.4473 23.6421 51.512 22.4078L51.6112 20.5144ZM48.0736 20.3771C48.115 19.5861 48.4744 19.1483 49.2294 19.1879C49.9963 19.2281 50.308 19.7011 50.2665 20.492L50.173 22.2775C50.1309 23.0804 49.7721 23.5062 49.0052 23.466C48.2742 23.4277 47.9379 22.9655 47.98 22.1626L48.0736 20.3771ZM58.3883 18.7547L56.4143 22.0278L56.3903 22.0266L54.7692 18.565L53.499 18.4984L53.1799 24.5861L54.4142 24.6508L54.614 20.84L54.6379 20.8412L56.0267 23.6898L56.6019 23.72L58.2803 21.0441L58.3043 21.0454L58.1052 24.8442L59.3395 24.9089L59.6585 18.8212L58.3883 18.7547ZM67.8085 16.6408L67.7533 17.6953L67.5136 17.6828C65.5842 17.5817 64.6037 18.6358 64.5202 20.2296L64.4605 21.368C64.3757 22.9858 65.2413 24.1247 67.1707 24.2258L67.4104 24.2384L67.3532 25.3289L68.8392 25.4067L68.8963 24.3162L69.148 24.3294C71.0653 24.4299 72.0452 23.3878 72.13 21.77L72.1897 20.6315C72.2719 19.0617 71.4322 17.8881 69.4909 17.7864L69.2392 17.7732L69.2945 16.7187L67.8085 16.6408ZM67.1956 23.0615C66.201 23.0094 65.8344 22.4374 65.8853 21.4667L65.9475 20.2804C65.9965 19.3457 66.4082 18.8265 67.4148 18.8792L67.7504 18.8968L67.5312 23.0791L67.1956 23.0615ZM69.464 18.9866C70.4587 19.0388 70.8139 19.5981 70.7649 20.5328L70.7033 21.7072C70.6512 22.7019 70.2275 23.2204 69.2448 23.1689L68.9093 23.1513L69.1285 18.9691L69.464 18.9866ZM77.724 19.768L75.0697 24.099L75.0457 24.0978L75.2794 19.6399L74.0091 19.5733L73.6901 25.661L74.9603 25.7275L77.6115 21.4564L77.6355 21.4577L77.405 25.8556L78.6632 25.9216L78.9823 19.8339L77.724 19.768ZM82.0094 26.097L82.1457 23.4965L84.3506 23.6121L84.2143 26.2125L85.5565 26.2829L85.8755 20.1952L84.5334 20.1249L84.4053 22.5695L82.2003 22.454L82.3284 20.0093L80.9862 19.939L80.6672 26.0266L82.0094 26.097ZM88.5091 22.0876C88.8256 21.5515 89.2481 21.2852 89.7274 21.3103C90.3146 21.3411 90.5979 21.6684 90.5589 22.4114L90.5282 22.9985L90.1087 22.9766C88.0835 22.8704 87.4013 23.7359 87.3454 24.8024C87.2933 25.7971 87.8926 26.5134 88.9711 26.57C89.5823 26.602 90.119 26.4499 90.5717 26.065C90.7465 26.3986 91.0701 26.6439 91.6334 26.6734C91.8491 26.6847 92.0793 26.6487 92.2615 26.6102L92.3017 25.8433L92.1459 25.8351C91.8583 25.82 91.7233 25.6447 91.7384 25.3571L91.8891 22.4811C91.9507 21.3067 91.4232 20.3658 89.9732 20.2898C88.9066 20.2339 88.1934 20.7733 87.7181 21.5895L88.5091 22.0876ZM89.355 25.6648C88.8757 25.6397 88.6 25.3969 88.6327 24.7738C88.6641 24.1746 89.0077 23.8081 90.0623 23.8633L90.4817 23.8853L90.4101 25.2515C90.1308 25.5372 89.8104 25.6887 89.355 25.6648ZM95.0625 26.781L95.1988 24.1806L97.4038 24.2962L97.2675 26.8966L98.6097 26.9669L98.9287 20.8793L97.5866 20.809L97.4584 23.2536L95.2535 23.138L95.3816 20.6934L94.0394 20.6231L93.7204 26.7107L95.0625 26.781ZM105.07 22.559C104.772 21.6061 104.02 21.038 103.014 20.9852C101.504 20.9061 100.661 21.8473 100.597 23.0816L100.498 24.963C100.435 26.1614 101.161 27.2088 102.683 27.2886C103.798 27.347 104.534 26.8208 104.931 25.9043L103.991 25.4946C103.745 26.0705 103.396 26.2925 102.869 26.2649C102.174 26.2285 101.799 25.8123 101.843 24.9734L101.936 23.1999C101.98 22.361 102.395 22.0103 103.09 22.0467C103.57 22.0718 103.941 22.3196 104.116 22.8815L105.07 22.559ZM19.068 35.9123C20.3982 35.982 21.1283 35.1191 21.2018 33.717L21.2898 32.0393C21.3645 30.6132 20.7399 29.6913 19.4936 29.626C18.7866 29.5889 18.2114 29.7871 17.7795 30.2331L17.7555 30.2318L17.7503 29.6428L16.552 29.58L16.1073 38.0643L17.4495 38.1346L17.5983 35.2945L17.6223 35.2958C17.9869 35.6754 18.4928 35.8822 19.068 35.9123ZM17.8119 31.2201C18.0559 30.9205 18.4771 30.6782 19.0044 30.7058C19.6875 30.7416 20.001 31.1787 19.9583 31.9935L19.8717 33.6473C19.8277 34.4861 19.4468 34.8747 18.7518 34.8383C18.2125 34.81 17.8656 34.5515 17.6548 34.216L17.8119 31.2201ZM27.4077 33.3693L27.463 32.3147C27.5289 31.0565 26.7787 30.0078 25.3048 29.9305C23.7709 29.8501 22.9165 30.7907 22.8524 32.013L22.7544 33.8825C22.6872 35.1647 23.4765 36.1554 24.9984 36.2351C26.2087 36.2986 26.9428 35.8203 27.3449 34.796L26.4051 34.3862C26.1195 35.0201 25.7588 35.2536 25.1836 35.2234C24.4286 35.1839 24.0558 34.7317 24.0991 33.9049L24.1362 33.1978L27.4077 33.3693ZM24.1983 32.0115C24.236 31.2925 24.5816 30.89 25.3006 30.9277C25.9597 30.9622 26.3224 31.3778 26.2847 32.0968L26.2628 32.5162L24.1776 32.4069L24.1983 32.0115ZM33.8435 35.7494C33.5199 35.7324 33.349 35.5552 33.1798 35.1138L32.7457 33.9975C32.6295 33.691 32.4623 33.4419 32.1684 33.3184L32.1697 33.2944C32.4049 33.1625 32.5732 32.931 32.7207 32.6384L33.1211 31.8783C33.2806 31.5862 33.4615 31.3433 33.845 31.3634L34.0607 31.3747L34.1066 30.4999C33.9766 30.4571 33.7861 30.4231 33.6064 30.4137C32.7316 30.3678 32.3495 30.7804 32.0696 31.3064L31.6421 32.1252C31.3748 32.6399 31.1831 32.8582 30.8835 32.8425L30.5001 32.8224L30.6313 30.3178L29.2892 30.2475L28.9701 36.3351L30.3123 36.4055L30.4517 33.7451L30.9191 33.7696C31.1827 33.7834 31.331 33.9354 31.4376 34.1933L31.9368 35.4452C32.2233 36.1692 32.5627 36.5715 33.3776 36.6142C33.6292 36.6274 33.7869 36.5996 33.9572 36.5604L33.9993 35.7575L33.8435 35.7494ZM40.2674 32.9377C40.3333 31.6794 39.5687 30.6781 37.9389 30.5926C36.3331 30.5085 35.4547 31.4478 35.3901 32.6821L35.2908 34.5755C35.2261 35.8098 36.0028 36.8118 37.6086 36.896C39.2144 36.9802 40.1034 36.0654 40.1681 34.8311L40.2674 32.9377ZM36.7297 32.8004C36.7712 32.0095 37.1306 31.5717 37.8855 31.6112C38.6525 31.6514 38.9641 32.1244 38.9227 32.9153L38.8291 34.7009C38.787 35.5038 38.4283 35.9296 37.6613 35.8894C36.9303 35.8511 36.594 35.3888 36.6361 34.5859L36.7297 32.8004ZM47.0444 31.178L45.0704 34.4512L45.0464 34.4499L43.4254 30.9883L42.1551 30.9218L41.8361 37.0094L43.0704 37.0741L43.2701 33.2633L43.2941 33.2646L44.6829 36.1132L45.2581 36.1433L46.9364 33.4675L46.9604 33.4687L46.7613 37.2675L47.9956 37.3322L48.3147 31.2446L47.0444 31.178ZM54.5322 34.7908L54.5874 33.7363C54.6534 32.478 53.9032 31.4293 52.4293 31.3521C50.8954 31.2717 50.041 32.2122 49.9769 33.4346L49.8789 35.304C49.8117 36.5862 50.601 37.5769 52.1229 37.6567C53.3332 37.7201 54.0673 37.2419 54.4694 36.2175L53.5296 35.8077C53.244 36.4417 52.8833 36.6751 52.3081 36.645C51.5531 36.6054 51.1803 36.1533 51.2236 35.3264L51.2607 34.6194L54.5322 34.7908ZM51.3228 33.433C51.3605 32.714 51.7061 32.3115 52.4251 32.3492C53.0842 32.3837 53.4469 32.7993 53.4092 33.5183L53.3873 33.9377L51.3021 33.8285L51.3228 33.433ZM57.4368 37.827L57.5731 35.2266L59.778 35.3421L59.6418 37.9426L60.9839 38.0129L61.303 31.9253L59.9608 31.8549L59.8327 34.2996L57.6277 34.184L57.7558 31.7394L56.4137 31.669L56.0946 37.7567L57.4368 37.827ZM64.1241 32.0731L63.7298 34.7802C63.6165 35.5673 63.3953 36.3488 63.1173 37.0673L62.3623 37.0277L62.2129 39.8798L63.4831 39.9463L63.5773 38.1488L67.3402 38.346L67.246 40.1435L68.5162 40.2101L68.6657 37.358L67.8388 37.3147L68.1026 32.2816L64.1241 32.0731ZM66.7172 33.2664L66.5055 37.3049L64.3245 37.1906C64.6012 36.4961 64.8111 35.702 64.9251 34.9029L65.1593 33.1848L66.7172 33.2664ZM75.5457 32.6717L74.1556 32.5988L72.6151 37.0002L72.5912 36.999L71.2915 32.4487L69.7936 32.3702L71.8826 38.3678L71.6317 39.0275C71.3676 39.7107 70.9469 39.941 70.2361 39.9758L70.2786 40.9994C71.5394 41.0174 72.2634 40.5026 72.7859 39.2443L75.5457 32.6717ZM81.2237 36.1897L81.2789 35.1351C81.3449 33.8768 80.5947 32.8281 79.1208 32.7509C77.5869 32.6705 76.7325 33.6111 76.6684 34.8334L76.5704 36.7028C76.5032 37.9851 77.2925 38.9757 78.8144 39.0555C80.0247 39.1189 80.7588 38.6407 81.1609 37.6163L80.2211 37.2066C79.9355 37.8405 79.5748 38.074 78.9996 38.0438C78.2446 38.0042 77.8718 37.5521 77.9151 36.7252L77.9522 36.0182L81.2237 36.1897ZM78.0143 34.8318C78.052 34.1128 78.3976 33.7104 79.1166 33.748C79.7757 33.7826 80.1384 34.1981 80.1007 34.9172L80.0788 35.3366L77.9936 35.2273L78.0143 34.8318ZM85.3746 39.2912L85.6365 34.294L87.3741 34.3851L87.4312 33.2946L82.6138 33.0421L82.5567 34.1326L84.3063 34.2243L84.0444 39.2214L85.3746 39.2912Z" fill="#72BF44"/>
</svg>
