<svg width="106" height="56" viewBox="0 0 106 56" fill="none" xmlns="http://www.w3.org/2000/svg">
    <g>
        <rect x="3.51172" y="1.38989" width="101" height="48" rx="2" transform="rotate(3 3.51172 1.38989)" fill="white"/>
        <rect x="4.45801" y="2.44086" width="99" height="46" rx="1" transform="rotate(3 4.45801 2.44086)" stroke="#72BF44" stroke-width="2"/>
    </g>
    <path d="M22.8671 16.9562C22.9356 15.65 22.193 14.6858 20.3715 14.5904L17.7112 14.451L17.2559 23.139L20.2398 23.2954C22.1931 23.3978 22.9605 22.5127 23.0427 20.9429C23.098 19.8883 22.6696 19.1209 21.6282 18.8139L21.6295 18.79C22.4601 18.5331 22.8156 17.9389 22.8671 16.9562ZM18.9226 19.309L20.3726 19.385C21.2594 19.4315 21.6247 19.7991 21.5738 20.7698C21.5198 21.8004 21.0941 22.1265 20.2313 22.0813L18.7813 22.0053L18.9226 19.309ZM19.1079 15.7739L20.3542 15.8392C21.205 15.8838 21.5229 16.2369 21.4796 17.0638C21.4357 17.9026 21.1021 18.3057 20.2273 18.2599L18.981 18.1945L19.1079 15.7739ZM25.6204 19.2274C25.9369 18.6913 26.3594 18.425 26.8388 18.4501C27.426 18.4809 27.7092 18.8082 27.6703 19.5512L27.6395 20.1384L27.2201 20.1164C25.1949 20.0102 24.5126 20.8757 24.4567 21.9423C24.4046 22.9369 25.004 23.6532 26.0825 23.7098C26.6936 23.7418 27.2303 23.5897 27.6831 23.2048C27.8579 23.5384 28.1815 23.7837 28.7447 23.8132C28.9604 23.8245 29.1906 23.7885 29.3729 23.75L29.4131 22.9831L29.2573 22.9749C28.9697 22.9598 28.8347 22.7845 28.8497 22.4969L29.0005 19.6209C29.062 18.4465 28.5345 17.5056 27.0845 17.4296C26.018 17.3737 25.3048 17.9131 24.8294 18.7294L25.6204 19.2274ZM26.4664 22.8046C25.987 22.7795 25.7114 22.5367 25.744 21.9136C25.7754 21.3144 26.1191 20.9479 27.1736 21.0032L27.593 21.0251L27.5214 22.3913C27.2421 22.677 26.9217 22.8285 26.4664 22.8046ZM34.563 18.0018C34.3882 17.8965 34.1277 17.8227 33.8881 17.8102C33.2529 17.7769 32.7333 18.0621 32.3443 18.8348L32.3203 18.8335L32.3132 17.8238L31.1508 17.7629L30.8317 23.8505L32.1739 23.9209L32.3516 20.5295C32.511 19.5525 32.9732 18.9879 33.7761 19.03C33.9918 19.0413 34.193 19.0999 34.3551 19.2166L34.563 18.0018ZM40.0751 19.5884C39.7765 18.6355 39.0252 18.0674 38.0186 18.0146C36.5087 17.9355 35.6663 18.8767 35.6016 20.111L35.503 21.9924C35.4402 23.1908 36.1664 24.2382 37.6883 24.318C38.8027 24.3764 39.5393 23.8502 39.9358 22.9337L38.9959 22.524C38.7495 23.0999 38.4014 23.322 37.8741 23.2943C37.179 23.2579 36.8043 22.8417 36.8483 22.0029L36.9412 20.2293C36.9852 19.3904 37.4001 19.0397 38.0952 19.0761C38.5745 19.1012 38.946 19.349 39.1209 19.9109L40.0751 19.5884ZM41.9698 15.4579L41.5007 24.4096L42.8428 24.48L43.312 15.5283L41.9698 15.4579ZM45.934 20.292C46.2504 19.7559 46.673 19.4896 47.1523 19.5147C47.7395 19.5455 48.0228 19.8728 47.9838 20.6157L47.953 21.2029L47.5336 21.181C45.5084 21.0748 44.8262 21.9403 44.7703 23.0068C44.7182 24.0015 45.3175 24.7178 46.396 24.7743C47.0072 24.8064 47.5439 24.6543 47.9966 24.2694C48.1714 24.603 48.495 24.8483 49.0582 24.8778C49.2739 24.8891 49.5041 24.8531 49.6864 24.8146L49.7266 24.0477L49.5708 24.0395C49.2832 24.0244 49.1482 23.8491 49.1633 23.5615L49.314 20.6855C49.3755 19.5111 48.8481 18.5702 47.3981 18.4942C46.3315 18.4383 45.6183 18.9777 45.1429 19.7939L45.934 20.292ZM46.7799 23.8692C46.3006 23.8441 46.0249 23.6013 46.0575 22.9782C46.0889 22.379 46.4326 22.0125 47.4871 22.0677L47.9066 22.0897L47.835 23.4559C47.5556 23.7416 47.2353 23.8931 46.7799 23.8692ZM56.4548 19.089L55.0647 19.0161L53.5249 23.4056L53.5009 23.4043L52.2006 18.866L50.7027 18.7875L52.7803 24.7725L52.6832 25.0197C52.4204 25.6789 52.0344 25.935 51.323 25.9819L51.3693 26.9336C52.6301 26.9516 53.3786 26.4261 53.9005 25.1797L56.4548 19.089ZM59.4479 25.4584C60.6702 25.5224 61.5738 24.7887 61.6297 23.7222C61.7371 21.673 58.8176 21.8925 58.8773 20.7541C58.8986 20.3466 59.1887 20.0854 59.7759 20.1162C60.2313 20.1401 60.5801 20.3626 60.8016 20.951L61.7426 20.6519C61.4762 19.7727 60.7848 19.2078 59.7782 19.155C58.4241 19.084 57.6523 19.8247 57.6014 20.7953C57.494 22.8445 60.4154 22.5891 60.3532 23.7754C60.3268 24.2788 60.0367 24.5399 59.4615 24.5098C59.0421 24.4878 58.5879 24.2117 58.3336 23.5615L57.3511 23.9666C57.7089 24.9346 58.4413 25.4056 59.4479 25.4584ZM19.2428 36.3571C20.573 36.4268 21.3032 35.5639 21.3766 34.1618L21.4646 32.4841C21.5393 31.0581 20.9147 30.1361 19.6684 30.0708C18.9614 30.0337 18.3862 30.2319 17.9543 30.6779L17.9303 30.6767L17.9251 30.0876L16.7268 30.0248L16.2821 38.5091L17.6243 38.5795L17.7731 35.7394L17.7971 35.7406C18.1617 36.1202 18.6676 36.327 19.2428 36.3571ZM17.9867 31.665C18.2307 31.3653 18.6519 31.123 19.1792 31.1507C19.8623 31.1865 20.1758 31.6235 20.1331 32.4384L20.0465 34.0921C20.0025 34.9309 19.6216 35.3195 18.9266 35.2831C18.3873 35.2548 18.0404 34.9963 17.8297 34.6608L17.9867 31.665ZM27.5825 33.8141L27.6378 32.7596C27.7037 31.5013 26.9536 30.4526 25.4796 30.3753C23.9457 30.295 23.0913 31.2355 23.0272 32.4578L22.9293 34.3273C22.8621 35.6095 23.6513 36.6002 25.1732 36.6799C26.3835 36.7434 27.1176 36.2651 27.5197 35.2408L26.5799 34.831C26.2943 35.465 25.9336 35.6984 25.3584 35.6683C24.6034 35.6287 24.2306 35.1766 24.2739 34.3497L24.311 33.6427L27.5825 33.8141ZM24.3732 32.4563C24.4108 31.7373 24.7564 31.3348 25.4754 31.3725C26.1345 31.407 26.4972 31.8226 26.4595 32.5416L26.4376 32.961L24.3524 32.8517L24.3732 32.4563ZM34.0183 36.1942C33.6947 36.1772 33.5238 36.0001 33.3546 35.5586L32.9205 34.4423C32.8043 34.1358 32.6371 33.8868 32.3432 33.7632L32.3445 33.7392C32.5797 33.6074 32.748 33.3759 32.8956 33.0832L33.2959 32.3231C33.4554 32.031 33.6363 31.7882 34.0198 31.8083L34.2355 31.8196L34.2814 30.9448C34.1514 30.9019 33.961 30.8679 33.7812 30.8585C32.9064 30.8126 32.5243 31.2252 32.2444 31.7513L31.8169 32.57C31.5496 33.0847 31.3579 33.303 31.0584 33.2873L30.6749 33.2672L30.8061 30.7626L29.464 30.6923L29.1449 36.7799L30.4871 36.8503L30.6265 34.1899L31.0939 34.2144C31.3575 34.2282 31.5058 34.3802 31.6124 34.6382L32.1116 35.89C32.3981 36.614 32.7375 37.0163 33.5524 37.059C33.804 37.0722 33.9617 37.0444 34.132 37.0053L34.1741 36.2024L34.0183 36.1942ZM40.4422 33.3825C40.5081 32.1243 39.7435 31.1229 38.1137 31.0375C36.5079 30.9533 35.6295 31.8926 35.5649 33.1269L35.4656 35.0203C35.4009 36.2546 36.1776 37.2567 37.7834 37.3408C39.3892 37.425 40.2783 36.5103 40.3429 35.2759L40.4422 33.3825ZM36.9045 33.2452C36.946 32.4543 37.3054 32.0165 38.0603 32.0561C38.8273 32.0963 39.1389 32.5692 39.0975 33.3601L39.0039 35.1457C38.9618 35.9486 38.6031 36.3744 37.8361 36.3342C37.1051 36.2959 36.7689 35.8337 36.8109 35.0308L36.9045 33.2452ZM47.2192 31.6228L45.2452 34.896L45.2212 34.8947L43.6002 31.4332L42.3299 31.3666L42.0109 37.4542L43.2452 37.5189L43.4449 33.7081L43.4689 33.7094L44.8577 36.558L45.4329 36.5881L47.1112 33.9123L47.1352 33.9136L46.9361 37.7123L48.1704 37.777L48.4895 31.6894L47.2192 31.6228ZM54.707 35.2356L54.7622 34.1811C54.8282 32.9228 54.078 31.8741 52.6041 31.7969C51.0702 31.7165 50.2158 32.6571 50.1517 33.8794L50.0537 35.7488C49.9865 37.0311 50.7758 38.0217 52.2977 38.1015C53.508 38.1649 54.2421 37.6867 54.6442 36.6623L53.7044 36.2526C53.4188 36.8865 53.0581 37.1199 52.4829 37.0898C51.7279 37.0502 51.3551 36.5981 51.3984 35.7712L51.4355 35.0642L54.707 35.2356ZM51.4976 33.8778C51.5353 33.1588 51.8809 32.7563 52.5999 32.794C53.259 32.8286 53.6217 33.2441 53.584 33.9631L53.5621 34.3826L51.4769 34.2733L51.4976 33.8778ZM57.6116 38.2718L57.7479 35.6714L59.9528 35.7869L59.8166 38.3874L61.1587 38.4577L61.4778 32.3701L60.1356 32.2997L60.0075 34.7444L57.8025 34.6288L57.9306 32.1842L56.5885 32.1138L56.2694 38.2015L57.6116 38.2718ZM64.2989 32.5179L63.9046 35.225C63.7913 36.0121 63.5701 36.7936 63.2921 37.5121L62.5371 37.4725L62.3877 40.3246L63.6579 40.3912L63.7521 38.5936L67.515 38.7908L67.4208 40.5884L68.691 40.6549L68.8405 37.8029L68.0136 37.7595L68.2774 32.7264L64.2989 32.5179ZM66.892 33.7113L66.6803 37.7497L64.4993 37.6354C64.776 36.941 64.9859 36.1469 65.0999 35.3477L65.3341 33.6296L66.892 33.7113ZM75.7205 33.1165L74.3304 33.0437L72.7899 37.4451L72.766 37.4438L71.4663 32.8936L69.9684 32.8151L72.0574 38.8126L71.8065 39.4724C71.5424 40.1555 71.1218 40.3858 70.411 40.4206L70.4534 41.4443C71.7142 41.4623 72.4382 40.9475 72.9607 39.6891L75.7205 33.1165ZM81.3985 36.6345L81.4537 35.5799C81.5197 34.3217 80.7695 33.273 79.2956 33.1957C77.7617 33.1153 76.9073 34.0559 76.8432 35.2782L76.7452 37.1477C76.678 38.4299 77.4673 39.4206 78.9892 39.5003C80.1995 39.5638 80.9336 39.0855 81.3357 38.0612L80.3959 37.6514C80.1103 38.2853 79.7496 38.5188 79.1744 38.4886C78.4194 38.4491 78.0466 37.9969 78.0899 37.1701L78.127 36.463L81.3985 36.6345ZM78.1891 35.2767C78.2268 34.5577 78.5724 34.1552 79.2914 34.1929C79.9505 34.2274 80.3132 34.643 80.2755 35.362L80.2536 35.7814L78.1684 35.6721L78.1891 35.2767ZM85.5494 39.736L85.8113 34.7388L87.5489 34.8299L87.606 33.7394L82.7886 33.4869L82.7315 34.5774L84.4811 34.6691L84.2192 39.6663L85.5494 39.736Z" fill="#72BF44"/>
</svg>
