<svg width="10" height="10" viewBox="0 0 10 10" fill="none" xmlns="http://www.w3.org/2000/svg">
    <path d="M0 3.75V8.75C0 9.09515 0.279808 9.375 0.625 9.375H2.5V3.125H0.625C0.279808 3.125 0 3.40481 0 3.75Z" fill="white"/>
    <path d="M8.84583 3.74971H6.99951C6.83808 3.74971 6.7572 3.64199 6.73004 3.5956C6.70288 3.54952 6.64795 3.42653 6.72608 3.28554L7.37701 2.11336C7.51984 1.85671 7.53449 1.55489 7.4176 1.28541C7.30072 1.01564 7.07001 0.820022 6.78467 0.748916L6.32568 0.63417C6.21399 0.606094 6.09558 0.641799 6.01776 0.728164L3.5257 3.49672C3.26721 3.7845 3.125 4.1556 3.125 4.54195V7.81221C3.125 8.67372 3.82599 9.37471 4.6875 9.37471L7.79633 9.3744C8.49823 9.3744 9.11804 8.90169 9.30328 8.22511L9.97039 5.16358C9.98993 5.07844 10 4.99116 10 4.90388C10 4.26759 9.48211 3.7497 8.84582 3.7497L8.84583 3.74971Z" fill="white"/>
</svg>
