<svg width="34" height="34" viewBox="0 0 34 34" fill="none" xmlns="http://www.w3.org/2000/svg">
    <g opacity="0.2">
        <g clip-path="url(#clip0)">
            <path d="M28.0294 4.97365C21.3979 -1.65789 10.6076 -1.65789 3.97604 4.97365C3.39864 5.55106 3.39864 6.48706 3.97604 7.06433C4.55331 7.6416 5.48938 7.64173 6.06672 7.06433C11.5454 1.5856 20.46 1.5856 25.9387 7.06433C31.4174 12.5431 31.4174 21.4576 25.9388 26.9364C20.7237 32.1513 12.3959 32.4021 6.88132 27.6892L7.48828 27.0823C8.09045 26.4802 7.81526 25.448 6.99123 25.2273L2.39292 23.9952C1.57027 23.775 0.814104 24.529 1.03497 25.3531L2.26708 29.9515C2.48834 30.7773 3.52056 31.0501 4.12207 30.4485L4.78607 29.7845C11.459 35.6471 21.6615 35.3949 28.0296 29.027C34.661 22.3956 34.661 11.6053 28.0294 4.97365Z" fill="black"/>
            <path d="M20.2443 16.668H16.6199V10.4926C16.6199 9.88024 16.1235 9.38379 15.5111 9.38379C14.8988 9.38379 14.4023 9.88024 14.4023 10.4926V17.7768C14.4023 18.3892 14.8988 18.8856 15.5111 18.8856H20.2443C20.8566 18.8856 21.3531 18.3892 21.3531 17.7768C21.3531 17.1645 20.8566 16.668 20.2443 16.668Z" fill="black"/>
        </g>
    </g>
    <defs>
        <clipPath id="clip0">
            <rect width="34" height="34" fill="white"/>
        </clipPath>
    </defs>
</svg>
